<svg width="393" height="129" viewBox="0 0 393 129" fill="none" xmlns="http://www.w3.org/2000/svg">
<path d="M34.5 80.6L48 87.9C45.7 91.0333 42.8167 93.55 39.35 95.45C35.8833 97.35 32.1 98.3 28 98.3C23.4 98.3 19.2 97.1167 15.4 94.75C11.6333 92.3833 8.61667 89.2167 6.35 85.25C4.11667 81.25 3 76.8333 3 72C3 68.3333 3.65 64.9167 4.95 61.75C6.25 58.55 8.03333 55.75 10.3 53.35C12.6 50.9167 15.2667 49.0167 18.3 47.65C21.3333 46.2833 24.5667 45.6 28 45.6C32.1 45.6 35.8833 46.55 39.35 48.45C42.8167 50.35 45.7 52.9 48 56.1L34.5 63.4C33.6 62.5 32.5833 61.8167 31.45 61.35C30.35 60.85 29.2 60.6 28 60.6C26.1 60.6 24.4 61.1333 22.9 62.2C21.4 63.2667 20.2 64.6667 19.3 66.4C18.4333 68.1333 18 70 18 72C18 73.9667 18.4333 75.8167 19.3 77.55C20.2 79.25 21.4 80.6333 22.9 81.7C24.4 82.7667 26.1 83.3 28 83.3C29.2 83.3 30.35 83.0667 31.45 82.6C32.5833 82.1 33.6 81.4333 34.5 80.6Z" fill="white"/>
<path d="M85.9 47H100.9V97H85.85L85.15 92.5C83.9167 94.2333 82.35 95.6333 80.45 96.7C78.5833 97.7667 76.4 98.3 73.9 98.3C70.1667 98.3 66.6667 97.6 63.4 96.2C60.1667 94.8 57.3167 92.8667 54.85 90.4C52.3833 87.9 50.45 85.0333 49.05 81.8C47.6833 78.5333 47 75.0333 47 71.3C47 67.7333 47.65 64.4 48.95 61.3C50.25 58.2 52.0667 55.4833 54.4 53.15C56.7667 50.7833 59.4833 48.9333 62.55 47.6C65.65 46.2667 68.9667 45.6 72.5 45.6C75.3667 45.6 77.9667 46.2 80.3 47.4C82.6667 48.5667 84.7667 50.0333 86.6 51.8L85.9 47ZM73.5 83.9C75.5667 83.9 77.45 83.3667 79.15 82.3C80.85 81.2333 82.2 79.8 83.2 78C84.2 76.2 84.7 74.2 84.7 72C84.7 69.8 84.2 67.8 83.2 66C82.2 64.2 80.85 62.7667 79.15 61.7C77.45 60.6333 75.5667 60.1 73.5 60.1C71.4333 60.1 69.55 60.6333 67.85 61.7C66.1833 62.7667 64.85 64.2 63.85 66C62.8833 67.8 62.4 69.8 62.4 72C62.4 74.2 62.9 76.2 63.9 78C64.9 79.8 66.2333 81.2333 67.9 82.3C69.6 83.3667 71.4667 83.9 73.5 83.9Z" fill="white"/>
<path d="M121.4 97.9C118.867 97.6667 116.433 97.1167 114.1 96.25C111.767 95.3833 109.683 94.2 107.85 92.7C106.017 91.2 104.567 89.3667 103.5 87.2L116.1 81.8C116.433 82.1667 116.9 82.6333 117.5 83.2C118.1 83.7333 118.85 84.2167 119.75 84.65C120.683 85.0833 121.8 85.3 123.1 85.3C123.967 85.3 124.8 85.2167 125.6 85.05C126.433 84.85 127.1 84.5167 127.6 84.05C128.133 83.5833 128.4 82.9333 128.4 82.1C128.4 81.1667 128.05 80.4667 127.35 80C126.683 79.5 125.867 79.15 124.9 78.95C123.933 78.7167 123.033 78.5333 122.2 78.4C119.233 77.9333 116.383 77 113.65 75.6C110.95 74.1667 108.733 72.3167 107 70.05C105.267 67.75 104.4 65.0667 104.4 62C104.4 58.5667 105.283 55.6 107.05 53.1C108.817 50.6 111.117 48.6833 113.95 47.35C116.817 45.9833 119.9 45.3 123.2 45.3C127.1 45.3 130.7 46.1 134 47.7C137.333 49.3 140.067 51.6 142.2 54.6L130.4 61.6C130 61.1 129.5 60.6 128.9 60.1C128.333 59.5667 127.667 59.1167 126.9 58.75C126.167 58.35 125.367 58.1 124.5 58C123.333 57.9 122.283 57.95 121.35 58.15C120.45 58.3167 119.733 58.6833 119.2 59.25C118.667 59.7833 118.4 60.5667 118.4 61.6C118.4 62.5667 118.867 63.2667 119.8 63.7C120.733 64.1333 121.783 64.45 122.95 64.65C124.117 64.85 125.067 65.0667 125.8 65.3C128.667 66.2333 131.367 67.45 133.9 68.95C136.433 70.45 138.467 72.2667 140 74.4C141.567 76.5333 142.3 79.0333 142.2 81.9C142.2 85.2333 141.2 88.1667 139.2 90.7C137.2 93.2333 134.617 95.15 131.45 96.45C128.283 97.75 124.933 98.2333 121.4 97.9Z" fill="white"/>
<circle cx="69" cy="65" r="4" fill="white"/>
<circle cx="25" cy="64" r="4" fill="white"/>
<path d="M177.5 60H169V95H154V60H147.5V45H154V29.3H169V45H177.5V60Z" fill="white"/>
<path d="M132 45H162.5V60H148.154C148.154 60 148.513 58.5 143.846 52C140.077 46.75 132 45 132 45Z" fill="white"/>
<path d="M190.313 45H163V60H177.5C177.5 60 176.987 58.5 181.654 52C185.423 46.75 190.313 45 190.313 45Z" fill="white"/>
<path d="M225.05 95L225 45H240L240.05 48.15C241.717 46.7167 243.617 45.6 245.75 44.8C247.883 44 250.133 43.6 252.5 43.6C254.3 43.6 256.133 43.8667 258 44.4L252.1 59.6C250.933 59.0667 249.733 58.8 248.5 58.8C246.933 58.8 245.5 59.1833 244.2 59.95C242.933 60.6833 241.917 61.7 241.15 63C240.417 64.2667 240.05 65.6833 240.05 67.25V95H225.05Z" fill="white"/>
<path d="M209.5 78.6L223 85.9C220.7 89.0333 217.817 91.55 214.35 93.45C210.883 95.35 207.1 96.3 203 96.3C198.4 96.3 194.2 95.1167 190.4 92.75C186.633 90.3833 183.617 87.2167 181.35 83.25C179.117 79.25 178 74.8333 178 70C178 66.3333 178.65 62.9167 179.95 59.75C181.25 56.55 183.033 53.75 185.3 51.35C187.6 48.9167 190.267 47.0167 193.3 45.65C196.333 44.2833 199.567 43.6 203 43.6C207.1 43.6 210.883 44.55 214.35 46.45C217.817 48.35 220.7 50.9 223 54.1L209.5 61.4C208.6 60.5 207.583 59.8167 206.45 59.35C205.35 58.85 204.2 58.6 203 58.6C201.1 58.6 199.4 59.1333 197.9 60.2C196.4 61.2667 195.2 62.6667 194.3 64.4C193.433 66.1333 193 68 193 70C193 71.9667 193.433 73.8167 194.3 75.55C195.2 77.25 196.4 78.6333 197.9 79.7C199.4 80.7667 201.1 81.3 203 81.3C204.2 81.3 205.35 81.0667 206.45 80.6C207.583 80.1 208.6 79.4333 209.5 78.6Z" fill="white"/>
<path d="M279 96.3C274.4 96.3 270.2 95.1167 266.4 92.75C262.633 90.3833 259.617 87.2 257.35 83.2C255.117 79.2 254 74.7833 254 69.95C254 66.3167 254.65 62.9167 255.95 59.75C257.25 56.55 259.033 53.75 261.3 51.35C263.6 48.9167 266.267 47.0167 269.3 45.65C272.333 44.2833 275.567 43.6 279 43.6C283 43.6 286.65 44.4833 289.95 46.25C293.283 47.9833 296.083 50.35 298.35 53.35C300.65 56.3167 302.283 59.6667 303.25 63.4C304.217 67.1333 304.317 70.9833 303.55 74.95H270.2C270.667 76.1167 271.283 77.1833 272.05 78.15C272.85 79.0833 273.817 79.8333 274.95 80.4C276.117 80.9667 277.467 81.2667 279 81.3C280.467 81.3333 281.817 81.0167 283.05 80.35C284.317 79.6833 285.417 78.7833 286.35 77.65L301.65 81.2C299.617 85.6333 296.583 89.2667 292.55 92.1C288.517 94.9 284 96.3 279 96.3ZM269.65 63.95H288.4C287.933 62.5167 287.233 61.25 286.3 60.15C285.367 59.05 284.267 58.1833 283 57.55C281.767 56.9167 280.433 56.6 279 56.6C277.6 56.6 276.267 56.9167 275 57.55C273.767 58.1833 272.683 59.05 271.75 60.15C270.85 61.25 270.15 62.5167 269.65 63.95Z" fill="white"/>
<path d="M378.915 47.175H377.135V46.4H381.555V47.175H379.775V53H378.915V47.175ZM387.966 46.4V53H387.116V48.235L387.161 47.505L386.981 48.31L385.391 52.625H384.546L382.956 48.31L382.781 47.505L382.821 48.235V53H381.966V46.4H383.106L384.906 51.58L384.966 51.915L385.031 51.58L386.836 46.4H387.966Z" fill="white"/>
<circle cx="364.5" cy="90.5" r="7.5" fill="white"/>
<path d="M330.5 46C330.5 46 330.5 56 326.306 70.1667C322.113 84.3333 304 90.5 304 90.5" stroke="#081032" stroke-width="15"/>
<path d="M175.011 103.007C175.011 103.007 182.835 109.077 196.921 113.34C211.006 117.602 227.114 105.046 227.114 105.046" stroke="#081032" stroke-width="15"/>
<path d="M357 46C357 46 357 56 352.806 70.1667C348.613 84.3333 331 91 331 91" stroke="#081032" stroke-width="15"/>
<line x1="210.414" y1="87.0654" x2="232.414" y2="70.0654" stroke="white" stroke-width="15"/>
<line x1="37.3148" y1="88.1435" x2="57.3148" y2="72.1435" stroke="white" stroke-width="15"/>
<path d="M23 38.2891L45.0658 31.0023L52.5916 53.7919C52.5916 53.7919 46.2403 44.3513 39.7594 41.1796C33.7353 38.2313 23 38.2891 23 38.2891Z" fill="#081032"/>
</svg>
