<svg width="183" height="278" viewBox="0 0 183 278" fill="none" xmlns="http://www.w3.org/2000/svg">
<path d="M30.7664 214.418C30.7664 214.418 65.6071 239.047 90.6689 240C115.731 240.953 157.142 214.436 157.142 214.436" stroke="#2A6DFA" stroke-width="25"/>
<path d="M106 70.1328L158.128 46.9972L182.023 100.835C182.023 100.835 164.227 79.3153 147.631 73.1371C132.205 67.3942 106 70.1328 106 70.1328Z" fill="#2A6DFA"/>
<path d="M69 157.2L96 171.8C91.4 178.067 85.6333 183.1 78.7 186.9C71.7667 190.7 64.2 192.6 56 192.6C46.8 192.6 38.4 190.233 30.8 185.5C23.2667 180.767 17.2333 174.433 12.7 166.5C8.23333 158.5 6 149.667 6 140C6 132.667 7.3 125.833 9.9 119.5C12.5 113.1 16.0667 107.5 20.6 102.7C25.2 97.8333 30.5333 94.0333 36.6 91.3C42.6667 88.5667 49.1333 87.2 56 87.2C64.2 87.2 71.7667 89.1 78.7 92.9C85.6333 96.7 91.4 101.8 96 108.2L69 122.8C67.2 121 65.1667 119.633 62.9 118.7C60.7 117.7 58.4 117.2 56 117.2C52.2 117.2 48.8 118.267 45.8 120.4C42.8 122.533 40.4 125.333 38.6 128.8C36.8667 132.267 36 136 36 140C36 143.933 36.8667 147.633 38.6 151.1C40.4 154.5 42.8 157.267 45.8 159.4C48.8 161.533 52.2 162.6 56 162.6C58.4 162.6 60.7 162.133 62.9 161.2C65.1667 160.2 67.2 158.867 69 157.2Z" fill="#2A6DFA"/>
<path d="M92.5 98.5006C92.5 98.5006 104 85.5006 127.5 85.0006C151 84.5006 166.5 106.501 166.5 106.501L139 120.501C139 120.501 134 115.121 124.5 115.501C115 115.881 109 124.001 109 124.001C109 124.001 107.857 120.001 103 111.501C98.1428 103.001 92.5 98.5006 92.5 98.5006Z" fill="#071957"/>
<path d="M166 169.496C166 169.496 154.262 188.973 128.5 190.496C102.738 192.02 95 179.496 95 179.496C95 179.496 98.9149 175.496 103.5 167.496C108.085 159.496 109.5 153.496 109.5 153.496C109.5 153.496 115 160.496 125 160.496C135 160.496 138.738 155.02 138.738 155.02C138.738 155.02 144.301 158.32 151.238 162.02C158.738 166.02 166 169.496 166 169.496Z" fill="#071957"/>
<path d="M52.7471 145.861C58.7605 155.663 64.2236 151.139 59.5159 154.027C54.8081 156.914 48.5337 155.248 45.5016 150.305C42.4695 145.362 43.8278 139.014 48.5356 136.126C53.2433 133.238 46.7339 136.058 52.7471 145.861Z" fill="#071957"/>
<path d="M121.747 143.861C127.761 153.663 133.224 149.139 128.516 152.027C123.808 154.914 117.534 153.248 114.502 148.305C111.469 143.362 112.828 137.014 117.536 134.126C122.243 131.238 115.734 134.058 121.747 143.861Z" fill="#2A6DFA"/>
</svg>
