<svg xmlns="http://www.w3.org/2000/svg" xmlns:xlink="http://www.w3.org/1999/xlink" width="1920" zoomAndPan="magnify" viewBox="0 0 1440 959.999988" height="1280" preserveAspectRatio="xMidYMid meet" version="1.0"><defs><g/><clipPath id="819acbea7e"><path d="M 77.527344 682.515625 L 86.332031 682.515625 L 86.332031 691.550781 L 77.527344 691.550781 Z M 77.527344 682.515625 " clip-rule="nonzero"/></clipPath><clipPath id="04e452df06"><path d="M 86.328125 685.691406 C 86.101562 688.839844 84.828125 690.566406 83.851562 691.089844 C 83.179688 691.464844 82.503906 691.617188 81.753906 691.464844 C 80.703125 691.316406 78.828125 690.191406 78.152344 689.292969 C 77.703125 688.691406 77.476562 688.015625 77.554688 687.265625 C 77.628906 686.214844 78.453125 684.191406 79.277344 683.441406 C 79.804688 682.917969 80.476562 682.617188 81.226562 682.542969 C 82.277344 682.464844 85.203125 683.816406 85.203125 683.816406 " clip-rule="nonzero"/></clipPath><clipPath id="b63ccf1ed9"><path d="M 0.527344 0.515625 L 9.332031 0.515625 L 9.332031 9.550781 L 0.527344 9.550781 Z M 0.527344 0.515625 " clip-rule="nonzero"/></clipPath><clipPath id="3879587cf5"><path d="M 9.328125 3.691406 C 9.101562 6.839844 7.828125 8.566406 6.851562 9.089844 C 6.179688 9.464844 5.503906 9.617188 4.753906 9.464844 C 3.703125 9.316406 1.828125 8.191406 1.152344 7.292969 C 0.703125 6.691406 0.476562 6.015625 0.554688 5.265625 C 0.628906 4.214844 1.453125 2.191406 2.277344 1.441406 C 2.804688 0.917969 3.476562 0.617188 4.226562 0.542969 C 5.277344 0.464844 8.203125 1.816406 8.203125 1.816406 " clip-rule="nonzero"/></clipPath><clipPath id="432aba44c6"><rect x="0" width="10" y="0" height="10"/></clipPath><clipPath id="31950be48b"><path d="M 77.496094 682.410156 L 87.742188 682.410156 L 87.742188 691.597656 L 77.496094 691.597656 Z M 77.496094 682.410156 " clip-rule="nonzero"/></clipPath><clipPath id="2178fa2d5d"><path d="M 82.054688 682.464844 C 85.429688 682.992188 86.402344 683.589844 86.851562 684.417969 C 87.453125 685.464844 87.828125 687.492188 87.304688 688.691406 C 86.851562 689.816406 85.351562 691.167969 84.078125 691.464844 C 82.878906 691.691406 80.929688 691.167969 80.027344 690.265625 C 79.054688 689.441406 78.453125 687.492188 78.601562 686.292969 C 78.828125 685.015625 80.101562 683.367188 81.226562 682.839844 C 82.351562 682.316406 84.378906 682.464844 85.429688 683.140625 C 86.554688 683.742188 87.527344 685.617188 87.679688 686.742188 C 87.753906 687.714844 87.453125 688.765625 86.851562 689.515625 C 86.101562 690.492188 84.453125 691.390625 83.101562 691.542969 C 81.828125 691.691406 79.953125 691.167969 79.054688 690.339844 C 78.226562 689.742188 77.703125 688.542969 77.554688 687.566406 C 77.402344 686.515625 77.703125 685.242188 78.304688 684.417969 C 79.054688 683.515625 82.054688 682.464844 82.054688 682.464844 " clip-rule="nonzero"/></clipPath><clipPath id="4259064bae"><path d="M 0.496094 0.410156 L 10.742188 0.410156 L 10.742188 9.597656 L 0.496094 9.597656 Z M 0.496094 0.410156 " clip-rule="nonzero"/></clipPath><clipPath id="2b60427510"><path d="M 5.054688 0.464844 C 8.429688 0.992188 9.402344 1.589844 9.851562 2.417969 C 10.453125 3.464844 10.828125 5.492188 10.304688 6.691406 C 9.851562 7.816406 8.351562 9.167969 7.078125 9.464844 C 5.878906 9.691406 3.929688 9.167969 3.027344 8.265625 C 2.054688 7.441406 1.453125 5.492188 1.601562 4.292969 C 1.828125 3.015625 3.101562 1.367188 4.226562 0.839844 C 5.351562 0.316406 7.378906 0.464844 8.429688 1.140625 C 9.554688 1.742188 10.527344 3.617188 10.679688 4.742188 C 10.753906 5.714844 10.453125 6.765625 9.851562 7.515625 C 9.101562 8.492188 7.453125 9.390625 6.101562 9.542969 C 4.828125 9.691406 2.953125 9.167969 2.054688 8.339844 C 1.226562 7.742188 0.703125 6.542969 0.554688 5.566406 C 0.402344 4.515625 0.703125 3.242188 1.304688 2.417969 C 2.054688 1.515625 5.054688 0.464844 5.054688 0.464844 " clip-rule="nonzero"/></clipPath><clipPath id="2e1054aa4c"><rect x="0" width="11" y="0" height="10"/></clipPath><clipPath id="6782591271"><path d="M 77.902344 682.289062 L 86.707031 682.289062 L 86.707031 691.328125 L 77.902344 691.328125 Z M 77.902344 682.289062 " clip-rule="nonzero"/></clipPath><clipPath id="583a06076d"><path d="M 86.703125 685.390625 C 86.476562 688.617188 85.203125 690.265625 84.226562 690.867188 C 83.554688 691.242188 82.878906 691.390625 82.128906 691.242188 C 81.078125 691.015625 79.203125 689.964844 78.527344 689.066406 C 78.078125 688.464844 77.851562 687.792969 77.929688 687.042969 C 78.003906 685.917969 78.828125 683.964844 79.652344 683.214844 C 80.179688 682.691406 80.777344 682.390625 81.601562 682.316406 C 82.652344 682.242188 85.578125 683.589844 85.578125 683.589844 " clip-rule="nonzero"/></clipPath><clipPath id="07098a3b91"><path d="M 0.902344 0.289062 L 9.707031 0.289062 L 9.707031 9.328125 L 0.902344 9.328125 Z M 0.902344 0.289062 " clip-rule="nonzero"/></clipPath><clipPath id="dce69a15b9"><path d="M 9.703125 3.390625 C 9.476562 6.617188 8.203125 8.265625 7.226562 8.867188 C 6.554688 9.242188 5.878906 9.390625 5.128906 9.242188 C 4.078125 9.015625 2.203125 7.964844 1.527344 7.066406 C 1.078125 6.464844 0.851562 5.792969 0.929688 5.042969 C 1.003906 3.917969 1.828125 1.964844 2.652344 1.214844 C 3.179688 0.691406 3.777344 0.390625 4.601562 0.316406 C 5.652344 0.242188 8.578125 1.589844 8.578125 1.589844 " clip-rule="nonzero"/></clipPath><clipPath id="c11e1a8b66"><rect x="0" width="10" y="0" height="10"/></clipPath><clipPath id="016586e671"><path d="M 79.117188 681.554688 L 89.457031 681.554688 L 89.457031 690.820312 L 79.117188 690.820312 Z M 79.117188 681.554688 " clip-rule="nonzero"/></clipPath><clipPath id="ddf30397c3"><path d="M 84.753906 681.566406 C 88.203125 683.066406 89.027344 683.890625 89.253906 684.792969 C 89.554688 685.917969 89.328125 688.015625 88.578125 688.992188 C 87.828125 690.042969 85.953125 690.867188 84.679688 690.792969 C 83.476562 690.714844 81.679688 689.742188 81.003906 688.617188 C 80.402344 687.566406 80.253906 685.542969 80.777344 684.417969 C 81.304688 683.214844 82.953125 682.015625 84.152344 681.792969 C 85.429688 681.566406 87.378906 682.242188 88.203125 683.140625 C 89.101562 684.042969 89.554688 686.066406 89.402344 687.265625 C 89.253906 688.167969 88.652344 689.140625 87.902344 689.742188 C 86.929688 690.417969 84.976562 690.792969 83.703125 690.640625 C 82.578125 690.566406 81.304688 690.042969 80.554688 689.214844 C 79.726562 688.316406 79.054688 686.441406 79.128906 685.242188 C 79.203125 684.191406 79.878906 683.066406 80.703125 682.464844 C 81.679688 681.714844 84.753906 681.566406 84.753906 681.566406 " clip-rule="nonzero"/></clipPath><clipPath id="375dee6bf1"><path d="M 0.117188 0.554688 L 10.457031 0.554688 L 10.457031 9.820312 L 0.117188 9.820312 Z M 0.117188 0.554688 " clip-rule="nonzero"/></clipPath><clipPath id="407faa40b7"><path d="M 5.753906 0.566406 C 9.203125 2.066406 10.027344 2.890625 10.253906 3.792969 C 10.554688 4.917969 10.328125 7.015625 9.578125 7.992188 C 8.828125 9.042969 6.953125 9.867188 5.679688 9.792969 C 4.476562 9.714844 2.679688 8.742188 2.003906 7.617188 C 1.402344 6.566406 1.253906 4.542969 1.777344 3.417969 C 2.304688 2.214844 3.953125 1.015625 5.152344 0.792969 C 6.429688 0.566406 8.378906 1.242188 9.203125 2.140625 C 10.101562 3.042969 10.554688 5.066406 10.402344 6.265625 C 10.253906 7.167969 9.652344 8.140625 8.902344 8.742188 C 7.929688 9.417969 5.976562 9.792969 4.703125 9.640625 C 3.578125 9.566406 2.304688 9.042969 1.554688 8.214844 C 0.726562 7.316406 0.0546875 5.441406 0.128906 4.242188 C 0.203125 3.191406 0.878906 2.066406 1.703125 1.464844 C 2.679688 0.714844 5.753906 0.566406 5.753906 0.566406 " clip-rule="nonzero"/></clipPath><clipPath id="15383bb0db"><rect x="0" width="11" y="0" height="10"/></clipPath><clipPath id="a16d321115"><path d="M 76.925781 681.464844 L 85.730469 681.464844 L 85.730469 690.5 L 76.925781 690.5 Z M 76.925781 681.464844 " clip-rule="nonzero"/></clipPath><clipPath id="f41c504e06"><path d="M 85.726562 684.566406 C 85.503906 687.792969 84.226562 689.441406 83.253906 690.042969 C 82.578125 690.417969 81.902344 690.566406 81.152344 690.417969 C 80.101562 690.191406 78.226562 689.066406 77.554688 688.242188 C 77.101562 687.640625 76.878906 686.964844 76.953125 686.214844 C 77.027344 685.089844 77.851562 683.140625 78.679688 682.390625 C 79.203125 681.792969 79.804688 681.566406 80.628906 681.492188 C 81.679688 681.417969 84.601562 682.765625 84.601562 682.765625 " clip-rule="nonzero"/></clipPath><clipPath id="4036405f53"><path d="M 0.925781 0.464844 L 9.730469 0.464844 L 9.730469 9.5 L 0.925781 9.5 Z M 0.925781 0.464844 " clip-rule="nonzero"/></clipPath><clipPath id="e2ce451279"><path d="M 9.726562 3.566406 C 9.503906 6.792969 8.226562 8.441406 7.253906 9.042969 C 6.578125 9.417969 5.902344 9.566406 5.152344 9.417969 C 4.101562 9.191406 2.226562 8.066406 1.554688 7.242188 C 1.101562 6.640625 0.878906 5.964844 0.953125 5.214844 C 1.027344 4.089844 1.851562 2.140625 2.679688 1.390625 C 3.203125 0.792969 3.804688 0.566406 4.628906 0.492188 C 5.679688 0.417969 8.601562 1.765625 8.601562 1.765625 " clip-rule="nonzero"/></clipPath><clipPath id="88b9274a7d"><rect x="0" width="10" y="0" height="10"/></clipPath><clipPath id="df66288ca0"><path d="M 77.75 682.664062 L 86.554688 682.664062 L 86.554688 691.703125 L 77.75 691.703125 Z M 77.75 682.664062 " clip-rule="nonzero"/></clipPath><clipPath id="80be19c135"><path d="M 86.554688 685.765625 C 86.402344 688.992188 85.054688 690.640625 84.152344 691.242188 C 83.476562 691.617188 82.804688 691.765625 81.976562 691.617188 C 80.929688 691.390625 79.128906 690.265625 78.453125 689.441406 C 77.929688 688.839844 77.703125 688.167969 77.777344 687.417969 C 77.851562 686.292969 78.753906 684.339844 79.503906 683.589844 C 80.027344 682.992188 80.703125 682.765625 81.453125 682.691406 C 82.578125 682.617188 85.429688 683.964844 85.429688 683.964844 " clip-rule="nonzero"/></clipPath><clipPath id="753588165c"><path d="M 0.75 0.664062 L 9.554688 0.664062 L 9.554688 9.703125 L 0.75 9.703125 Z M 0.75 0.664062 " clip-rule="nonzero"/></clipPath><clipPath id="65c42fd6d0"><path d="M 9.554688 3.765625 C 9.402344 6.992188 8.054688 8.640625 7.152344 9.242188 C 6.476562 9.617188 5.804688 9.765625 4.976562 9.617188 C 3.929688 9.390625 2.128906 8.265625 1.453125 7.441406 C 0.929688 6.839844 0.703125 6.167969 0.777344 5.417969 C 0.851562 4.292969 1.753906 2.339844 2.503906 1.589844 C 3.027344 0.992188 3.703125 0.765625 4.453125 0.691406 C 5.578125 0.617188 8.429688 1.964844 8.429688 1.964844 " clip-rule="nonzero"/></clipPath><clipPath id="a127af1951"><rect x="0" width="10" y="0" height="10"/></clipPath><clipPath id="5ccb0f59b7"><path d="M 91.484375 686.65625 L 94.289062 686.65625 L 94.289062 689.09375 L 91.484375 689.09375 Z M 91.484375 686.65625 " clip-rule="nonzero"/></clipPath><clipPath id="7aab8c7f9a"><path d="M 94.277344 687.492188 C 93.078125 689.515625 91.878906 689.140625 91.578125 688.765625 C 91.351562 688.316406 91.578125 687.117188 91.953125 686.816406 C 92.328125 686.441406 93.976562 686.890625 93.976562 686.890625 " clip-rule="nonzero"/></clipPath><clipPath id="307d68bd23"><path d="M 0.484375 0.65625 L 3.289062 0.65625 L 3.289062 3.09375 L 0.484375 3.09375 Z M 0.484375 0.65625 " clip-rule="nonzero"/></clipPath><clipPath id="02338e96c6"><path d="M 3.277344 1.492188 C 2.078125 3.515625 0.878906 3.140625 0.578125 2.765625 C 0.351562 2.316406 0.578125 1.117188 0.953125 0.816406 C 1.328125 0.441406 2.976562 0.890625 2.976562 0.890625 " clip-rule="nonzero"/></clipPath><clipPath id="2f9fc19ca3"><rect x="0" width="4" y="0" height="4"/></clipPath><clipPath id="99a77c7c62"><path d="M 81.359375 681.964844 L 84.164062 681.964844 L 84.164062 684.402344 L 81.359375 684.402344 Z M 81.359375 681.964844 " clip-rule="nonzero"/></clipPath><clipPath id="765a410806"><path d="M 84.152344 682.839844 C 82.953125 684.867188 81.753906 684.492188 81.453125 684.042969 C 81.226562 683.589844 81.453125 682.390625 81.828125 682.089844 C 82.203125 681.792969 83.851562 682.167969 83.851562 682.167969 " clip-rule="nonzero"/></clipPath><clipPath id="9f359d1aa6"><path d="M 0.359375 0.964844 L 3.164062 0.964844 L 3.164062 3.402344 L 0.359375 3.402344 Z M 0.359375 0.964844 " clip-rule="nonzero"/></clipPath><clipPath id="88fc1e113e"><path d="M 3.152344 1.839844 C 1.953125 3.867188 0.753906 3.492188 0.453125 3.042969 C 0.226562 2.589844 0.453125 1.390625 0.828125 1.089844 C 1.203125 0.792969 2.851562 1.167969 2.851562 1.167969 " clip-rule="nonzero"/></clipPath><clipPath id="ff0ef59a10"><rect x="0" width="4" y="0" height="4"/></clipPath><clipPath id="a6598a78b4"><path d="M 80.917969 681.140625 L 83.789062 681.140625 L 83.789062 683.578125 L 80.917969 683.578125 Z M 80.917969 681.140625 " clip-rule="nonzero"/></clipPath><clipPath id="c81869c485"><path d="M 83.777344 682.015625 C 82.503906 684.042969 81.304688 683.667969 81.078125 683.214844 C 80.777344 682.839844 81.003906 681.566406 81.453125 681.265625 C 81.828125 680.964844 83.402344 681.417969 83.402344 681.417969 " clip-rule="nonzero"/></clipPath><clipPath id="ea0cd4320b"><path d="M 0.917969 0.140625 L 3.789062 0.140625 L 3.789062 2.578125 L 0.917969 2.578125 Z M 0.917969 0.140625 " clip-rule="nonzero"/></clipPath><clipPath id="1d84c0211e"><path d="M 3.777344 1.015625 C 2.503906 3.042969 1.304688 2.667969 1.078125 2.214844 C 0.777344 1.839844 1.003906 0.566406 1.453125 0.265625 C 1.828125 -0.0351562 3.402344 0.417969 3.402344 0.417969 " clip-rule="nonzero"/></clipPath><clipPath id="64ec7ffc98"><rect x="0" width="4" y="0" height="3"/></clipPath><clipPath id="2f1011f868"><path d="M 131.484375 694.398438 L 142.246094 694.398438 L 142.246094 700.238281 L 131.484375 700.238281 Z M 131.484375 694.398438 " clip-rule="nonzero"/></clipPath><clipPath id="8d3e2daf0e"><path d="M 132.46875 697.257812 C 141.46875 694.480469 142.070312 695.082031 142.144531 695.53125 C 142.292969 696.058594 141.46875 697.183594 141.019531 697.332031 C 140.644531 697.480469 139.96875 697.257812 139.667969 696.957031 C 139.367188 696.65625 139.144531 695.980469 139.21875 695.605469 C 139.445312 695.15625 140.570312 694.40625 141.09375 694.40625 C 141.46875 694.480469 141.992188 695.007812 142.144531 695.382812 C 142.292969 695.757812 142.21875 696.355469 141.917969 696.730469 C 141.46875 697.480469 139.742188 698.082031 138.394531 698.605469 C 136.742188 699.207031 133.96875 700.40625 132.769531 700.183594 C 132.167969 700.03125 131.570312 699.507812 131.492188 698.980469 C 131.417969 698.53125 132.46875 697.257812 132.46875 697.257812 " clip-rule="nonzero"/></clipPath><clipPath id="250538009a"><path d="M 0.484375 0.398438 L 11.246094 0.398438 L 11.246094 6.238281 L 0.484375 6.238281 Z M 0.484375 0.398438 " clip-rule="nonzero"/></clipPath><clipPath id="4734ea01f4"><path d="M 1.46875 3.257812 C 10.46875 0.480469 11.070312 1.082031 11.144531 1.53125 C 11.292969 2.058594 10.46875 3.183594 10.019531 3.332031 C 9.644531 3.480469 8.96875 3.257812 8.667969 2.957031 C 8.367188 2.65625 8.144531 1.980469 8.21875 1.605469 C 8.445312 1.15625 9.570312 0.40625 10.09375 0.40625 C 10.46875 0.480469 10.992188 1.007812 11.144531 1.382812 C 11.292969 1.757812 11.21875 2.355469 10.917969 2.730469 C 10.46875 3.480469 8.742188 4.082031 7.394531 4.605469 C 5.742188 5.207031 2.96875 6.40625 1.769531 6.183594 C 1.167969 6.03125 0.570312 5.507812 0.492188 4.980469 C 0.417969 4.53125 1.46875 3.257812 1.46875 3.257812 " clip-rule="nonzero"/></clipPath><clipPath id="8e3b8fee50"><rect x="0" width="12" y="0" height="7"/></clipPath><clipPath id="eb6365fd7b"><path d="M 130.507812 694.496094 L 140.644531 694.496094 L 140.644531 701.339844 L 130.507812 701.339844 Z M 130.507812 694.496094 " clip-rule="nonzero"/></clipPath><clipPath id="405811d5e5"><path d="M 139.894531 697.257812 C 131.644531 701.53125 130.894531 701.15625 130.667969 700.707031 C 130.445312 700.332031 130.667969 699.28125 130.96875 698.90625 C 131.195312 698.605469 131.867188 698.457031 132.320312 698.53125 C 132.769531 698.683594 133.445312 699.433594 133.519531 699.882812 C 133.59375 700.332031 133.292969 701.007812 132.917969 701.15625 C 132.46875 701.457031 131.117188 701.230469 130.820312 700.855469 C 130.445312 700.480469 130.445312 699.65625 130.820312 699.058594 C 131.71875 697.632812 136.894531 694.707031 138.695312 694.558594 C 139.445312 694.40625 140.34375 694.707031 140.570312 695.082031 C 140.792969 695.605469 139.894531 697.257812 139.894531 697.257812 " clip-rule="nonzero"/></clipPath><clipPath id="f85e114716"><path d="M 0.507812 0.496094 L 10.644531 0.496094 L 10.644531 7.339844 L 0.507812 7.339844 Z M 0.507812 0.496094 " clip-rule="nonzero"/></clipPath><clipPath id="3e3624cace"><path d="M 9.894531 3.257812 C 1.644531 7.53125 0.894531 7.15625 0.667969 6.707031 C 0.445312 6.332031 0.667969 5.28125 0.96875 4.90625 C 1.195312 4.605469 1.867188 4.457031 2.320312 4.53125 C 2.769531 4.683594 3.445312 5.433594 3.519531 5.882812 C 3.59375 6.332031 3.292969 7.007812 2.917969 7.15625 C 2.46875 7.457031 1.117188 7.230469 0.820312 6.855469 C 0.445312 6.480469 0.445312 5.65625 0.820312 5.058594 C 1.71875 3.632812 6.894531 0.707031 8.695312 0.558594 C 9.445312 0.40625 10.34375 0.707031 10.570312 1.082031 C 10.792969 1.605469 9.894531 3.257812 9.894531 3.257812 " clip-rule="nonzero"/></clipPath><clipPath id="3e784a500d"><rect x="0" width="11" y="0" height="8"/></clipPath><clipPath id="4efac3321c"><path d="M 130.496094 693.832031 L 145.296875 693.832031 L 145.296875 700.078125 L 130.496094 700.078125 Z M 130.496094 693.832031 " clip-rule="nonzero"/></clipPath><clipPath id="4b1e79f95b"><path d="M 131.71875 697.105469 C 144.46875 693.957031 144.992188 694.40625 145.21875 694.855469 C 145.367188 695.230469 145.21875 695.90625 144.917969 696.207031 C 144.617188 696.582031 143.570312 696.882812 143.117188 696.65625 C 142.742188 696.433594 142.21875 695.53125 142.292969 695.082031 C 142.292969 694.632812 142.667969 694.105469 143.117188 693.957031 C 143.570312 693.730469 144.617188 693.882812 144.84375 694.257812 C 145.21875 694.707031 145.21875 695.832031 144.695312 696.433594 C 143.34375 698.082031 134.570312 700.40625 132.320312 700.03125 C 131.417969 699.882812 130.59375 699.207031 130.519531 698.683594 C 130.445312 698.230469 131.71875 697.105469 131.71875 697.105469 " clip-rule="nonzero"/></clipPath><clipPath id="292e0839f1"><path d="M 0.496094 0.832031 L 15.296875 0.832031 L 15.296875 7.078125 L 0.496094 7.078125 Z M 0.496094 0.832031 " clip-rule="nonzero"/></clipPath><clipPath id="b3c13c98cf"><path d="M 1.71875 4.105469 C 14.46875 0.957031 14.992188 1.40625 15.21875 1.855469 C 15.367188 2.230469 15.21875 2.90625 14.917969 3.207031 C 14.617188 3.582031 13.570312 3.882812 13.117188 3.65625 C 12.742188 3.433594 12.21875 2.53125 12.292969 2.082031 C 12.292969 1.632812 12.667969 1.105469 13.117188 0.957031 C 13.570312 0.730469 14.617188 0.882812 14.84375 1.257812 C 15.21875 1.707031 15.21875 2.832031 14.695312 3.433594 C 13.34375 5.082031 4.570312 7.40625 2.320312 7.03125 C 1.417969 6.882812 0.59375 6.207031 0.519531 5.683594 C 0.445312 5.230469 1.71875 4.105469 1.71875 4.105469 " clip-rule="nonzero"/></clipPath><clipPath id="49fd7cf2af"><rect x="0" width="16" y="0" height="8"/></clipPath><clipPath id="0fabc6996a"><path d="M 127.839844 693.78125 L 143.21875 693.78125 L 143.21875 700.957031 L 127.839844 700.957031 Z M 127.839844 693.78125 " clip-rule="nonzero"/></clipPath><clipPath id="ca98eb1cf9"><path d="M 142.21875 696.730469 C 128.867188 700.855469 128.269531 700.558594 128.042969 700.105469 C 127.820312 699.65625 128.269531 698.382812 128.644531 698.082031 C 129.019531 697.78125 129.695312 697.855469 130.070312 698.082031 C 130.445312 698.308594 130.894531 698.90625 130.820312 699.28125 C 130.820312 699.808594 129.917969 700.78125 129.394531 700.933594 C 128.945312 701.007812 128.34375 700.632812 128.117188 700.257812 C 127.894531 699.957031 127.742188 699.28125 127.96875 698.90625 C 128.269531 698.15625 129.769531 697.632812 131.195312 697.03125 C 133.667969 695.980469 139.667969 693.507812 141.542969 693.808594 C 142.367188 693.957031 143.042969 694.480469 143.195312 694.933594 C 143.269531 695.457031 142.21875 696.730469 142.21875 696.730469 " clip-rule="nonzero"/></clipPath><clipPath id="1bb5534658"><path d="M 0.839844 0.78125 L 16.21875 0.78125 L 16.21875 7.957031 L 0.839844 7.957031 Z M 0.839844 0.78125 " clip-rule="nonzero"/></clipPath><clipPath id="d00f652eda"><path d="M 15.21875 3.730469 C 1.867188 7.855469 1.269531 7.558594 1.042969 7.105469 C 0.820312 6.65625 1.269531 5.382812 1.644531 5.082031 C 2.019531 4.78125 2.695312 4.855469 3.070312 5.082031 C 3.445312 5.308594 3.894531 5.90625 3.820312 6.28125 C 3.820312 6.808594 2.917969 7.78125 2.394531 7.933594 C 1.945312 8.007812 1.34375 7.632812 1.117188 7.257812 C 0.894531 6.957031 0.742188 6.28125 0.96875 5.90625 C 1.269531 5.15625 2.769531 4.632812 4.195312 4.03125 C 6.667969 2.980469 12.667969 0.507812 14.542969 0.808594 C 15.367188 0.957031 16.042969 1.480469 16.195312 1.933594 C 16.269531 2.457031 15.21875 3.730469 15.21875 3.730469 " clip-rule="nonzero"/></clipPath><clipPath id="903a7a8ba1"><rect x="0" width="17" y="0" height="8"/></clipPath><clipPath id="e2d54fd087"><path d="M 127.191406 695.042969 L 137.515625 695.042969 L 137.515625 700.785156 L 127.191406 700.785156 Z M 127.191406 695.042969 " clip-rule="nonzero"/></clipPath><clipPath id="bb1a76a9b8"><path d="M 136.519531 697.933594 C 128.195312 700.855469 127.59375 700.40625 127.367188 699.957031 C 127.144531 699.582031 127.21875 698.90625 127.519531 698.605469 C 127.742188 698.230469 128.71875 697.855469 129.167969 698.007812 C 129.617188 698.082031 130.070312 698.53125 130.144531 698.980469 C 130.292969 699.433594 129.917969 700.480469 129.542969 700.707031 C 129.09375 700.933594 127.742188 700.558594 127.445312 700.105469 C 127.144531 699.730469 127.21875 698.90625 127.667969 698.308594 C 128.644531 697.105469 133.820312 694.933594 135.542969 695.082031 C 136.367188 695.15625 137.34375 695.683594 137.492188 696.207031 C 137.570312 696.65625 136.519531 697.933594 136.519531 697.933594 " clip-rule="nonzero"/></clipPath><clipPath id="72e423b81a"><path d="M 0.191406 0.0429688 L 10.515625 0.0429688 L 10.515625 5.785156 L 0.191406 5.785156 Z M 0.191406 0.0429688 " clip-rule="nonzero"/></clipPath><clipPath id="7961f0214a"><path d="M 9.519531 2.933594 C 1.195312 5.855469 0.59375 5.40625 0.367188 4.957031 C 0.144531 4.582031 0.21875 3.90625 0.519531 3.605469 C 0.742188 3.230469 1.71875 2.855469 2.167969 3.007812 C 2.617188 3.082031 3.070312 3.53125 3.144531 3.980469 C 3.292969 4.433594 2.917969 5.480469 2.542969 5.707031 C 2.09375 5.933594 0.742188 5.558594 0.445312 5.105469 C 0.144531 4.730469 0.21875 3.90625 0.667969 3.308594 C 1.644531 2.105469 6.820312 -0.0664062 8.542969 0.0820312 C 9.367188 0.15625 10.34375 0.683594 10.492188 1.207031 C 10.570312 1.65625 9.519531 2.933594 9.519531 2.933594 " clip-rule="nonzero"/></clipPath><clipPath id="7240df357e"><rect x="0" width="11" y="0" height="6"/></clipPath><clipPath id="7d6c82e882"><rect x="0" width="813" y="0" height="187"/></clipPath><clipPath id="ce5558dccd"><rect x="0" width="579" y="0" height="76"/></clipPath></defs><g clip-path="url(#819acbea7e)"><g clip-path="url(#04e452df06)"><g transform="matrix(1, 0, 0, 1, 77, 682)"><g clip-path="url(#432aba44c6)"><g clip-path="url(#b63ccf1ed9)"><g clip-path="url(#3879587cf5)"><rect x="-393.8" width="2073.6" fill="#081032" height="1382.399983" y="-893.199997" fill-opacity="1"/></g></g></g></g></g></g><g clip-path="url(#31950be48b)"><g clip-path="url(#2178fa2d5d)"><g transform="matrix(1, 0, 0, 1, 77, 682)"><g clip-path="url(#2e1054aa4c)"><g clip-path="url(#4259064bae)"><g clip-path="url(#2b60427510)"><rect x="-393.8" width="2073.6" fill="#081032" height="1382.399983" y="-893.199997" fill-opacity="1"/></g></g></g></g></g></g><g clip-path="url(#6782591271)"><g clip-path="url(#583a06076d)"><g transform="matrix(1, 0, 0, 1, 77, 682)"><g clip-path="url(#c11e1a8b66)"><g clip-path="url(#07098a3b91)"><g clip-path="url(#dce69a15b9)"><rect x="-393.8" width="2073.6" fill="#081032" height="1382.399983" y="-893.199997" fill-opacity="1"/></g></g></g></g></g></g><g clip-path="url(#016586e671)"><g clip-path="url(#ddf30397c3)"><g transform="matrix(1, 0, 0, 1, 79, 681)"><g clip-path="url(#15383bb0db)"><g clip-path="url(#375dee6bf1)"><g clip-path="url(#407faa40b7)"><rect x="-395.8" width="2073.6" fill="#081032" height="1382.399983" y="-892.199997" fill-opacity="1"/></g></g></g></g></g></g><g clip-path="url(#a16d321115)"><g clip-path="url(#f41c504e06)"><g transform="matrix(1, 0, 0, 1, 76, 681)"><g clip-path="url(#88b9274a7d)"><g clip-path="url(#4036405f53)"><g clip-path="url(#e2ce451279)"><rect x="-392.8" width="2073.6" fill="#081032" height="1382.399983" y="-892.199997" fill-opacity="1"/></g></g></g></g></g></g><g clip-path="url(#df66288ca0)"><g clip-path="url(#80be19c135)"><g transform="matrix(1, 0, 0, 1, 77, 682)"><g clip-path="url(#a127af1951)"><g clip-path="url(#753588165c)"><g clip-path="url(#65c42fd6d0)"><rect x="-393.8" width="2073.6" fill="#081032" height="1382.399983" y="-893.199997" fill-opacity="1"/></g></g></g></g></g></g><g clip-path="url(#5ccb0f59b7)"><g clip-path="url(#7aab8c7f9a)"><g transform="matrix(1, 0, 0, 1, 91, 686)"><g clip-path="url(#2f9fc19ca3)"><g clip-path="url(#307d68bd23)"><g clip-path="url(#02338e96c6)"><rect x="-407.8" width="2073.6" fill="#081032" height="1382.399983" y="-897.199997" fill-opacity="1"/></g></g></g></g></g></g><g clip-path="url(#99a77c7c62)"><g clip-path="url(#765a410806)"><g transform="matrix(1, 0, 0, 1, 81, 681)"><g clip-path="url(#ff0ef59a10)"><g clip-path="url(#9f359d1aa6)"><g clip-path="url(#88fc1e113e)"><rect x="-397.8" width="2073.6" fill="#081032" height="1382.399983" y="-892.199997" fill-opacity="1"/></g></g></g></g></g></g><g clip-path="url(#a6598a78b4)"><g clip-path="url(#c81869c485)"><g transform="matrix(1, 0, 0, 1, 80, 681)"><g clip-path="url(#64ec7ffc98)"><g clip-path="url(#ea0cd4320b)"><g clip-path="url(#1d84c0211e)"><rect x="-396.8" width="2073.6" fill="#081032" height="1382.399983" y="-892.199997" fill-opacity="1"/></g></g></g></g></g></g><g clip-path="url(#2f1011f868)"><g clip-path="url(#8d3e2daf0e)"><g transform="matrix(1, 0, 0, 1, 131, 694)"><g clip-path="url(#8e3b8fee50)"><g clip-path="url(#250538009a)"><g clip-path="url(#4734ea01f4)"><rect x="-447.8" width="2073.6" fill="#081032" height="1382.399983" y="-905.199997" fill-opacity="1"/></g></g></g></g></g></g><g clip-path="url(#eb6365fd7b)"><g clip-path="url(#405811d5e5)"><g transform="matrix(1, 0, 0, 1, 130, 694)"><g clip-path="url(#3e784a500d)"><g clip-path="url(#f85e114716)"><g clip-path="url(#3e3624cace)"><rect x="-446.8" width="2073.6" fill="#081032" height="1382.399983" y="-905.199997" fill-opacity="1"/></g></g></g></g></g></g><g clip-path="url(#4efac3321c)"><g clip-path="url(#4b1e79f95b)"><g transform="matrix(1, 0, 0, 1, 130, 693)"><g clip-path="url(#49fd7cf2af)"><g clip-path="url(#292e0839f1)"><g clip-path="url(#b3c13c98cf)"><rect x="-446.8" width="2073.6" fill="#081032" height="1382.399983" y="-904.199997" fill-opacity="1"/></g></g></g></g></g></g><g clip-path="url(#0fabc6996a)"><g clip-path="url(#ca98eb1cf9)"><g transform="matrix(1, 0, 0, 1, 127, 693)"><g clip-path="url(#903a7a8ba1)"><g clip-path="url(#1bb5534658)"><g clip-path="url(#d00f652eda)"><rect x="-443.8" width="2073.6" fill="#081032" height="1382.399983" y="-904.199997" fill-opacity="1"/></g></g></g></g></g></g><g clip-path="url(#e2d54fd087)"><g clip-path="url(#bb1a76a9b8)"><g transform="matrix(1, 0, 0, 1, 127, 695)"><g clip-path="url(#7240df357e)"><g clip-path="url(#72e423b81a)"><g clip-path="url(#7961f0214a)"><rect x="-443.8" width="2073.6" fill="#081032" height="1382.399983" y="-906.199997" fill-opacity="1"/></g></g></g></g></g></g><g transform="matrix(1, 0, 0, 1, 311, 407)"><g clip-path="url(#7d6c82e882)"><g fill="#ffffff" fill-opacity="1"><g transform="translate(0.83906, 127.518304)"><g><path d="M 106.09375 -86.703125 L 104.609375 -86.328125 C 103.492188 -89.566406 101.660156 -92.832031 99.109375 -96.125 C 96.554688 -99.414062 93.257812 -102.394531 89.21875 -105.0625 C 85.1875 -107.738281 80.492188 -109.914062 75.140625 -111.59375 C 69.796875 -113.28125 63.832031 -114.125 57.25 -114.125 C 53.519531 -114.125 50.503906 -113.90625 48.203125 -113.46875 C 45.898438 -113.03125 44.15625 -112.25 42.96875 -111.125 C 41.789062 -110.007812 41.015625 -108.488281 40.640625 -106.5625 C 40.273438 -104.632812 40.09375 -102.179688 40.09375 -99.203125 L 40.09375 -87.828125 L 61.34375 -87.828125 C 65.945312 -87.828125 69.363281 -88.507812 71.59375 -89.875 C 73.832031 -91.238281 75.078125 -93.972656 75.328125 -98.078125 L 75.328125 -98.640625 L 77.015625 -99.203125 L 84.28125 -57.4375 L 82.796875 -57.0625 L 82.421875 -58.171875 C 80.804688 -62.773438 79.003906 -66.472656 77.015625 -69.265625 C 75.023438 -72.066406 72.722656 -74.179688 70.109375 -75.609375 C 67.503906 -77.035156 64.425781 -77.96875 60.875 -78.40625 C 57.332031 -78.84375 53.265625 -79.0625 48.671875 -79.0625 L 40.09375 -79.0625 L 40.09375 -22.1875 C 40.09375 -19.457031 40.21875 -16.910156 40.46875 -14.546875 C 40.71875 -12.179688 41.273438 -10.066406 42.140625 -8.203125 C 43.015625 -6.335938 44.257812 -4.8125 45.875 -3.625 C 47.488281 -2.445312 49.660156 -1.734375 52.390625 -1.484375 L 52.390625 0 L 7.453125 0 L 7.453125 -1.671875 C 10.191406 -2.046875 12.367188 -2.820312 13.984375 -4 C 15.597656 -5.1875 16.804688 -6.679688 17.609375 -8.484375 C 18.421875 -10.285156 18.953125 -12.273438 19.203125 -14.453125 C 19.453125 -16.628906 19.578125 -18.894531 19.578125 -21.25 L 19.578125 -100.140625 C 19.578125 -102.742188 19.453125 -105.226562 19.203125 -107.59375 C 18.953125 -109.957031 18.390625 -112.070312 17.515625 -113.9375 C 16.648438 -115.800781 15.410156 -117.351562 13.796875 -118.59375 C 12.179688 -119.832031 10.066406 -120.640625 7.453125 -121.015625 L 7.453125 -122.703125 L 88.953125 -122.703125 C 90.691406 -122.703125 92.367188 -122.820312 93.984375 -123.0625 C 95.597656 -123.3125 96.835938 -124 97.703125 -125.125 Z M 106.09375 -86.703125 "/></g></g></g><g fill="#ffffff" fill-opacity="1"><g transform="translate(100.406657, 127.518304)"><g><path d="M 52.21875 -122.703125 L 52.21875 -121.015625 C 49.601562 -120.640625 47.488281 -119.894531 45.875 -118.78125 C 44.257812 -117.664062 43.015625 -116.265625 42.140625 -114.578125 C 41.273438 -112.898438 40.71875 -110.941406 40.46875 -108.703125 C 40.21875 -106.472656 40.09375 -104.050781 40.09375 -101.4375 L 40.09375 -22.375 C 40.09375 -19.882812 40.21875 -17.457031 40.46875 -15.09375 C 40.71875 -12.738281 41.242188 -10.628906 42.046875 -8.765625 C 42.859375 -6.898438 44.070312 -5.34375 45.6875 -4.09375 C 47.300781 -2.851562 49.476562 -2.046875 52.21875 -1.671875 L 52.21875 0 L 7.453125 0 L 7.453125 -1.671875 C 10.191406 -2.046875 12.335938 -2.789062 13.890625 -3.90625 C 15.441406 -5.03125 16.648438 -6.429688 17.515625 -8.109375 C 18.390625 -9.785156 18.953125 -11.710938 19.203125 -13.890625 C 19.453125 -16.066406 19.578125 -18.460938 19.578125 -21.078125 L 19.578125 -100.3125 C 19.578125 -102.800781 19.453125 -105.226562 19.203125 -107.59375 C 18.953125 -109.957031 18.390625 -112.070312 17.515625 -113.9375 C 16.648438 -115.800781 15.441406 -117.351562 13.890625 -118.59375 C 12.335938 -119.832031 10.191406 -120.640625 7.453125 -121.015625 L 7.453125 -122.703125 Z M 52.21875 -122.703125 "/></g></g></g><g fill="#ffffff" fill-opacity="1"><g transform="translate(155.224535, 127.518304)"><g><path d="M 55.5625 -122.703125 L 55.5625 -121.015625 C 52.957031 -120.765625 51.65625 -120.019531 51.65625 -118.78125 C 51.65625 -118.53125 51.898438 -117.84375 52.390625 -116.71875 C 52.890625 -115.601562 54.507812 -113.925781 57.25 -111.6875 L 99.953125 -76.078125 L 99.953125 -100.3125 C 99.953125 -103.050781 99.796875 -105.628906 99.484375 -108.046875 C 99.171875 -110.472656 98.578125 -112.585938 97.703125 -114.390625 C 96.835938 -116.203125 95.597656 -117.695312 93.984375 -118.875 C 92.367188 -120.050781 90.191406 -120.765625 87.453125 -121.015625 L 87.453125 -122.703125 L 124.1875 -122.703125 L 124.1875 -121.015625 C 121.445312 -120.640625 119.269531 -119.863281 117.65625 -118.6875 C 116.039062 -117.507812 114.828125 -116.019531 114.015625 -114.21875 C 113.210938 -112.414062 112.6875 -110.425781 112.4375 -108.25 C 112.1875 -106.070312 112.0625 -103.800781 112.0625 -101.4375 L 112.0625 -22.375 C 112.0625 -19.644531 112.1875 -17.128906 112.4375 -14.828125 C 112.6875 -12.523438 113.242188 -10.472656 114.109375 -8.671875 C 114.984375 -6.867188 116.226562 -5.34375 117.84375 -4.09375 C 119.457031 -2.851562 121.570312 -2.046875 124.1875 -1.671875 L 124.1875 0 L 87.453125 0 L 87.453125 -1.671875 C 90.066406 -2.046875 92.210938 -2.757812 93.890625 -3.8125 C 95.566406 -4.875 96.835938 -6.242188 97.703125 -7.921875 C 98.578125 -9.597656 99.171875 -11.554688 99.484375 -13.796875 C 99.796875 -16.035156 99.953125 -18.582031 99.953125 -21.4375 L 99.953125 -41.390625 C 99.953125 -43.253906 99.859375 -44.835938 99.671875 -46.140625 C 99.484375 -47.453125 99.015625 -48.726562 98.265625 -49.96875 C 97.523438 -51.21875 96.46875 -52.523438 95.09375 -53.890625 C 93.726562 -55.253906 91.925781 -56.867188 89.6875 -58.734375 L 30.765625 -107.78125 L 30.765625 -22.375 C 30.765625 -19.757812 30.890625 -17.238281 31.140625 -14.8125 C 31.390625 -12.394531 31.945312 -10.253906 32.8125 -8.390625 C 33.6875 -6.523438 34.929688 -5 36.546875 -3.8125 C 38.160156 -2.632812 40.273438 -1.921875 42.890625 -1.671875 L 42.890625 0 L 6.53125 0 L 6.53125 -1.671875 C 9.257812 -2.046875 11.429688 -2.820312 13.046875 -4 C 14.671875 -5.1875 15.882812 -6.679688 16.6875 -8.484375 C 17.5 -10.285156 18.023438 -12.273438 18.265625 -14.453125 C 18.515625 -16.628906 18.640625 -18.894531 18.640625 -21.25 L 18.640625 -100.3125 C 18.640625 -102.800781 18.515625 -105.195312 18.265625 -107.5 C 18.023438 -109.800781 17.46875 -111.882812 16.59375 -113.75 C 15.726562 -115.613281 14.515625 -117.195312 12.953125 -118.5 C 11.398438 -119.800781 9.257812 -120.640625 6.53125 -121.015625 L 6.53125 -122.703125 Z M 55.5625 -122.703125 "/></g></g></g><g fill="#ffffff" fill-opacity="1"><g transform="translate(280.896148, 127.518304)"><g><path d="M 48.109375 -58.359375 L 40.28125 -37.484375 C 40.03125 -37.734375 39.34375 -38.039062 38.21875 -38.40625 C 37.101562 -38.78125 35.363281 -38.96875 33 -38.96875 L 14.921875 -38.96875 C 10.566406 -38.96875 7.550781 -38.59375 5.875 -37.84375 C 4.195312 -37.101562 2.859375 -35.863281 1.859375 -34.125 L 0.375 -34.125 L 8.203125 -55.015625 C 8.453125 -54.765625 9.007812 -54.453125 9.875 -54.078125 C 10.75 -53.703125 12.554688 -53.515625 15.296875 -53.515625 L 33.375 -53.515625 C 37.601562 -53.515625 40.617188 -53.945312 42.421875 -54.8125 C 44.222656 -55.6875 45.625 -56.867188 46.625 -58.359375 Z M 48.109375 -58.359375 "/></g></g></g><g fill="#ffffff" fill-opacity="1"><g transform="translate(324.52658, 127.518304)"><g><path d="M 55.5625 -122.703125 L 55.5625 -121.015625 C 52.957031 -120.765625 51.65625 -120.019531 51.65625 -118.78125 C 51.65625 -118.53125 51.898438 -117.84375 52.390625 -116.71875 C 52.890625 -115.601562 54.507812 -113.925781 57.25 -111.6875 L 99.953125 -76.078125 L 99.953125 -100.3125 C 99.953125 -103.050781 99.796875 -105.628906 99.484375 -108.046875 C 99.171875 -110.472656 98.578125 -112.585938 97.703125 -114.390625 C 96.835938 -116.203125 95.597656 -117.695312 93.984375 -118.875 C 92.367188 -120.050781 90.191406 -120.765625 87.453125 -121.015625 L 87.453125 -122.703125 L 124.1875 -122.703125 L 124.1875 -121.015625 C 121.445312 -120.640625 119.269531 -119.863281 117.65625 -118.6875 C 116.039062 -117.507812 114.828125 -116.019531 114.015625 -114.21875 C 113.210938 -112.414062 112.6875 -110.425781 112.4375 -108.25 C 112.1875 -106.070312 112.0625 -103.800781 112.0625 -101.4375 L 112.0625 -22.375 C 112.0625 -19.644531 112.1875 -17.128906 112.4375 -14.828125 C 112.6875 -12.523438 113.242188 -10.472656 114.109375 -8.671875 C 114.984375 -6.867188 116.226562 -5.34375 117.84375 -4.09375 C 119.457031 -2.851562 121.570312 -2.046875 124.1875 -1.671875 L 124.1875 0 L 87.453125 0 L 87.453125 -1.671875 C 90.066406 -2.046875 92.210938 -2.757812 93.890625 -3.8125 C 95.566406 -4.875 96.835938 -6.242188 97.703125 -7.921875 C 98.578125 -9.597656 99.171875 -11.554688 99.484375 -13.796875 C 99.796875 -16.035156 99.953125 -18.582031 99.953125 -21.4375 L 99.953125 -41.390625 C 99.953125 -43.253906 99.859375 -44.835938 99.671875 -46.140625 C 99.484375 -47.453125 99.015625 -48.726562 98.265625 -49.96875 C 97.523438 -51.21875 96.46875 -52.523438 95.09375 -53.890625 C 93.726562 -55.253906 91.925781 -56.867188 89.6875 -58.734375 L 30.765625 -107.78125 L 30.765625 -22.375 C 30.765625 -19.757812 30.890625 -17.238281 31.140625 -14.8125 C 31.390625 -12.394531 31.945312 -10.253906 32.8125 -8.390625 C 33.6875 -6.523438 34.929688 -5 36.546875 -3.8125 C 38.160156 -2.632812 40.273438 -1.921875 42.890625 -1.671875 L 42.890625 0 L 6.53125 0 L 6.53125 -1.671875 C 9.257812 -2.046875 11.429688 -2.820312 13.046875 -4 C 14.671875 -5.1875 15.882812 -6.679688 16.6875 -8.484375 C 17.5 -10.285156 18.023438 -12.273438 18.265625 -14.453125 C 18.515625 -16.628906 18.640625 -18.894531 18.640625 -21.25 L 18.640625 -100.3125 C 18.640625 -102.800781 18.515625 -105.195312 18.265625 -107.5 C 18.023438 -109.800781 17.46875 -111.882812 16.59375 -113.75 C 15.726562 -115.613281 14.515625 -117.195312 12.953125 -118.5 C 11.398438 -119.800781 9.257812 -120.640625 6.53125 -121.015625 L 6.53125 -122.703125 Z M 55.5625 -122.703125 "/></g></g></g><g fill="#ffffff" fill-opacity="1"><g transform="translate(450.198177, 127.518304)"><g><path d="M 69.546875 -115.421875 C 62.835938 -115.421875 57.023438 -114.019531 52.109375 -111.21875 C 47.203125 -108.425781 43.164062 -104.757812 40 -100.21875 C 36.832031 -95.6875 34.5 -90.59375 33 -84.9375 C 31.507812 -79.28125 30.765625 -73.53125 30.765625 -67.6875 C 30.765625 -60.726562 31.789062 -53.671875 33.84375 -46.515625 C 35.894531 -39.367188 38.941406 -32.875 42.984375 -27.03125 C 47.023438 -21.195312 51.992188 -16.441406 57.890625 -12.765625 C 63.796875 -9.097656 70.664062 -7.265625 78.5 -7.265625 C 84.96875 -7.265625 90.6875 -8.570312 95.65625 -11.1875 C 100.632812 -13.800781 104.800781 -17.28125 108.15625 -21.625 C 111.507812 -25.976562 114.023438 -30.953125 115.703125 -36.546875 C 117.378906 -42.140625 118.21875 -47.984375 118.21875 -54.078125 C 118.21875 -62.285156 116.941406 -70.085938 114.390625 -77.484375 C 111.847656 -84.878906 108.367188 -91.40625 103.953125 -97.0625 C 99.546875 -102.71875 94.390625 -107.191406 88.484375 -110.484375 C 82.578125 -113.773438 76.265625 -115.421875 69.546875 -115.421875 Z M 8.390625 -60.96875 C 8.390625 -70.289062 10.097656 -78.867188 13.515625 -86.703125 C 16.929688 -94.535156 21.59375 -101.3125 27.5 -107.03125 C 33.40625 -112.75 40.335938 -117.191406 48.296875 -120.359375 C 56.253906 -123.535156 64.832031 -125.125 74.03125 -125.125 C 83.476562 -125.125 92.269531 -123.503906 100.40625 -120.265625 C 108.550781 -117.035156 115.609375 -112.53125 121.578125 -106.75 C 127.546875 -100.96875 132.207031 -94.066406 135.5625 -86.046875 C 138.914062 -78.035156 140.59375 -69.242188 140.59375 -59.671875 C 140.59375 -50.597656 138.789062 -42.269531 135.1875 -34.6875 C 131.582031 -27.101562 126.703125 -20.546875 120.546875 -15.015625 C 114.398438 -9.484375 107.316406 -5.191406 99.296875 -2.140625 C 91.273438 0.898438 82.914062 2.421875 74.21875 2.421875 C 63.394531 2.421875 53.878906 0.523438 45.671875 -3.265625 C 37.472656 -7.054688 30.609375 -11.992188 25.078125 -18.078125 C 19.546875 -24.171875 15.378906 -30.976562 12.578125 -38.5 C 9.785156 -46.019531 8.390625 -53.507812 8.390625 -60.96875 Z M 8.390625 -60.96875 "/></g></g></g><g fill="#ffffff" fill-opacity="1"><g transform="translate(594.515492, 127.518304)"><g><path d="M 45.5 -122.703125 L 45.5 -121.015625 C 42.269531 -120.765625 39.9375 -120.019531 38.5 -118.78125 C 37.070312 -117.539062 36.359375 -115.863281 36.359375 -113.75 C 36.359375 -111.257812 37.132812 -108.425781 38.6875 -105.25 C 40.238281 -102.082031 41.828125 -99.195312 43.453125 -96.59375 L 61.15625 -68.25 L 77.390625 -94.90625 C 79.867188 -98.882812 82.039062 -102.613281 83.90625 -106.09375 C 85.769531 -109.582031 86.703125 -112.566406 86.703125 -115.046875 C 86.703125 -118.648438 83.96875 -120.640625 78.5 -121.015625 L 78.5 -122.703125 L 114.671875 -122.703125 L 114.671875 -121.015625 C 112.566406 -120.640625 110.703125 -120.109375 109.078125 -119.421875 C 107.460938 -118.742188 105.972656 -117.75 104.609375 -116.4375 C 103.242188 -115.132812 101.84375 -113.519531 100.40625 -111.59375 C 98.976562 -109.675781 97.394531 -107.285156 95.65625 -104.421875 L 66.015625 -56.6875 L 66.015625 -22.1875 C 66.015625 -19.332031 66.164062 -16.691406 66.46875 -14.265625 C 66.78125 -11.835938 67.335938 -9.691406 68.140625 -7.828125 C 68.953125 -5.960938 70.164062 -4.5 71.78125 -3.4375 C 73.40625 -2.382812 75.519531 -1.796875 78.125 -1.671875 L 78.125 0 L 33.375 0 L 33.375 -1.671875 C 36.113281 -1.921875 38.257812 -2.601562 39.8125 -3.71875 C 41.363281 -4.84375 42.570312 -6.242188 43.4375 -7.921875 C 44.3125 -9.597656 44.875 -11.554688 45.125 -13.796875 C 45.375 -16.035156 45.5 -18.460938 45.5 -21.078125 L 45.5 -56.6875 L 13.796875 -106.65625 C 12.804688 -108.269531 11.78125 -109.882812 10.71875 -111.5 C 9.664062 -113.125 8.484375 -114.617188 7.171875 -115.984375 C 5.867188 -117.347656 4.378906 -118.460938 2.703125 -119.328125 C 1.023438 -120.203125 -0.804688 -120.765625 -2.796875 -121.015625 L -2.796875 -122.703125 Z M 45.5 -122.703125 "/></g></g></g><g fill="#ffffff" fill-opacity="1"><g transform="translate(701.541372, 127.518304)"><g><path d="M 11.1875 -94.546875 C 11.1875 -100.015625 12.367188 -104.703125 14.734375 -108.609375 C 17.097656 -112.523438 20.144531 -115.757812 23.875 -118.3125 C 27.601562 -120.863281 31.734375 -122.726562 36.265625 -123.90625 C 40.804688 -125.09375 45.191406 -125.6875 49.421875 -125.6875 C 53.265625 -125.6875 56.675781 -125.40625 59.65625 -124.84375 C 62.644531 -124.28125 65.507812 -123.6875 68.25 -123.0625 C 70.113281 -122.570312 72.191406 -122.109375 74.484375 -121.671875 C 76.785156 -121.234375 79.179688 -121.015625 81.671875 -121.015625 C 83.285156 -121.015625 84.585938 -121.265625 85.578125 -121.765625 C 86.578125 -122.265625 87.578125 -123.132812 88.578125 -124.375 L 96.03125 -87.265625 L 94.546875 -86.890625 C 93.046875 -91.242188 90.894531 -95.160156 88.09375 -98.640625 C 85.300781 -102.117188 82.070312 -105.101562 78.40625 -107.59375 C 74.738281 -110.082031 70.757812 -112.007812 66.46875 -113.375 C 62.1875 -114.738281 57.804688 -115.421875 53.328125 -115.421875 C 50.722656 -115.421875 48.019531 -115.171875 45.21875 -114.671875 C 42.414062 -114.179688 39.894531 -113.34375 37.65625 -112.15625 C 35.425781 -110.976562 33.5625 -109.394531 32.0625 -107.40625 C 30.570312 -105.414062 29.828125 -102.929688 29.828125 -99.953125 C 29.828125 -98.703125 30.046875 -97.515625 30.484375 -96.390625 C 30.921875 -95.273438 31.851562 -94.160156 33.28125 -93.046875 C 34.707031 -91.929688 36.664062 -90.8125 39.15625 -89.6875 C 41.644531 -88.570312 44.941406 -87.394531 49.046875 -86.15625 L 75.703125 -78.125 C 80.429688 -76.632812 84.84375 -74.800781 88.9375 -72.625 C 93.039062 -70.445312 96.582031 -67.867188 99.5625 -64.890625 C 102.550781 -61.910156 104.882812 -58.492188 106.5625 -54.640625 C 108.238281 -50.785156 109.078125 -46.429688 109.078125 -41.578125 C 109.078125 -34.367188 107.894531 -28.03125 105.53125 -22.5625 C 103.175781 -17.09375 99.820312 -12.492188 95.46875 -8.765625 C 91.125 -5.035156 85.84375 -2.238281 79.625 -0.375 C 73.40625 1.488281 66.441406 2.421875 58.734375 2.421875 C 54.753906 2.421875 51.054688 2.109375 47.640625 1.484375 C 44.222656 0.867188 41.019531 0.191406 38.03125 -0.546875 C 35.050781 -1.296875 32.285156 -1.984375 29.734375 -2.609375 C 27.191406 -3.234375 24.800781 -3.546875 22.5625 -3.546875 C 21.195312 -3.546875 19.953125 -3.203125 18.828125 -2.515625 C 17.710938 -1.828125 16.84375 -1.050781 16.21875 -0.1875 L 5.40625 -46.796875 L 7.078125 -47.359375 C 8.703125 -42.015625 10.972656 -36.976562 13.890625 -32.25 C 16.816406 -27.53125 20.328125 -23.398438 24.421875 -19.859375 C 28.523438 -16.316406 33.15625 -13.519531 38.3125 -11.46875 C 43.476562 -9.414062 49.101562 -8.390625 55.1875 -8.390625 C 66.75 -8.390625 75.515625 -10.5625 81.484375 -14.90625 C 87.453125 -19.257812 90.4375 -25.664062 90.4375 -34.125 C 90.4375 -37.976562 89.660156 -41.238281 88.109375 -43.90625 C 86.554688 -46.582031 84.535156 -48.789062 82.046875 -50.53125 C 79.554688 -52.269531 76.726562 -53.726562 73.5625 -54.90625 C 70.394531 -56.09375 67.253906 -57.179688 64.140625 -58.171875 L 39.34375 -65.828125 C 35.863281 -66.941406 32.441406 -68.179688 29.078125 -69.546875 C 25.722656 -70.921875 22.707031 -72.691406 20.03125 -74.859375 C 17.363281 -77.035156 15.222656 -79.707031 13.609375 -82.875 C 11.992188 -86.050781 11.1875 -89.941406 11.1875 -94.546875 Z M 11.1875 -94.546875 "/></g></g></g></g></g><g transform="matrix(1, 0, 0, 1, 430, 560)"><g clip-path="url(#ce5558dccd)"><g fill="#ffffff" fill-opacity="1"><g transform="translate(1.453388, 58.514513)"><g><path d="M 43.953125 -13.078125 C 42.367188 -8.972656 39.769531 -5.679688 36.15625 -3.203125 C 32.507812 -0.648438 28.507812 0.625 24.15625 0.625 C 18.238281 0.625 13.1875 -1.550781 9 -5.90625 C 4.882812 -10.1875 2.828125 -15.320312 2.828125 -21.3125 C 2.828125 -24.289062 3.375 -27.125 4.46875 -29.8125 C 5.550781 -32.445312 7.0625 -34.773438 9 -36.796875 C 13.1875 -41.148438 18.238281 -43.328125 24.15625 -43.328125 C 28.507812 -43.328125 32.488281 -42.09375 36.09375 -39.625 C 39.695312 -37.101562 42.296875 -33.8125 43.890625 -29.75 L 39.0625 -29.75 C 36.75 -33.976562 33.304688 -36.785156 28.734375 -38.171875 C 27.234375 -38.585938 25.492188 -38.796875 23.515625 -38.796875 C 21.546875 -38.796875 19.535156 -38.335938 17.484375 -37.421875 C 15.429688 -36.453125 13.648438 -35.171875 12.140625 -33.578125 C 8.867188 -30.179688 7.234375 -26.09375 7.234375 -21.3125 C 7.234375 -16.582031 8.867188 -12.519531 12.140625 -9.125 C 15.453125 -5.644531 19.457031 -3.90625 24.15625 -3.90625 C 27.332031 -3.90625 30.265625 -4.742188 32.953125 -6.421875 C 35.597656 -8.097656 37.65625 -10.316406 39.125 -13.078125 Z M 43.953125 -13.078125 "/></g></g></g><g fill="#ffffff" fill-opacity="1"><g transform="translate(47.285163, 58.514513)"><g><path d="M 9.125 -4.40625 L 24.40625 -4.40625 L 24.40625 0 L 4.71875 0 L 4.71875 -42.765625 L 9.125 -42.765625 Z M 9.125 -4.40625 "/></g></g></g><g fill="#ffffff" fill-opacity="1"><g transform="translate(72.935866, 58.514513)"><g><path d="M 30.125 0 L 4.71875 0 L 4.71875 -42.765625 L 30.125 -42.765625 L 30.125 -38.671875 L 9.125 -38.671875 L 9.125 -23.453125 L 29.5 -23.453125 L 29.5 -19.3125 L 9.125 -19.3125 L 9.125 -4.09375 L 30.125 -4.09375 Z M 30.125 0 "/></g></g></g><g fill="#ffffff" fill-opacity="1"><g transform="translate(107.76551, 58.514513)"><g><path d="M 11.640625 -15.71875 L 27.171875 -15.71875 L 19.4375 -35.40625 Z M 38.171875 0 L 33.390625 0 L 28.796875 -11.640625 L 10 -11.640625 L 5.40625 0 L 0.625 0 L 19.4375 -45.71875 Z M 38.171875 0 "/></g></g></g><g fill="#ffffff" fill-opacity="1"><g transform="translate(146.555926, 58.514513)"><g><path d="M 9.125 -31.515625 L 9.125 0 L 4.71875 0 L 4.71875 -45.46875 L 28.734375 -11.3125 L 28.734375 -42.765625 L 33.140625 -42.765625 L 33.140625 2.640625 Z M 9.125 -31.515625 "/></g></g></g><g fill="#ffffff" fill-opacity="1"><g transform="translate(184.403289, 58.514513)"><g><path d="M 9.125 0 L 4.71875 0 L 4.71875 -42.765625 L 9.125 -42.765625 Z M 9.125 0 "/></g></g></g><g fill="#ffffff" fill-opacity="1"><g transform="translate(198.234546, 58.514513)"><g><path d="M 9.125 -31.515625 L 9.125 0 L 4.71875 0 L 4.71875 -45.46875 L 28.734375 -11.3125 L 28.734375 -42.765625 L 33.140625 -42.765625 L 33.140625 2.640625 Z M 9.125 -31.515625 "/></g></g></g><g fill="#ffffff" fill-opacity="1"><g transform="translate(236.08191, 58.514513)"><g><path d="M 46.921875 -20 L 46.46875 -17.359375 C 45.550781 -12.160156 43.015625 -7.882812 38.859375 -4.53125 C 34.710938 -1.175781 30.039062 0.5 24.84375 0.5 C 21.820312 0.5 18.96875 -0.0820312 16.28125 -1.25 C 13.601562 -2.382812 11.28125 -3.957031 9.3125 -5.96875 C 7.289062 -7.945312 5.71875 -10.273438 4.59375 -12.953125 C 3.414062 -15.640625 2.828125 -18.515625 2.828125 -21.578125 C 2.828125 -24.585938 3.414062 -27.4375 4.59375 -30.125 C 5.71875 -32.8125 7.289062 -35.160156 9.3125 -37.171875 C 11.28125 -39.140625 13.601562 -40.710938 16.28125 -41.890625 C 18.96875 -43.015625 21.675781 -43.578125 24.40625 -43.578125 C 29.519531 -43.578125 34.023438 -42.132812 37.921875 -39.25 C 41.859375 -36.351562 44.539062 -32.535156 45.96875 -27.796875 L 41.3125 -27.796875 C 39.976562 -31.273438 37.820312 -34.039062 34.84375 -36.09375 C 31.820312 -38.15625 28.488281 -39.1875 24.84375 -39.1875 C 19.976562 -39.1875 15.828125 -37.46875 12.390625 -34.03125 C 8.953125 -30.582031 7.234375 -26.429688 7.234375 -21.578125 C 7.234375 -16.753906 8.953125 -12.601562 12.390625 -9.125 C 15.785156 -5.644531 19.9375 -3.90625 24.84375 -3.90625 C 28.695312 -3.90625 32.21875 -5.015625 35.40625 -7.234375 C 38.550781 -9.492188 40.753906 -12.46875 42.015625 -16.15625 L 24.65625 -16.15625 L 24.65625 -20 Z M 46.921875 -20 "/></g></g></g><g fill="#ffffff" fill-opacity="1"><g transform="translate(285.811587, 58.514513)"><g/></g></g><g fill="#ffffff" fill-opacity="1"><g transform="translate(302.786317, 58.514513)"><g><path d="M 16.609375 -20.1875 C 7.878906 -22.195312 3.515625 -25.925781 3.515625 -31.375 C 3.515625 -35.40625 4.921875 -38.425781 7.734375 -40.4375 C 10.546875 -42.40625 13.835938 -43.390625 17.609375 -43.390625 C 25.953125 -43.390625 30.898438 -40.289062 32.453125 -34.09375 L 27.671875 -34.09375 C 26.828125 -37.78125 23.472656 -39.625 17.609375 -39.625 C 13.503906 -39.625 10.632812 -38.40625 9 -35.96875 C 8.363281 -35.050781 8.046875 -33.898438 8.046875 -32.515625 C 8.046875 -29.867188 9.472656 -27.832031 12.328125 -26.40625 C 13.671875 -25.695312 16.519531 -24.773438 20.875 -23.640625 C 25.238281 -22.515625 28.40625 -21.257812 30.375 -19.875 C 33.101562 -17.945312 34.46875 -15.242188 34.46875 -11.765625 C 34.46875 -7.441406 32.769531 -4.171875 29.375 -1.953125 C 26.519531 -0.109375 22.992188 0.8125 18.796875 0.8125 C 9.328125 0.8125 3.835938 -2.789062 2.328125 -10 L 7.546875 -10 C 8.335938 -5.46875 12.085938 -3.203125 18.796875 -3.203125 C 23.578125 -3.203125 26.910156 -4.523438 28.796875 -7.171875 C 29.554688 -8.210938 29.9375 -9.640625 29.9375 -11.453125 C 29.9375 -13.210938 29.242188 -14.65625 27.859375 -15.78125 C 25.890625 -17.375 22.140625 -18.84375 16.609375 -20.1875 Z M 16.609375 -20.1875 "/></g></g></g><g fill="#ffffff" fill-opacity="1"><g transform="translate(338.873361, 58.514513)"><g><path d="M 30.125 0 L 4.71875 0 L 4.71875 -42.765625 L 30.125 -42.765625 L 30.125 -38.671875 L 9.125 -38.671875 L 9.125 -23.453125 L 29.5 -23.453125 L 29.5 -19.3125 L 9.125 -19.3125 L 9.125 -4.09375 L 30.125 -4.09375 Z M 30.125 0 "/></g></g></g><g fill="#ffffff" fill-opacity="1"><g transform="translate(373.702989, 58.514513)"><g><path d="M 9.125 -21.125 L 19.0625 -21.125 C 21.53125 -21.125 23.5625 -21.960938 25.15625 -23.640625 C 26.789062 -25.359375 27.609375 -27.476562 27.609375 -30 C 27.609375 -32.46875 26.832031 -34.519531 25.28125 -36.15625 C 23.726562 -37.75 21.65625 -38.546875 19.0625 -38.546875 L 9.125 -38.546875 Z M 32.015625 -29.875 C 32.015625 -26.144531 30.691406 -23.039062 28.046875 -20.5625 C 25.703125 -18.382812 22.875 -17.191406 19.5625 -16.984375 L 32.703125 0 L 26.796875 0 L 14.28125 -16.921875 L 9.125 -16.921875 L 9.125 0 L 4.71875 0 L 4.71875 -42.765625 L 18.421875 -42.765625 C 22.242188 -42.765625 25.453125 -41.570312 28.046875 -39.1875 C 30.691406 -36.664062 32.015625 -33.5625 32.015625 -29.875 Z M 32.015625 -29.875 "/></g></g></g><g fill="#ffffff" fill-opacity="1"><g transform="translate(407.903959, 58.514513)"><g><path d="M 20.0625 2.578125 L 0.625 -42.765625 L 5.40625 -42.765625 L 20.0625 -8.296875 L 34.65625 -42.765625 L 39.4375 -42.765625 Z M 20.0625 2.578125 "/></g></g></g><g fill="#ffffff" fill-opacity="1"><g transform="translate(447.951741, 58.514513)"><g><path d="M 9.125 0 L 4.71875 0 L 4.71875 -42.765625 L 9.125 -42.765625 Z M 9.125 0 "/></g></g></g><g fill="#ffffff" fill-opacity="1"><g transform="translate(461.783015, 58.514513)"><g><path d="M 43.953125 -13.078125 C 42.367188 -8.972656 39.769531 -5.679688 36.15625 -3.203125 C 32.507812 -0.648438 28.507812 0.625 24.15625 0.625 C 18.238281 0.625 13.1875 -1.550781 9 -5.90625 C 4.882812 -10.1875 2.828125 -15.320312 2.828125 -21.3125 C 2.828125 -24.289062 3.375 -27.125 4.46875 -29.8125 C 5.550781 -32.445312 7.0625 -34.773438 9 -36.796875 C 13.1875 -41.148438 18.238281 -43.328125 24.15625 -43.328125 C 28.507812 -43.328125 32.488281 -42.09375 36.09375 -39.625 C 39.695312 -37.101562 42.296875 -33.8125 43.890625 -29.75 L 39.0625 -29.75 C 36.75 -33.976562 33.304688 -36.785156 28.734375 -38.171875 C 27.234375 -38.585938 25.492188 -38.796875 23.515625 -38.796875 C 21.546875 -38.796875 19.535156 -38.335938 17.484375 -37.421875 C 15.429688 -36.453125 13.648438 -35.171875 12.140625 -33.578125 C 8.867188 -30.179688 7.234375 -26.09375 7.234375 -21.3125 C 7.234375 -16.582031 8.867188 -12.519531 12.140625 -9.125 C 15.453125 -5.644531 19.457031 -3.90625 24.15625 -3.90625 C 27.332031 -3.90625 30.265625 -4.742188 32.953125 -6.421875 C 35.597656 -8.097656 37.65625 -10.316406 39.125 -13.078125 Z M 43.953125 -13.078125 "/></g></g></g><g fill="#ffffff" fill-opacity="1"><g transform="translate(507.614756, 58.514513)"><g><path d="M 30.125 0 L 4.71875 0 L 4.71875 -42.765625 L 30.125 -42.765625 L 30.125 -38.671875 L 9.125 -38.671875 L 9.125 -23.453125 L 29.5 -23.453125 L 29.5 -19.3125 L 9.125 -19.3125 L 9.125 -4.09375 L 30.125 -4.09375 Z M 30.125 0 "/></g></g></g><g fill="#ffffff" fill-opacity="1"><g transform="translate(542.444418, 58.514513)"><g><path d="M 16.609375 -20.1875 C 7.878906 -22.195312 3.515625 -25.925781 3.515625 -31.375 C 3.515625 -35.40625 4.921875 -38.425781 7.734375 -40.4375 C 10.546875 -42.40625 13.835938 -43.390625 17.609375 -43.390625 C 25.953125 -43.390625 30.898438 -40.289062 32.453125 -34.09375 L 27.671875 -34.09375 C 26.828125 -37.78125 23.472656 -39.625 17.609375 -39.625 C 13.503906 -39.625 10.632812 -38.40625 9 -35.96875 C 8.363281 -35.050781 8.046875 -33.898438 8.046875 -32.515625 C 8.046875 -29.867188 9.472656 -27.832031 12.328125 -26.40625 C 13.671875 -25.695312 16.519531 -24.773438 20.875 -23.640625 C 25.238281 -22.515625 28.40625 -21.257812 30.375 -19.875 C 33.101562 -17.945312 34.46875 -15.242188 34.46875 -11.765625 C 34.46875 -7.441406 32.769531 -4.171875 29.375 -1.953125 C 26.519531 -0.109375 22.992188 0.8125 18.796875 0.8125 C 9.328125 0.8125 3.835938 -2.789062 2.328125 -10 L 7.546875 -10 C 8.335938 -5.46875 12.085938 -3.203125 18.796875 -3.203125 C 23.578125 -3.203125 26.910156 -4.523438 28.796875 -7.171875 C 29.554688 -8.210938 29.9375 -9.640625 29.9375 -11.453125 C 29.9375 -13.210938 29.242188 -14.65625 27.859375 -15.78125 C 25.890625 -17.375 22.140625 -18.84375 16.609375 -20.1875 Z M 16.609375 -20.1875 "/></g></g></g></g></g></svg>