<svg width="373" height="129" viewBox="0 0 373 129" fill="none" xmlns="http://www.w3.org/2000/svg">
<path d="M205.05 95L205 45H220L220.05 48.15C221.717 46.7167 223.617 45.6 225.75 44.8C227.883 44 230.133 43.6 232.5 43.6C234.3 43.6 236.133 43.8667 238 44.4L232.1 59.6C230.933 59.0667 229.733 58.8 228.5 58.8C226.933 58.8 225.5 59.1833 224.2 59.95C222.933 60.6833 221.917 61.7 221.15 63C220.417 64.2667 220.05 65.6833 220.05 67.25V95H205.05Z" fill="#EEEDFE"/>
<path d="M136.5 60H128V95H113V60H106.5V45H113V29.3H128V45H136.5V60Z" fill="#EEEDFE"/>
<path d="M189.5 78.6L203 85.9C200.7 89.0333 197.817 91.55 194.35 93.45C190.883 95.35 187.1 96.3 183 96.3C178.4 96.3 174.2 95.1167 170.4 92.75C166.633 90.3833 163.617 87.2167 161.35 83.25C159.117 79.25 158 74.8333 158 70C158 66.3333 158.65 62.9167 159.95 59.75C161.25 56.55 163.033 53.75 165.3 51.35C167.6 48.9167 170.267 47.0167 173.3 45.65C176.333 44.2833 179.567 43.6 183 43.6C187.1 43.6 190.883 44.55 194.35 46.45C197.817 48.35 200.7 50.9 203 54.1L189.5 61.4C188.6 60.5 187.583 59.8167 186.45 59.35C185.35 58.85 184.2 58.6 183 58.6C181.1 58.6 179.4 59.1333 177.9 60.2C176.4 61.2667 175.2 62.6667 174.3 64.4C173.433 66.1333 173 68 173 70C173 71.9667 173.433 73.8167 174.3 75.55C175.2 77.25 176.4 78.6333 177.9 79.7C179.4 80.7667 181.1 81.3 183 81.3C184.2 81.3 185.35 81.0667 186.45 80.6C187.583 80.1 188.6 79.4333 189.5 78.6Z" fill="#EEEDFE"/>
<path d="M259 96.3C254.4 96.3 250.2 95.1167 246.4 92.75C242.633 90.3833 239.617 87.2 237.35 83.2C235.117 79.2 234 74.7833 234 69.95C234 66.3167 234.65 62.9167 235.95 59.75C237.25 56.55 239.033 53.75 241.3 51.35C243.6 48.9167 246.267 47.0167 249.3 45.65C252.333 44.2833 255.567 43.6 259 43.6C263 43.6 266.65 44.4833 269.95 46.25C273.283 47.9833 276.083 50.35 278.35 53.35C280.65 56.3167 282.283 59.6667 283.25 63.4C284.217 67.1333 284.317 70.9833 283.55 74.95H250.2C250.667 76.1167 251.283 77.1833 252.05 78.15C252.85 79.0833 253.817 79.8333 254.95 80.4C256.117 80.9667 257.467 81.2667 259 81.3C260.467 81.3333 261.817 81.0167 263.05 80.35C264.317 79.6833 265.417 78.7833 266.35 77.65L281.65 81.2C279.617 85.6333 276.583 89.2667 272.55 92.1C268.517 94.9 264 96.3 259 96.3ZM249.65 63.95H268.4C267.933 62.5167 267.233 61.25 266.3 60.15C265.367 59.05 264.267 58.1833 263 57.55C261.767 56.9167 260.433 56.6 259 56.6C257.6 56.6 256.267 56.9167 255 57.55C253.767 58.1833 252.683 59.05 251.75 60.15C250.85 61.25 250.15 62.5167 249.65 63.95Z" fill="#EEEDFE"/>
<path d="M358.915 47.175H357.135V46.4H361.555V47.175H359.775V53H358.915V47.175ZM367.966 46.4V53H367.116V48.235L367.161 47.505L366.981 48.31L365.391 52.625H364.546L362.956 48.31L362.781 47.505L362.821 48.235V53H361.966V46.4H363.106L364.906 51.58L364.966 51.915L365.031 51.58L366.836 46.4H367.966Z" fill="#EEEDFE"/>
<path d="M28 98.3C23.4 98.3 19.2 97.1167 15.4 94.75C11.6333 92.3833 8.61667 89.2167 6.35 85.25C4.11667 81.25 3 76.8333 3 72C3 68.3333 3.65 64.9167 4.95 61.75C6.25 58.55 8.03333 55.75 10.3 53.35C12.6 50.9167 15.2667 49.0167 18.3 47.65C21.3333 46.2833 24.5667 45.6 28 45.6C32.6 45.6 36.7833 46.7833 40.55 49.15C44.35 51.5167 47.3667 54.7 49.6 58.7C51.8667 62.7 53 67.1333 53 72C53 75.6333 52.35 79.0333 51.05 82.2C49.75 85.3667 47.95 88.1667 45.65 90.6C43.3833 93 40.7333 94.8833 37.7 96.25C34.7 97.6167 31.4667 98.3 28 98.3ZM28 83.3C29.9 83.3 31.6 82.7833 33.1 81.75C34.6333 80.7167 35.8333 79.35 36.7 77.65C37.5667 75.9167 38 74.0333 38 72C38 69.9 37.5333 67.9833 36.6 66.25C35.7 64.5167 34.4833 63.15 32.95 62.15C31.45 61.1167 29.8 60.6 28 60.6C26.1333 60.6 24.4333 61.1333 22.9 62.2C21.4 63.2333 20.2 64.6167 19.3 66.35C18.4333 68.0833 18 69.9667 18 72C18 74.1333 18.45 76.05 19.35 77.75C20.2833 79.45 21.5 80.8 23 81.8C24.5333 82.8 26.2 83.3 28 83.3Z" fill="#EEEDFE"/>
<path d="M81 98.3C76.4 98.3 72.2 97.1167 68.4 94.75C64.6333 92.3833 61.6167 89.2167 59.35 85.25C57.1167 81.25 56 76.8333 56 72C56 68.3333 56.65 64.9167 57.95 61.75C59.25 58.55 61.0333 55.75 63.3 53.35C65.6 50.9167 68.2667 49.0167 71.3 47.65C74.3333 46.2833 77.5667 45.6 81 45.6C85.6 45.6 89.7833 46.7833 93.55 49.15C97.35 51.5167 100.367 54.7 102.6 58.7C104.867 62.7 106 67.1333 106 72C106 75.6333 105.35 79.0333 104.05 82.2C102.75 85.3667 100.95 88.1667 98.65 90.6C96.3833 93 93.7333 94.8833 90.7 96.25C87.7 97.6167 84.4667 98.3 81 98.3ZM81 83.3C82.9 83.3 84.6 82.7833 86.1 81.75C87.6333 80.7167 88.8333 79.35 89.7 77.65C90.5667 75.9167 91 74.0333 91 72C91 69.9 90.5333 67.9833 89.6 66.25C88.7 64.5167 87.4833 63.15 85.95 62.15C84.45 61.1167 82.8 60.6 81 60.6C79.1333 60.6 77.4333 61.1333 75.9 62.2C74.4 63.2333 73.2 64.6167 72.3 66.35C71.4333 68.0833 71 69.9667 71 72C71 74.1333 71.45 76.05 72.35 77.75C73.2833 79.45 74.5 80.8 76 81.8C77.5333 82.8 79.2 83.3 81 83.3Z" fill="#EEEDFE"/>
<circle cx="344.5" cy="90.5" r="7.5" fill="#EEEDFE"/>
<circle cx="77" cy="66" r="4" fill="#EEEDFE"/>
<circle cx="24" cy="66" r="4" fill="#EEEDFE"/>
<path d="M147.5 29.5C151.366 29.5 154.5 32.634 154.5 36.5C154.5 40.366 151.366 43.5 147.5 43.5C143.634 43.5 140.5 40.366 140.5 36.5C140.5 32.634 143.634 29.5 147.5 29.5Z" fill="#2A6DFA" stroke="#2A6DFA"/>
<path d="M140 46C140 46 143 48.94 147.5 48.94C152 48.94 155 46 155 46V70.99V95H147.5H140V46Z" fill="#EEEDFE"/>
<path d="M310.5 46C310.5 46 310.5 56 306.306 70.1667C302.113 84.3333 284 90.5 284 90.5" stroke="#2A6DFA" stroke-width="15"/>
<path d="M63.9801 76C63.9801 76 64.518 85.8876 60.0052 99.8951C55.4925 113.903 36 120 36 120" stroke="#EEEDFE" stroke-width="15"/>
<path d="M155.011 103.005C155.011 103.005 162.835 109.076 176.921 113.338C191.006 117.6 207.114 105.044 207.114 105.044" stroke="#2A6DFA" stroke-width="15"/>
<path d="M337 46C337 46 337 56 332.806 70.1667C328.613 84.3333 311 91 311 91" stroke="#2A6DFA" stroke-width="15"/>
<path d="M91 45H136.5V60H106C106 60 106.333 58.5 102 52C98.5 46.75 91 45 91 45Z" fill="#EEEDFE"/>
<line x1="190.414" y1="87.0654" x2="212.414" y2="70.0654" stroke="#EEEDFE" stroke-width="15"/>
<path d="M23 40.2867L45.0658 33L52.5916 55.7895C52.5916 55.7895 46.2403 46.349 39.7594 43.1772C33.7353 40.229 23 40.2867 23 40.2867Z" fill="#2A6DFA"/>
</svg>
