<svg width="183" height="278" viewBox="0 0 183 278" fill="none" xmlns="http://www.w3.org/2000/svg">
<path d="M30.7664 214.418C30.7664 214.418 65.6071 239.047 90.6689 240C115.731 240.953 157.142 214.436 157.142 214.436" stroke="#2A6DFA" stroke-width="25"/>
<path d="M106 70.1356L158.128 47L182.023 100.838C182.023 100.838 164.227 79.3182 147.631 73.1399C132.205 67.397 106 70.1356 106 70.1356Z" fill="#2A6DFA"/>
<path d="M56 192.6C46.8 192.6 38.4 190.233 30.8 185.5C23.2667 180.767 17.2333 174.433 12.7 166.5C8.23333 158.5 6 149.667 6 140C6 132.667 7.3 125.833 9.9 119.5C12.5 113.1 16.0667 107.5 20.6 102.7C25.2 97.8333 30.5333 94.0333 36.6 91.3C42.6667 88.5667 49.1333 87.2 56 87.2C65.2 87.2 73.5667 89.5667 81.1 94.3C88.7 99.0333 94.7333 105.4 99.2 113.4C103.733 121.4 106 130.267 106 140C106 147.267 104.7 154.067 102.1 160.4C99.5 166.733 95.9 172.333 91.3 177.2C86.7667 182 81.4667 185.767 75.4 188.5C69.4 191.233 62.9333 192.6 56 192.6ZM56 162.6C59.8 162.6 63.2 161.567 66.2 159.5C69.2667 157.433 71.6667 154.7 73.4 151.3C75.1333 147.833 76 144.067 76 140C76 135.8 75.0667 131.967 73.2 128.5C71.4 125.033 68.9667 122.3 65.9 120.3C62.9 118.233 59.6 117.2 56 117.2C52.2667 117.2 48.8667 118.267 45.8 120.4C42.8 122.467 40.4 125.233 38.6 128.7C36.8667 132.167 36 135.933 36 140C36 144.267 36.9 148.1 38.7 151.5C40.5667 154.9 43 157.6 46 159.6C49.0667 161.6 52.4 162.6 56 162.6Z" fill="#2A6DFA"/>
<path d="M92.5 98.5001C92.5 98.5001 104 85.5001 127.5 85.0001C151 84.5001 166.5 106.5 166.5 106.5L139 120.5C139 120.5 134 115.12 124.5 115.5C115 115.88 109 124 109 124C109 124 107.857 120 103 111.5C98.1428 103 92.5 98.5001 92.5 98.5001Z" fill="#EEEDFE"/>
<path d="M166 169.5C166 169.5 154.262 188.976 128.5 190.5C102.738 192.023 95 179.5 95 179.5C95 179.5 98.9149 175.5 103.5 167.5C108.085 159.5 109.5 153.5 109.5 153.5C109.5 153.5 115 160.5 125 160.5C135 160.5 138.738 155.023 138.738 155.023C138.738 155.023 144.301 158.324 151.238 162.023C158.738 166.023 166 169.5 166 169.5Z" fill="#EEEDFE"/>
<path d="M52.7471 145.861C58.7605 155.663 64.2236 151.139 59.5159 154.027C54.8081 156.915 48.5337 155.248 45.5016 150.305C42.4695 145.362 43.8278 139.014 48.5356 136.126C53.2433 133.238 46.7339 136.059 52.7471 145.861Z" fill="#EEEDFE"/>
<path d="M121.747 143.861C127.761 153.663 133.224 149.139 128.516 152.027C123.808 154.915 117.534 153.248 114.502 148.305C111.469 143.362 112.828 137.014 117.536 134.126C122.243 131.238 115.734 134.059 121.747 143.861Z" fill="#EEEDFE"/>
</svg>
