<svg width="183" height="278" viewBox="0 0 183 278" fill="none" xmlns="http://www.w3.org/2000/svg">
<path d="M30.7664 214.418C30.7664 214.418 65.6071 239.047 90.6689 240C115.731 240.953 157.142 214.436 157.142 214.436" stroke="white" stroke-width="25"/>
<path d="M157.875 47.6597L180.219 98.005C179.951 97.7062 179.663 97.3833 179.352 97.0423C177.418 94.9214 174.666 92.0287 171.393 88.9419C164.86 82.7813 156.202 75.797 147.805 72.6711C140.005 69.7671 129.522 69.0177 121.032 68.9844C116.78 68.9678 113.011 69.1312 110.305 69.2987C109.8 69.33 109.331 69.3634 108.904 69.3939L157.875 47.6597Z" fill="white" stroke="white"/>
<mask id="path-3-outside-1_1283_2" maskUnits="userSpaceOnUse" x="5" y="86" width="102" height="108" fill="black">
<rect fill="white" x="5" y="86" width="102" height="108"/>
<path d="M56 192.6C46.8 192.6 38.4 190.233 30.8 185.5C23.2667 180.767 17.2333 174.433 12.7 166.5C8.23333 158.5 6 149.667 6 140C6 132.667 7.3 125.833 9.9 119.5C12.5 113.1 16.0667 107.5 20.6 102.7C25.2 97.8333 30.5333 94.0333 36.6 91.3C42.6667 88.5667 49.1333 87.2 56 87.2C65.2 87.2 73.5667 89.5667 81.1 94.3C88.7 99.0333 94.7333 105.4 99.2 113.4C103.733 121.4 106 130.267 106 140C106 147.267 104.7 154.067 102.1 160.4C99.5 166.733 95.9 172.333 91.3 177.2C86.7667 182 81.4667 185.767 75.4 188.5C69.4 191.233 62.9333 192.6 56 192.6ZM56 162.6C59.8 162.6 63.2 161.567 66.2 159.5C69.2667 157.433 71.6667 154.7 73.4 151.3C75.1333 147.833 76 144.067 76 140C76 135.8 75.0667 131.967 73.2 128.5C71.4 125.033 68.9667 122.3 65.9 120.3C62.9 118.233 59.6 117.2 56 117.2C52.2667 117.2 48.8667 118.267 45.8 120.4C42.8 122.467 40.4 125.233 38.6 128.7C36.8667 132.167 36 135.933 36 140C36 144.267 36.9 148.1 38.7 151.5C40.5667 154.9 43 157.6 46 159.6C49.0667 161.6 52.4 162.6 56 162.6Z"/>
</mask>
<path d="M56 192.6C46.8 192.6 38.4 190.233 30.8 185.5C23.2667 180.767 17.2333 174.433 12.7 166.5C8.23333 158.5 6 149.667 6 140C6 132.667 7.3 125.833 9.9 119.5C12.5 113.1 16.0667 107.5 20.6 102.7C25.2 97.8333 30.5333 94.0333 36.6 91.3C42.6667 88.5667 49.1333 87.2 56 87.2C65.2 87.2 73.5667 89.5667 81.1 94.3C88.7 99.0333 94.7333 105.4 99.2 113.4C103.733 121.4 106 130.267 106 140C106 147.267 104.7 154.067 102.1 160.4C99.5 166.733 95.9 172.333 91.3 177.2C86.7667 182 81.4667 185.767 75.4 188.5C69.4 191.233 62.9333 192.6 56 192.6ZM56 162.6C59.8 162.6 63.2 161.567 66.2 159.5C69.2667 157.433 71.6667 154.7 73.4 151.3C75.1333 147.833 76 144.067 76 140C76 135.8 75.0667 131.967 73.2 128.5C71.4 125.033 68.9667 122.3 65.9 120.3C62.9 118.233 59.6 117.2 56 117.2C52.2667 117.2 48.8667 118.267 45.8 120.4C42.8 122.467 40.4 125.233 38.6 128.7C36.8667 132.167 36 135.933 36 140C36 144.267 36.9 148.1 38.7 151.5C40.5667 154.9 43 157.6 46 159.6C49.0667 161.6 52.4 162.6 56 162.6Z" fill="white"/>
<path d="M30.8 185.5L30.268 186.347L30.2713 186.349L30.8 185.5ZM12.7 166.5L11.8268 166.988L11.8318 166.996L12.7 166.5ZM9.9 119.5L10.8251 119.88L10.8265 119.876L9.9 119.5ZM20.6 102.7L19.8733 102.013L19.873 102.013L20.6 102.7ZM36.6 91.3L36.1892 90.3883L36.1892 90.3883L36.6 91.3ZM81.1 94.3L80.568 95.1467L80.5713 95.1488L81.1 94.3ZM99.2 113.4L98.3269 113.888L98.33 113.893L99.2 113.4ZM102.1 160.4L101.175 160.02L101.175 160.02L102.1 160.4ZM91.3 177.2L90.5733 176.513L90.573 176.513L91.3 177.2ZM75.4 188.5L74.9892 187.588L74.9854 187.59L75.4 188.5ZM66.2 159.5L65.6411 158.671L65.6327 158.676L66.2 159.5ZM73.4 151.3L74.2909 151.754L74.2944 151.747L73.4 151.3ZM73.2 128.5L72.3125 128.961L72.316 128.967L72.3195 128.974L73.2 128.5ZM65.9 120.3L65.3327 121.124L65.3431 121.131L65.3537 121.138L65.9 120.3ZM45.8 120.4L46.3673 121.224L46.3711 121.221L45.8 120.4ZM38.6 128.7L37.7125 128.239L37.709 128.246L37.7056 128.253L38.6 128.7ZM38.7 151.5L37.8162 151.968L37.8198 151.975L37.8234 151.981L38.7 151.5ZM46 159.6L45.4453 160.432L45.4537 160.438L46 159.6ZM56 192.6V191.6C46.9815 191.6 38.7655 189.283 31.3287 184.651L30.8 185.5L30.2713 186.349C38.0345 191.184 46.6185 193.6 56 193.6V192.6ZM30.8 185.5L31.332 184.653C23.9417 180.01 18.0223 173.798 13.5682 166.004L12.7 166.5L11.8318 166.996C16.4444 175.068 22.5916 181.524 30.268 186.347L30.8 185.5ZM12.7 166.5L13.5731 166.013C9.19427 158.17 7 149.506 7 140H6H5C5 149.828 7.27239 158.83 11.8269 166.987L12.7 166.5ZM6 140H7C7 132.788 8.27799 126.084 10.8251 119.88L9.9 119.5L8.97492 119.12C6.32201 125.582 5 132.546 5 140H6ZM9.9 119.5L10.8265 119.876C13.382 113.586 16.8827 108.092 21.327 103.387L20.6 102.7L19.873 102.013C15.2506 106.908 11.618 112.614 8.97353 119.124L9.9 119.5ZM20.6 102.7L21.3267 103.387C25.8377 98.6145 31.0639 94.8911 37.0108 92.2117L36.6 91.3L36.1892 90.3883C30.0028 93.1756 24.5623 97.0522 19.8733 102.013L20.6 102.7ZM36.6 91.3L37.0108 92.2117C42.9441 89.5385 49.2703 88.2 56 88.2V87.2V86.2C48.9963 86.2 42.3892 87.5949 36.1892 90.3883L36.6 91.3ZM56 87.2V88.2C65.0185 88.2 73.1997 90.5171 80.568 95.1467L81.1 94.3L81.632 93.4533C73.9337 88.6163 65.3815 86.2 56 86.2V87.2ZM81.1 94.3L80.5713 95.1488C88.0244 99.7906 93.9406 106.032 98.3269 113.887L99.2 113.4L100.073 112.913C95.526 104.768 89.3756 98.276 81.6287 93.4512L81.1 94.3ZM99.2 113.4L98.33 113.893C102.773 121.734 105 130.429 105 140H106H107C107 130.104 104.694 121.066 100.07 112.907L99.2 113.4ZM106 140H105C105 147.145 103.722 153.815 101.175 160.02L102.1 160.4L103.025 160.78C105.678 154.319 107 147.389 107 140H106ZM102.1 160.4L101.175 160.02C98.6205 166.242 95.0869 171.738 90.5733 176.513L91.3 177.2L92.0267 177.887C96.7131 172.929 100.379 167.224 103.025 160.78L102.1 160.4ZM91.3 177.2L90.573 176.513C86.1301 181.218 80.9377 184.908 74.9892 187.588L75.4 188.5L75.8108 189.412C81.9956 186.625 87.4033 182.782 92.027 177.887L91.3 177.2ZM75.4 188.5L74.9854 187.59C69.1223 190.261 62.7978 191.6 56 191.6V192.6V193.6C63.0688 193.6 69.6777 192.206 75.8146 189.41L75.4 188.5ZM56 162.6V163.6C59.9934 163.6 63.593 162.51 66.7673 160.324L66.2 159.5L65.6327 158.676C62.807 160.623 59.6067 161.6 56 161.6V162.6ZM66.2 159.5L66.7589 160.329C69.9709 158.165 72.4831 155.3 74.2909 151.754L73.4 151.3L72.5091 150.846C70.8503 154.1 68.5625 156.702 65.6412 158.671L66.2 159.5ZM73.4 151.3L74.2944 151.747C76.1006 148.135 77 144.214 77 140H76H75C75 143.919 74.166 147.532 72.5056 150.853L73.4 151.3ZM76 140H77C77 135.646 76.0308 131.648 74.0805 128.026L73.2 128.5L72.3195 128.974C74.1025 132.285 75 135.954 75 140H76ZM73.2 128.5L74.0875 128.039C72.2136 124.43 69.6669 121.563 66.4463 119.462L65.9 120.3L65.3537 121.138C68.2664 123.037 70.5864 125.636 72.3125 128.961L73.2 128.5ZM65.9 120.3L66.4673 119.476C63.3026 117.296 59.8052 116.2 56 116.2V117.2V118.2C59.3948 118.2 62.4974 119.17 65.3327 121.124L65.9 120.3ZM56 117.2V116.2C52.0624 116.2 48.4631 117.329 45.2289 119.579L45.8 120.4L46.3711 121.221C49.2702 119.204 52.471 118.2 56 118.2V117.2ZM45.8 120.4L45.2327 119.576C42.0882 121.743 39.5823 124.638 37.7125 128.239L38.6 128.7L39.4875 129.161C41.2177 125.829 43.5118 123.191 46.3673 121.224L45.8 120.4ZM38.6 128.7L37.7056 128.253C35.8994 131.865 35 135.786 35 140H36H37C37 136.081 37.834 132.468 39.4944 129.147L38.6 128.7ZM36 140H35C35 144.412 35.9319 148.409 37.8162 151.968L38.7 151.5L39.5838 151.032C37.8681 147.791 37 144.122 37 140H36ZM38.7 151.5L37.8234 151.981C39.7616 155.511 42.3013 158.336 45.4453 160.432L46 159.6L46.5547 158.768C43.6987 156.864 41.3718 154.289 39.5766 151.019L38.7 151.5ZM46 159.6L45.4537 160.438C48.68 162.542 52.2025 163.6 56 163.6V162.6V161.6C52.5975 161.6 49.4534 160.658 46.5463 158.762L46 159.6Z" fill="white" mask="url(#path-3-outside-1_1283_2)"/>
<path d="M127.511 85.4995C139.099 85.253 148.737 90.555 155.501 95.9536C158.88 98.6505 161.531 101.363 163.337 103.402C164.24 104.421 164.93 105.27 165.395 105.864C165.532 106.039 165.647 106.194 165.744 106.323L139.093 119.891C138.929 119.738 138.693 119.526 138.385 119.277C137.747 118.761 136.798 118.082 135.548 117.417C133.045 116.084 129.332 114.807 124.48 115C119.591 115.196 115.618 117.382 112.882 119.497C111.512 120.556 110.444 121.602 109.719 122.385C109.512 122.608 109.334 122.811 109.184 122.986C108.995 122.47 108.706 121.722 108.28 120.739C107.38 118.658 105.871 115.517 103.435 111.252C100.984 106.964 98.334 103.683 96.2959 101.473C95.2768 100.368 94.41 99.5304 93.7959 98.9673C93.5717 98.7617 93.3804 98.5935 93.2285 98.4614C93.278 98.4113 93.3317 98.3556 93.3916 98.2964C93.7435 97.9483 94.2751 97.4467 94.9873 96.8423C96.4121 95.6332 98.5595 94.0106 101.436 92.3716C107.186 89.0946 115.855 85.7475 127.511 85.4995Z" fill="#EEEDFE" stroke="white"/>
<path d="M128.471 190C115.678 190.757 107.4 188.025 102.337 185.137C99.803 183.692 98.0671 182.203 96.9688 181.083C96.4195 180.522 96.0289 180.055 95.7783 179.73C95.7262 179.662 95.6828 179.599 95.6426 179.544C95.7522 179.425 95.8926 179.27 96.0596 179.08C96.5045 178.572 97.1435 177.814 97.9258 176.806C99.4905 174.79 101.629 171.77 103.934 167.749C106.242 163.721 107.753 160.195 108.688 157.673C109.156 156.412 109.479 155.402 109.687 154.705C109.706 154.64 109.722 154.578 109.739 154.519C109.864 154.649 110.006 154.795 110.166 154.952C110.856 155.626 111.88 156.521 113.223 157.416C115.908 159.206 119.878 161 125 161C130.097 161 133.623 159.602 135.885 158.185C137.013 157.478 137.823 156.768 138.354 156.23C138.567 156.014 138.734 155.825 138.86 155.675C139.016 155.767 139.219 155.886 139.464 156.029C140.095 156.397 141.008 156.926 142.139 157.571C144.399 158.86 147.529 160.612 151.003 162.464C154.758 164.467 158.453 166.339 161.209 167.709C162.587 168.395 163.73 168.954 164.529 169.343C164.826 169.488 165.075 169.608 165.271 169.703C165.204 169.804 165.126 169.923 165.034 170.055C164.669 170.581 164.118 171.338 163.375 172.251C161.889 174.08 159.641 176.538 156.594 179.042C150.501 184.051 141.223 189.246 128.471 190Z" fill="#EEEDFE" stroke="white"/>
<path d="M49.6597 136.145C49.3496 137.84 49.2526 141.12 52.3207 146.122C55.3893 151.124 58.3577 152.524 60.0092 153.016C60.0626 153.032 60.1159 153.044 60.1667 153.058C59.9204 153.202 59.6146 153.379 59.2542 153.6C54.8012 156.332 48.8275 154.771 45.9276 150.043C43.028 145.316 44.3439 139.283 48.7968 136.552C49.1568 136.331 49.4529 136.139 49.6932 135.985C49.6827 136.037 49.6698 136.09 49.6597 136.145Z" fill="#EEEDFE" stroke="white"/>
<path d="M118.66 134.145C118.35 135.84 118.253 139.12 121.321 144.122C124.389 149.124 127.358 150.524 129.009 151.016C129.063 151.032 129.116 151.044 129.167 151.058C128.92 151.202 128.615 151.379 128.254 151.6C123.801 154.332 117.827 152.771 114.928 148.043C112.028 143.316 113.344 137.283 117.797 134.552C118.157 134.331 118.453 134.139 118.693 133.985C118.683 134.037 118.67 134.09 118.66 134.145Z" fill="#EEEDFE" stroke="white"/>
</svg>
