<svg width="88" height="60" viewBox="0 0 88 60" fill="none" xmlns="http://www.w3.org/2000/svg">
<rect x="32.4531" y="3.5" width="22.3659" height="52.2439" rx="9.5" stroke="white" stroke-width="7"/>
<path d="M15.9512 24.8438C19.541 24.8438 22.4512 27.7539 22.4512 31.3438V49.2588C22.451 52.8416 19.5466 55.7458 15.9639 55.7461C9.08065 55.7461 3.50023 50.1664 3.5 43.2832V36.3438L3.51465 35.752C3.82265 29.6757 8.8472 24.8438 15 24.8438H15.9512Z" stroke="white" stroke-width="7"/>
<path d="M71.3203 15.4531C67.7305 15.4531 64.8203 18.3633 64.8203 21.9531V49.2578C64.8203 52.8408 67.7247 55.7458 71.3076 55.7461C78.191 55.7461 83.7715 50.1656 83.7715 43.2822V26.9531C83.7715 20.6019 78.6228 15.4531 72.2715 15.4531H71.3203Z" stroke="white" stroke-width="7"/>
</svg>
