<svg width="70" height="63" viewBox="0 0 70 63" fill="none" xmlns="http://www.w3.org/2000/svg">
<path d="M59.02 5.49086C58.2493 3.71813 56.1875 2.90578 54.4148 3.67643C52.6421 4.44708 51.8297 6.50889 52.6004 8.28163L55.8102 6.88624L59.02 5.49086ZM5.0523 25.8994L1.59218 25.3726L5.0523 25.8994ZM19.0571 47.8931L19.7409 44.4605L19.0571 47.8931ZM48.5603 47.3823L49.1894 50.8253V50.8253L48.5603 47.3823ZM61.5719 25.8994L64.9922 25.157L61.5719 25.8994ZM20.5719 6.89003L21.144 3.43711L20.5719 6.89003ZM45.0719 6.89004L44.4934 3.43817L45.0719 6.89004ZM8.82065 10.4293L12.1745 11.43L8.82065 10.4293ZM31.9747 11.7329L33.7373 8.70909L31.9747 11.7329ZM34.1554 11.71L32.3327 8.72207L34.1554 11.71ZM34.8649 52.9479L32.8102 50.1144L34.8649 52.9479ZM57.2126 46.3831L57.0355 42.8875L57.2126 46.3831ZM3.52037 40.2069L7.00909 40.4876L3.52037 40.2069ZM9.2645 46.7179L9.5168 43.227L9.2645 46.7179ZM5.0523 25.8994L1.59218 25.3726C0.91481 29.821 0.377843 35.6244 0.0316491 39.9261L3.52037 40.2069L7.00909 40.4876C7.35361 36.2068 7.87488 30.6132 8.51242 26.4263L5.0523 25.8994ZM9.2645 46.7179L9.0122 50.2088C12.113 50.4329 15.6797 50.789 18.3734 51.3256L19.0571 47.8931L19.7409 44.4605C16.6028 43.8354 12.6799 43.4556 9.5168 43.227L9.2645 46.7179ZM19.0571 47.8931L18.3734 51.3256C22.3209 52.112 25.9186 54.2516 28.1715 55.8676L30.2115 53.0236L32.2515 50.1796C29.6514 48.3145 25.1023 45.5285 19.7409 44.4605L19.0571 47.8931ZM34.8649 52.9479L36.9195 55.7813C39.0193 54.2587 43.0295 51.9507 49.1894 50.8253L48.5603 47.3823L47.9312 43.9393C40.5995 45.2789 35.6319 48.0683 32.8102 50.1144L34.8649 52.9479ZM61.5719 25.8994L64.9922 25.157C63.7107 19.2531 62.2314 14.37 61.068 10.9514C60.4859 9.24099 59.9819 7.89424 59.6196 6.96635C59.4384 6.50232 59.2925 6.14278 59.19 5.89463C59.1387 5.77055 59.0983 5.67429 59.0696 5.60671C59.0553 5.57293 59.0439 5.54631 59.0356 5.52696C59.0314 5.51729 59.028 5.50944 59.0254 5.50341C59.0241 5.5004 59.023 5.49785 59.0221 5.49576C59.0217 5.49471 59.0213 5.49378 59.0209 5.49296C59.0207 5.49255 59.0205 5.49203 59.0204 5.49182C59.0202 5.49133 59.02 5.49086 55.8102 6.88624C52.6004 8.28163 52.6002 8.28121 52.6 8.28083C52.6 8.28074 52.5998 8.28039 52.5997 8.28021C52.5996 8.27985 52.5995 8.27961 52.5994 8.27947C52.5993 8.27921 52.5994 8.2794 52.5997 8.28005C52.6002 8.28133 52.6016 8.28442 52.6037 8.28931C52.6079 8.29909 52.6151 8.31604 52.6253 8.34006C52.6457 8.3881 52.6778 8.46441 52.7207 8.56814C52.8064 8.7756 52.9351 9.09262 53.099 9.51235C53.4268 10.352 53.895 11.6016 54.4412 13.2066C55.5343 16.4186 56.936 21.0421 58.1515 26.6419L61.5719 25.8994ZM48.5603 47.3823L49.1894 50.8253C52.2625 50.2637 55.0832 49.9955 57.3898 49.8786L57.2126 46.3831L57.0355 42.8875C54.4831 43.0169 51.3547 43.3137 47.9312 43.9393L48.5603 47.3823ZM63.4173 40.0298L66.9115 39.829C66.6852 35.8912 66.1681 30.5741 64.9922 25.157L61.5719 25.8994L58.1515 26.6419C59.2242 31.5835 59.7093 36.5114 59.9231 40.2306L63.4173 40.0298ZM8.82065 10.4293L5.46676 9.42858C4.23675 13.551 2.37744 20.2156 1.59218 25.3726L5.0523 25.8994L8.51242 26.4263C9.21747 21.7961 10.9476 15.5421 12.1745 11.43L8.82065 10.4293ZM31.9747 11.7329L33.7373 8.70909C32.5559 8.02045 30.57 6.91175 28.3502 5.88306C26.1869 4.88052 23.5554 3.83665 21.144 3.43711L20.5719 6.89003L19.9998 10.343C21.4593 10.5848 23.4009 11.3046 25.407 12.2342C27.3567 13.1377 29.1367 14.1298 30.2121 14.7566L31.9747 11.7329ZM20.5719 6.89003L21.144 3.43711C19.0263 3.08624 16.4478 2.95206 14.389 2.90055L14.3015 6.39946L14.2139 9.89836C16.1979 9.948 18.3796 10.0745 19.9998 10.343L20.5719 6.89003ZM56.0726 6.90954C56.3513 3.42065 56.351 3.42063 56.3508 3.42062C56.3507 3.42061 56.3504 3.42058 56.3502 3.42056C56.3497 3.42052 56.3491 3.42048 56.3483 3.42042C56.3469 3.42031 56.345 3.42016 56.3427 3.41997C56.338 3.4196 56.3315 3.41909 56.3232 3.41845C56.3067 3.41716 56.2831 3.41533 56.2529 3.41303C56.1923 3.40842 56.105 3.40189 55.9936 3.39387C55.7709 3.37785 55.4519 3.35586 55.0593 3.33144C54.2755 3.28268 53.1913 3.22379 51.9913 3.18359C49.7003 3.10683 46.6203 3.08176 44.4934 3.43817L45.0719 6.89004L45.6503 10.3419C46.9952 10.1165 49.4155 10.1012 51.757 10.1797C52.8732 10.2171 53.8883 10.2721 54.6247 10.3179C54.9922 10.3408 55.2884 10.3612 55.4911 10.3758C55.5924 10.3831 55.6701 10.3889 55.7216 10.3928C55.7473 10.3948 55.7665 10.3963 55.7786 10.3972C55.7847 10.3977 55.7891 10.398 55.7917 10.3983C55.793 10.3984 55.7938 10.3984 55.7942 10.3985C55.7944 10.3985 55.7945 10.3985 55.7944 10.3985C55.7944 10.3985 55.7943 10.3985 55.7943 10.3985C55.7942 10.3984 55.794 10.3984 56.0726 6.90954ZM45.0719 6.89004L44.4934 3.43817C42.1358 3.83325 39.5913 4.88205 37.5171 5.88253C35.3841 6.91139 33.4771 8.02402 32.3327 8.72207L34.1554 11.71L35.9781 14.698C37.0131 14.0666 38.7067 13.0805 40.5583 12.1874C42.4688 11.2659 44.2929 10.5694 45.6503 10.3419L45.0719 6.89004ZM8.82065 10.4293L12.1745 11.43C12.4628 10.464 13.3079 9.87569 14.2139 9.89836L14.3015 6.39946L14.389 2.90055C10.2228 2.79631 6.62923 5.53252 5.46676 9.42858L8.82065 10.4293ZM31.9747 11.7329L30.2121 14.7566C32.0019 15.7999 34.2161 15.7728 35.9781 14.698L34.1554 11.71L32.3327 8.72207C32.7597 8.46159 33.2986 8.45337 33.7373 8.70909L31.9747 11.7329ZM30.2115 53.0236L28.1715 55.8676C30.8354 57.7784 34.445 57.5756 36.9195 55.7813L34.8649 52.9479L32.8102 50.1144C32.75 50.1581 32.6241 50.2121 32.4636 50.2156C32.3058 50.219 32.2419 50.1727 32.2515 50.1796L30.2115 53.0236ZM57.2126 46.3831L57.3898 49.8786C62.3845 49.6255 67.2426 45.5898 66.9115 39.829L63.4173 40.0298L59.9231 40.2306C59.9884 41.3675 58.941 42.791 57.0355 42.8875L57.2126 46.3831ZM3.52037 40.2069L0.0316491 39.9261C-0.406376 45.3689 3.81641 49.8333 9.0122 50.2088L9.2645 46.7179L9.5168 43.227C7.94647 43.1135 6.90293 41.8068 7.00909 40.4876L3.52037 40.2069Z" fill="white"/>
<line x1="5.57227" y1="58.9062" x2="59.5723" y2="58.9062" stroke="white" stroke-width="7" stroke-linecap="round"/>
<line x1="32.5723" y1="11.9063" x2="32.5723" y2="29.9062" stroke="white" stroke-width="7" stroke-linecap="round"/>
</svg>
