<svg width="61" height="60" viewBox="0 0 61 60" fill="none" xmlns="http://www.w3.org/2000/svg">
<path d="M25.0101 53.514C25.0101 53.514 21.4305 34.7266 30.2012 34.7266C39.6291 34.7266 35.9001 53.514 35.9001 53.514" stroke="white" stroke-width="7" stroke-linecap="round"/>
<path d="M3.5 21.7114C3.5 21.7114 11.493 16.6531 16.4779 13.209C21.7594 9.56 26.7713 3.96191 29.7539 3.51574C32.2633 3.1404 38.2045 9.56593 43.7763 13.209C49.0531 16.6592 57.5 21.7114 57.5 21.7114" stroke="white" stroke-width="7" stroke-linecap="round"/>
<path d="M9.2655 28.4609C9.2655 28.4609 7.47545 44.0824 11.8014 50.0907C17.0244 57.3449 21.3606 56.4782 30.2985 56.3559C38.8469 56.2389 43.9133 56.8097 48.7962 49.7924C53.3546 43.2414 51.3319 29.356 51.3319 29.356" stroke="white" stroke-width="7" stroke-linecap="round"/>
</svg>
