<svg width="473" height="331" viewBox="0 0 473 331" fill="none" xmlns="http://www.w3.org/2000/svg">
<mask id="mask0_1293_11" style="mask-type:luminance" maskUnits="userSpaceOnUse" x="0" y="101" width="123" height="146">
<path d="M0 101.076H122.006V246.722H0V101.076Z" fill="white"/>
</mask>
<g mask="url(#mask0_1293_11)">
<path d="M121.421 105.956L96.9397 196.254L112.921 200.551C113.04 200.908 113.167 201.264 113.311 201.613L96.2519 197.01C95.9547 196.925 95.8443 196.739 95.9208 196.441L120.41 106.151L110.441 103.468L4.14457 172.342L1.08762 183.611L24.4902 189.92C25.2714 187.907 25.8149 185.835 26.1291 183.696C26.4348 181.573 26.2565 178.932 24.8978 177.802L20.3973 176.571C20.202 176.52 20.0916 176.401 20.0577 176.206C20.0322 176.011 20.1001 175.858 20.2614 175.748L100.948 122.828C101.126 122.71 101.296 122.71 101.474 122.828C101.644 122.956 101.703 123.117 101.644 123.321L82.7674 192.917C82.7335 193.036 82.6655 193.13 82.5551 193.189C82.4447 193.257 82.3259 193.274 82.1985 193.24L38.2295 181.394C38.4248 185.47 37.1595 189.334 35.682 192.934L77.4178 204.169C77.7065 204.245 77.8169 204.432 77.7489 204.729L68.0856 244.028L83.2854 244.435L92.5921 208.729C92.677 208.431 92.8638 208.321 93.161 208.406L113.057 213.764L115.256 205.663C115.468 206.037 115.681 206.402 115.91 206.767L113.829 214.443C113.753 214.741 113.566 214.851 113.269 214.766L93.3733 209.416L84.0836 245.021C84.0242 245.25 83.8798 245.361 83.642 245.361L67.4997 244.919C67.3469 244.919 67.228 244.86 67.1431 244.741C67.0496 244.622 67.0242 244.495 67.0581 244.35L76.7385 204.941L34.9433 193.69C34.7989 193.656 34.697 193.58 34.6291 193.452C34.5781 193.325 34.5781 193.198 34.6291 193.07C36.217 189.257 37.6351 185.131 37.2614 180.825C37.2445 180.664 37.3039 180.537 37.4313 180.435C37.5502 180.333 37.686 180.299 37.8474 180.341L81.9947 192.238L100.421 124.28L21.6201 175.968L25.2205 176.936C25.2799 176.953 25.3309 176.979 25.3818 177.013C27.5726 178.694 27.2075 182.651 27.0377 183.823C26.6895 186.167 26.0781 188.442 25.1865 190.642C25.0931 190.896 24.9063 190.99 24.6346 190.913L0.399812 184.383C0.102608 184.307 0.000711317 184.112 0.0771343 183.823L3.29542 171.935C3.32938 171.816 3.38882 171.731 3.49072 171.663L110.11 102.593C110.22 102.525 110.348 102.5 110.484 102.542L121.09 105.395C121.387 105.472 121.497 105.667 121.412 105.956H121.421Z" fill="black"/>
</g>
<path d="M257.844 246.576H37.7869C34.8064 246.576 34.8149 241.973 37.7869 241.973C38.0077 241.973 38.2285 241.973 38.4492 241.973C43.4847 241.88 48.5371 241.973 53.5811 241.973H256.987C257.258 243.468 257.547 245.005 257.844 246.576Z" fill="black"/>
<path d="M426.867 246.579H426.205C421.161 246.672 416.109 246.579 411.065 246.579H291.708C291.649 245.084 291.581 243.547 291.487 241.977H426.867C429.839 241.977 429.839 246.579 426.867 246.579Z" fill="black"/>
<path d="M305.338 326.057C286.427 337.444 253.293 326.346 272.161 320.775C272.866 320.563 274.887 320.419 277.604 320.3C279.04 322.278 280.908 323.824 283.26 324.554C288.193 326.091 293.458 323.467 297.169 319.79C298.188 319.756 299.147 319.722 300.039 319.688C305.864 319.434 309.133 323.773 305.338 326.057Z" fill="black"/>
<path d="M158.935 133.433C158.901 133.433 158.876 133.433 158.842 133.433C157.237 133.119 155.658 132.754 154.155 132.337C153.934 132.278 153.824 132.134 153.824 131.904C153.62 124.559 152.278 119.125 149.629 114.786C149.51 114.582 149.535 114.395 149.697 114.234C149.858 114.064 150.036 114.038 150.24 114.14C153.628 116.102 157.229 117.486 161.058 118.301C161.347 118.369 161.466 118.547 161.415 118.836C160.489 123.863 159.81 128.635 159.385 133.017C159.36 133.297 159.207 133.441 158.918 133.441L158.935 133.433ZM154.732 131.531C155.963 131.87 157.229 132.168 158.519 132.422C158.935 128.279 159.581 123.804 160.438 119.099C157.22 118.369 154.146 117.248 151.225 115.72C153.399 119.88 154.52 124.958 154.732 131.531Z" fill="black"/>
<mask id="mask1_1293_11" style="mask-type:luminance" maskUnits="userSpaceOnUse" x="108" y="0" width="123" height="128">
<path d="M108.963 0H230.697V127.169H108.963V0Z" fill="white"/>
</mask>
<g mask="url(#mask1_1293_11)">
<path d="M192.085 125.662C191.771 125.653 191.618 125.5 191.627 125.186L192.018 113.213C192.026 113.052 192.094 112.933 192.23 112.84L192.4 112.729L192.527 112.644C198.887 108.263 203.914 102.132 207.515 94.4385C211.106 86.7367 212.915 77.6083 212.915 67.359C212.915 57.1013 211.098 47.956 207.515 40.1692C203.923 32.3825 198.887 26.2347 192.519 21.8446C186.141 17.463 178.66 15.2467 170.288 15.2467C161.915 15.2467 154.375 17.4714 147.938 21.8531C141.502 26.2347 136.398 32.3995 132.823 40.1692C129.24 47.9475 127.423 57.0928 127.423 67.359C127.423 77.6168 129.265 86.7621 132.942 94.5404C136.61 102.319 141.68 108.441 148.049 112.755C148.558 113.103 149.101 113.442 149.653 113.774C149.806 113.867 149.883 114.011 149.866 114.19C149.857 114.377 149.772 114.504 149.611 114.58C144.949 116.873 140.95 119.989 137.595 123.946C137.417 124.15 137.213 124.176 136.984 124.023C129.257 118.469 122.956 111.056 118.252 101.987C113.038 91.925 110.389 80.2746 110.389 67.359C110.389 54.435 113.038 42.7846 118.252 32.7307C123.474 22.6682 130.658 14.6183 139.599 8.79313C148.55 2.95946 158.884 0.046875 170.288 0.046875C181.845 0.046875 192.247 2.99343 201.197 8.81011C210.155 14.6183 217.288 22.6682 222.451 32.7477C227.605 42.8186 230.187 54.4604 230.187 67.376C230.187 80.2831 227.58 91.925 222.451 101.996C221.347 104.153 220.141 106.242 218.817 108.263C218.757 108.356 218.672 108.424 218.562 108.458C216.558 109.044 214.656 109.57 212.813 110.088C207.243 111.617 201.987 113.094 201.52 114.249C201.477 114.334 201.486 114.41 201.537 114.478C202.861 116.771 205.001 118.376 207.905 119.225C208.117 119.293 208.228 119.437 208.236 119.658C208.245 119.879 208.143 120.032 207.931 120.1L192.255 125.628C192.204 125.645 192.145 125.662 192.085 125.662ZM192.926 113.485L192.569 124.532L206.36 119.658C203.914 118.758 202.038 117.179 200.721 114.928C200.518 114.597 200.492 114.249 200.645 113.892C201.265 112.389 205.154 111.243 212.55 109.188C214.342 108.687 216.193 108.169 218.12 107.609C219.386 105.656 220.549 103.643 221.61 101.571C226.68 91.6363 229.253 80.1303 229.253 67.359C229.253 54.5963 226.68 43.0818 221.61 33.1553C216.533 23.2202 209.502 15.2976 200.696 9.57434C191.882 3.85956 181.658 0.963958 170.288 0.963958C159.062 0.963958 148.915 3.86805 140.109 9.58284C131.295 15.2976 124.221 23.2287 119.075 33.1553C113.921 43.0818 111.314 54.5963 111.314 67.3675C111.314 80.1303 113.921 91.6447 119.075 101.571C123.635 110.369 129.724 117.595 137.179 123.029C140.364 119.344 144.125 116.381 148.456 114.13C148.15 113.926 147.836 113.731 147.531 113.519C141.018 109.112 135.829 102.862 132.101 94.9395C128.365 87.0084 126.497 77.7526 126.497 67.359C126.497 56.9654 128.34 47.6927 131.983 39.7871C135.625 31.8815 140.822 25.5723 147.412 21.0973C154.01 16.6138 161.703 14.3381 170.279 14.3381C178.864 14.3381 186.515 16.6223 193.037 21.0973C199.558 25.5638 204.695 31.8561 208.347 39.7871C211.998 47.7097 213.841 56.9654 213.841 67.359C213.841 77.7442 211.99 86.9999 208.347 94.8206C204.704 102.65 199.549 108.942 193.037 113.408L192.926 113.485Z" fill="black"/>
</g>
<path d="M295.843 73.6946C291.326 73.6946 286.426 70.6037 286.189 70.4508C286.138 70.4168 286.087 70.3659 286.053 70.3149C285.942 70.1536 285.832 70.0008 285.705 69.8649C285.518 69.6526 285.518 69.4488 285.705 69.245C286.613 68.294 287.522 67.3259 288.354 66.4343C288.447 66.3324 288.558 66.2815 288.702 66.29C288.838 66.29 288.948 66.3409 289.042 66.4513C289.288 66.7315 289.56 66.9863 289.857 67.224C291.606 68.5827 293.992 68.778 296.302 68.7865C298.459 68.8035 300.616 68.7016 302.772 68.4808C303.027 68.4553 303.29 68.4213 303.562 68.3874C303.766 68.3619 303.919 68.4383 304.029 68.6166C304.131 68.8035 304.114 68.9733 303.978 69.1346L303.944 69.1856C303.927 69.2026 303.91 69.2195 303.893 69.2365C301.1 71.784 298.994 73.2275 297.644 73.5332C297.049 73.6521 296.446 73.7031 295.843 73.6946ZM286.766 69.729C287.496 70.1706 293.194 73.5502 297.448 72.6161C298.179 72.4548 299.605 71.75 302.255 69.4488C300.301 69.6271 298.306 69.7205 296.31 69.7121C293.848 69.7121 291.266 69.4828 289.296 67.9458C289.084 67.7845 288.889 67.6062 288.702 67.4278C288.048 68.1241 287.36 68.8544 286.664 69.5847C286.707 69.6441 286.741 69.7036 286.766 69.729Z" fill="black"/>
<path d="M151.937 106.904C149.882 106.87 148.023 106.258 146.358 105.061C143.59 103.133 141.722 100.102 141.382 96.943C140.788 91.3896 144.134 85.5049 149.704 82.3036C152.838 80.5034 160.505 76.9625 167.273 73.8461C172.147 71.5959 176.359 69.6513 177.938 68.7937C181.615 66.7897 186.905 65.6433 190.718 68.437C193.97 70.8146 195.321 75.6718 194.327 81.429C194.038 83.1103 193.563 85.6748 193.053 88.3836C192.799 89.7422 192.544 91.1263 192.306 92.4255C192.272 92.5869 192.179 92.6973 192.026 92.7652C191.881 92.8246 191.737 92.8076 191.61 92.7227C190.149 91.7462 186.277 90.6253 176.69 93.9455C175.612 94.3191 174.559 94.7692 173.531 95.2872C173.361 95.3721 173.2 95.3551 173.047 95.2447C172.546 94.8796 171.986 94.6588 171.366 94.5824C170.177 94.4465 168.852 94.8286 167.434 95.7117C165.456 96.9345 163.8 98.7772 162.195 100.543C159.868 103.116 157.457 105.783 154.035 106.649C153.347 106.819 152.642 106.904 151.937 106.904ZM185.284 67.6898C182.872 67.6898 180.375 68.5134 178.388 69.6004C176.775 70.475 172.555 72.4195 167.664 74.6783C160.913 77.7862 153.262 81.3186 150.163 83.1018C144.906 86.1248 141.748 91.6443 142.308 96.8411C142.614 99.7367 144.329 102.53 146.885 104.297C149.076 105.817 151.521 106.326 153.789 105.749C156.947 104.95 159.155 102.505 161.49 99.9235C163.138 98.1063 164.836 96.2212 166.916 94.922C168.521 93.92 170.041 93.4955 171.451 93.6653C172.13 93.7417 172.759 93.971 173.336 94.3361C174.321 93.8521 175.332 93.4275 176.367 93.0709C184.969 90.0989 189.317 90.5404 191.499 91.6188C191.712 90.5064 191.924 89.3516 192.136 88.2222C192.646 85.5049 193.121 82.949 193.41 81.2762C194.335 75.8671 193.121 71.3496 190.158 69.1758C188.697 68.1398 187.075 67.6473 185.284 67.6898Z" fill="black"/>
<path d="M176.743 167.654C172.565 167.654 168.913 167.009 166.043 165.506C159.267 161.94 156.72 150.986 158.477 132.924C158.902 128.517 159.581 123.719 160.515 118.658C162.265 109.114 164.303 101.803 164.328 101.735C164.337 101.684 164.362 101.641 164.387 101.599C164.506 101.429 167.3 97.3786 173.1 94.4575C174.161 93.9226 175.257 93.4556 176.377 93.0734C185.845 89.8042 190.151 90.6618 192.104 91.961C193.284 92.7423 193.539 93.6339 193.564 93.7358C193.564 93.7782 193.564 93.8122 193.564 93.8547L192.554 124.534L207.592 119.219C207.686 119.185 207.779 119.185 207.872 119.219C208.051 119.27 208.238 119.321 208.416 119.372C215.039 121.061 223.166 118.565 223.251 118.539C223.446 118.48 223.616 118.531 223.752 118.692C223.879 118.854 223.896 119.023 223.786 119.21C223.268 120.127 210.878 141.662 206.089 144.54C205.885 144.659 205.86 144.77 205.86 144.872C205.877 145.576 207.337 147.996 220.559 155.163C220.729 155.257 220.805 155.401 220.797 155.596C220.788 155.783 220.695 155.919 220.516 155.995C206.633 161.778 189.361 167.654 176.743 167.654ZM165.194 102.057C164.973 102.856 163.071 109.844 161.424 118.828C160.498 123.855 159.819 128.627 159.394 133.009C157.705 150.417 160.15 161.371 166.476 164.691C178.059 170.771 204.145 161.727 219.285 155.503C206.514 148.514 204.977 146.094 204.951 144.88C204.934 144.362 205.164 143.989 205.622 143.742C209.656 141.322 219.913 124.042 222.435 119.72C219.939 120.357 213.681 121.647 208.212 120.255C208.068 120.221 207.915 120.178 207.771 120.136L192.24 125.621C192.087 125.681 191.942 125.655 191.815 125.562C191.679 125.469 191.62 125.341 191.628 125.18L192.647 93.9056C192.426 93.4046 192.078 93.0055 191.611 92.7253C190.151 91.7488 186.279 90.6279 176.692 93.9481C175.613 94.3217 174.56 94.7717 173.533 95.2897C168.302 97.9051 165.559 101.548 165.194 102.057Z" fill="black"/>
<path d="M286.231 325.464C285.17 325.464 284.134 325.311 283.123 324.997C280.822 324.283 278.844 322.789 277.23 320.572C274.929 317.414 273.944 313.584 273.511 310.926C273.18 308.88 272.738 305.789 272.263 302.511C271.838 299.564 271.397 296.516 271.006 293.986C270.989 293.918 270.989 293.85 271.006 293.773C272.704 285.01 280.448 280.076 285.407 279.372C287.912 279.015 289.772 279.652 290.528 281.104C290.553 281.146 290.562 281.197 290.57 281.24L290.63 281.605C290.757 282.437 290.885 283.312 291.241 284C291.98 285.384 293.882 286.148 295.682 285.74C297.219 285.401 298.68 284.382 300.038 282.709C301.923 280.391 303.172 277.487 304.378 274.684C306.127 270.642 307.927 266.456 311.672 264.011C314.44 262.21 317.904 261.777 321.462 262.788C325.564 263.951 329.02 266.813 330.701 270.456C333.945 277.419 334.217 282.573 326.719 291.396C321.963 297 313.022 305.339 306.492 311.427C302.773 314.892 299.563 317.872 298.221 319.341C297.941 319.647 297.695 319.902 297.465 320.131C293.992 323.587 289.967 325.464 286.231 325.464ZM271.931 293.935C272.322 296.448 272.755 299.454 273.163 302.384C273.638 305.653 274.088 308.744 274.394 310.782C274.98 314.391 276.245 317.685 277.952 320.029C279.438 322.084 281.264 323.46 283.37 324.122C287.53 325.421 292.557 323.68 296.812 319.469C297.041 319.248 297.27 319.01 297.542 318.713C298.9 317.227 301.974 314.365 305.855 310.731C312.368 304.659 321.293 296.346 326.014 290.784C333.223 282.293 333.002 277.588 329.861 270.838C328.281 267.441 325.046 264.766 321.208 263.671C317.904 262.754 314.703 263.127 312.164 264.783C308.657 267.076 306.993 270.948 305.227 275.049C303.995 277.911 302.713 280.883 300.752 283.286C299.249 285.129 297.61 286.25 295.869 286.632C293.967 287.056 291.479 286.428 290.417 284.433C289.976 283.6 289.832 282.658 289.696 281.741L289.653 281.461C289.067 280.425 287.564 279.992 285.518 280.28C280.865 280.951 273.553 285.621 271.931 293.935Z" fill="black"/>
<path d="M270.403 296.405C269.681 296.405 268.161 296.405 264.162 279.498C262.268 271.508 259.992 260.46 257.385 246.662C257.097 245.082 256.808 243.554 256.536 242.059C255.611 237.041 254.787 232.566 254.142 228.974C253.607 226.053 253.191 223.751 252.944 222.427C250.482 209.443 239.392 183.587 232.998 169.329C230.756 164.336 229.245 161.084 229.228 161.042C229.092 160.761 229.177 160.558 229.457 160.43L229.958 160.209C230.085 160.15 230.221 160.15 230.348 160.209C232.811 161.441 234.637 162.307 235.24 162.596C235.774 162.29 237.328 161.492 239.477 160.447L239.562 160.413C241.837 159.326 245.412 157.73 249.251 156.354L249.344 156.32C254.583 154.452 259.041 153.467 262.557 153.399C263.601 153.374 264.637 153.45 265.673 153.629C266.429 153.739 267.168 153.688 267.906 153.484C268.144 153.433 268.322 153.51 268.433 153.73C268.441 153.756 268.45 153.773 268.458 153.798V153.773L268.857 154.665L269.01 155.038C274.504 167.606 284.015 190.083 286.078 199.449C289.178 213.451 291.139 227.607 291.963 241.915C292.048 243.486 292.124 245.031 292.184 246.517C293.041 268.077 290.876 281.995 290.85 282.114C290.816 282.377 290.664 282.504 290.4 282.504C290.137 282.513 289.984 282.385 289.942 282.122C289.908 281.893 289.831 281.672 289.73 281.468C289.169 280.381 287.658 279.931 285.569 280.237C280.873 280.908 273.553 285.587 271.94 293.908C271.94 293.934 271.94 293.959 271.94 293.985C271.677 295.14 271.32 296.405 270.403 296.405ZM230.34 161.245C230.866 162.4 232.149 165.177 233.847 168.956C240.25 183.255 251.356 209.172 253.844 222.231C254.099 223.573 254.524 225.874 255.05 228.787C255.696 232.387 256.511 236.862 257.436 241.881C257.717 243.375 258.005 244.912 258.294 246.483C260.875 260.138 263.126 271.1 265.011 279.057C268.552 294.061 270.038 295.42 270.411 295.471C270.411 295.471 270.717 295.301 271.023 293.823C271.023 293.798 271.023 293.781 271.023 293.764C272.721 285.001 280.465 280.067 285.424 279.362C287.556 279.057 289.229 279.473 290.137 280.5C290.664 276.356 291.946 263.976 291.249 246.585C291.19 245.099 291.122 243.554 291.029 241.983C290.205 227.717 288.26 213.613 285.178 199.661C283.123 190.363 273.638 167.954 268.17 155.42L268 155.047L267.753 154.478C267.015 154.639 266.267 154.665 265.512 154.546C264.544 154.376 263.576 154.308 262.591 154.333C259.177 154.393 254.821 155.361 249.641 157.204L249.446 156.787L249.607 157.22H249.565C245.76 158.579 242.228 160.167 239.944 161.254L239.901 161.271C237.244 162.545 235.511 163.487 235.494 163.496C235.35 163.572 235.214 163.572 235.07 163.496C235.027 163.538 233.134 162.638 230.34 161.245Z" fill="black"/>
<path d="M235.562 162.849L235.596 162.832C235.596 162.849 235.588 162.866 235.562 162.849Z" fill="black"/>
<path d="M268.647 155.244H268.579C257.498 157.223 242.425 162.343 233.696 169.425C233.603 169.323 233.518 169.23 233.424 169.111C231.157 164.058 229.646 160.832 229.646 160.832L230.147 160.611C233.186 162.122 235.25 163.099 235.25 163.099C235.25 163.099 236.982 162.156 239.682 160.866L239.733 160.84C242.909 159.388 246.136 158.038 249.414 156.79L249.473 156.764C250.008 156.56 250.543 156.357 251.078 156.153C254.772 154.786 258.644 153.538 262.567 153.852H262.686C264.469 154.013 266.32 154.497 268.036 153.954L268.112 153.928C268.265 154.378 268.435 154.82 268.647 155.244Z" fill="black"/>
<path d="M235.249 163.592C235.181 163.592 235.113 163.575 235.053 163.55C235.028 163.55 232.948 162.556 229.942 161.053C226.375 159.279 223.072 157.563 220.125 155.967C206.581 148.622 204.976 146.125 204.951 144.885C204.943 144.367 205.163 143.994 205.622 143.748C209.655 141.328 219.913 124.047 222.435 119.725C219.939 120.362 213.68 121.653 208.212 120.26L207.923 120.184C207.821 120.158 207.719 120.124 207.617 120.099C204.484 119.182 202.157 117.432 200.714 114.936C200.51 114.596 200.484 114.248 200.637 113.891C201.249 112.388 205.138 111.242 212.534 109.187C214.385 108.678 216.279 108.143 218.274 107.557C224.125 105.841 231.58 103.447 237.287 100.059C251.493 91.6607 254.168 88.4594 259.033 82.6597C260.995 80.316 263.432 77.395 267.143 73.5483C271.847 68.6572 276.229 66.2286 280.169 66.3305C281.366 66.3645 282.504 66.6362 283.591 67.1457C284.669 67.6637 285.603 68.3685 286.385 69.2686C286.52 69.4129 286.639 69.5743 286.758 69.7356C287.488 70.1772 293.186 73.5568 297.432 72.6227C298.256 72.4359 299.928 71.5868 303.266 68.5468L303.291 68.5298C303.368 68.4449 303.469 68.394 303.58 68.3855C303.775 68.36 303.979 68.3345 304.174 68.3005C306.611 67.9184 308.242 67.1797 309.329 65.9654C309.498 65.7616 309.668 65.5493 309.838 65.32L309.965 65.1502C310.084 65.0143 310.22 64.9549 310.399 64.9804L363.292 72.4699C363.428 72.4954 363.53 72.5548 363.598 72.6652C363.674 72.7841 363.7 72.9029 363.666 73.0388C363.275 74.6012 362.409 76.4864 361.093 78.6347C360.999 78.7961 360.864 78.8725 360.677 78.8555L360.286 78.847L354.41 78.5413C352.415 79.8065 350.996 81.1312 349.943 82.7021C348.712 84.5363 348.44 86.379 348.126 88.4849V88.5952C349.188 88.7141 350.589 88.8585 352.185 89.0113C352.381 89.0283 352.508 89.1217 352.576 89.3C352.652 89.4784 352.618 89.6397 352.499 89.7756C347.141 95.7876 341.809 100.747 341.758 100.798C341.613 100.925 341.452 100.959 341.274 100.891C338.047 99.7786 334.727 99.0738 331.33 98.7851C331.296 98.7766 331.262 98.7681 331.228 98.7596C326.498 97.2821 322.601 95.4479 319.323 93.1637C318.431 92.5438 315.629 91.2106 314.491 90.9814C314.254 91.0238 314.007 91.0493 313.77 91.0663C312.08 91.2191 308.556 91.5248 300.158 96.798C299.691 97.0868 299.241 97.384 298.774 97.6727L300.888 98.8275L301.194 98.9973L301.865 99.3625L303.402 100.195L303.512 100.254C303.554 100.28 303.597 100.297 303.639 100.322C304.913 101.01 306.068 101.621 307.155 102.19L307.35 102.292L308.445 102.852C309.142 103.209 309.813 103.549 310.441 103.854C310.866 104.067 311.29 104.271 311.715 104.466L311.783 104.5L312.012 104.61L312.428 104.806C313.184 105.171 313.795 105.451 314.364 105.731C314.491 105.782 314.568 105.875 314.61 106.003C314.653 106.13 314.644 106.249 314.585 106.368C308.182 118.197 280.525 151.39 268.128 154.413C267.262 154.642 266.387 154.693 265.504 154.566C255.357 152.723 235.673 163.422 235.469 163.533C235.402 163.575 235.334 163.592 235.249 163.592ZM223.403 118.511C223.547 118.511 223.675 118.562 223.76 118.681C223.896 118.842 223.913 119.012 223.802 119.199C223.276 120.116 210.887 141.65 206.106 144.529C205.902 144.648 205.877 144.758 205.877 144.86C205.894 145.565 207.354 147.985 220.575 155.152C223.505 156.74 226.8 158.446 230.349 160.221C232.812 161.452 234.637 162.319 235.24 162.607C237.507 161.384 255.654 151.831 265.674 153.649C266.43 153.759 267.168 153.717 267.907 153.513C273.095 152.248 282.164 144.86 292.787 133.261C301.516 123.716 309.957 112.762 313.523 106.351C313.073 106.147 312.598 105.918 312.012 105.646L311.604 105.442L311.324 105.315L311.299 105.298C310.874 105.094 310.441 104.882 310.016 104.67C309.405 104.364 308.717 104.024 308.012 103.659L306.9 103.09L306.73 102.997C305.626 102.436 304.471 101.817 303.181 101.129L303.07 101.061L302.943 100.993L301.406 100.169L300.735 99.804L300.429 99.6342L297.636 98.0972C297.424 97.9784 297.347 97.8085 297.407 97.5793C297.432 97.4943 297.466 97.4264 297.525 97.367L297.61 97.3075C298.281 96.8745 298.96 96.4414 299.657 96.0083C308.242 90.6247 311.91 90.2935 313.668 90.1407C313.906 90.1237 314.135 90.0982 314.356 90.0558C314.423 90.0388 314.483 90.0388 314.542 90.0558C315.774 90.2511 318.839 91.7031 319.833 92.3994C323.025 94.6242 326.821 96.4159 331.44 97.868C334.812 98.1567 338.106 98.8445 341.316 99.9314C342.293 99.0058 346.657 94.845 351.183 89.835C349.723 89.6907 348.466 89.5548 347.549 89.4614C347.413 89.4444 347.311 89.385 347.226 89.2831C347.15 89.1812 347.116 89.0623 347.141 88.9349L347.226 88.349C347.532 86.2176 347.838 84.2136 349.188 82.1842C350.334 80.4774 351.871 79.0423 354.045 77.6837L354.087 77.6582C354.164 77.6242 354.24 77.6072 354.325 77.6072L360.447 77.9129C361.365 76.4694 362.095 74.9324 362.647 73.3105L310.551 65.9484C310.382 66.1607 310.212 66.3815 310.025 66.5938C308.412 68.4024 306 68.9629 304.327 69.2261C304.174 69.2516 304.021 69.2771 303.843 69.2941C301.075 71.816 298.994 73.2341 297.644 73.5313C292.745 74.6182 286.461 70.6442 286.189 70.4659C286.138 70.4319 286.087 70.381 286.053 70.33C285.943 70.1687 285.833 70.0158 285.705 69.88C284.245 68.1817 282.402 67.307 280.16 67.2561H279.948C276.331 67.2561 272.246 69.5828 267.814 74.1937C264.12 78.0148 261.81 80.8 259.755 83.2541C254.83 89.1302 252.113 92.374 237.771 100.857C231.979 104.296 224.456 106.716 218.546 108.448C216.55 109.034 214.64 109.561 212.797 110.079C207.235 111.616 201.979 113.085 201.503 114.248C201.461 114.325 201.469 114.401 201.529 114.477C202.854 116.77 204.993 118.366 207.889 119.224L208.161 119.301L208.441 119.377C215.064 121.067 223.182 118.57 223.267 118.545C223.31 118.528 223.352 118.511 223.403 118.511Z" fill="black"/>
<path d="M300.649 99.6883C300.564 99.6883 300.496 99.6713 300.428 99.6289L297.635 98.1004C297.422 97.9815 297.346 97.8117 297.405 97.5824C297.431 97.4975 297.465 97.4296 297.524 97.3701C297.694 97.2088 297.872 97.1833 298.076 97.2852L300.87 98.8222C301.082 98.9411 301.15 99.1109 301.091 99.3402C301.031 99.5694 300.887 99.6883 300.649 99.6883Z" fill="black"/>
<path d="M303.639 100.845C295.207 108.284 283.404 117.31 274.055 119.144C280.788 109.914 288.439 103.775 297.856 97.7031C299.597 98.6542 301.567 99.7411 303.639 100.845Z" fill="black"/>
<path d="M231.367 161.315C231.138 161.315 230.985 161.205 230.926 160.984C230.858 160.755 230.926 160.585 231.13 160.466C265.656 139.373 302.781 101.042 303.155 100.66C303.367 100.422 303.588 100.422 303.817 100.635C304.046 100.855 304.046 101.076 303.825 101.297C303.452 101.679 266.251 140.095 231.605 161.247C231.537 161.298 231.452 161.315 231.367 161.315Z" fill="black"/>
<path d="M285.62 279.423H285.578C285.272 279.397 285.128 279.236 285.153 278.93C287.862 246.153 281.926 213.995 276.483 192.792C270.573 169.806 263.933 154.385 263.873 154.232C263.771 153.96 263.848 153.765 264.12 153.646C264.391 153.527 264.587 153.604 264.714 153.867C264.782 154.02 271.439 169.5 277.366 192.537C282.835 213.809 288.787 246.085 286.079 278.998C286.062 279.278 285.909 279.423 285.62 279.423Z" fill="black"/>
<path d="M176.709 162.505C172.353 162.505 168.769 161.325 166.205 159.015C163.437 156.519 162.07 152.782 162.358 148.494C162.927 139.875 164.201 131.596 165.475 123.589C166.74 115.581 168.005 107.336 168.574 98.7595C168.591 98.4538 168.752 98.3094 169.067 98.3349C169.372 98.3519 169.517 98.5132 169.5 98.8189C168.922 107.438 167.631 115.717 166.383 123.725C165.135 131.74 163.844 139.994 163.275 148.554C163.004 152.613 164.235 156.001 166.825 158.336C170.052 161.24 175.045 162.225 181.269 161.181C196.307 158.676 201.801 156.289 212.738 151.551L213.426 151.245C213.706 151.127 213.91 151.203 214.038 151.483C214.156 151.763 214.08 151.967 213.791 152.095L213.112 152.4C202.098 157.173 196.571 159.567 181.43 162.089C179.868 162.361 178.288 162.497 176.709 162.505Z" fill="black"/>
<path d="M314.483 90.968C314.398 90.968 314.321 90.9425 314.245 90.8915L287.76 74.6303C287.522 74.4605 287.48 74.2567 287.633 74.0104C287.786 73.7642 287.989 73.7132 288.244 73.8491L314.729 90.1103C314.924 90.2292 314.992 90.4075 314.933 90.6283C314.865 90.8576 314.721 90.968 314.483 90.968Z" fill="black"/>
<path d="M347.599 89C348.805 89.1274 350.605 89.3057 352.677 89.5265C347.676 95.2497 342.691 100.056 341.851 100.854C344.687 98.0265 346.504 94.6469 347.302 90.7323C347.438 90.1379 347.514 89.5604 347.599 89Z" fill="black"/>
<path d="M363.53 73.0879C363.139 74.6588 362.273 76.476 361.11 78.4206L360.32 78.3866L354.3 78.0809C357.195 76.2552 360.55 74.9645 363.53 73.0879Z" fill="black"/>
<path d="M369.007 91.2244H368.633C365.5 91.2074 358.197 90.5366 352.618 89.9847L352.083 89.9252C350.232 89.7384 348.635 89.5771 347.54 89.4582C347.404 89.4497 347.302 89.3903 347.217 89.2884C347.141 89.178 347.107 89.0676 347.132 88.9317L347.217 88.3458C347.523 86.2229 347.829 84.2104 349.179 82.1895C350.317 80.4742 351.862 79.0476 354.036 77.6805L354.078 77.6635C354.155 77.621 354.231 77.6041 354.316 77.6041L361.118 77.9437L401.291 79.6845C402.616 78.7589 412.678 71.8128 419.412 70.7854C419.65 70.7429 419.811 70.8363 419.905 71.0571C420.006 71.2694 419.956 71.4562 419.769 71.6006L395.024 90.647C394.931 90.7149 394.829 90.7489 394.719 90.7404C389.174 90.4347 382.933 90.7064 377.43 90.9442C374.339 91.0971 371.393 91.2244 369.007 91.2244ZM348.126 88.5921C349.187 88.7109 350.588 88.8553 352.185 89.0081L352.72 89.0676C358.265 89.6195 365.542 90.2904 368.641 90.2904C371.053 90.3073 374.135 90.1715 377.396 90.0271C382.865 89.7809 389.046 89.5091 394.608 89.8063L417.561 72.161C410.785 74.114 401.801 80.4487 401.707 80.5336C401.614 80.5931 401.52 80.6185 401.419 80.6185L360.303 78.8438L354.418 78.5381C352.423 79.8034 351.005 81.128 349.952 82.699C348.72 84.5416 348.449 86.3843 348.134 88.4817L348.126 88.5921Z" fill="black"/>
<mask id="mask2_1293_11" style="mask-type:luminance" maskUnits="userSpaceOnUse" x="343" y="38" width="130" height="179">
<path d="M343.734 38.0371H472.805V216.291H343.734V38.0371Z" fill="white"/>
</mask>
<g mask="url(#mask2_1293_11)">
<path d="M426.221 215.899C426.17 215.899 426.127 215.891 426.076 215.874L410.265 210.66C409.993 210.575 409.883 210.388 409.959 210.108L421.593 166.385L344.583 141.038C344.312 140.953 344.201 140.767 344.278 140.486L348.235 125.601C348.26 125.499 348.32 125.422 348.404 125.354L368.376 109.993C368.444 109.942 368.521 109.908 368.606 109.9C376.002 109.102 382.676 108.601 389.741 110.494C390.149 110.596 390.556 110.571 390.947 110.435C391.193 110.35 391.38 110.418 391.507 110.647C391.626 110.876 391.584 111.072 391.38 111.233L366.525 130.585L427.554 150.668L450.252 65.4044L403.175 102.054C403.039 102.164 402.886 102.19 402.725 102.122C402.436 102.011 402.139 101.918 401.842 101.833C400.466 101.468 399.252 101.052 397.969 100.61C395.846 99.829 393.681 99.2006 391.473 98.7251C391.168 98.7081 391.023 98.5467 391.032 98.241C391.049 97.9353 391.21 97.791 391.516 97.7995C392.475 97.7061 393.435 97.757 394.386 97.9438C395.346 98.1731 396.288 98.4873 397.205 98.8609C399.099 99.5657 401.952 100.636 402.555 99.8035C402.555 99.8035 402.58 99.7695 402.555 99.6676C402.334 98.7505 399.888 96.9079 397.834 95.821C396.984 95.3794 394.717 94.1906 392.416 94.0547C391.745 94.0208 391.083 94.0377 390.412 94.1057C390.183 94.1312 390.021 94.0377 389.936 93.817C389.86 93.6047 389.902 93.4264 390.089 93.2905L461.316 38.4608C461.443 38.3589 461.588 38.3335 461.741 38.3929L472.44 41.9084C472.712 42.0018 472.814 42.1801 472.746 42.4603L442.618 155.635L462.666 162.233C462.946 162.318 463.048 162.505 462.98 162.785L458.887 178.163C458.845 178.29 458.769 178.384 458.658 178.452C458.539 178.511 458.42 178.52 458.293 178.477L438.279 171.896L426.662 215.568C426.628 215.696 426.552 215.797 426.433 215.857C426.365 215.891 426.297 215.908 426.221 215.899ZM410.97 209.938L425.898 214.846L437.523 171.175C437.557 171.047 437.633 170.945 437.752 170.886C437.871 170.826 437.99 170.809 438.117 170.852L458.115 177.441L461.97 162.955L441.921 156.357C441.641 156.263 441.539 156.085 441.607 155.805L471.727 42.6387L461.69 39.3355L419.776 71.6032L391.83 93.1122C392.068 93.1122 392.289 93.1122 392.484 93.1207C394.717 93.265 396.857 94.2585 398.275 95.0058C400.101 95.9568 403.115 98.0118 403.455 99.4468C403.548 99.7695 403.497 100.058 403.311 100.33C403.03 100.704 402.657 100.924 402.198 100.984C402.41 101.035 402.614 101.103 402.81 101.171L450.761 63.8504C450.939 63.7146 451.118 63.7061 451.305 63.825C451.483 63.9523 451.551 64.1222 451.491 64.3345L428.327 151.372C428.293 151.5 428.216 151.593 428.097 151.661C427.978 151.721 427.859 151.729 427.732 151.687L365.421 131.18C365.252 131.129 365.141 131.01 365.116 130.823C365.082 130.645 365.141 130.5 365.286 130.381L389.648 111.42L389.512 111.386C382.642 109.543 376.087 110.027 368.844 110.808L349.101 126L345.297 140.316L422.306 165.655C422.578 165.749 422.688 165.927 422.612 166.216L410.97 209.938ZM392.119 110.545C392.008 110.545 391.915 110.511 391.83 110.443C391.711 110.35 391.652 110.231 391.652 110.087C391.652 110.019 391.669 109.951 391.694 109.883C391.72 109.84 391.737 109.798 391.737 109.739C391.728 109.671 391.711 109.603 391.669 109.543C391.405 109.127 390.573 108.66 389.529 108.354C386.905 107.548 385.054 107.089 382.821 106.911C382.532 106.894 382.396 106.741 382.396 106.452C382.396 106.172 382.54 106.019 382.821 105.994C384.145 105.866 385.461 105.892 386.778 106.079C387.652 106.223 388.552 106.384 389.461 106.554C391.278 106.877 393.155 107.217 394.955 107.471C395.159 107.497 395.286 107.616 395.337 107.811C395.337 107.845 395.337 107.887 395.337 107.93C395.329 108.074 395.269 108.193 395.159 108.286L392.382 110.435C392.306 110.503 392.221 110.537 392.119 110.545ZM392.458 109.076C392.484 109.11 392.501 109.144 392.518 109.187L393.758 108.227C392.611 108.04 391.439 107.836 390.285 107.633C390.998 107.887 392.017 108.363 392.441 109.059L392.458 109.076ZM398.555 105.518C398.504 105.518 398.453 105.51 398.411 105.493H398.385C395.914 104.593 393.384 103.879 390.794 103.37C389.639 103.115 388.332 102.826 386.633 102.402C386.472 102.359 386.361 102.258 386.311 102.096C386.26 101.935 386.285 101.79 386.395 101.663L386.421 101.629C386.531 101.485 386.667 101.425 386.846 101.434C390.268 101.748 392.45 102.325 394.98 102.988C396.314 103.336 397.689 103.693 399.37 104.049C399.566 104.092 399.685 104.211 399.727 104.397C399.727 104.431 399.727 104.465 399.727 104.508C399.727 104.652 399.668 104.771 399.549 104.864L398.827 105.425C398.742 105.484 398.657 105.518 398.555 105.518Z" fill="black"/>
</g>
<path d="M415.03 92.7283C414.809 92.7283 414.665 92.6179 414.597 92.4141C414.521 92.2103 414.572 92.0405 414.741 91.9046L423.98 84.7208C424.125 84.6104 424.269 84.5934 424.439 84.6529C426.451 85.4426 427.436 86.2748 427.47 87.2088C427.487 88.024 426.765 88.7628 425.254 89.4506C425.186 89.476 425.11 89.493 425.033 89.4845L424.048 89.4166C424.091 89.4845 424.133 89.5525 424.159 89.6374C424.286 90.011 424.201 90.3337 423.921 90.6139C422.511 92.2613 417.764 92.6434 415.056 92.7283H415.03ZM424.328 85.6124L416.457 91.7433C419.938 91.5225 422.469 90.8941 423.208 90.028C423.233 89.994 423.25 89.9601 423.267 89.9261C423.267 89.9261 423.055 89.5695 421.246 89.2128C420.957 89.1619 420.838 88.992 420.872 88.7033C420.915 88.4146 421.076 88.2872 421.365 88.3042L424.965 88.5675C426.383 87.9051 426.528 87.4211 426.528 87.2343C426.528 87.056 426.349 86.4276 424.328 85.5954V85.6124Z" fill="black"/>
<path d="M426.546 83.751C426.325 83.751 426.181 83.6491 426.113 83.4368C426.036 83.233 426.087 83.0632 426.257 82.9273L432.957 77.7136C433.195 77.5183 433.407 77.5437 433.602 77.79C434.044 78.3165 434.146 78.9024 433.908 79.5477C433.339 81.1696 430.494 82.8085 426.665 83.7255C426.622 83.7425 426.588 83.751 426.546 83.751ZM433.076 78.792L428.762 82.1461C431.038 81.3225 432.685 80.2355 433.025 79.2505C433.084 79.0977 433.101 78.9448 433.076 78.792Z" fill="black"/>
<path d="M339.905 113.699C333.044 113.699 324.553 111.364 313.972 106.557C313.395 106.303 312.775 106.005 312.011 105.64L311.603 105.436L311.323 105.309L311.297 105.292C310.873 105.088 310.44 104.876 310.015 104.664C309.353 104.333 308.682 104.001 308.011 103.653L306.899 103.084L306.729 102.991C305.718 102.473 304.674 101.921 303.417 101.242L303.366 101.216L303.196 101.123L302.942 100.987L301.405 100.163L300.734 99.7981L300.428 99.6283L297.635 98.0913C297.422 97.9724 297.346 97.8026 297.405 97.5733C297.431 97.4969 297.465 97.4205 297.524 97.361C297.55 97.3356 297.575 97.3186 297.609 97.3016C298.28 96.8685 298.959 96.4355 299.655 96.0024C308.24 90.6188 311.909 90.2876 313.666 90.1348C313.904 90.1178 314.134 90.0923 314.354 90.0498C314.422 90.0329 314.482 90.0329 314.541 90.0498C315.772 90.2452 318.838 91.6972 319.831 92.3935C323.041 94.6268 326.854 96.4185 331.482 97.879C337.332 99.7132 343.54 100.732 350.477 101.794C353.687 102.286 357.016 102.796 360.285 102.43C363.418 102.082 366.314 101.004 369.702 99.4754C372.249 98.3291 375.383 97.0978 378.151 96.0109C379.034 95.6627 379.9 95.3316 380.707 95.0089C380.724 94.9919 380.749 94.9919 380.766 94.9834C380.826 94.9749 386.439 93.5399 390.336 93.1917C391.05 93.1153 391.771 93.0898 392.493 93.1238C394.726 93.2596 396.866 94.2616 398.284 95.0004C400.11 95.9599 403.124 98.0064 403.464 99.4499C403.558 99.7641 403.507 100.061 403.32 100.333C403.04 100.707 402.666 100.919 402.207 100.978C402.505 101.063 402.793 101.157 403.074 101.267C404.797 101.955 405.188 102.897 405.001 103.492C404.39 105.453 402.131 105.504 401.307 105.36C400.645 105.241 400.008 105.122 399.388 104.995C399.932 105.377 400.229 105.895 400.28 106.557C400.28 106.999 400.119 107.84 398.785 108.417C397.775 108.859 396.892 108.714 395.958 108.561C395.754 108.527 395.55 108.485 395.346 108.459L394.828 108.383C393.351 108.171 391.814 107.899 390.302 107.627C391.016 107.891 392.035 108.366 392.459 109.054C392.722 109.444 392.748 109.861 392.544 110.285C392.51 110.353 392.468 110.404 392.408 110.446L391.398 111.236C391.355 111.27 391.313 111.296 391.262 111.304C390.693 111.508 390.107 111.533 389.521 111.389C382.609 109.538 376.011 110.03 368.725 110.82L367.435 110.964C364.938 111.236 362.348 111.516 359.784 111.686C356.982 111.865 354.145 112.255 351.411 112.637C347.666 113.164 343.794 113.699 339.931 113.699H339.905ZM298.755 97.6667L300.87 98.8216L301.175 98.9914L301.846 99.3565L303.383 100.189L303.502 100.248C303.545 100.274 303.587 100.291 303.621 100.316L303.799 100.409L303.859 100.443C305.107 101.114 306.151 101.666 307.145 102.184L307.332 102.286L308.436 102.847L310.431 103.849C310.856 104.061 311.28 104.265 311.696 104.46L311.773 104.494L311.994 104.604L312.41 104.808C313.165 105.165 313.777 105.453 314.354 105.725C324.824 110.472 333.171 112.782 339.914 112.782C343.718 112.782 347.548 112.247 351.258 111.729C354.035 111.347 356.871 110.947 359.707 110.769C362.246 110.608 364.828 110.319 367.316 110.047L368.607 109.911C375.994 109.113 382.677 108.604 389.742 110.506C390.124 110.599 390.498 110.582 390.871 110.463L391.72 109.81C391.737 109.708 391.712 109.623 391.661 109.546C391.398 109.139 390.557 108.672 389.521 108.358C386.889 107.551 385.046 107.092 382.804 106.914C382.499 106.914 382.346 106.761 382.346 106.455C382.346 106.15 382.499 105.997 382.804 105.997C384.129 105.861 385.445 105.895 386.761 106.073C387.644 106.226 388.536 106.379 389.445 106.549C391.262 106.88 393.138 107.22 394.939 107.474L395.448 107.542C395.669 107.576 395.881 107.61 396.094 107.644C396.96 107.789 397.63 107.907 398.395 107.576C398.836 107.381 399.354 107.058 399.337 106.574C399.329 106.099 398.845 105.657 398.42 105.496C395.941 104.587 393.41 103.883 390.829 103.365C389.665 103.11 388.358 102.821 386.668 102.405C386.498 102.363 386.388 102.261 386.337 102.099C386.286 101.938 386.32 101.785 386.43 101.658L386.456 101.632C386.558 101.488 386.693 101.42 386.872 101.437C390.302 101.743 392.485 102.329 395.007 102.991C396.34 103.339 397.715 103.696 399.397 104.052C400.076 104.197 400.755 104.333 401.477 104.451C401.503 104.451 403.634 104.766 404.126 103.229C404.16 103.118 403.906 102.617 402.734 102.133C402.454 102.023 402.156 101.921 401.859 101.845C400.484 101.479 399.269 101.063 397.987 100.622C395.864 99.8406 393.699 99.2122 391.491 98.7282C391.185 98.7197 391.041 98.5583 391.05 98.2526C391.067 97.9469 391.228 97.7941 391.534 97.8111C392.493 97.7177 393.453 97.7601 394.404 97.9554C395.363 98.1847 396.306 98.4904 397.223 98.8725C399.117 99.5773 401.97 100.647 402.573 99.8151C402.573 99.8151 402.598 99.7726 402.573 99.6792C402.352 98.7536 399.906 96.911 397.851 95.8326C397.002 95.3825 394.735 94.2022 392.434 94.0578C391.763 94.0324 391.101 94.0493 390.43 94.1173C386.736 94.4569 381.471 95.7731 381.038 95.8835C380.231 96.1892 379.374 96.5458 378.499 96.8855C375.739 97.9724 372.623 99.1952 370.093 100.333C367.087 101.683 363.834 102.982 360.387 103.356C356.999 103.73 353.619 103.22 350.341 102.719C343.37 101.649 337.103 100.622 331.218 98.7706C326.489 97.2846 322.591 95.4504 319.313 93.1662C318.43 92.5548 315.62 91.2132 314.49 90.9839C314.244 91.0264 314.006 91.0518 313.76 91.0688C312.07 91.2217 308.555 91.5359 300.156 96.8006C299.672 97.0808 299.214 97.378 298.755 97.6667Z" fill="black"/>
<path d="M391.109 111.327C390.889 111.327 390.744 111.225 390.668 111.021C390.6 110.809 390.651 110.639 390.821 110.503L391.831 109.722C392.026 109.569 392.213 109.569 392.4 109.722C392.595 109.875 392.638 110.062 392.536 110.274C392.256 110.8 391.823 111.14 391.254 111.301C391.211 111.318 391.16 111.327 391.109 111.327Z" fill="black"/>
<path d="M341.724 101.065C341.52 101.065 341.384 100.963 341.308 100.777C341.24 100.59 341.274 100.42 341.418 100.284C344.246 97.4904 346.055 94.1532 346.853 90.2726C346.946 89.7886 347.031 89.3301 347.116 88.8885C347.558 86.4769 347.94 84.3965 349.477 82.1038C351.778 78.6817 355.141 76.9834 358.716 75.1747C360.236 74.4105 361.798 73.6208 363.293 72.6782C363.547 72.5254 363.76 72.5763 363.912 72.8226C364.074 73.0773 364.031 73.2896 363.785 73.451C362.265 74.419 360.677 75.2257 359.132 75.9984C355.684 77.7477 352.415 79.395 350.258 82.6218C348.823 84.7531 348.475 86.6468 348.033 89.0668C347.948 89.5084 347.864 89.9839 347.762 90.4594C346.929 94.5269 345.019 98.0254 342.055 100.946C341.962 101.031 341.852 101.074 341.724 101.065Z" fill="black"/>
<path d="M274.054 119.611C273.868 119.611 273.732 119.527 273.638 119.357C272.025 116.24 269.978 113.438 267.507 110.933C265.028 108.437 262.243 106.356 259.143 104.692C258.863 104.548 258.804 104.344 258.948 104.072C259.092 103.8 259.305 103.732 259.576 103.877C262.761 105.583 265.622 107.723 268.161 110.288C270.7 112.852 272.798 115.739 274.462 118.932C274.606 119.204 274.538 119.408 274.267 119.544C274.199 119.586 274.131 119.603 274.054 119.611Z" fill="black"/>
<path d="M301.151 91.4107H301.075C296.821 90.7144 292.855 89.2284 289.178 86.9696C285.51 84.7109 282.411 81.8408 279.88 78.3508C279.693 78.1045 279.727 77.8922 279.982 77.7139C280.228 77.5356 280.441 77.5695 280.628 77.8158C283.082 81.2039 286.096 83.9891 289.662 86.1884C293.229 88.3877 297.084 89.8228 301.228 90.4936C301.508 90.5446 301.636 90.7059 301.61 90.9946C301.593 91.2748 301.432 91.4192 301.151 91.4192V91.4107Z" fill="black"/>
<path d="M342.336 96.4027C342.039 96.4027 341.886 96.2498 341.878 95.9526C341.759 87.1894 346.837 78.7318 354.505 74.5201C340.697 75.6579 327.001 72.6944 313.72 69.8327C313.414 69.7733 313.287 69.5865 313.355 69.2808C313.423 68.9751 313.609 68.8562 313.915 68.9326C327.969 71.9641 342.506 75.106 357.052 73.3312C357.315 73.2973 357.485 73.4162 357.553 73.6709C357.621 73.9341 357.528 74.1125 357.281 74.2144C348.637 77.7129 342.684 86.6459 342.803 95.9356C342.812 96.2498 342.659 96.4027 342.353 96.4027H342.336Z" fill="black"/>
<path d="M267.262 153.698C267.032 153.698 266.888 153.588 266.82 153.367C266.752 153.155 266.811 152.985 267.007 152.858C274.513 147.763 281.349 141.904 287.522 135.263C293.696 128.632 299.037 121.388 303.563 113.542C303.716 113.27 303.928 113.211 304.191 113.364C304.463 113.517 304.522 113.729 304.361 114.001C299.809 121.906 294.417 129.2 288.202 135.892C281.977 142.575 275.082 148.485 267.525 153.614C267.44 153.673 267.355 153.698 267.262 153.698Z" fill="black"/>
<path d="M208.008 120.157C213.23 121.066 218.385 120.769 223.471 119.266C219.208 128.165 209.239 142.048 206.632 143.815C206.123 144.154 205.664 144.324 205.622 144.851C205.588 145.318 205.936 146.09 206.624 146.838C207.244 147.517 209.706 149.249 210.632 149.869C211.396 150.379 214.988 152.501 217.484 154.166C214.529 155.083 212.254 155.643 208.866 156.696C207.609 153.894 205.936 150.684 204.773 147.84C204.425 146.99 204.076 146.116 204.093 145.207C204.119 143.331 205.605 141.862 206.93 140.545C210.683 136.809 213.884 132.665 216.542 128.105C217.527 126.424 218.461 124.513 218.087 122.603C216.313 122.875 214.546 122.798 212.806 122.374C211.056 121.949 209.46 121.21 208.008 120.157Z" fill="black"/>
<path d="M271.695 293.82C271.788 291.256 273.249 288.207 274.896 286.246C276.688 284.174 278.785 282.484 281.188 281.176C282.691 280.404 283.889 279.86 285.57 279.657C287.251 279.461 289.085 279.92 290.189 281.193L290.393 282.696C280.322 282.696 274.319 288.471 272.306 299.034C271.865 297.327 271.652 295.587 271.695 293.82Z" fill="black"/>
<path d="M304.259 68.7508C302.45 71.1114 299.555 72.9116 296.719 73.3786C296.506 72.6229 296.082 72.0285 295.436 71.5954C294.816 71.1708 294.171 70.7972 293.492 70.483C291.768 69.5829 289.543 68.3771 288.686 66.7383C288.957 67.0525 289.254 67.3327 289.577 67.5874C291.454 69.048 293.959 69.2433 296.311 69.2603C298.485 69.2687 300.659 69.1669 302.815 68.9461C303.299 68.8866 303.783 68.8272 304.259 68.7508Z" fill="black"/>
<path d="M301.55 311.4C301.337 311.4 301.201 311.306 301.125 311.111C301.049 310.916 301.091 310.746 301.244 310.602C324.85 289.05 326.268 285.603 327.78 281.951C328.935 279.149 328.544 275.336 326.82 272.67C326.124 271.558 325.207 270.675 324.061 270.029C322.906 269.384 321.674 269.053 320.358 269.036C319.186 269.01 318.074 269.257 317.03 269.783C315.977 270.301 315.119 271.048 314.448 272.008C314.27 272.263 314.058 272.305 313.803 272.127C313.548 271.957 313.506 271.736 313.684 271.49C314.448 270.394 315.425 269.554 316.614 268.959C317.802 268.356 319.059 268.076 320.392 268.11C321.861 268.127 323.237 268.501 324.511 269.223C325.793 269.944 326.82 270.921 327.593 272.169C329.495 275.116 329.911 279.183 328.629 282.291C326.752 286.834 324.01 291.046 301.864 311.281C301.77 311.357 301.668 311.4 301.55 311.4Z" fill="black"/>
<path d="M285.918 322.795C284.194 322.795 282.199 322.345 280.704 320.859C278.862 319.016 278.004 317.182 278.046 315.238C278.14 311.23 282.105 307.646 286.3 303.85C286.886 303.315 287.472 302.789 288.049 302.254C288.279 302.101 288.474 302.118 288.661 302.322C288.839 302.517 288.839 302.721 288.669 302.925C288.083 303.46 287.497 303.995 286.903 304.53C282.861 308.19 279.048 311.646 278.955 315.271C278.921 316.961 279.702 318.575 281.35 320.222C283.43 322.294 286.793 322.014 288.279 321.572C288.406 321.521 288.525 321.53 288.644 321.589C288.771 321.649 288.848 321.742 288.882 321.869C288.924 321.997 288.907 322.124 288.839 322.235C288.771 322.353 288.669 322.421 288.542 322.455C287.684 322.693 286.81 322.803 285.918 322.795Z" fill="black"/>
<path d="M192.206 91.41C188.487 88.956 183.629 88.7012 179.197 89.2277C174.764 89.7457 170.688 92.1063 167.648 95.367C169.72 94.2122 171.037 93.881 173.686 95.1038C179.936 92.4884 186.109 90.1193 192.011 92.4969C192.104 92.0044 192.121 91.8516 192.206 91.41Z" fill="black"/>
<path d="M143.659 101.87C141.91 97.3441 143.608 91.8162 146.19 88.6998C150.767 83.1803 156.83 80.7432 163.241 78.1788C164.939 77.491 166.705 76.7862 168.446 76.0304C169.788 75.436 171.393 74.6378 173.091 73.7887C179.281 70.7233 186.983 66.8766 190.532 68.6853L190.116 69.5005C186.983 67.9041 179.188 71.7847 173.498 74.6124C171.792 75.47 170.178 76.2767 168.82 76.8711C167.062 77.6438 165.296 78.3571 163.589 79.0364C157.28 81.5669 151.336 83.9445 146.903 89.2942C144.491 92.2068 142.895 97.3526 144.517 101.547L143.659 101.87Z" fill="black"/>
<path d="M345.571 111.054C342.038 111.063 338.548 110.698 335.101 109.976C334.795 109.917 334.676 109.73 334.744 109.433C334.804 109.127 334.99 109.008 335.288 109.076C339.89 110.027 344.526 110.341 349.205 110.001C353.892 109.67 358.435 108.711 362.851 107.114C362.97 107.063 363.097 107.063 363.216 107.114C363.344 107.174 363.428 107.259 363.471 107.386C363.513 107.513 363.505 107.632 363.445 107.751C363.386 107.87 363.284 107.947 363.157 107.981C357.476 110.035 351.617 111.063 345.571 111.054Z" fill="black"/>
<path d="M177.396 137.257C177.21 137.257 177.074 137.172 176.989 137.01C176.904 136.841 176.912 136.679 177.023 136.535C181.642 130.013 186.779 126.133 192.757 124.672C193.063 124.587 193.258 124.698 193.335 125.003C193.411 125.318 193.292 125.504 192.978 125.564C187.221 126.973 182.253 130.727 177.778 137.061C177.685 137.189 177.558 137.257 177.396 137.257Z" fill="black"/>
<path d="M260.783 243.861H260.749C260.443 243.844 260.299 243.674 260.324 243.368C260.876 235.819 260.367 228.33 258.796 220.925C257.225 213.512 254.652 206.464 251.085 199.773C250.924 199.501 250.984 199.289 251.264 199.136C251.544 198.983 251.756 199.051 251.901 199.34C255.51 206.108 258.108 213.232 259.696 220.73C261.284 228.228 261.793 235.802 261.233 243.445C261.216 243.716 261.063 243.861 260.783 243.861Z" fill="black"/>
<path d="M222.589 137.632C222.419 137.632 222.291 137.564 222.198 137.42C222.028 137.165 222.071 136.953 222.334 136.792C230.435 131.569 235.886 122.398 236.557 112.82C236.574 112.514 236.736 112.37 237.05 112.395C237.355 112.412 237.5 112.582 237.474 112.888C236.786 122.747 231.174 132.206 222.843 137.564C222.758 137.607 222.674 137.632 222.589 137.632Z" fill="black"/>
<path d="M296.573 69.7053H296.31C293.848 69.7053 291.275 69.476 289.305 67.9391C288.965 67.6758 288.659 67.3871 288.379 67.0644C288.354 67.0474 288.337 67.022 288.32 66.9965C286.961 65.4086 286.188 63.0225 286.137 60.2797C286.069 58.4371 286.367 56.6623 287.038 54.947C287.572 53.7497 288.226 52.6204 288.982 51.5504C289.169 51.2787 289.347 50.9985 289.526 50.7268C290.612 49.0455 292.073 45.3516 293.253 42.3881C294.561 39.0849 295.02 37.998 295.385 37.7263C296.149 37.1743 297.066 37.0045 297.873 36.8856C300.828 36.461 303.757 37.5734 306.576 38.6434L307.392 38.949C310.601 40.1548 313.285 42.4476 314.754 45.2328C316.078 47.7463 316.469 50.3956 315.943 53.1893C315.917 53.3422 315.883 53.495 315.849 53.6563C315.543 55.1339 315.255 56.6623 316.155 57.469C316.291 57.5794 316.435 57.6898 316.579 57.7747C316.783 57.9021 316.979 58.038 317.157 58.1993C317.675 58.6918 317.921 59.2947 317.896 60.008C317.862 61.1374 317.429 62.0884 316.596 62.8611C315.739 63.6593 314.728 64.1264 313.573 64.2877C313.404 64.3047 313.242 64.3217 313.072 64.3387C312.716 64.3471 312.376 64.4066 312.045 64.5085C311.519 64.7123 311.119 65.1963 310.712 65.7143L310.584 65.8756C310.406 66.1049 310.228 66.3427 310.024 66.5634C308.411 68.3806 305.999 68.9411 304.326 69.1958C304.122 69.2298 303.91 69.2637 303.715 69.2892H303.689C303.418 69.3232 303.137 69.3571 302.866 69.3826C300.777 69.6034 298.679 69.7053 296.573 69.7053ZM289.05 66.4361C289.288 66.7248 289.559 66.9795 289.857 67.2088C291.614 68.5759 293.992 68.7712 296.31 68.7797C298.467 68.7882 300.624 68.6863 302.772 68.474L303.553 68.3806H303.596C303.791 68.3551 303.995 68.3297 304.19 68.2957C306.627 67.9136 308.258 67.1748 309.345 65.9605C309.515 65.7652 309.684 65.5445 309.854 65.3237L309.982 65.1538C310.449 64.5594 310.967 63.948 311.714 63.6593C312.138 63.515 312.563 63.4386 313.005 63.4216C313.157 63.4216 313.31 63.3961 313.463 63.3791C314.423 63.2433 315.263 62.8526 315.977 62.1903C316.605 61.6044 316.936 60.8741 316.979 60.0165C317.004 59.5664 316.851 59.1928 316.529 58.8786C316.393 58.7597 316.24 58.6493 316.087 58.5559C315.892 58.4371 315.713 58.3097 315.552 58.1653C314.244 57.0105 314.626 55.0574 314.932 53.4865C314.966 53.3337 314.992 53.1808 315.026 53.0195C315.501 50.4465 315.136 47.984 313.93 45.6573C312.563 43.0674 310.058 40.9361 307.052 39.8067L306.237 39.501C303.52 38.4735 300.709 37.4036 297.992 37.7942C297.312 37.8961 296.531 38.032 295.937 38.4565C295.673 38.7622 294.833 40.8766 294.094 42.7278C292.905 45.7253 291.419 49.4615 290.281 51.2193C290.103 51.4995 289.916 51.7797 289.729 52.0599C289.008 53.0789 288.396 54.1573 287.878 55.2867C287.258 56.8916 286.978 58.5474 287.054 60.2627C287.097 62.8102 287.802 64.9925 289.033 66.4191L289.05 66.4361Z" fill="black"/>
<path d="M296.549 47.182C296.481 47.182 296.413 47.1736 296.354 47.1396C295.564 46.7575 294.732 46.4942 293.866 46.3499C293.56 46.2989 293.433 46.1206 293.484 45.8149C293.535 45.5092 293.713 45.3818 294.019 45.4328C294.97 45.5941 295.878 45.8828 296.753 46.2989C296.974 46.4008 297.058 46.5791 296.999 46.8169C296.948 47.0547 296.795 47.1736 296.549 47.1736V47.182Z" fill="black"/>
<path d="M306.493 56.2398C306.255 56.2398 306.11 56.1294 306.042 55.9002C305.856 55.1359 305.558 54.4226 305.151 53.7518C304.539 52.8602 304.005 52.3592 303.07 52.2743C302.765 52.2403 302.629 52.0705 302.654 51.7648C302.688 51.4591 302.85 51.3232 303.164 51.3487C304.438 51.4676 305.159 52.1469 305.907 53.2168C306.391 53.9811 306.73 54.7963 306.943 55.6709C307.019 55.9766 306.9 56.1634 306.603 56.2313C306.569 56.2398 306.535 56.2398 306.493 56.2398Z" fill="black"/>
<path d="M309.966 52.2176C309.057 49.6362 307.469 47.5642 305.202 46.0103C304.667 45.6452 303.903 45.3395 303.427 45.781C303.275 45.9424 303.173 46.1292 303.139 46.35C303.062 47.0038 303.266 47.5557 303.759 47.9973C304.217 48.3879 304.718 48.7191 305.27 48.9738C306.875 49.823 308.369 50.8505 309.737 52.0393" fill="black"/>
<path d="M313.761 63.3398C313.633 63.3398 313.506 63.3228 313.387 63.3058C313.081 63.2548 312.954 63.0765 313.005 62.7708C313.048 62.4651 313.234 62.3378 313.54 62.3887C313.871 62.4397 314.194 62.3887 314.491 62.2274C314.788 62.066 315.009 61.8283 315.145 61.5141C315.281 61.2084 315.306 60.8857 315.221 60.5545C315.136 60.2234 314.958 59.9601 314.686 59.7479C314.423 59.5695 314.389 59.3488 314.584 59.094C314.78 58.8308 315.001 58.8138 315.247 59.0176C315.663 59.3318 315.935 59.7394 316.087 60.2319C316.232 60.7244 316.223 61.2169 316.054 61.7009C315.884 62.1849 315.586 62.584 315.162 62.8727C314.746 63.1699 314.27 63.3228 313.761 63.3143V63.3398Z" fill="black"/>
<path d="M291.241 58.7428C290.918 59.5495 290.876 60.3646 291.088 61.1968C291.275 62.0799 291.784 62.6828 292.633 63.014C292.897 63.1074 293.168 63.1074 293.432 63.014C293.916 62.8272 294.145 62.2667 294.247 61.7488C294.425 60.7637 294.323 59.8042 293.941 58.8786C293.788 58.454 293.533 58.1059 293.177 57.8342C292.812 57.6219 291.725 57.6304 291.241 58.7428Z" fill="black"/>
<path d="M300.014 40.1186C297.22 37.6306 295.615 39.0656 290.962 41.5706C288.941 38.6156 290.036 36.4333 291.403 35.4313C290.665 35.3803 289.951 35.4822 289.247 35.737C288.788 35.0152 289.306 34.0726 289.866 33.4103C291.802 31.0581 294.367 29.1815 297.28 28.4512C300.192 27.7125 303.461 28.2305 305.813 30.1411C306.204 30.4552 306.595 30.8289 307.079 30.9308C307.444 30.9732 307.8 30.9477 308.157 30.8458C311.036 30.2345 314.084 29.9627 316.878 30.9138C320.3 32.0686 322.992 34.9897 324.384 38.3778C325.786 41.7744 325.981 45.6041 325.446 49.2469C325.285 50.6141 324.911 51.9218 324.325 53.17C322.856 56.0232 318.992 57.4073 315.876 57.8234C313.88 56.0996 315.519 54.0956 315.324 48.8733C315.205 45.689 312.53 42.6236 309.575 41.5961C306.62 40.5601 303.13 40.3054 300.014 40.1186Z" fill="black"/>
<path d="M304.141 52.0917C304.489 52.2275 304.718 52.5078 304.828 52.9408C304.947 53.3739 304.905 53.824 304.718 54.2995C304.531 54.7665 304.251 55.1232 303.869 55.3609C303.495 55.5987 303.13 55.6496 302.782 55.5053C302.434 55.3694 302.204 55.0892 302.094 54.6561C301.984 54.2231 302.018 53.773 302.204 53.306C302.391 52.8304 302.672 52.4738 303.054 52.2445C303.436 52.0068 303.792 51.9558 304.141 52.0917Z" fill="black"/>
<path d="M295.02 46.1815C295.369 46.3174 295.598 46.6061 295.717 47.0392C295.827 47.4637 295.785 47.9138 295.598 48.3893C295.411 48.8648 295.131 49.213 294.749 49.4508C294.375 49.6885 294.01 49.7395 293.662 49.6036C293.314 49.4677 293.084 49.179 292.974 48.7545C292.864 48.3214 292.898 47.8713 293.084 47.3958C293.271 46.9288 293.56 46.5721 293.934 46.3344C294.316 46.0966 294.672 46.0457 295.02 46.1815Z" fill="black"/>
<path d="M294.188 43.011C295.512 42.9431 295.903 42.7648 296.939 42.8667C297.711 42.9431 298.62 43.1724 298.892 43.9111C298.934 44.013 298.943 44.1149 298.926 44.2168C298.841 44.3952 298.705 44.4971 298.51 44.5225C296.828 44.9981 295.546 44.1234 294.188 43.011Z" fill="black"/>
<path d="M294.968 55.9177C294.875 55.9177 294.773 55.9092 294.68 55.8922C293.61 55.6969 292.914 55.0855 292.582 54.0496C292.438 53.6165 292.438 53.1749 292.557 52.7334C292.684 52.2918 292.922 51.9267 293.262 51.621C293.355 51.5106 293.466 51.4597 293.61 51.4512C293.754 51.4512 293.873 51.5021 293.967 51.604C294.06 51.7059 294.102 51.8248 294.085 51.9692C294.068 52.105 294 52.2154 293.882 52.2918C293.398 52.6909 293.253 53.1834 293.449 53.7778C293.661 54.4487 294.111 54.8563 294.799 55.0091C295.3 55.0686 295.673 54.8817 295.92 54.4402C296.089 54.1685 296.302 54.1175 296.573 54.2958C296.837 54.4741 296.871 54.6949 296.684 54.9497C296.293 55.578 295.716 55.9007 294.968 55.9177Z" fill="black"/>
<path d="M156.881 243.05C154.733 242.176 153.714 237.709 153.977 235.145C154.155 233.472 154.716 231.799 155.268 230.177C155.573 229.303 155.887 228.394 156.117 227.485C156.813 224.887 156.966 222.263 156.584 219.605C156.202 216.947 155.319 214.476 153.917 212.175C151.438 208.116 147.651 205.356 143.261 204.38C142.743 204.27 142.199 204.176 141.681 204.074C140.297 203.836 138.989 203.616 137.852 203.004C135.703 201.841 134.625 199.531 133.546 196.865L128.978 185.588C127.084 180.926 124.503 174.541 118.915 171.662C118.703 171.552 118.516 171.594 118.355 171.773C112.233 178.804 109.847 188.84 112.139 197.96C112.352 198.835 112.615 199.701 112.92 200.55C113.039 200.907 113.167 201.264 113.311 201.612C113.863 203.013 114.508 204.363 115.256 205.662C115.468 206.036 115.68 206.401 115.909 206.766C118.805 211.411 122.957 215.487 128.103 218.654C128.655 219.002 129.233 219.342 129.793 219.665C132.23 221.091 134.744 222.569 136.298 224.811C137.325 226.297 137.911 228.105 138.471 229.846L138.616 230.279C139.847 234.041 141.384 237.896 144.271 240.63C146.649 242.872 149.748 243.967 153.739 243.967C154.189 243.967 154.665 243.967 155.123 243.925H156.711C156.966 243.925 157.119 243.806 157.161 243.551C157.212 243.305 157.119 243.135 156.881 243.042V243.05ZM155.106 243.016H155.081C150.691 243.28 147.362 242.286 144.916 239.968C142.327 237.514 140.874 234.219 139.499 230.007L139.355 229.574C138.769 227.766 138.166 225.889 137.062 224.301C135.389 221.889 132.791 220.361 130.269 218.883C129.717 218.561 129.139 218.221 128.587 217.881C123.289 214.621 119.077 210.375 116.249 205.543C116.028 205.161 115.808 204.779 115.604 204.397C115.171 203.573 114.78 202.75 114.432 201.917C114.279 201.561 114.135 201.204 114.007 200.847C113.625 199.829 113.303 198.784 113.031 197.731C110.849 189.019 113.065 179.449 118.822 172.647C123.484 175.22 125.878 180.4 128.12 185.936L132.689 197.205C133.572 199.404 134.795 202.401 137.41 203.82C138.675 204.507 140.119 204.745 141.52 204.991C142.029 205.085 142.556 205.17 143.065 205.28C147.209 206.18 150.784 208.804 153.136 212.642C154.461 214.833 155.31 217.194 155.675 219.724C156.04 222.255 155.887 224.76 155.234 227.231C154.987 228.114 154.69 229.005 154.393 229.871C153.833 231.544 153.247 233.251 153.068 235.034C152.848 237.183 153.45 241.089 155.276 243.016H155.106Z" fill="black"/>
<path d="M154.834 244.047C154.282 244.047 153.645 244.03 152.805 243.996C146.096 243.521 143.472 238.392 141.63 232.923C139.592 226.852 139.931 220.144 140.594 213.801L140.67 213.062C140.984 210.073 141.324 206.982 140.891 203.993C140.229 199.492 137.885 195.433 135.609 191.502C135.091 190.602 134.556 189.659 134.047 188.742C126.617 175.309 123.772 160.448 126.039 146.887C127.508 138.124 131.363 129.76 136.9 123.332C140.331 119.282 144.432 116.089 149.204 113.745L149.51 113.601C149.756 113.482 149.951 113.541 150.096 113.771C150.206 113.94 150.317 114.11 150.418 114.289C153.161 118.764 154.537 124.351 154.732 131.858C154.817 135.152 154.69 138.481 154.562 141.343C154.265 147.949 153.968 154.564 153.662 161.179C153.45 165.951 153.441 170.18 155.564 173.593C156.668 175.368 158.299 176.744 159.878 178.077C160.489 178.603 161.109 179.13 161.721 179.682C172.641 189.812 173.863 209.81 164.328 222.479C163.478 223.617 162.544 224.704 161.644 225.757C159.963 227.718 158.231 229.748 157.025 232.066C155.403 235.14 154.426 239.895 156.991 243.232C157.101 243.376 157.118 243.529 157.042 243.699C156.965 243.86 156.838 243.954 156.651 243.971C156.031 244.03 155.505 244.047 154.834 244.047ZM149.535 114.62C144.907 116.912 140.933 120.02 137.613 123.952C132.17 130.253 128.4 138.455 126.956 147.049C124.723 160.397 127.525 175.054 134.853 188.301C135.354 189.218 135.889 190.143 136.407 191.035C138.726 195.017 141.12 199.17 141.8 203.849C142.258 206.948 141.918 210.098 141.596 213.147L141.511 213.885C140.755 221.095 140.636 227.047 142.504 232.609C144.245 237.772 146.699 242.621 152.855 243.045C154.206 243.105 155.012 243.105 155.751 243.079C153.535 239.462 154.545 234.724 156.184 231.616C157.458 229.204 159.224 227.141 160.931 225.145C161.823 224.101 162.748 223.022 163.589 221.91C172.844 209.589 171.681 190.169 161.084 180.344C160.506 179.801 159.886 179.274 159.284 178.765C157.653 177.38 155.972 175.954 154.792 174.06C152.346 170.129 152.584 164.915 152.754 161.119C153.051 154.504 153.348 147.889 153.645 141.275C153.773 138.438 153.908 135.135 153.824 131.866C153.62 124.521 152.278 119.086 149.629 114.747L149.535 114.62Z" fill="black"/>
<path d="M141.477 204.738C142.402 216.482 137.936 218.809 138.242 225.534C138.462 230.417 140.212 234 142.742 238.195C145.281 242.39 150.843 245.192 155.683 242.993C150.639 242.398 146.41 238.568 144.203 234.017C141.995 229.466 141.519 224.277 141.545 219.225C141.562 214.164 142.029 205.002 141.477 204.738Z" fill="black"/>
<path d="M156.288 242.186C156.169 242.186 156.067 242.143 155.982 242.067C149.282 236.08 149.953 225.678 150.955 220.014C151.312 217.959 151.779 215.888 152.229 213.875C153.46 208.44 154.708 202.811 153.969 197.283C153.103 190.761 149.545 184.944 146.106 179.323C144.332 176.411 142.489 173.405 141.02 170.297C132.97 153.365 136.163 131.805 148.773 117.887C148.858 117.785 148.959 117.717 149.095 117.709C149.231 117.692 149.35 117.734 149.452 117.828C149.554 117.913 149.605 118.031 149.605 118.159C149.605 118.295 149.554 118.414 149.46 118.507C137.105 132.153 133.963 153.297 141.852 169.923C143.304 172.997 145.13 175.969 146.896 178.865C150.386 184.571 153.978 190.464 154.887 197.181C155.642 202.87 154.36 208.576 153.129 214.096C152.679 216.091 152.203 218.155 151.864 220.184C150.896 225.661 150.233 235.707 156.593 241.396C156.831 241.6 156.84 241.821 156.627 242.041C156.534 242.143 156.424 242.186 156.288 242.186Z" fill="black"/>
<path d="M139.905 218.714C139.71 218.714 139.574 218.629 139.489 218.46C138.258 215.963 135.745 214.613 133.087 213.186C131.957 212.609 130.862 211.972 129.801 211.284C124.714 207.854 121.275 201.426 120.103 193.18C119.594 189.614 119.483 185.963 119.364 182.439C119.263 179.152 119.161 175.756 118.736 172.461C118.694 172.155 118.83 171.986 119.135 171.943C119.441 171.901 119.619 172.037 119.662 172.342C120.086 175.688 120.197 179.093 120.299 182.405C120.409 185.912 120.519 189.538 121.02 193.045C122.158 201.027 125.461 207.251 130.319 210.537C131.321 211.216 132.441 211.811 133.528 212.38C136.203 213.815 138.963 215.292 140.33 218.052C140.457 218.324 140.389 218.536 140.118 218.672C140.05 218.697 139.982 218.714 139.905 218.714Z" fill="black"/>
<path d="M331.355 141.027C331.202 141.027 331.083 140.976 330.99 140.857C329.062 138.403 325.572 137.087 322.312 137.571C322.167 137.596 322.04 137.554 321.93 137.46C321.819 137.359 321.777 137.231 321.785 137.087C321.972 134.828 322.32 132.595 322.821 130.387C323.008 129.572 323.28 128.757 324.01 128.341C324.817 127.874 325.768 128.154 326.507 128.451C327.865 128.977 329.164 129.64 330.396 130.421C330.948 130.761 331.466 131.151 331.95 131.584C332.153 131.771 332.17 131.975 332.009 132.196C331.253 133.266 330.888 134.463 330.914 135.771C330.914 137.274 331.296 138.717 331.797 140.441C331.865 140.687 331.788 140.866 331.567 140.984C331.5 141.01 331.432 141.027 331.355 141.027ZM323.67 136.552C326.218 136.552 328.477 137.35 330.447 138.963C330.166 137.919 330.022 136.849 330.005 135.771C329.988 134.412 330.336 133.155 331.041 131.992C330.684 131.703 330.302 131.44 329.912 131.194C328.731 130.447 327.492 129.818 326.184 129.3C325.64 129.088 324.953 128.876 324.486 129.139C324.018 129.411 323.874 130.022 323.738 130.591C323.288 132.569 322.966 134.573 322.77 136.594C323.059 136.569 323.365 136.552 323.67 136.552Z" fill="black"/>
<path d="M350.963 246.073C350.878 246.073 350.793 246.047 350.716 245.996C344.526 241.988 341.962 233.353 343.099 220.335C343.473 216.021 344.399 211.716 345.299 207.555C346.284 202.978 347.303 198.249 347.574 193.527C348.5 177.818 341.418 162.805 335.177 149.55C335.041 149.27 335.117 149.066 335.398 148.939C335.678 148.803 335.882 148.879 336.009 149.159C342.301 162.508 349.434 177.64 348.5 193.578C348.22 198.368 347.192 203.14 346.199 207.751C345.307 211.878 344.39 216.157 344.016 220.42C342.913 233.072 345.333 241.42 351.217 245.224C351.481 245.394 351.523 245.606 351.353 245.861C351.26 246.005 351.132 246.073 350.963 246.073Z" fill="black"/>
<path d="M350.368 246.211C349.85 246.211 349.307 246.186 348.747 246.152C347.345 246.05 345.97 245.838 344.603 245.498C343.015 245.116 341.58 244.411 340.306 243.392C339.032 242.373 338.03 241.133 337.317 239.664C335.305 235.741 335.16 230.341 336.943 225.925C337.903 223.539 339.44 221.136 341.648 218.58C343.703 216.177 346.131 213.884 348.483 211.676C349.579 210.64 350.717 209.562 351.795 208.5C358.928 201.461 361.807 195.39 360.584 189.921C360.244 188.384 359.556 186.856 358.885 185.387C358.291 184.147 357.773 182.873 357.348 181.565C356.27 177.965 357.136 174.713 359.65 172.862C359.811 172.743 359.981 172.734 360.159 172.836C367.835 177.243 372.939 181.846 375.733 186.907C379.248 193.258 378.696 200.247 374.306 205.155C372.506 207.15 370.077 208.84 367.725 210.496C363.912 213.154 360.312 215.667 359.369 219.293C358.52 222.537 360.125 225.738 361.832 229.109C363.564 232.54 365.347 236.089 364.295 239.724C363.242 243.358 355.862 245.982 351.235 246.194C350.963 246.203 350.666 246.211 350.368 246.211ZM348.789 245.226C349.587 245.286 350.385 245.303 351.184 245.269C355.438 245.073 362.477 242.653 363.403 239.461C364.345 236.174 362.724 232.939 360.991 229.508C359.268 226.086 357.527 222.639 358.461 219.055C359.488 215.107 363.386 212.381 367.182 209.732C369.491 208.127 371.877 206.463 373.601 204.535C377.728 199.933 378.221 193.343 374.909 187.348C372.226 182.5 367.334 178.058 359.955 173.779C357.068 176.122 357.773 179.799 358.223 181.302C358.631 182.567 359.123 183.799 359.701 184.996C360.388 186.533 361.093 188.087 361.458 189.717C362.749 195.517 359.794 201.877 352.415 209.154C351.328 210.224 350.19 211.303 349.086 212.339C346.76 214.538 344.348 216.814 342.319 219.174C340.179 221.654 338.693 223.972 337.767 226.265C336.077 230.451 336.213 235.546 338.107 239.248C338.769 240.59 339.686 241.736 340.858 242.67C342.03 243.613 343.346 244.258 344.807 244.606C346.123 244.929 347.447 245.133 348.789 245.226Z" fill="black"/>
<path d="M345.257 246.188C344.221 246.188 343.245 246.188 342.531 246.129H342.463C335.687 244.49 329.106 240.066 324.428 233.994C320.326 228.67 318.857 222.123 320.394 216.035C320.878 214.277 321.481 212.562 322.186 210.88C323.417 207.721 324.606 204.741 324.343 201.616C324.088 198.627 322.466 195.723 320.904 192.921C319.078 189.652 317.201 186.263 317.371 182.621C317.38 182.332 317.532 182.188 317.83 182.188H317.864C324.869 182.188 331.722 184.667 336.231 188.845C340.774 193.057 342.718 198.805 341.436 204.223C341.164 205.284 340.842 206.32 340.468 207.339C339.619 209.776 338.812 212.069 339.474 214.353C339.874 215.712 340.748 217.003 342.319 218.557C342.506 218.752 342.523 218.956 342.345 219.168C340.213 221.648 338.727 223.966 337.802 226.258C336.112 230.445 336.239 235.54 338.133 239.242C338.795 240.584 339.712 241.73 340.893 242.664C342.064 243.607 343.381 244.252 344.841 244.6C346.149 244.923 347.473 245.127 348.815 245.211C349.121 245.211 349.282 245.364 349.282 245.67C349.291 245.976 349.138 246.129 348.832 246.137C348.535 246.163 348.238 246.171 347.94 246.171H346.658L345.257 246.188ZM342.642 245.211C342.947 245.237 343.338 245.245 343.754 245.254C342.345 244.804 341.071 244.091 339.95 243.114C338.829 242.146 337.938 241 337.284 239.667C335.28 235.735 335.127 230.343 336.91 225.927C337.836 223.635 339.288 221.325 341.343 218.905C339.84 217.368 338.973 216.026 338.574 214.608C337.827 212.044 338.719 209.496 339.576 207.034C339.916 206.04 340.281 205.004 340.519 204.011C341.725 198.916 339.882 193.49 335.594 189.507C331.348 185.576 324.903 183.198 318.271 183.096C318.271 186.306 319.936 189.303 321.702 192.462C323.307 195.349 324.979 198.338 325.251 201.531C325.531 204.868 324.258 208.095 323.035 211.211C322.347 212.85 321.761 214.532 321.286 216.247C319.825 222.064 321.235 228.322 325.166 233.434C329.701 239.318 336.069 243.615 342.642 245.211Z" fill="black"/>
<path d="M341.894 219.062C340.196 221.024 338.149 222.671 336.408 224.607C334.668 226.544 331.976 230.883 331.823 233.473C331.271 242.754 339.329 245.08 342.013 245.531C344.475 245.87 346.938 245.921 349.409 245.7C344.229 244.172 340.977 243.289 338.251 238.644C336.12 235.01 336.018 230.101 337.801 226.289C338.811 224.123 339.244 222.765 341.894 219.062Z" fill="black"/>
<path d="M350.962 246.071C350.792 246.071 350.665 245.995 350.571 245.85C345.307 237.401 345.697 225.853 351.514 217.777C353.543 214.958 356.133 212.572 358.655 210.279C359.343 209.66 360.048 209.014 360.727 208.369C363.64 205.626 366.807 202.255 368.251 198.077C369.049 195.708 369.27 193.288 368.921 190.817C368.565 188.346 367.673 186.079 366.238 184.032C366.068 183.777 366.102 183.565 366.357 183.387C366.603 183.217 366.816 183.251 366.994 183.497C368.514 185.671 369.456 188.066 369.83 190.689C370.204 193.305 369.974 195.869 369.125 198.383C367.614 202.747 364.353 206.22 361.364 209.04C360.676 209.685 359.963 210.33 359.284 210.959C356.821 213.226 354.24 215.561 352.261 218.321C346.657 226.116 346.283 237.24 351.344 245.383C351.505 245.647 351.454 245.859 351.191 246.02C351.123 246.054 351.047 246.071 350.962 246.071Z" fill="black"/>
<path d="M333.149 230.925C333.098 230.925 333.047 230.917 332.996 230.891C332.266 230.628 328.122 224.973 328.292 221.322C328.478 217.195 329.472 214.469 330.754 211.021L331.374 209.357C331.552 208.839 331.756 208.313 331.951 207.769C333.352 204.016 334.94 199.762 333.59 196.068C331.824 191.262 328.3 189.011 322.806 186.71C322.687 186.668 322.594 186.583 322.543 186.464C322.483 186.337 322.483 186.218 322.534 186.099C322.585 185.971 322.679 185.886 322.798 185.844C322.925 185.793 323.044 185.802 323.171 185.861C328.894 188.239 332.571 190.625 334.456 195.754C335.925 199.762 334.278 204.186 332.817 208.092C332.622 208.627 332.427 209.153 332.24 209.671C332.028 210.249 331.824 210.801 331.62 211.336C330.389 214.715 329.404 217.373 329.226 221.364C329.09 224.514 332.817 229.626 333.369 230.051C333.599 230.153 333.675 230.331 333.624 230.569C333.565 230.807 333.412 230.925 333.166 230.925H333.149Z" fill="black"/>
<path d="M331.661 150.893C330.09 150.893 328.57 150.613 327.093 150.061C323.348 148.651 320.478 145.832 318.168 143.233C317.947 143.183 317.769 143.064 317.633 142.885C317.081 142.181 316.954 140.525 317.599 139.361C318.338 138.02 319.934 137.052 321.972 136.695L322.176 136.661C323.654 136.457 325.114 136.551 326.549 136.95C327.984 137.349 329.283 138.02 330.438 138.962C330.158 137.918 330.014 136.848 329.997 135.769C329.971 134.249 330.396 132.874 331.27 131.643C331.457 131.396 331.661 131.159 331.89 130.946C333.733 129.189 335.669 128.671 337.35 129.469C337.452 129.494 337.537 129.545 337.605 129.63C338.981 131.439 339.974 133.443 340.586 135.625C341.205 137.807 341.401 140.032 341.163 142.291C340.874 144.889 339.974 146.944 338.48 148.405C337.741 149.127 336.883 149.687 335.924 150.086C334.557 150.638 333.139 150.91 331.661 150.893ZM318.372 142.299C318.508 142.299 318.627 142.359 318.711 142.461C320.987 145.017 323.789 147.819 327.424 149.186C330.09 150.196 333.206 150.205 335.559 149.22C336.408 148.872 337.164 148.379 337.826 147.734C339.159 146.426 339.983 144.558 340.237 142.172C340.458 140.058 340.28 137.969 339.711 135.914C339.134 133.867 338.208 131.982 336.934 130.275C335.601 129.664 334.073 130.114 332.519 131.6C332.332 131.778 332.162 131.965 332.009 132.178C331.253 133.256 330.888 134.445 330.914 135.761C330.914 137.264 331.296 138.699 331.797 140.431C331.873 140.669 331.797 140.847 331.568 140.966C331.338 141.085 331.152 141.043 330.99 140.839C329.063 138.385 325.573 137.069 322.312 137.561L322.134 137.587C320.367 137.892 319.009 138.699 318.406 139.786C317.854 140.788 318.126 142.045 318.355 142.299H318.372Z" fill="black"/>
<path d="M334.514 148.023C334.277 148.023 334.124 147.904 334.064 147.675C334.005 147.437 334.09 147.267 334.302 147.157C335.1 146.732 335.805 146.189 336.425 145.535C337.036 144.873 337.529 144.125 337.894 143.302C338.251 142.478 338.471 141.62 338.539 140.72C338.616 139.82 338.531 138.937 338.302 138.062C337.937 136.848 337.427 135.693 336.79 134.598C336.213 133.579 335.72 132.509 335.33 131.405C335.236 131.108 335.338 130.921 335.627 130.828C335.924 130.734 336.119 130.828 336.213 131.125C336.586 132.178 337.053 133.197 337.605 134.173C338.276 135.328 338.811 136.551 339.202 137.833C339.457 138.801 339.541 139.786 339.465 140.788C339.38 141.79 339.142 142.75 338.735 143.675C338.327 144.592 337.775 145.416 337.096 146.155C336.408 146.885 335.618 147.488 334.727 147.955C334.659 147.998 334.591 148.015 334.514 148.023Z" fill="black"/>
<path d="M329.699 133.063C329.563 133.063 329.444 133.012 329.35 132.902C328.23 131.628 326.845 130.779 325.19 130.363C324.875 130.303 324.757 130.116 324.833 129.802C324.909 129.497 325.105 129.386 325.41 129.471C327.245 129.938 328.79 130.881 330.03 132.299C330.234 132.536 330.217 132.749 329.987 132.953C329.902 133.02 329.809 133.054 329.699 133.063Z" fill="black"/>
<path d="M152.032 103.443C150.096 103.443 148.151 102.865 146.69 101.43L147.336 100.777C149.569 102.967 153.169 102.857 155.742 101.77C158.629 100.539 160.982 98.1697 163.054 96.0723L163.707 96.7176C161.576 98.8745 159.156 101.32 156.108 102.619C154.8 103.163 153.45 103.434 152.032 103.443Z" fill="black"/>
<path d="M293.484 289.695C292.643 289.695 291.837 289.526 291.064 289.186C289.366 288.422 287.217 285.56 287.039 283.819L287.965 283.734C288.117 285.161 290.037 287.717 291.446 288.337C293 289.008 294.512 288.94 295.989 288.116L296.456 288.906C295.539 289.432 294.546 289.695 293.484 289.695Z" fill="black"/>
<path d="M20.3369 251.656C20.235 251.656 20.1501 251.631 20.0651 251.571C10.6141 244.676 5.93528 231.931 8.69502 220.594C10.232 214.285 13.8069 208.638 17.2629 203.187C19.8868 199.051 22.5956 194.78 24.3449 190.297C25.2025 188.165 25.7969 185.966 26.1281 183.69C26.4423 181.542 26.2555 178.833 24.8289 177.738C24.6251 177.585 24.5826 177.398 24.693 177.169C24.8034 176.948 24.9817 176.863 25.228 176.931L37.8548 180.328C38.0671 180.387 38.1775 180.523 38.1945 180.735C38.5851 185.244 37.1331 189.49 35.5027 193.413C35.0611 194.458 34.5941 195.519 34.1441 196.546C31.9533 201.539 29.6775 206.711 30.187 212.026C30.4757 215.092 31.6985 218.021 32.8703 220.866C33.4478 222.25 34.0337 223.685 34.5262 225.129C35.9528 229.366 37.0482 234.266 34.3563 238.401C29.4737 245.942 25.3638 248.557 20.6001 251.58C20.5237 251.631 20.4303 251.656 20.3369 251.656ZM26.3828 178.205C27.4358 180.124 27.1725 182.884 27.0367 183.826C26.6885 186.17 26.0771 188.446 25.1855 190.645C23.4193 195.196 20.6935 199.527 18.0442 203.679C14.6221 209.071 11.0896 214.642 9.60361 220.807C6.95426 231.701 11.3783 243.921 20.3708 250.637C25.6016 247.3 29.1171 244.812 33.5836 237.917C36.0462 234.113 35.0781 229.663 33.6516 225.435C33.1675 224.016 32.5816 222.598 32.0127 221.223C30.8154 218.319 29.5756 215.321 29.2699 212.12C28.735 206.575 31.0532 201.293 33.3034 196.181C33.7535 195.162 34.2205 194.109 34.6451 193.073C36.182 189.346 37.5746 185.338 37.2944 181.143L26.3828 178.205Z" fill="black"/>
<path d="M37.7185 181.244C37.6845 181.252 37.642 181.252 37.5996 181.244L24.9727 177.847C24.9133 177.83 24.8623 177.805 24.8114 177.762C24.7434 177.711 24.6755 177.661 24.5991 177.618C24.3698 177.482 24.3104 177.287 24.4123 177.049C24.5142 176.803 24.6925 176.709 24.9472 176.777C27.1041 177.304 29.2609 177.915 31.3328 178.501C33.4557 179.121 35.638 179.732 37.8204 180.25C38.0326 180.301 38.143 180.437 38.1685 180.65V180.76C38.1855 180.921 38.1345 181.049 38.0072 181.151C37.9222 181.218 37.8288 181.244 37.7185 181.244Z" fill="black"/>
<path d="M20.668 248.562C20.4982 248.57 20.3708 248.494 20.2774 248.358C20.184 248.214 20.1755 248.069 20.2434 247.916C22.0946 243.883 21.4068 239.196 20.6086 235.57C20.4048 234.653 20.1755 233.685 19.9462 232.768C19.165 229.541 18.3583 226.195 18.4517 222.815C18.6046 217.568 20.8718 212.702 23.0711 207.998C23.4957 207.081 23.9457 206.138 24.3533 205.204C28.4293 196.118 30.7814 187.864 31.7749 179.186C31.8174 178.88 31.9872 178.745 32.2929 178.779C32.5986 178.812 32.7345 178.982 32.7005 179.288C31.707 188.051 29.3124 196.407 25.211 205.578C24.7949 206.503 24.3533 207.471 23.9203 208.388C21.7634 213.008 19.5387 217.78 19.3943 222.841C19.3009 226.102 20.0991 229.379 20.8633 232.547C21.0926 233.472 21.3219 234.432 21.5342 235.374C22.3578 239.145 23.0711 244.01 21.1011 248.298C21.0162 248.485 20.8718 248.57 20.668 248.562Z" fill="black"/>
</svg>
