<svg width="336" height="337" viewBox="0 0 336 337" fill="none" xmlns="http://www.w3.org/2000/svg">
<path d="M205 155V115.354L240 95V134.205L205 155Z" fill="white"/>
<path d="M205.831 115.714V153.88L240.166 133.849V96.1117L205.831 115.714ZM205.419 155C205.345 155 205.275 154.981 205.211 154.947C205.083 154.876 205 154.739 205 154.593V115.482C205 115.339 205.08 115.205 205.205 115.134L240.37 95.0535C240.498 94.9822 240.661 94.9822 240.789 95.0535C240.917 95.1249 241 95.2583 241 95.4042V134.079C241 134.224 240.92 134.352 240.795 134.426L205.633 154.941C205.566 154.981 205.489 155 205.419 155Z" fill="black"/>
<path d="M176.928 210L211 190.935L177.401 171L143 190.751L176.928 210Z" fill="white"/>
<path d="M144.221 191.254L177.431 210.136L210.788 191.429L177.899 171.87L144.221 191.254ZM177.428 211C177.359 211 177.286 210.982 177.224 210.945L143.204 191.601C143.078 191.53 143 191.398 143 191.257C143 191.115 143.078 190.98 143.204 190.909L177.695 171.055C177.823 170.981 177.983 170.981 178.115 171.058L211.805 191.097C211.931 191.167 212.003 191.303 212 191.444C212 191.586 211.921 191.718 211.799 191.786L177.629 210.948C177.569 210.982 177.5 211 177.428 211Z" fill="black"/>
<path d="M238.929 175L272 155.447L239.387 135L206 155.262L238.929 175Z" fill="white"/>
<path d="M206.204 155.254L238.929 174.136L271.806 155.429L239.39 135.867L206.204 155.254ZM238.926 175C238.858 175 238.786 174.982 238.725 174.948L205.201 155.601C205.077 155.53 205 155.398 205 155.254C205 155.112 205.074 154.98 205.201 154.909L239.192 135.055C239.322 134.981 239.476 134.981 239.603 135.058L272.805 155.094C272.929 155.167 273.003 155.3 273 155.441C273 155.586 272.923 155.715 272.799 155.786L239.127 174.948C239.065 174.982 238.997 175 238.926 175Z" fill="black"/>
<path d="M209.187 112.959L243 132.969L210.754 151.859L176.804 131.827L142.783 152L81 115.733L115.214 95.6577L144.328 112.978L147.684 110.951L147.6 76.658L177.699 59L238.64 95.5889L209.187 112.959Z" fill="white"/>
<path d="M82.2104 116.255L143.26 152.119L177.119 132.026C177.247 131.951 177.402 131.951 177.527 132.026L211.314 151.978L242.793 133.521L209.537 113.826C209.416 113.754 209.341 113.619 209.341 113.475C209.341 113.331 209.416 113.196 209.541 113.121L238.434 96.0677L178.211 59.8833L148.491 77.3347L148.572 111.463C148.575 111.607 148.497 111.739 148.375 111.814L145.018 113.842C144.891 113.92 144.732 113.92 144.601 113.845L115.659 96.6129L82.2104 116.255ZM143.26 153C143.189 153 143.12 152.981 143.055 152.947L81.2022 116.606C81.0778 116.534 81 116.399 81 116.255C81 116.107 81.0778 115.973 81.2022 115.897L115.456 95.7856C115.584 95.7104 115.739 95.7104 115.867 95.7888L144.81 113.018L147.763 111.235L147.679 77.1028C147.679 76.9555 147.756 76.8207 147.881 76.7455L178.012 59.056C178.14 58.9808 178.298 58.9808 178.426 59.0592L239.439 95.7198C239.563 95.795 239.638 95.9298 239.638 96.0739C239.635 96.215 239.56 96.3497 239.439 96.4249L210.546 113.475L243.804 133.17C243.925 133.245 244.003 133.38 244 133.524C244 133.668 243.925 133.806 243.801 133.878L211.516 152.806C211.392 152.875 211.233 152.875 211.109 152.803L177.324 132.854L143.466 152.944C143.4 152.981 143.332 153 143.26 153Z" fill="black"/>
<path d="M149 110L178 93.8816L149.037 78L149 110Z" fill="white"/>
<path d="M82.2104 116.255L143.26 152.119L177.119 132.026C177.247 131.951 177.402 131.951 177.527 132.026L211.314 151.978L242.793 133.521L209.537 113.826C209.416 113.754 209.341 113.619 209.341 113.475C209.341 113.331 209.416 113.196 209.541 113.121L238.434 96.0677L178.211 59.8833L148.491 77.3347L148.572 111.463C148.575 111.607 148.497 111.739 148.375 111.814L145.018 113.842C144.891 113.92 144.732 113.92 144.601 113.845L115.659 96.6129L82.2104 116.255ZM143.26 153C143.189 153 143.12 152.981 143.055 152.947L81.2022 116.606C81.0778 116.534 81 116.399 81 116.255C81 116.107 81.0778 115.973 81.2022 115.897L115.456 95.7856C115.584 95.7104 115.739 95.7104 115.867 95.7888L144.81 113.018L147.763 111.235L147.679 77.1028C147.679 76.9555 147.756 76.8207 147.881 76.7455L178.012 59.056C178.14 58.9808 178.298 58.9808 178.426 59.0592L239.439 95.7198C239.563 95.795 239.638 95.9298 239.638 96.0739C239.635 96.215 239.56 96.3497 239.439 96.4249L210.546 113.475L243.804 133.17C243.925 133.245 244.003 133.38 244 133.524C244 133.668 243.925 133.806 243.801 133.878L211.516 152.806C211.392 152.875 211.233 152.875 211.109 152.803L177.324 132.854L143.466 152.944C143.4 152.981 143.332 153 143.26 153Z" fill="black"/>
<path d="M178 290V211.652L211.837 191.721L211.615 152.639L243.25 134L243.479 172.952L272 156.423V234.617L178 290Z" fill="white"/>
<path d="M177.806 211.386V288.898L272.197 233.914V156.548L243.913 172.752C243.789 172.823 243.638 172.823 243.514 172.752C243.388 172.681 243.314 172.551 243.31 172.403L243.088 134.1L211.848 152.296L212.073 191.189C212.076 191.334 211.999 191.47 211.876 191.541L177.806 211.386ZM177.405 290C177.334 290 177.266 289.981 177.204 289.948C177.08 289.873 177 289.741 177 289.599V211.151C177 211.009 177.077 210.876 177.201 210.805L211.267 190.96L211.042 152.067C211.042 151.922 211.119 151.789 211.242 151.715L243.28 133.056C243.406 132.982 243.558 132.982 243.684 133.053C243.808 133.124 243.885 133.254 243.885 133.399L244.114 171.711L272.398 155.504C272.521 155.433 272.676 155.433 272.799 155.504C272.923 155.578 273 155.714 273 155.853V234.146C273 234.288 272.923 234.421 272.799 234.492L177.605 289.944C177.544 289.981 177.473 290 177.405 290Z" fill="black"/>
<path d="M178 290V211.027L143.481 191.287L143.526 151.799L143.374 151.713L81 116V234.461L178 290Z" fill="white"/>
<path d="M81.8169 233.764L177.183 288.892V210.769L143.162 191.126C143.033 191.051 142.958 190.921 142.958 190.775L143.005 151.476L81.8169 116.109V233.764ZM177.593 290C177.521 290 177.452 289.981 177.39 289.947L81.2034 234.347C81.0782 234.276 81 234.139 81 233.996V115.404C81 115.258 81.0782 115.125 81.2066 115.054C81.3318 114.982 81.4883 114.982 81.6134 115.054L143.616 150.896C143.741 150.967 143.819 151.1 143.819 151.243L143.772 190.545L177.8 210.185C177.922 210.257 178 210.39 178 210.536V289.597C178 289.739 177.922 289.873 177.797 289.947C177.734 289.981 177.662 290 177.593 290Z" fill="black"/>
<path d="M143 191V152.013L178 132V170.554L143 191Z" fill="white"/>
<path d="M142.831 152.714V190.88L177.166 170.852V133.109L142.831 152.714ZM142.415 192C142.345 192 142.272 191.981 142.211 191.947C142.077 191.876 142 191.742 142 191.593V152.482C142 152.339 142.077 152.205 142.205 152.134L177.37 132.054C177.501 131.982 177.661 131.982 177.789 132.054C177.92 132.125 178 132.258 178 132.404V171.082C178 171.221 177.92 171.355 177.795 171.429L142.626 191.941C142.562 191.981 142.489 192 142.415 192Z" fill="black"/>
<path d="M212 191V152.52L178 133V171.166L212 191Z" fill="white"/>
<path d="M178.79 171.121L211.21 190.878V152.558L178.79 133.115V171.121ZM211.605 192C211.535 192 211.465 191.981 211.404 191.941L178.195 171.701C178.076 171.629 178 171.495 178 171.352V132.405C178 132.261 178.076 132.127 178.198 132.053C178.322 131.981 178.474 131.984 178.596 132.053L211.805 151.975C211.927 152.046 212 152.18 212 152.324V191.592C212 191.738 211.924 191.872 211.802 191.944C211.742 191.981 211.672 192 211.605 192Z" fill="black"/>
<path d="M176.593 251C176.524 251 176.456 250.981 176.39 250.944L81.2043 195.756C81.008 195.644 80.9425 195.396 81.0547 195.2C81.17 195.008 81.4193 194.943 81.6126 195.055L176.799 250.246C176.992 250.358 177.057 250.606 176.945 250.798C176.87 250.929 176.733 251 176.593 251Z" fill="black"/>
<path d="M177.591 211C177.522 211 177.453 210.981 177.387 210.944L81.2053 155.752C81.008 155.638 80.9422 155.394 81.055 155.203C81.1709 155.008 81.4183 154.943 81.6126 155.054L177.798 210.249C177.992 210.361 178.058 210.608 177.945 210.799C177.87 210.926 177.732 211 177.591 211Z" fill="black"/>
<path d="M142.502 270C142.226 270 142 269.819 142 269.595V151.405C142 151.184 142.226 151 142.502 151C142.774 151 143 151.184 143 151.405V269.595C143 269.819 142.774 270 142.502 270Z" fill="black"/>
<path d="M110.498 251C110.222 251 110 250.818 110 250.599V133.404C110 133.182 110.222 133 110.498 133C110.774 133 111 133.182 111 133.404V250.599C111 250.818 110.774 251 110.498 251Z" fill="black"/>
<path d="M178.404 251C178.265 251 178.129 250.929 178.055 250.798C177.944 250.603 178.006 250.355 178.2 250.247L272.396 195.055C272.588 194.943 272.835 195.008 272.946 195.2C273.057 195.392 272.992 195.64 272.801 195.752L178.604 250.944C178.539 250.981 178.469 251 178.404 251Z" fill="black"/>
<path d="M177.404 212C177.265 212 177.132 211.928 177.054 211.797C176.943 211.603 177.008 211.352 177.2 211.239L272.395 155.055C272.587 154.942 272.834 155.008 272.946 155.202C273.057 155.396 272.992 155.647 272.8 155.762L177.605 211.947C177.543 211.981 177.472 212 177.404 212Z" fill="black"/>
<path d="M211.498 270C211.226 270 211 269.82 211 269.596V152.404C211 152.183 211.226 152 211.498 152C211.774 152 212 152.183 212 152.404V269.596C212 269.82 211.774 270 211.498 270Z" fill="black"/>
<path d="M243.5 251C243.223 251 243 250.817 243 250.594V133.402C243 133.183 243.223 133 243.5 133C243.777 133 244 133.183 244 133.402V250.594C244 250.817 243.777 251 243.5 251Z" fill="black"/>
<path d="M211.594 152C211.523 152 211.454 151.981 211.389 151.943L116.201 95.7646C116.008 95.6512 115.943 95.399 116.055 95.2036C116.167 95.0082 116.416 94.942 116.609 95.0555L211.797 151.234C211.99 151.348 212.058 151.6 211.946 151.795C211.868 151.928 211.734 152 211.594 152Z" fill="black"/>
<path d="M143.411 152C143.269 152 143.131 151.928 143.055 151.795C142.942 151.6 143.008 151.348 143.203 151.234L239.383 95.0555C239.578 94.942 239.829 95.0082 239.943 95.2036C240.059 95.399 239.993 95.6512 239.795 95.7646L143.615 151.943C143.552 151.981 143.48 152 143.411 152Z" fill="black"/>
<path d="M110.411 133C110.269 133 110.131 132.929 110.055 132.802C109.942 132.607 110.008 132.359 110.203 132.248L206.384 77.0545C206.582 76.943 206.834 77.008 206.947 77.2C207.057 77.392 206.991 77.6397 206.796 77.7543L110.615 132.944C110.552 132.985 110.48 133 110.411 133Z" fill="black"/>
<path d="M243.598 134C243.53 134 243.462 133.981 243.398 133.944L149.2 78.7543C149.006 78.6397 148.944 78.392 149.055 78.2C149.166 78.008 149.412 77.943 149.603 78.0545L243.801 133.248C243.992 133.356 244.057 133.604 243.946 133.796C243.872 133.926 243.736 134 243.598 134Z" fill="black"/>
<path d="M218 164.627L184.484 184L151 164.605L184.865 145L218 164.627Z" fill="white"/>
<path d="M152.199 164.604L184.485 183.147L216.807 164.622L184.858 145.854L152.199 164.604ZM184.485 184C184.417 184 184.346 183.982 184.284 183.945L151.2 164.944C151.077 164.874 151 164.743 151 164.601C151 164.461 151.077 164.331 151.2 164.261L184.657 145.056C184.787 144.98 184.941 144.983 185.067 145.056L217.803 164.288C217.926 164.358 218 164.488 218 164.628C217.997 164.768 217.923 164.898 217.8 164.968L184.688 183.945C184.626 183.982 184.555 184 184.485 184Z" fill="black"/>
<path d="M184 224V184.389L218 165V204.159L184 224Z" fill="white"/>
<path d="M184.801 184.43V223.862L217.199 204.113V165.131L184.801 184.43ZM184.403 225C184.333 225 184.265 224.984 184.203 224.946C184.077 224.873 184 224.736 184 224.587V184.188C184 184.042 184.077 183.905 184.203 183.829L217.4 164.057C217.523 163.981 217.677 163.981 217.8 164.057C217.923 164.13 218 164.267 218 164.413V204.351C218 204.497 217.923 204.631 217.803 204.707L184.607 224.946C184.542 224.981 184.471 225 184.403 225Z" fill="black"/>
<path d="M184 224V184.406L152 165V204.261L184 224Z" fill="white"/>
<path d="M151.81 204.22L184.193 223.859V184.444L151.81 165.135V204.22ZM184.599 225C184.525 225 184.457 224.981 184.391 224.946L151.199 204.814C151.075 204.738 151 204.604 151 204.455V164.413C151 164.267 151.078 164.127 151.202 164.054C151.329 163.981 151.484 163.981 151.609 164.058L184.801 183.846C184.925 183.923 185 184.059 185 184.205V224.587C185 224.736 184.925 224.873 184.798 224.949C184.736 224.984 184.665 225 184.599 225Z" fill="black"/>
<path d="M1.20073 277.129L33.4444 296.124L65.8054 277.101L33.9013 257.877L1.20073 277.129ZM33.4444 297C33.3765 297 33.3055 296.981 33.2438 296.947L0.200636 277.481C0.0771676 277.406 0 277.272 0 277.129C0 276.985 0.0771676 276.851 0.200636 276.779L33.7006 257.055C33.8272 256.98 33.9815 256.983 34.1081 257.058L66.8024 276.758C66.9259 276.829 67 276.967 67 277.11C66.9969 277.253 66.9228 277.384 66.7994 277.456L33.6482 296.947C33.5833 296.981 33.5154 297 33.4444 297Z" fill="black"/>
<path d="M34.7801 297.048V335.876L66.2169 316.501V278.114L34.7801 297.048ZM34.39 337C34.324 337 34.258 336.981 34.198 336.947C34.075 336.875 34 336.737 34 336.593V296.813C34 296.666 34.075 296.532 34.195 296.46L66.4149 277.056C66.535 276.981 66.682 276.981 66.805 277.056C66.925 277.128 67 277.263 67 277.407V316.733C67 316.877 66.925 317.011 66.808 317.083L34.5881 336.944C34.528 336.981 34.459 337 34.39 337Z" fill="black"/>
<path d="M1.81049 316.478L34.1926 335.874V296.948L1.81049 278.115V316.478ZM34.5963 337C34.5249 337 34.4535 336.981 34.3914 336.944L1.19874 317.062C1.07453 316.99 1 316.855 1 316.711V277.409C1 277.264 1.07763 277.126 1.20184 277.054C1.32606 276.982 1.48132 276.982 1.60553 277.054L34.7982 296.358C34.9255 296.427 35 296.565 35 296.713V336.592C35 336.736 34.9224 336.875 34.7982 336.947C34.7361 336.981 34.6646 337 34.5963 337Z" fill="black"/>
<path d="M127.216 272.131L159.945 291.124L192.787 272.103L160.406 252.879L127.216 272.131ZM159.945 292C159.873 292 159.804 291.984 159.738 291.947L126.204 272.48C126.075 272.408 126 272.274 126 272.131C126 271.984 126.075 271.853 126.204 271.779L160.202 252.056C160.334 251.981 160.49 251.981 160.616 252.056L193.803 271.76C193.928 271.832 194.003 271.966 194 272.109C194 272.252 193.922 272.387 193.796 272.458L160.149 291.947C160.086 291.984 160.014 292 159.945 292Z" fill="black"/>
<path d="M159.827 291.045V329.877L193.173 310.502V272.115L159.827 291.045ZM159.414 331C159.341 331 159.274 330.981 159.207 330.944C159.08 330.872 159 330.737 159 330.59V290.811C159 290.667 159.08 290.529 159.207 290.457L193.379 271.054C193.507 270.982 193.666 270.982 193.793 271.054C193.92 271.129 194 271.261 194 271.408V310.733C194 310.877 193.924 311.012 193.796 311.084L159.624 330.941C159.56 330.978 159.487 331 159.414 331Z" fill="black"/>
<path d="M126.807 310.475L159.193 329.874V290.945L126.807 272.115V310.475ZM159.596 331C159.525 331 159.453 330.978 159.391 330.94L126.196 311.062C126.075 310.987 126 310.852 126 310.707V271.409C126 271.264 126.075 271.126 126.199 271.054C126.326 270.982 126.478 270.982 126.606 271.054L159.798 290.355C159.922 290.427 160 290.565 160 290.71V330.589C160 330.736 159.922 330.871 159.795 330.944C159.733 330.981 159.665 331 159.596 331Z" fill="black"/>
<mask id="mask0_1453_2098" style="mask-type:luminance" maskUnits="userSpaceOnUse" x="191" y="0" width="69" height="41">
<path d="M191.907 0H259.457V40.4401H191.907V0Z" fill="white"/>
</mask>
<g mask="url(#mask0_1453_2098)">
<path d="M193.191 20.508L225.619 39.4257L258.164 20.4831L226.078 1.3356L193.191 20.508ZM225.619 40.2981C225.55 40.2981 225.479 40.2794 225.417 40.2453L192.185 20.8587C192.061 20.7873 191.986 20.6539 191.986 20.508C191.986 20.3652 192.061 20.2317 192.185 20.1603L225.876 0.516059C226.004 0.444659 226.159 0.444659 226.286 0.519163L259.167 20.1385C259.291 20.2099 259.366 20.3434 259.366 20.4893C259.366 20.6321 259.288 20.7656 259.164 20.837L225.824 40.2453C225.761 40.2794 225.693 40.2981 225.619 40.2981Z" fill="black"/>
</g>
<path d="M226.78 40.0464V78.8796L258.217 59.5006V21.115L226.78 40.0464ZM226.39 80C226.324 80 226.258 79.9844 226.198 79.9468C226.075 79.8748 226 79.7402 226 79.5931V39.8117C226 39.6677 226.072 39.53 226.198 39.458L258.412 20.054C258.535 19.982 258.682 19.982 258.805 20.054C258.925 20.126 259 20.2637 259 20.4076V59.7353C259 59.8792 258.928 60.0138 258.808 60.0858L226.588 79.9437C226.528 79.9812 226.459 80 226.39 80Z" fill="black"/>
<path d="M192.807 59.4784L225.193 78.8737V39.9482L192.807 21.1177V59.4784ZM225.596 80C225.525 80 225.453 79.9812 225.391 79.9435L192.199 60.062C192.075 59.9898 192 59.858 192 59.7106V20.4086C192 20.2643 192.078 20.1294 192.202 20.0541C192.326 19.982 192.481 19.982 192.606 20.0541L225.798 39.3584C225.922 39.4306 226 39.5686 226 39.7129V79.5921C226 79.7396 225.922 79.8745 225.798 79.9467C225.733 79.9812 225.665 80 225.596 80Z" fill="black"/>
<path d="M81.3672 91.6201C78.1413 91.9871 81.6361 83.4494 81.6361 83.4494L94.4524 82.7825L104.151 80.0691C105.148 79.7907 106.181 80.3781 106.474 81.3845C106.77 82.4123 106.181 83.4861 105.163 83.7736L100.832 84.9972C100.231 85.1685 100.013 85.9211 100.43 86.3922C101.073 87.1263 101.841 87.732 102.699 88.1848C104.26 89.0015 106.994 90.3506 109.857 91.3417C111.201 91.8067 111.452 93.532 110.111 94L100.895 93.6023C98.5604 93.5014 95.6425 91.7485 94.0839 89.9835C94.0839 89.9835 86.9191 90.9838 81.3672 91.6201Z" fill="white"/>
<path d="M94.1125 89.1188C94.2216 89.1188 94.3276 89.1684 94.3984 89.2552C95.8098 90.9112 98.5827 92.6882 100.778 92.7874L109.689 93.1906C110.163 92.9859 110.234 92.6076 110.234 92.3967C110.234 91.9936 109.969 91.4943 109.379 91.2834C106.5 90.2445 103.736 88.818 102.343 88.0551C101.465 87.5775 100.684 86.9387 100.021 86.151C99.7407 85.8223 99.6435 85.3726 99.7613 84.9446C99.8821 84.5229 100.192 84.2004 100.595 84.0794L104.821 82.8389C105.201 82.7273 105.516 82.4668 105.708 82.104C105.899 81.7411 105.943 81.3194 105.834 80.9193C105.611 80.113 104.806 79.6386 104.04 79.8649L94.5752 82.6126C94.5486 82.6219 94.5221 82.625 94.4927 82.6281L82.2345 83.2886C81.3328 85.6486 80.2631 89.5126 81.0027 90.5484C81.0911 90.6694 81.2532 90.8275 81.6657 90.7779C87.0169 90.1422 93.9917 89.1312 94.0624 89.1219C94.0801 89.1219 94.0978 89.1188 94.1125 89.1188ZM109.751 94C109.745 94 109.739 94 109.733 94L100.743 93.5937C98.3322 93.4852 95.5004 91.6679 93.9652 89.9499C92.7865 90.1205 86.6014 91.0043 81.7512 91.5811C81.0116 91.6679 80.602 91.333 80.3898 91.0353C79.1139 89.2459 81.3563 83.4003 81.6157 82.7428C81.6746 82.5971 81.8042 82.5009 81.9516 82.4947L94.4131 81.8218L103.834 79.0834C105.001 78.7454 106.229 79.4649 106.568 80.6898C106.739 81.3008 106.671 81.9396 106.38 82.4947C106.088 83.0498 105.608 83.4499 105.027 83.6204L100.802 84.8609C100.654 84.9012 100.542 85.0191 100.498 85.1741C100.457 85.3323 100.489 85.4935 100.592 85.6145C101.193 86.3246 101.901 86.9046 102.696 87.3387C104.069 88.0892 106.795 89.5002 109.627 90.5143C110.446 90.8089 110.997 91.5656 111 92.3936C111.003 93.1162 110.573 93.724 109.874 93.9783C109.836 93.9938 109.792 94 109.751 94Z" fill="black"/>
<path d="M48.7804 30.3599C41.3524 32.0821 36.0988 35.7916 36.0988 35.7916C36.0988 35.7916 24.736 43.1201 25.0047 57.1001C25.2147 67.9509 33.1956 80.8671 33.1307 81.7906C32.4296 92.1422 31.6451 91.7897 32.7045 95.4805C35.2742 104.434 71.6852 100.741 72.3338 96.6348C72.9206 92.9128 71.2281 86.6856 72.0774 78.3119C72.828 70.9117 75.4841 61.8017 75.4841 61.8017C87.3226 68.6529 99.6151 67.7731 110.802 59.7551C123.99 50.2957 134 29.2648 134 29.2648L126.72 25C126.72 25 111.015 43.2823 97.8299 44.7112C89.9757 45.5629 83.1746 40.9175 79.2089 37.3515C75.2092 33.7512 70.354 31.2397 65.0911 30.2382C60.4614 29.3553 54.7197 28.984 48.7804 30.3599Z" fill="white"/>
<path d="M48.3153 30.1783C41.0441 31.864 35.8027 35.5231 35.7501 35.5606C35.6263 35.642 24.5462 42.9634 24.8093 56.5773C24.9671 64.74 29.5618 74.0912 31.771 78.5854C32.7055 80.4837 32.9716 81.0436 32.9499 81.3626C32.6962 85.0968 32.4394 87.4049 32.2475 89.0906C31.9196 92.0398 31.8484 92.6496 32.5074 94.9421C33.8596 99.6614 45.5616 100.625 55.1657 100.021C64.479 99.4331 71.2088 97.5097 71.4223 96.1524C71.6698 94.5887 71.4934 92.4776 71.2892 90.0319C71.0169 86.7262 70.6766 82.6104 71.1624 77.8097C71.9111 70.4352 74.5659 61.2779 74.5907 61.1872C74.6247 61.0652 74.7144 60.9683 74.8289 60.9245C74.9403 60.8776 75.0702 60.8838 75.1785 60.9464C86.8063 67.6767 98.8888 66.973 110.127 58.9104C122.191 50.2535 131.711 31.5856 133.07 28.8397L126.389 24.9272C124.36 27.2384 109.929 43.2136 97.4067 44.5709C89.5477 45.4216 82.7561 40.9743 78.4428 37.0931C74.405 33.459 69.5813 31.0258 64.4914 30.0563C58.7828 28.971 53.3402 29.0117 48.3153 30.1783ZM50.0233 101C41.2762 101 32.9716 99.4894 31.7339 95.1704C31.0315 92.7216 31.1182 91.9334 31.4492 88.9967C31.6349 87.3204 31.8948 85.0217 32.1454 81.3063C32.1145 81.1155 31.5978 80.0615 31.0501 78.9482C28.8161 74.4008 24.1657 64.937 24.0048 56.5929C23.7325 42.513 35.187 34.957 35.3045 34.882C35.3417 34.8538 40.7038 31.1071 48.1359 29.3839C53.269 28.1923 58.823 28.1485 64.6399 29.2556C69.8752 30.2533 74.832 32.7522 78.9781 36.4833C83.1707 40.255 89.7581 44.5803 97.3201 43.7609C110.22 42.3598 125.842 24.3205 126 24.1391C126.126 23.9921 126.34 23.9577 126.504 24.0547L133.797 28.3268C133.982 28.4331 134.05 28.6646 133.961 28.8553C133.859 29.068 123.735 50.1441 110.591 59.5765C99.2261 67.733 87.0043 68.5336 75.225 61.9096C74.668 63.905 72.6042 71.5704 71.9637 77.8911C71.4842 82.6167 71.8214 86.6918 72.0937 89.9631C72.3103 92.5652 72.4805 94.6199 72.2175 96.2838C71.8121 98.8608 61.8274 100.415 55.2152 100.834C53.5011 100.941 51.756 101 50.0233 101Z" fill="black"/>
<path d="M40.6359 37C40.6359 37 32.4656 40.493 28.1528 54.716C25.7734 62.5651 26.21 73.7565 37.9478 88.6385C40.296 91.6137 43.5953 94.5763 47.3188 95L83 93.3084L82.841 81.6996C82.841 81.6996 55.171 80.0897 51.011 78.5016C47.3281 77.0925 41.9925 58.7582 41.4374 49.7637L40.6359 37Z" fill="white"/>
<path d="M48.2627 95C48.2473 95 48.2319 94.9969 48.2164 94.9938C44.1677 94.5293 40.7892 91.2186 38.6675 88.5252C37.4137 86.9291 36.2062 85.3143 35.0759 83.7244C34.9462 83.5405 34.9864 83.288 35.1686 83.1571C35.3477 83.0261 35.5978 83.0667 35.7275 83.2506C36.8517 84.828 38.053 86.4334 39.2975 88.0171C41.3173 90.5858 44.5136 93.7343 48.2751 94.1832L83.1908 92.5217L83.0426 81.7605C79.6085 81.5547 55.69 80.0802 51.7772 78.5808C48.4696 77.312 44.5754 64.6461 42.9849 56.4848C42.9417 56.2635 43.0837 56.0515 43.2999 56.0078C43.5192 55.9642 43.7292 56.1076 43.7724 56.3258C45.5976 65.6904 49.4517 76.8163 52.0613 77.8201C56.076 79.357 83.1908 80.9562 83.4657 80.9718C83.6757 80.9811 83.8394 81.1588 83.8425 81.3708L84 92.902C84.003 93.1233 83.8332 93.3041 83.617 93.3135L48.2813 94.9969C48.2751 94.9969 48.2689 95 48.2627 95Z" fill="black"/>
<path d="M44.4595 203L42 215.995L48.4376 218L52 205.352L44.4595 203Z" fill="white"/>
<path d="M42.7736 215.422L48.0979 217.117L51.1956 205.892L44.9126 203.895L42.7736 215.422ZM48.3362 218C48.3033 218 48.2705 217.997 48.2376 217.985L42.2587 216.085C42.0806 216.028 41.9711 215.827 42.0067 215.623L44.2909 203.317C44.3128 203.207 44.3703 203.116 44.4552 203.058C44.5429 203 44.6442 202.985 44.7401 203.015L51.7406 205.24C51.8337 205.271 51.9104 205.338 51.957 205.432C52.0035 205.526 52.0117 205.636 51.9844 205.736L48.6786 217.72C48.632 217.89 48.4896 218 48.3362 218Z" fill="black"/>
<path d="M39.0524 226.976C39.1289 228.202 40.6321 229.19 41.8424 229.37C46.0593 230.011 55.9739 229.743 58.6652 229.926C62.1591 230.169 68.7232 229.907 68.978 227.674C69.2869 224.952 66.3568 220.978 59.3468 218.805C55.7191 217.678 51.8845 212.1 50.1869 212.002C48.4894 211.901 45.486 216.307 45.486 216.307L40.6544 214.661C40.6544 214.661 38.6543 220.741 39.0524 226.976Z" fill="white"/>
<path d="M41.2795 215.445C40.8642 216.826 39.5345 221.743 39.8569 226.697C39.9157 227.606 41.1586 228.468 42.231 228.628C44.8873 229.024 49.8433 229.051 53.8292 229.072C55.878 229.081 57.6508 229.093 58.5683 229.157C62.4767 229.42 67.9906 228.942 68.1735 227.349C68.4679 224.808 65.4398 221.22 59.0828 219.28C57.0371 218.654 54.9419 216.681 53.262 215.094C52.078 213.979 50.8537 212.821 50.2679 212.788C49.2854 212.737 47.2088 215.064 46.0496 216.735C45.9473 216.883 45.7582 216.944 45.5847 216.886L41.2795 215.445ZM60.6542 230C59.4175 230 58.5435 229.943 58.5125 229.94C57.6198 229.879 55.8594 229.87 53.823 229.861C49.8123 229.837 44.8253 229.81 42.1102 229.408C40.7092 229.196 39.1409 228.12 39.051 226.745C38.6636 220.776 40.61 214.874 40.6286 214.816C40.6627 214.716 40.7371 214.632 40.8332 214.586C40.9293 214.538 41.0409 214.532 41.1431 214.565L45.5568 216.046C46.3347 214.961 48.6624 211.903 50.3144 212.002C51.2009 212.054 52.357 213.145 53.823 214.526C55.444 216.055 57.4618 217.959 59.3214 218.527C66.413 220.691 69.2955 224.663 68.9763 227.437C68.719 229.671 63.639 230 60.6542 230Z" fill="black"/>
<path d="M53.4934 223C53.3689 223 53.2481 222.956 53.15 222.864C52.9538 222.68 52.9501 222.375 53.1387 222.187L56.1533 219.148C56.342 218.956 56.6552 218.949 56.8514 219.137C57.0438 219.321 57.0513 219.622 56.8627 219.814L53.8443 222.853C53.7499 222.952 53.6217 223 53.4934 223Z" fill="black"/>
<path d="M7.33841 202L7 211.411L12.9421 213L14 202.067L7.33841 202Z" fill="white"/>
<path d="M7.82656 210.814L13.1492 212.097L14.138 202.866L8.14573 202.813L7.82656 210.814ZM13.5059 213C13.4746 213 13.4402 212.997 13.4089 212.988L7.31026 211.519C7.12251 211.472 6.99109 211.302 7.00047 211.11L7.3478 202.39C7.35719 202.173 7.53555 202 7.75459 202H7.75772L14.5948 202.062C14.7106 202.062 14.8201 202.114 14.8952 202.198C14.9735 202.285 15.0079 202.396 14.9985 202.507L13.9096 212.638C13.897 212.756 13.8345 212.858 13.7406 212.926C13.6717 212.975 13.5873 213 13.5059 213Z" fill="black"/>
<path d="M14.7636 228.703C12.3287 229.027 8.35356 229.167 3.64889 228.7C1.53818 228.489 0.715098 225.715 1.08611 224.287C2.11808 220.308 3.91078 213.889 6.96305 210.391L8.08543 212.526L9.14234 210.444C9.28576 210.201 9.54453 210.035 9.8376 210L12.1198 210.02C12.5999 209.962 13.0458 210.263 13.1455 210.712L13.5103 212.356L15.4589 210.234L16.9772 225.929C17.1643 227.272 16.1791 228.516 14.7636 228.703Z" fill="white"/>
<mask id="mask1_1453_2098" style="mask-type:luminance" maskUnits="userSpaceOnUse" x="0" y="208" width="18" height="23">
<path d="M0 208.123H17.0707V230.375H0V208.123Z" fill="white"/>
</mask>
<g mask="url(#mask1_1453_2098)">
<path d="M6.48484 210.443C3.55745 214.435 1.84697 221.469 1.09882 224.549C0.900148 225.368 1.10193 226.796 1.78799 227.768C2.19776 228.355 2.70687 228.681 3.2998 228.743C7.25471 229.162 11.3555 229.165 14.2705 228.749C15.4533 228.581 16.2883 227.464 16.13 226.253L14.702 210.502L13.3827 212.038C13.2833 212.153 13.125 212.203 12.976 212.162C12.827 212.125 12.7121 212.007 12.6811 211.855L12.3179 210.104C12.262 209.837 12.0137 209.654 11.7467 209.688C11.7281 209.691 11.7094 209.691 11.6908 209.691L9.44947 209.67C9.29736 209.698 9.16077 209.794 9.08316 209.933L8.04011 212.128C7.97492 212.265 7.83522 212.358 7.68001 212.358C7.531 212.361 7.38199 212.271 7.3137 212.131L6.48484 210.443ZM9.15146 229.873C7.48754 229.873 5.49456 229.789 3.21598 229.55C2.39333 229.46 1.67002 229.006 1.12676 228.234C0.269968 227.02 0.0712915 225.362 0.313429 224.359C1.54895 219.278 3.33705 212.985 6.24891 209.424C6.33583 209.319 6.46932 209.263 6.60591 209.282C6.7425 209.294 6.86357 209.381 6.92255 209.505L7.67069 211.026L8.36606 209.564C8.58026 209.173 8.95278 208.918 9.36876 208.862C9.38739 208.862 9.40601 208.859 9.42464 208.859L11.6722 208.881C12.3458 208.813 12.9729 209.272 13.1095 209.94L13.3082 210.887L14.7113 209.251C14.8169 209.126 14.9876 209.08 15.1397 209.129C15.2949 209.176 15.4036 209.316 15.4191 209.477L16.934 226.163C17.1451 227.796 16.0027 229.32 14.3823 229.55C13.5161 229.674 11.7218 229.873 9.15146 229.873Z" fill="black"/>
</g>
<path d="M6.32252 221C6.149 221 6.00524 220.649 6.00028 220.21C5.99284 219.759 6.13413 219.383 6.31012 219.364L10.6652 219C10.8437 218.994 10.9924 219.332 10.9999 219.79C11.0048 220.241 10.866 220.618 10.6876 220.63L6.33243 221C6.32747 221 6.32499 221 6.32252 221Z" fill="black"/>
<path d="M71.0363 98.1074C73.3112 111.736 77.4484 145.224 68.5152 170.275C60.8286 191.836 55.34 202.572 53.2314 206.469C52.6557 207.536 51.5044 208.131 50.3254 207.975L44.846 207.255C43.2238 207.04 42.094 205.49 42.3526 203.835C44.3504 191.004 52.2894 128.568 50.1746 122.799L16.1469 204.639C15.7775 205.509 14.9402 206.067 14.0167 206.055L8.26953 205.989C6.98896 205.974 5.96696 204.885 6.00082 203.573C7.69697 137.333 26.6532 126.672 32.2065 95.0018C32.2219 94.927 34.0258 97.1533 34.0935 97.1938C39.656 100.49 42.4388 100.231 50.9688 100.711C60.1976 101.225 68.7707 97.6616 70.7901 97.7582C70.9471 97.7676 71.0086 97.9484 71.0363 98.1074Z" fill="black"/>
<path d="M61.3761 35L62.933 26.7739C63.0427 26.2238 63.4876 25.8074 64.0299 25.7421L67.159 25.3723C67.8292 25.2977 68.3624 24.7694 68.4691 24.0826L69.1759 19.4956C69.1759 19.4894 69.182 19.4832 69.1881 19.48L70.675 18.6472C70.9705 18.4856 71.0863 18.1064 70.9309 17.7957L69.3648 14.6382C69.0602 14.0229 68.6427 10.5547 67.9724 10.5858C67.9724 10.5858 56.7084 6.54572 53.3965 11.3627C52.5191 12.6368 52.4216 14.3243 53.0157 15.7632L53.7743 17.5999C54.5604 19.508 54.7371 21.6555 54.1339 23.6382C53.9206 24.3436 53.619 25.0242 53.2351 25.6644L49 32.4672C52.0773 34.0553 55.4592 34.9099 58.8991 34.9627L61.3761 35Z" fill="white"/>
<path d="M49.9786 31.8773C52.9053 33.3135 56.1518 34.0957 59.3921 34.1489L61.5595 34.1802L63.0659 26.2357C63.2135 25.4973 63.7976 24.9529 64.5201 24.8653L67.6774 24.496C68.1724 24.4366 68.572 24.0423 68.6489 23.5354L69.3621 18.9171C69.3836 18.7919 69.4697 18.6668 69.5773 18.6073L71.0776 17.7719C71.1883 17.7124 71.2282 17.5685 71.1729 17.4558L69.5927 14.2737C69.4728 14.0359 69.3713 13.5947 69.2053 12.8312C69.0516 12.1303 68.735 10.6879 68.4829 10.4157C68.4583 10.4094 68.4368 10.4063 68.4122 10.3969C68.3015 10.3562 57.2924 6.48566 54.1627 11.0289C53.388 12.1522 53.2558 13.7011 53.8215 15.0653L54.5839 16.9145C55.4447 18.9922 55.58 21.2513 54.962 23.2726C54.7345 24.0204 54.4148 24.7401 54.0121 25.4066L49.9786 31.8773ZM61.8885 35C61.8854 35 61.8854 35 61.8823 35L59.3798 34.9625C55.872 34.9093 52.3581 34.0238 49.2192 32.4061C49.1178 32.3529 49.044 32.259 49.0132 32.1495C48.9856 32.0369 49.0009 31.918 49.0624 31.821L53.3357 24.9748C53.6985 24.3709 53.9906 23.7169 54.1996 23.0285C54.7591 21.195 54.6331 19.133 53.8491 17.2337L53.0836 15.3813C52.4134 13.7605 52.5764 11.9113 53.5079 10.5596C56.8958 5.64397 67.6221 9.25793 68.6181 9.60525C69.2976 9.66783 69.5865 10.8224 69.9862 12.656C70.1 13.166 70.226 13.7449 70.3059 13.9045L71.8861 17.0866C72.1413 17.5998 71.9538 18.2131 71.4619 18.4884L70.1246 19.2331L69.439 23.6637C69.3068 24.5336 68.6181 25.2094 67.7696 25.3064L64.6123 25.6757C64.2342 25.7226 63.9298 26.0105 63.8499 26.3953L62.282 34.6715C62.2451 34.8623 62.0791 35 61.8885 35Z" fill="black"/>
<mask id="mask2_1453_2098" style="mask-type:luminance" maskUnits="userSpaceOnUse" x="48" y="0" width="26" height="21">
<path d="M48.0645 0H73.4951V20.5724H48.0645V0Z" fill="white"/>
</mask>
<g mask="url(#mask2_1453_2098)">
<path d="M59.1061 15.6904C58.5162 14.2128 57.5974 13.654 57.7681 12.8158C57.8736 12.3098 58.3083 11.9901 58.5535 11.81C59.7828 10.9098 61.3971 11.4592 64.638 12.077C68.6643 12.8438 69.1237 12.9648 69.8843 12.6606C71.8152 11.8907 72.911 9.49109 72.9979 7.51673C73.0197 6.96106 73.0693 4.02125 70.5983 2.50634C68.8133 1.41051 66.4261 1.49122 64.4983 2.70502C64.3276 2.13692 63.9768 1.3298 63.21 0.935549C61.394 -0.00195882 58.6808 2.10278 57.7308 2.84161C56.8523 3.52146 55.2877 4.94324 54.1702 7.44223C53.8101 7.24045 52.4659 6.53887 51.0007 7.01072C48.8245 7.71541 48.2906 10.4038 48.2409 10.6583C47.6976 13.6261 50.1128 16.2213 51.9382 18.177C52.9471 19.2542 53.4748 19.6671 54.0646 20.0644C54.4154 20.3035 54.8656 20.319 55.2319 20.1141C55.2412 20.111 55.2474 20.1079 55.2536 20.1017C55.7348 19.8347 55.8962 19.2076 55.6075 18.7358L55.5144 18.5837C55.1667 18.0156 54.9276 17.3792 54.8562 16.7149C54.7973 16.184 54.8376 15.6283 55.176 15.3427C55.7223 14.8802 56.6474 15.1875 56.7809 15.231C57.4577 15.4545 57.883 15.9605 58.1468 16.4448C58.4262 16.9632 59.3668 16.3454 59.1061 15.6904Z" fill="black"/>
</g>
<path d="M145 37.1234L112.486 56L80 37.1015L112.855 18L145 37.1234Z" fill="white"/>
<path d="M81.2216 37.0978L112.984 55.1408L144.785 37.1162L113.352 18.8592L81.2216 37.0978ZM112.984 56C112.915 56 112.843 55.9817 112.78 55.945L80.2041 37.4434C80.0785 37.373 80 37.2416 80 37.0978C80 36.9572 80.0785 36.8257 80.2041 36.7554L113.148 18.055C113.28 17.9817 113.437 17.9817 113.562 18.055L145.799 36.7799C145.921 36.8532 146 36.9847 146 37.1254C145.997 37.266 145.918 37.3944 145.796 37.4678L113.192 55.945C113.126 55.9817 113.057 56 112.984 56Z" fill="black"/>
<path d="M112 94V55.7342L145 37V74.8329L112 94Z" fill="white"/>
<path d="M112.831 55.7705V93.8621L145.173 74.7845V37.1316L112.831 55.7705ZM112.414 95C112.344 95 112.274 94.9809 112.21 94.946C112.08 94.8729 112 94.733 112 94.5868V55.5321C112 55.3827 112.08 55.246 112.207 55.1729L145.379 36.0572C145.507 35.9809 145.666 35.9809 145.793 36.0572C145.924 36.1303 146 36.267 146 36.4132V75.0197C146 75.1691 145.924 75.3058 145.796 75.3789L112.624 94.9428C112.56 94.9809 112.487 95 112.414 95Z" fill="black"/>
<path d="M112 94V55.7489L80 37V74.9305L112 94Z" fill="white"/>
<path d="M80.81 74.8885L112.187 93.8594V55.7842L80.81 37.1374V74.8885ZM112.592 95C112.52 95 112.449 94.9809 112.386 94.9428L80.1994 75.4795C80.0748 75.4064 80 75.2698 80 75.1268V36.4162C80 36.2669 80.0779 36.1303 80.2025 36.0572C80.3302 35.9809 80.4829 35.9809 80.6106 36.0572L112.798 55.1901C112.922 55.2663 113 55.403 113 55.5459V94.587C113 94.7331 112.919 94.8729 112.794 94.946C112.732 94.9809 112.664 95 112.592 95Z" fill="black"/>
<path d="M91 82.9442L93.7014 82.8035L96.8746 82.1245L104.186 80.0693C105.177 79.791 106.208 80.3752 106.496 81.3814C106.791 82.412 106.208 83.4855 105.195 83.773L100.886 84.9963C100.288 85.1676 100.072 85.9199 100.484 86.3939C101.124 87.1249 101.89 87.7304 102.743 88.18C104.294 88.9996 107.016 90.3484 109.865 91.3362C111.202 91.8011 111.449 93.526 110.114 94L100.949 93.5963C99.1343 93.5168 97.4095 92.8562 95.9942 91.7338C92.6347 89.07 91 82.9442 91 82.9442Z" fill="white"/>
<path d="M109.709 94C109.703 94 109.697 94 109.69 94L100.402 93.5938C98.2609 93.4976 96.2083 92.6355 94.6246 91.1656L93.4064 89.9468L85.0985 91.0229C84.8792 91.0508 84.6843 90.8927 84.6569 90.6725C84.6295 90.4492 84.7817 90.2477 84.998 90.2197L93.4978 89.122C93.6166 89.1064 93.7384 89.1468 93.8237 89.2336L95.1698 90.5764C96.6072 91.913 98.4802 92.7006 100.435 92.7875L109.645 93.1875C110.132 92.9859 110.208 92.6076 110.208 92.3967C110.205 91.9936 109.934 91.4912 109.325 91.2803C106.499 90.2973 103.813 88.9824 102.052 88.0552C101.145 87.5776 100.338 86.9357 99.6527 86.1511C99.3633 85.8224 99.2628 85.3696 99.3847 84.9479C99.5065 84.523 99.8293 84.1974 100.247 84.0795L104.614 82.8391C105.007 82.7275 105.332 82.467 105.53 82.1041C105.728 81.7382 105.774 81.3165 105.658 80.9195C105.427 80.1132 104.595 79.6388 103.807 79.862L94.8744 82.3739C94.8591 82.377 94.8439 82.3832 94.8256 82.3832C94.7891 82.3894 90.9214 82.9631 83.4113 83.2454C83.192 83.2516 83.0093 83.0779 83.0002 82.8546C82.9941 82.6313 83.1646 82.4453 83.3839 82.436C90.5407 82.1662 94.3566 81.6359 94.6886 81.5894L103.593 79.0837C104.799 78.7456 106.069 79.462 106.42 80.69C106.596 81.2979 106.526 81.9398 106.225 82.4949C105.923 83.0469 105.427 83.4469 104.827 83.6175L100.46 84.8579C100.307 84.9013 100.192 85.0161 100.146 85.1742C100.1 85.3324 100.137 85.4906 100.243 85.6115C100.865 86.3248 101.596 86.9047 102.418 87.3388C103.837 88.0893 106.654 89.4972 109.581 90.5175C110.427 90.809 111 91.5656 111 92.3936C111.003 93.1162 110.555 93.724 109.837 93.9783C109.794 93.9907 109.751 94 109.709 94Z" fill="black"/>
<path d="M137.748 32.598C137.515 33.7799 136.61 36.8127 134.28 37.7811C133.303 38.1857 132.174 38.0073 131.295 37.4275C128.825 35.7965 129.399 34.1622 130.366 30.744C130.639 29.7819 130.636 29.0014 130.553 28.2559C130.501 27.7621 130.225 27.3193 129.792 27.0549L126 24.7549C126 24.7549 127.407 22.9199 128.884 23.0027C130.173 23.0728 132.41 24.9938 132.791 24.8249C137.029 22.9072 138.68 27.8768 137.748 32.598Z" fill="white"/>
<path d="M126.999 24.9618L130.149 26.9024C130.657 27.2133 130.981 27.7324 131.046 28.33C131.113 28.9879 131.147 29.7998 130.859 30.832L130.764 31.167C129.925 34.164 129.576 35.4044 131.563 36.7384C132.319 37.2394 133.216 37.3541 133.969 37.0342C136.194 36.0926 136.898 32.7847 136.969 32.4135C137.553 29.4195 137.012 26.5976 135.652 25.5533C134.933 24.998 134.006 24.9739 132.901 25.4779C132.552 25.6379 132.141 25.3783 131.321 24.8652C130.614 24.4246 129.653 23.821 129.065 23.7878C128.306 23.7455 127.473 24.4548 126.999 24.9618ZM133.072 38C132.402 38 131.722 37.7948 131.116 37.3873C128.655 35.7394 129.16 33.9376 129.999 30.9557L130.091 30.6238C130.342 29.7183 130.314 28.997 130.253 28.4145C130.213 28.0584 130.023 27.7505 129.726 27.5694L126.188 25.3873C126.093 25.33 126.025 25.2364 126.007 25.1278C125.986 25.0191 126.013 24.9075 126.081 24.8199C126.139 24.7415 127.547 22.9155 129.111 23.003C129.904 23.0453 130.926 23.6882 131.75 24.2012C132.059 24.3974 132.475 24.657 132.653 24.7264C134.348 23.9809 135.484 24.4216 136.145 24.9316C137.752 26.169 138.398 29.2354 137.752 32.5614C137.621 33.2374 136.834 36.6781 134.284 37.7586C133.899 37.9215 133.488 38 133.072 38Z" fill="black"/>
<path d="M329 214.681L328.443 224.851L321.609 226L321 214L329 214.681Z" fill="white"/>
<path d="M321.838 214.826L322.338 225.14L327.705 224.202L328.168 215.384L321.838 214.826ZM321.954 226C321.863 226 321.772 225.97 321.7 225.913C321.61 225.843 321.553 225.738 321.544 225.626L321 214.412C320.997 214.298 321.038 214.186 321.125 214.108C321.21 214.029 321.325 213.99 321.444 214.002L328.63 214.636C328.849 214.654 329.012 214.838 328.999 215.046L328.499 224.555C328.493 224.739 328.352 224.89 328.168 224.923L322.025 225.994C322.004 225.997 321.979 226 321.954 226Z" fill="black"/>
<path d="M321.428 242.832C323.942 243.075 328.046 243.187 332.813 242.213C334.378 241.892 335.341 240.196 334.887 238.558C333.612 233.999 331.38 225.335 328.061 221.446L327.388 223.691L326.219 221.673C326.059 221.397 325.783 221.221 325.484 221.194L323.875 221.003C323.379 220.963 322.943 221.337 322.864 221.861L322.579 223.794L320.886 221.33L319.008 239.738C318.893 241.306 319.968 242.693 321.428 242.832Z" fill="white"/>
<mask id="mask3_1453_2098" style="mask-type:luminance" maskUnits="userSpaceOnUse" x="318" y="220" width="19" height="24">
<path d="M318.266 220.045H336.001V243.886H318.266V220.045Z" fill="white"/>
</mask>
<g mask="url(#mask3_1453_2098)">
<path d="M321.525 242.563C324.148 242.815 328.283 242.911 333.076 241.933C333.71 241.806 334.253 241.414 334.604 240.834C334.989 240.201 335.094 239.425 334.889 238.698L334.613 237.692C333.362 233.182 331.316 225.79 328.451 221.935L327.982 223.49C327.939 223.645 327.805 223.757 327.644 223.776C327.486 223.794 327.327 223.717 327.247 223.577L326.045 221.513C325.952 221.348 325.787 221.239 325.611 221.227L323.947 221.025C323.667 221.003 323.406 221.233 323.357 221.565L323.065 223.54C323.04 223.704 322.919 223.838 322.758 223.875C322.596 223.912 322.429 223.847 322.335 223.71L321.224 222.096L319.411 239.837C319.306 241.213 320.256 242.439 321.525 242.563ZM325.129 243.541C323.711 243.541 322.469 243.466 321.448 243.37C319.74 243.203 318.467 241.588 318.607 239.766L320.529 220.917C320.547 220.749 320.668 220.609 320.83 220.566C320.994 220.525 321.168 220.591 321.264 220.73L322.419 222.404L322.559 221.444C322.668 220.702 323.31 220.162 324.027 220.221L325.691 220.42C326.117 220.454 326.517 220.712 326.747 221.109L327.479 222.366L327.902 220.96C327.942 220.817 328.057 220.712 328.203 220.681C328.345 220.653 328.498 220.702 328.594 220.814C331.819 224.595 334.057 232.657 335.389 237.475L335.669 238.481C335.932 239.421 335.796 240.434 335.296 241.256C334.821 242.029 334.092 242.551 333.238 242.724C330.208 243.342 327.439 243.541 325.129 243.541Z" fill="black"/>
</g>
<path d="M326.772 241C323.197 241 320.496 240.265 320.321 240.213C320.097 240.151 319.957 239.892 320.012 239.639C320.071 239.379 320.298 239.226 320.526 239.288C320.591 239.306 327.256 241.128 333.453 239.021C333.678 238.944 333.915 239.087 333.983 239.339C334.048 239.592 333.921 239.859 333.697 239.932C331.308 240.744 328.887 241 326.772 241Z" fill="black"/>
<path d="M324.372 233C324.167 233 324.003 232.807 324 232.566C323.994 232.322 324.159 232.122 324.363 232.116L329.623 232C329.827 231.99 329.997 232.187 330 232.431C330.003 232.678 329.844 232.878 329.637 232.881L324.377 233C324.372 233 324.372 233 324.372 233Z" fill="black"/>
<path d="M299 212L298.767 225.617L291.936 226L291 212.448L299 212Z" fill="white"/>
<path d="M290.797 212.217L291.701 225.196L298.001 224.847L298.225 211.81L290.797 212.217ZM291.346 226C291.145 226 290.977 225.84 290.962 225.636L290.001 211.873C289.992 211.768 290.028 211.666 290.096 211.587C290.164 211.506 290.261 211.461 290.362 211.455L298.595 211C298.701 210.997 298.808 211.036 298.885 211.112C298.958 211.187 299.003 211.292 299 211.401L298.763 225.226C298.757 225.434 298.601 225.6 298.4 225.612L291.367 226C291.361 226 291.355 226 291.346 226Z" fill="black"/>
<path d="M300.994 233.319C301.076 234.618 300.269 235.802 299.055 236.159C294.828 237.404 285.305 240.184 282.574 240.748C279.036 241.479 274.596 240.583 272.607 238.534C270.617 236.486 273.698 232.297 279.276 229.031C283.694 226.446 287.31 220.352 289.034 220.016C290.755 219.68 294.246 224.685 294.246 224.685L299.424 222.124C299.424 222.124 300.575 226.74 300.994 233.319Z" fill="white"/>
<path d="M288.741 219.786C288.7 219.786 288.666 219.789 288.631 219.795C287.995 219.922 286.767 221.318 285.473 222.797C283.679 224.838 281.45 227.379 278.944 228.854C274.933 231.208 272.144 234.103 271.845 236.223C271.754 236.878 271.911 237.423 272.321 237.844C274.181 239.767 278.418 240.697 281.966 239.961C284.711 239.395 294.452 236.538 298.513 235.336C299.545 235.03 300.244 233.994 300.175 232.871C299.838 227.564 299.02 223.49 298.721 222.124L293.98 224.475C293.797 224.565 293.57 224.511 293.454 224.344C292.106 222.406 289.805 219.786 288.741 219.786ZM279.47 241C276.388 241 273.296 240.013 271.719 238.38C271.143 237.786 270.907 237.002 271.033 236.114C271.373 233.734 274.241 230.693 278.519 228.179C280.909 226.773 283.09 224.287 284.844 222.285C286.415 220.498 287.551 219.204 288.467 219.023C290.211 218.68 293 222.321 293.929 223.614L298.818 221.188C298.931 221.134 299.061 221.131 299.177 221.182C299.29 221.231 299.375 221.331 299.404 221.449C299.416 221.494 300.575 226.219 300.993 232.822C301.088 234.306 300.147 235.678 298.755 236.09C294.682 237.296 284.916 240.158 282.136 240.733C281.274 240.912 280.37 241 279.47 241Z" fill="black"/>
<path d="M279.974 240C277.628 240 275.568 239.494 274.143 238.187C273.968 238.03 273.953 237.754 274.102 237.574C274.251 237.391 274.514 237.375 274.686 237.534C280.533 242.898 299.214 233.145 299.401 233.046C299.604 232.939 299.855 233.026 299.957 233.239C300.058 233.455 299.976 233.714 299.772 233.821C299.163 234.144 287.939 240 279.974 240Z" fill="black"/>
<path d="M288.657 230C288.578 230 288.497 229.968 288.434 229.906L285.116 226.668C284.974 226.53 284.961 226.29 285.084 226.129C285.208 225.971 285.423 225.956 285.564 226.094L288.883 229.329C289.024 229.467 289.04 229.71 288.917 229.868C288.846 229.956 288.752 230 288.657 230Z" fill="black"/>
<path d="M306.741 124.745C306.741 124.745 334.676 125.605 331.791 115.783C329.954 109.537 309.736 115.472 303.841 117.475C302.833 117.821 279 115.424 279 115.424L285.466 129L306.741 124.745Z" fill="black"/>
<path d="M324.854 115C324.854 115 329.432 161.391 331.338 176.675C333.245 191.96 330.425 216.844 330.425 216.844L319.07 216.82C319.07 216.82 317.339 193.02 316.093 181.98C315.858 179.895 315.306 177.863 314.47 175.939C312.792 172.07 309.79 164.558 308.464 157.556C306.579 147.558 301.011 131.913 301.011 131.913C301.011 131.913 300.792 211.53 300.702 217.792C300.702 217.792 291.846 218.703 288.557 216.711C288.557 216.711 281.567 188.066 281.644 172.268C281.718 156.471 279 117.381 279 117.381L324.854 115Z" fill="white"/>
<path d="M289.347 216.051C292.221 217.621 299.135 217.155 300.789 217.019C300.879 208.678 301.086 132.959 301.09 132.182C301.093 131.985 301.232 131.818 301.424 131.784C301.619 131.753 301.805 131.861 301.87 132.046C301.929 132.203 307.5 147.714 309.376 157.547C310.695 164.457 313.702 171.889 315.378 175.703C316.242 177.667 316.799 179.724 317.038 181.812C318.19 191.898 319.772 212.965 319.998 216.023L330.657 216.048C330.997 212.955 333.298 190.6 331.539 176.644C329.74 162.379 325.513 120.289 325.067 115.824L279.834 118.146C280.125 122.342 282.528 157.575 282.457 172.222C282.385 187.047 288.771 213.689 289.347 216.051ZM296.683 218C293.921 218 290.592 217.741 288.789 216.659C288.696 216.606 288.631 216.517 288.604 216.412C288.535 216.128 281.577 187.76 281.651 172.219C281.723 156.739 279.029 118.18 279.001 117.791C278.995 117.683 279.029 117.578 279.1 117.498C279.174 117.415 279.273 117.369 279.382 117.362L325.408 115C325.622 114.991 325.81 115.148 325.829 115.361C325.879 115.824 330.449 161.559 332.338 176.542C334.237 191.58 331.45 216.249 331.422 216.495C331.397 216.702 331.227 216.853 331.022 216.853C331.022 216.853 331.022 216.853 331.019 216.853L319.62 216.828C319.41 216.825 319.236 216.665 319.221 216.455C319.202 216.218 317.471 192.721 316.235 181.904C316.006 179.897 315.468 177.917 314.638 176.024C312.95 172.182 309.918 164.686 308.584 157.698C307.14 150.137 303.493 139.182 301.892 134.535C301.851 147.704 301.669 211.858 301.591 217.393C301.588 217.596 301.433 217.766 301.226 217.787C301.059 217.806 299.083 218 296.683 218Z" fill="black"/>
<path d="M302.357 50.1635C302.357 50.1635 312.898 56.1677 316.791 65.6771C319.124 71.3815 318.439 81.1601 319.222 86.7178C321.31 101.537 331 115.298 331 115.298C331 115.298 329.284 113.016 323.318 117.525C317.761 121.727 312.612 124.887 301.04 124.994C290.576 125.089 284.295 124.021 280.721 123.015C278.354 122.342 276.852 120.039 277.218 117.61C277.752 114.108 278.4 108.633 278.277 103.44C278.102 96.1477 273.067 82.5366 273.067 82.5366C273.067 82.5366 255.09 72.4429 254 63.4779C254 63.4779 265.971 52.8184 279.21 51.1453C292.971 49.408 302.357 50.1635 302.357 50.1635Z" fill="black"/>
<path d="M300.95 73.8558C300.95 73.8558 305.981 81.9893 299 86.9209L326.126 96L328.484 84.2935C331.411 69.053 321.613 54.0608 306.122 50.6883C304.62 50.3621 303.102 50.1317 301.581 50L300.95 73.8558Z" fill="black"/>
<path d="M277 67.6232L244.484 86L212 67.5988L244.857 49L277 67.6232Z" fill="white"/>
<path d="M213.203 68.1009L244.488 86.1408L275.806 68.1192L244.846 49.8622L213.203 68.1009ZM244.488 87C244.416 87 244.348 86.9817 244.283 86.948L212.201 68.4434C212.077 68.373 212 68.2416 212 68.1009C212 67.9572 212.077 67.8257 212.201 67.7584L244.648 49.055C244.775 48.9817 244.93 48.9817 245.057 49.055L276.802 67.7799C276.926 67.8532 277 67.9847 277 68.1254C277 68.266 276.923 68.3975 276.799 68.4678L244.689 86.948C244.627 86.9817 244.556 87 244.488 87Z" fill="black"/>
<path d="M244 124V85.7301L277 67V104.828L244 124Z" fill="white"/>
<path d="M244.806 85.7678V123.859L276.194 104.785V67.1323L244.806 85.7678ZM244.405 125C244.334 125 244.266 124.981 244.201 124.943C244.077 124.873 244 124.733 244 124.587V85.5326C244 85.3833 244.077 85.2466 244.201 85.1735L276.395 66.0548C276.521 65.9817 276.676 65.9817 276.799 66.0548C276.923 66.1311 277 66.2678 277 66.414V105.023C277 105.169 276.923 105.303 276.802 105.376L244.608 124.943C244.544 124.981 244.473 125 244.405 125Z" fill="black"/>
<path d="M244 124V85.7478L212 67V104.928L244 124Z" fill="white"/>
<path d="M212.785 104.891L243.215 123.859V85.7858L212.785 67.1351V104.891ZM243.607 125C243.538 125 243.468 124.981 243.405 124.943L212.19 105.482C212.073 105.406 212 105.272 212 105.126V66.4138C212 66.2645 212.076 66.1279 212.196 66.0548C212.32 65.9817 212.468 65.9817 212.589 66.0548L243.804 85.1917C243.924 85.2647 244 85.4014 244 85.5475V124.587C244 124.736 243.924 124.873 243.801 124.946C243.743 124.981 243.674 125 243.607 125Z" fill="black"/>
<path d="M303.507 88C303.507 88 291.615 99.7767 276.683 99.5322C268.709 99.3996 264.371 97.4314 259.532 95.8109C255.781 94.5557 253.632 92.5227 252.129 91.0318C251.288 90.198 249.968 89.0253 248.793 88.5952C248.447 88.4685 248.094 88.4302 247.779 88.4537C245.147 88.6246 249.031 92.726 249.031 92.726C249.241 93.1974 248.91 93.7307 248.379 93.7808L246.728 93.937C245.701 93.9075 244.684 93.6718 243.323 92.8557L240.605 90.9287C239.835 90.5398 238.852 90.7166 238.364 91.4001C238.156 91.6889 237.98 92.5581 238.002 92.9352C238.082 94.3907 237.356 99.2493 243.428 101.353C248.057 102.956 251.452 100.784 253.323 101.055C254.686 101.256 270.041 112.066 287.338 110.914C313.395 109.179 322 94.4467 322 94.4467L303.507 88Z" fill="white"/>
<path d="M253.407 101.162C253.553 101.162 253.689 101.171 253.823 101.189C254.136 101.236 254.709 101.546 256.082 102.301C260.932 104.976 273.821 112.08 287.829 111.14C311.062 109.581 320.4 97.44 321.99 95.0986L304.164 88.839C302.574 90.3355 291.12 100.65 277.168 100.421C270.263 100.308 266.027 98.8115 261.933 97.3656C261.242 97.1216 260.551 96.8777 259.85 96.6427C256.169 95.3991 254.008 93.4504 252.276 91.7189C251.415 90.8591 250.163 89.7524 249.075 89.3507C248.749 89.2288 248.439 89.2198 248.235 89.2347C247.944 89.2526 247.77 89.324 247.72 89.4459C247.466 90.0529 248.787 91.8677 249.76 92.903C249.791 92.9327 249.812 92.9714 249.831 93.0101C249.983 93.3522 249.958 93.7301 249.76 94.0514C249.564 94.3697 249.23 94.575 248.845 94.6107L247.194 94.7684C247.172 94.7713 247.156 94.7713 247.141 94.7713C245.886 94.7356 244.801 94.3935 243.524 93.623L240.797 91.6743C240.196 91.3827 239.455 91.5404 239.102 92.0402C238.966 92.2336 238.792 93.016 238.811 93.3522C238.82 93.5129 238.817 93.7122 238.817 93.9443C238.811 95.8126 238.801 99.701 243.986 101.507C246.93 102.536 249.32 101.974 251.241 101.522C252.056 101.331 252.781 101.162 253.407 101.162ZM285.263 112C272.051 112 260.287 105.514 255.682 102.977C254.765 102.468 253.897 101.992 253.699 101.956C253.144 101.873 252.354 102.06 251.43 102.277C249.515 102.727 246.887 103.346 243.707 102.236C237.992 100.242 238.005 95.8275 238.008 93.9413C238.011 93.7271 238.011 93.5426 238.002 93.3939C237.98 92.9595 238.163 91.9867 238.436 91.6029C239.034 90.7609 240.221 90.4991 241.203 91.0019C241.222 91.0108 241.237 91.0227 241.256 91.0346L243.98 92.9833C245.381 93.8253 246.366 93.971 247.138 93.9919L248.765 93.8401C248.892 93.8282 249.003 93.7598 249.065 93.6557C249.121 93.5664 249.137 93.4653 249.109 93.3641C248.548 92.7632 246.453 90.3861 246.97 89.1574C247.094 88.8658 247.401 88.5088 248.176 88.4582C248.588 88.4314 248.997 88.4909 249.366 88.6248C250.59 89.08 251.938 90.2671 252.856 91.1804C254.148 92.4716 256.308 94.6256 260.12 95.9108C260.823 96.1488 261.514 96.3927 262.212 96.6397C266.244 98.0618 270.415 99.5315 277.18 99.6445C277.332 99.6475 277.484 99.6475 277.63 99.6475C292.046 99.6505 303.656 88.2351 303.77 88.1191C303.882 88.009 304.049 87.9703 304.198 88.0239L322.737 94.5333C322.845 94.572 322.935 94.6553 322.975 94.7624C323.016 94.8695 323.006 94.9885 322.95 95.0867C322.864 95.2384 313.917 110.164 287.884 111.914C287.004 111.973 286.13 112 285.263 112Z" fill="black"/>
<path d="M300.356 88C300.276 88 300.194 87.9709 300.131 87.9031C299.978 87.7576 299.956 87.4927 300.079 87.315C303.702 82.0576 301.751 67.6328 301.732 67.4906C301.699 67.2612 301.83 67.0415 302.025 67.0059C302.222 66.9672 302.402 67.1223 302.435 67.3517C302.52 67.9592 304.457 82.2999 300.632 87.8449C300.561 87.9451 300.46 88 300.356 88Z" fill="white"/>
<path d="M231 57.3215L224.668 60.7126C222.591 61.8778 221.453 65.1323 221.453 65.1323C218.974 70.8073 215.724 68.779 216.979 65.3793C217.537 63.8683 216.023 64.6209 214.573 66.1348C213.248 67.5121 212.288 70.4731 211.007 69.9355C208.672 68.9505 210.351 61.0991 216.536 58.3909C221.74 56.1098 231 57.3215 231 57.3215Z" fill="white"/>
<path d="M225.259 56.835C222.497 56.835 219.213 57.1388 216.858 58.3069C212.643 60.396 210.776 65.296 210.797 68.1069C210.807 69.1609 211.082 69.9174 211.536 70.1359C212.002 70.3543 212.643 69.1799 213.21 68.1417C213.609 67.4105 214.023 66.6539 214.495 66.0968C215.077 65.41 216.521 63.8589 217.303 64.3242C217.827 64.6344 217.573 65.4194 217.49 65.6758C216.981 67.2395 217.331 68.4645 217.947 68.6988C218.664 68.971 219.946 67.9707 221.046 65.1251C221.083 65.0016 222.199 61.4437 224.302 60.1111L229.367 57.0407C228.401 56.9457 226.924 56.835 225.259 56.835ZM211.674 71C211.524 71 211.365 70.9652 211.202 70.8829C210.436 70.5189 210.009 69.5376 210 68.1132C209.976 65.0871 211.984 59.8072 216.515 57.563C221.571 55.0529 230.29 56.3063 230.658 56.3602C230.826 56.3855 230.961 56.5184 230.992 56.6894C231.026 56.8634 230.952 57.0375 230.805 57.1262L224.71 60.8202C222.871 61.9882 221.807 65.3688 221.798 65.4036C220.396 69.0343 218.75 69.8826 217.671 69.4711C216.524 69.0375 216.123 67.2933 216.733 65.4163C216.776 65.2802 216.797 65.182 216.812 65.1092C216.503 65.2517 215.868 65.7265 215.096 66.6413C214.676 67.1351 214.283 67.8536 213.906 68.5468C213.244 69.756 212.566 70.9968 211.674 71Z" fill="black"/>
<path d="M294.867 49.8444L290.082 35L280.131 40.0478L283.001 49.4191C283.407 50.78 282.794 52.2319 281.516 52.9505L280.365 53.6017C279.768 53.939 279.94 54.7984 280.617 54.904L285.873 55.7164C290.91 56.4908 296.074 55.6695 300.572 53.3729C301.219 53.0414 301.108 52.1293 300.403 51.9503C298.242 51.393 295.083 50.4809 294.867 49.8444Z" fill="white"/>
<path d="M280.016 39.9399L282.822 49.5318C283.278 51.15 282.589 52.8737 281.141 53.7262L279.975 54.4145C279.786 54.5261 279.805 54.7152 279.814 54.771C279.826 54.8237 279.876 55.0066 280.097 55.0438L285.397 55.8994C290.363 56.7024 295.539 55.8405 299.973 53.4689C300.203 53.3449 300.194 53.1248 300.187 53.0597C300.181 52.9946 300.138 52.7776 299.886 52.7094C294.34 51.2151 294.119 50.5176 294.023 50.2169C294.023 50.2138 294.023 50.2138 294.023 50.2138L289.334 34.989L280.016 39.9399ZM289.048 57C287.787 57 286.519 56.9008 285.267 56.6993L279.963 55.8405C279.481 55.763 279.112 55.4003 279.022 54.9198C278.928 54.4393 279.143 53.965 279.565 53.7169L280.73 53.0318C281.861 52.3653 282.399 51.0167 282.045 49.755L279.149 39.8531C279.093 39.6671 279.177 39.4718 279.348 39.3819L289.39 34.0465C289.496 33.9907 289.623 33.9845 289.735 34.031C289.847 34.0744 289.931 34.1675 289.968 34.2853L294.79 49.9596C294.846 50.0464 295.387 50.6633 300.097 51.9282C300.585 52.0615 300.936 52.4676 300.992 52.9636C301.048 53.4658 300.8 53.9402 300.355 54.1789C296.885 56.0359 292.976 57 289.048 57Z" fill="black"/>
<path d="M266.74 23.7135C269.438 22.3268 267.255 26.6245 276.126 19.1846C279.662 16.2206 279.766 21.7302 280.686 20.9618C284.077 18.1321 285.019 17.3981 287.157 17.0295C288.569 16.7921 292.377 18.0102 292.737 19.8405C293.906 25.8156 290.768 25.497 291.299 30.9285C291.668 34.739 291.186 36.1664 290.046 37.2565C288.896 38.3559 287.034 37.0191 285.68 38.131C283.931 39.5647 285.91 42.7411 284.611 44.9993C283.795 46.4236 281.126 48.1071 275.517 47.9947C274.61 47.979 273.842 47.3325 273.697 46.4611C273.512 45.3429 273.285 43.9343 273.185 42.5694C272.709 36.0602 274.166 33.8895 272.744 32.7807C270.568 31.0816 266.844 34.2737 265.276 32.7776C263.644 31.2315 263.054 25.6125 266.74 23.7135Z" fill="black"/>
<path d="M280.814 27.7233L280.692 29.6381C280.633 30.5384 280.64 31.442 280.702 32.3423C280.824 34.032 280.926 36.9411 280.995 38.5736C281.231 43.8308 273.733 41.4727 273.733 41.4727L272.819 40.4279L271.972 40.4682C271.807 40.475 271.64 40.4481 271.495 40.3708C271.127 40.176 270.95 39.7762 271.012 39.3866C271.364 37.2602 271.982 32.5707 271.331 28.9293C271.331 28.9293 275.366 25.5633 280.814 27.7233Z" fill="white"/>
<path d="M274.444 40.7247C275.117 40.9024 278.622 41.7494 280.273 40.528C280.896 40.0649 281.175 39.3606 281.129 38.3708C281.109 37.9458 281.085 37.4255 281.059 36.864C280.999 35.4301 280.922 33.6472 280.832 32.4957C280.766 31.6296 280.762 30.7509 280.819 29.8848L280.922 28.3843C276.511 26.8933 273.083 28.8697 272.244 29.428C272.823 32.8097 272.267 36.975 271.874 39.1893C271.841 39.3892 271.944 39.5859 272.134 39.681C272.2 39.7159 272.294 39.7318 272.397 39.7254L273.259 39.6905C273.389 39.6842 273.512 39.7318 273.602 39.827L274.444 40.7247ZM277.653 42C275.866 42 274.191 41.5178 274.075 41.4861C274.001 41.4607 273.932 41.4195 273.882 41.3624L273.093 40.5249L272.437 40.5534C272.181 40.5629 271.937 40.5153 271.731 40.4138C271.205 40.1537 270.922 39.6049 271.019 39.0497C271.335 37.2669 271.997 32.7495 271.342 29.3202C271.315 29.1711 271.375 29.022 271.495 28.9268C271.668 28.7872 275.846 25.6149 281.531 27.7181C281.708 27.7848 281.821 27.9497 281.808 28.1337L281.685 29.9388C281.631 30.7668 281.635 31.6074 281.695 32.4354C281.788 33.5965 281.864 35.392 281.928 36.8291C281.951 37.3906 281.974 37.9077 281.994 38.3328C282.054 39.5922 281.655 40.5534 280.802 41.1784C279.96 41.8065 278.785 42 277.653 42Z" fill="black"/>
<path d="M282 34.6418C282 34.6418 282.247 29.4021 283.985 30.0566C285.719 30.7072 285.341 36.4751 282 34.6418Z" fill="white"/>
<path d="M273.576 33.6139C273.57 33.6139 273.561 33.6139 273.555 33.6139C273.422 33.6163 273.169 33.6539 272.931 33.8607C272.714 34.0463 272.738 34.4129 273.007 34.9486C273.501 35.9496 273.989 36.2669 274.311 36.3538C274.54 36.4173 274.787 36.3914 275.064 36.2669C275.089 36.2528 275.191 36.14 275.212 35.8674C275.233 35.6066 275.197 34.6807 273.907 33.6962C273.853 33.6562 273.739 33.6139 273.576 33.6139ZM274.552 37C274.384 37 274.212 36.9789 274.046 36.9319C273.347 36.7368 272.766 36.1611 272.274 35.1695C271.886 34.3894 271.91 33.8278 272.347 33.4495C272.669 33.1722 273.088 33.0124 273.528 33.0006C273.889 32.9912 274.224 33.0852 274.453 33.2591C275.748 34.246 276.092 35.3363 275.98 36.0319C275.92 36.4008 275.733 36.6757 275.453 36.7979C275.155 36.9319 274.851 37 274.552 37Z" fill="black"/>
<path d="M273.421 34C273.243 34 273.077 33.8752 273.019 33.6846C272.951 33.449 273.071 33.1925 273.294 33.1163L282.452 30.0216C282.675 29.9454 282.908 30.0771 282.98 30.3162C283.051 30.5518 282.928 30.8083 282.704 30.8811L273.55 33.9792C273.508 33.9931 273.463 34 273.421 34Z" fill="black"/>
<path d="M271.411 38C271.185 38 270.93 37.7204 270.758 37.4858C270.344 36.9317 269.933 36.0032 270.009 35.0597C270.038 34.7227 270.163 34.4482 270.375 34.2635C270.881 33.8292 271.703 34.0563 271.796 34.0837C271.938 34.1262 272.026 34.3009 271.993 34.4756C271.958 34.6503 271.812 34.7577 271.67 34.7152C271.496 34.6653 270.945 34.573 270.686 34.7951C270.601 34.87 270.554 34.9723 270.544 35.1246C270.455 36.1979 271.22 37.2387 271.442 37.351C271.574 37.3685 271.679 37.5083 271.679 37.6755C271.679 37.8552 271.559 38 271.411 38Z" fill="black"/>
<path d="M287.899 324C287.899 324 296.193 326.385 301.005 325.264C301.005 325.264 307.056 329.654 307 332L286 331.809L287.899 324Z" fill="white"/>
<path d="M286.919 331.055L306.133 331.243C305.718 329.397 302.288 326.337 300.724 325.094C296.602 326.013 290.289 324.36 288.553 323.863L286.919 331.055ZM306.587 332H306.584L286.408 331.804C286.285 331.804 286.167 331.752 286.091 331.662C286.015 331.575 285.983 331.46 286.009 331.35L287.836 323.3C287.858 323.196 287.934 323.103 288.036 323.051C288.141 322.997 288.261 322.985 288.375 323.02C288.455 323.046 296.272 325.429 300.724 324.314C300.854 324.282 300.997 324.311 301.101 324.392C301.711 324.869 307.057 329.108 307 331.63C306.996 331.835 306.812 332 306.587 332Z" fill="black"/>
<path d="M296 324.851C296 324.851 299.943 317.434 302.059 317.008C303.84 316.654 320.157 327.576 325.379 331.25C326.304 331.904 326.173 333.331 325.137 333.769C322.568 334.854 315.838 336.04 301.361 333.414C300.604 333.278 299.987 332.727 299.76 331.987L299.531 331.216C298.963 329.333 300.055 327.351 301.957 326.814L296 324.851Z" fill="white"/>
<path d="M296.992 324.099L302.528 325.934C302.696 325.99 302.809 326.149 302.805 326.327C302.799 326.505 302.681 326.66 302.512 326.71C301.691 326.944 301.013 327.483 300.604 328.231C300.195 328.979 300.105 329.839 300.345 330.653L300.583 331.435C300.764 332.036 301.257 332.482 301.875 332.594C317.401 335.424 323.617 333.806 325.565 332.977C325.912 332.834 326.14 332.519 326.18 332.139C326.224 331.74 326.055 331.366 325.734 331.139C318.409 325.959 304.07 316.579 302.584 316.806C301.238 317.077 298.544 321.257 296.992 324.099ZM316.964 335C313.28 335 308.328 334.595 301.728 333.392C300.81 333.227 300.07 332.563 299.802 331.669L299.568 330.889C299.259 329.861 299.374 328.78 299.889 327.842C300.223 327.231 300.701 326.732 301.276 326.374L296.28 324.719C296.165 324.681 296.074 324.597 296.027 324.485C295.984 324.376 295.993 324.251 296.049 324.145C296.461 323.36 300.17 316.463 302.421 316.012C304.81 315.529 325.993 330.325 326.205 330.475C326.761 330.871 327.064 331.541 326.989 332.223C326.917 332.903 326.505 333.464 325.884 333.725C324.71 334.224 322.062 335 316.964 335Z" fill="black"/>
<path d="M324.588 333C324.512 333 324.433 332.982 324.37 332.936L301.192 318.733C300.999 318.614 300.942 318.371 301.065 318.185C301.185 317.999 301.438 317.944 301.631 318.063L324.81 332.266C325.003 332.384 325.056 332.631 324.936 332.817C324.857 332.936 324.724 333 324.588 333Z" fill="black"/>
<path d="M226 331.863C225.981 330.024 225.949 327.116 225.895 323.382L220.241 324.162L215.562 320C215.562 320 202.136 324.756 195.635 330.766C194.425 331.884 195.037 333.874 196.687 334.121C201.643 334.851 213.125 335.544 223.735 334.37C225.035 334.225 226.013 333.141 226 331.863Z" fill="white"/>
<path d="M215.341 320.874C213.572 321.55 202.044 326.081 196.302 331.597C195.859 332.021 195.7 332.648 195.883 333.237C196.063 333.811 196.519 334.207 197.106 334.297C201.995 335.046 213.02 335.735 223.347 334.547C224.408 334.425 225.203 333.509 225.193 332.417C225.175 330.634 225.147 327.852 225.094 324.294L220.044 325.021C219.923 325.036 219.802 324.999 219.715 324.918L215.341 320.874ZM211.351 336C205.305 336 199.994 335.56 196.982 335.099C196.101 334.965 195.384 334.341 195.114 333.48C194.835 332.598 195.077 331.65 195.744 331.011C202.063 324.937 214.754 320.222 215.291 320.025C215.434 319.972 215.592 320.004 215.704 320.107L220.121 324.188L225.435 323.424C225.553 323.409 225.668 323.443 225.755 323.521C225.842 323.596 225.894 323.708 225.898 323.823C225.95 327.603 225.981 330.549 226 332.411C226.012 333.92 224.911 335.186 223.437 335.355C219.383 335.822 215.217 336 211.351 336Z" fill="black"/>
<path d="M214.208 332C209.635 332 203.266 331.89 197.351 331.402C197.121 331.382 196.965 331.278 197.007 331.168C197.046 331.058 197.263 330.983 197.494 331.003C208.203 331.887 220.428 331.523 220.548 331.519C220.785 331.512 220.983 331.597 220.999 331.709C221.012 331.819 220.837 331.915 220.603 331.922C220.548 331.924 217.992 332 214.208 332Z" fill="black"/>
<path d="M265.324 272.856C265.056 272.628 243.366 256.082 233.593 259.453C222.172 263.393 224.01 294.892 224.253 304.164C224.487 313.197 266.716 286.084 268.019 283.707C269.302 281.357 270.093 276.918 265.324 272.856Z" fill="white"/>
<path d="M237.044 258.809C236.006 258.809 235.042 258.943 234.175 259.241C223.754 262.84 224.665 290.995 225.006 301.596C225.034 302.399 225.053 303.12 225.071 303.741C225.09 304.494 225.431 304.911 226.176 305.093C229.151 305.815 237.648 302.314 249.48 295.469C259.134 289.888 267.75 283.94 268.254 283.011C268.97 281.706 270.894 277.098 265.642 272.624C265.41 272.439 247.465 258.809 237.044 258.809ZM227.042 306C226.651 306 226.295 305.962 225.982 305.887C224.881 305.617 224.286 304.883 224.255 303.763C224.239 303.142 224.217 302.424 224.192 301.624C223.814 289.844 222.922 262.262 233.913 258.47C243.946 255.006 265.961 271.824 266.17 272C270.716 275.871 270.6 280.433 268.97 283.407C268.266 284.693 258.815 291.017 249.89 296.178C243.339 299.967 232.107 306 227.042 306Z" fill="black"/>
<path d="M223.647 302.103C223.61 302.134 223.572 302.171 223.535 302.201C216.212 308.715 211.029 315.611 213.722 323.527C219.488 340.48 284.806 335.307 291.68 335.094C293.102 335.048 294.004 332.826 293.982 331.409L294.211 323.358C294.198 322.449 293.71 321.614 292.924 321.151C288.768 318.714 277.684 312.82 260.017 313.491C259.432 313.516 250.105 314.551 250.691 314.511C263.212 313.688 282.288 315.352 287.073 312.699C307.108 301.585 298.335 285.606 296.578 278.272C291.455 256.869 259.482 279.215 259.256 279.267C259.191 279.304 254.931 281.772 249.303 285.159L223.647 302.103Z" fill="white"/>
<path d="M261.397 313.412C262.372 313.412 263.349 313.415 264.324 313.421C263.309 313.393 262.335 313.393 261.397 313.412ZM264.187 336C233.514 336 216.576 331.73 213.727 323.246C210.763 314.426 217.426 306.947 223.561 301.422L223.67 301.326C223.834 301.177 224.092 301.187 224.244 301.354C224.393 301.518 224.381 301.771 224.216 301.919L224.207 301.926L224.104 302.018C218.149 307.38 211.679 314.611 214.493 322.993C216.65 329.415 227.835 333.36 247.733 334.717C263.79 335.814 280.983 334.875 288.322 334.47C289.728 334.392 290.749 334.34 291.345 334.318C292.45 334.284 293.253 332.299 293.235 331.032L293.461 322.937C293.452 322.174 293.049 321.475 292.384 321.082C285.973 317.27 279.304 315.242 273.212 314.246C270.903 314.265 268.454 314.249 265.969 314.237C260.724 314.203 255.296 314.172 250.768 314.472C250.623 314.481 250.458 314.416 250.377 314.293C250.297 314.172 250.287 314.018 250.356 313.888C250.399 313.804 250.424 313.755 250.709 313.693V313.671C250.772 313.665 250.837 313.662 250.899 313.659C251.448 313.563 252.596 313.436 255.098 313.158C256.143 313.041 259.588 312.66 259.967 312.645C263.737 312.499 268.321 312.632 273.28 313.439C279.391 313.384 284.483 313.084 286.597 311.9C303.476 302.42 299.473 289.685 296.828 281.26C296.431 280.002 296.059 278.812 295.82 277.801C294.83 273.617 292.726 270.863 289.564 269.614C280.635 266.086 265.77 274.882 259.793 278.827C259.554 278.982 259.464 279.043 259.411 279.071C259.026 279.294 254.93 281.699 249.577 284.961C249.387 285.076 249.136 285.02 249.021 284.828C248.903 284.636 248.965 284.389 249.155 284.275C254.632 280.936 258.794 278.496 259.017 278.366C259.03 278.357 259.042 278.351 259.054 278.345C259.095 278.32 259.194 278.252 259.346 278.153C265.432 274.137 280.582 265.195 289.858 268.865C293.284 270.22 295.553 273.163 296.605 277.618C296.841 278.598 297.192 279.721 297.601 281.019C300.158 289.166 304.441 302.801 286.991 312.602C285.206 313.603 281.56 314.011 277.029 314.169C282.156 315.332 287.556 317.276 292.797 320.39C293.703 320.928 294.256 321.88 294.271 322.94L294.042 331.035C294.066 332.658 293.039 335.072 291.37 335.125C290.78 335.144 289.768 335.199 288.369 335.277C279.537 335.759 271.471 336 264.187 336Z" fill="black"/>
<path d="M223.392 302C223.275 302 223.16 301.95 223.082 301.857C222.949 301.697 222.982 301.467 223.151 301.344C223.546 301.061 224.068 300.662 224.671 300.202C229.603 296.43 241.163 287.591 256.538 285.005C256.755 284.972 256.957 285.103 256.993 285.303C257.033 285.499 256.891 285.69 256.68 285.726C241.504 288.278 230.056 297.031 225.166 300.769C224.563 301.232 224.038 301.63 223.634 301.921C223.561 301.975 223.477 302 223.392 302Z" fill="black"/>
<path d="M251.246 220.555C251.246 220.555 230.32 233.739 223.285 233.182C213.916 232.436 204.11 218.305 203.345 217.095C202.582 215.885 199.425 209.207 197.298 207.18C195.299 205.273 193.702 203.15 192.78 201.819C192.224 201.021 191.455 200.826 190.894 201.148C190.401 201.429 189.651 202.448 190.464 203.651C191.402 205.041 192.306 206.455 193.096 207.647C193.344 208.024 193.661 208.346 193.26 208.167C192.321 207.749 191.182 207.424 190.592 207.938C189.485 208.903 189.817 213.787 192.557 216.699C195.296 219.608 197.361 218.364 198.384 219.837C199.4 221.31 209.601 241.98 217.302 244.196C229.523 247.715 251.607 238.589 255.068 237.765C258.526 236.942 251.246 220.555 251.246 220.555Z" fill="white"/>
<path d="M190.837 207.514C190.592 207.514 190.4 207.57 190.277 207.679C190.088 207.844 189.871 208.335 189.83 209.218C189.736 211.083 190.463 213.971 192.275 215.898C193.77 217.49 195.045 217.77 196.067 217.997C196.87 218.174 197.628 218.339 198.154 219.101C198.324 219.343 198.689 220.011 199.246 221.022C202.034 226.105 210.524 241.571 216.902 243.411C226.878 246.284 243.858 240.517 251.112 238.055C252.754 237.495 253.934 237.094 254.567 236.942C254.68 236.917 254.85 236.849 254.982 236.584C256.131 234.293 252.411 224.693 250.652 220.649C247.609 222.539 229.414 233.662 222.762 233.137C212.812 232.344 202.543 216.943 202.446 216.791C202.241 216.464 201.886 215.79 201.436 214.932C200.146 212.479 197.987 208.378 196.445 206.905C194.472 205.021 192.861 202.904 191.86 201.461C191.467 200.892 190.922 200.668 190.513 200.902C190.365 200.989 190.063 201.265 189.956 201.704C189.871 202.077 189.956 202.459 190.217 202.845C190.812 203.727 191.391 204.62 191.939 205.459C192.26 205.95 192.565 206.42 192.858 206.864C192.911 206.948 192.971 207.026 193.021 207.101C193.213 207.362 193.411 207.632 193.182 207.906C192.958 208.176 192.622 208.024 192.511 207.974C191.829 207.673 191.253 207.514 190.837 207.514ZM223.281 245C220.899 245 218.655 244.761 216.676 244.189C209.967 242.255 201.653 227.109 198.525 221.407C197.999 220.456 197.622 219.766 197.477 219.558C197.134 219.063 196.64 218.951 195.888 218.787C194.815 218.55 193.345 218.227 191.674 216.452C189.692 214.341 188.905 211.276 189.009 209.177C189.047 208.475 189.198 207.539 189.736 207.073C190.205 206.659 190.929 206.597 191.888 206.877C191.684 206.563 191.47 206.236 191.253 205.897C190.705 205.061 190.129 204.172 189.535 203.295C189.05 202.574 189.063 201.931 189.16 201.52C189.317 200.858 189.767 200.395 190.101 200.202C190.891 199.748 191.895 200.078 192.537 201.001C193.515 202.412 195.089 204.483 197.015 206.323C198.651 207.887 200.851 212.062 202.163 214.555C202.606 215.398 202.956 216.063 203.141 216.362C203.236 216.514 213.265 231.567 222.825 232.329C229.672 232.876 250.407 219.84 250.614 219.71C250.715 219.645 250.838 219.629 250.954 219.663C251.067 219.697 251.162 219.778 251.209 219.887C251.835 221.305 257.292 233.799 255.715 236.945C255.508 237.362 255.177 237.632 254.762 237.732C254.167 237.875 252.996 238.269 251.379 238.82C245.472 240.825 233.178 245 223.281 245Z" fill="black"/>
<path d="M260.663 257.864C260.663 257.864 242.814 253.793 237.251 254.008C233.911 254.136 226.796 257.273 225.74 259.898C224.406 263.218 225.074 267.181 226.184 266.966C227.116 266.788 229.763 262.328 231.905 260.506C232.241 260.221 232.749 260.558 232.592 260.963C232.029 262.371 230.202 264.498 230.653 264.932C231.318 265.575 233.025 264.932 234.062 263.791C234.725 263.064 235.974 260.005 237.084 259.685C238.198 259.362 252.655 262.147 264 272L260.663 257.864Z" fill="white"/>
<path d="M236.714 258.748C238.979 258.748 252.002 261.442 262.948 270.541L259.918 257.616C257.768 257.129 241.853 253.575 236.732 253.775C233.575 253.896 226.519 256.97 225.512 259.496C224.375 262.344 224.776 265.353 225.376 266.043C225.415 266.093 225.482 266.146 225.512 266.14C225.859 266.046 226.945 264.619 227.739 263.573C228.794 262.19 229.986 260.619 231.078 259.682C231.37 259.434 231.778 259.411 232.097 259.626C232.419 259.841 232.538 260.221 232.401 260.572C232.161 261.179 231.723 261.875 231.303 262.55C230.953 263.107 230.436 263.935 230.406 264.221C230.54 264.319 230.728 264.333 230.874 264.327C231.577 264.307 232.562 263.767 233.21 263.045C233.411 262.827 233.706 262.299 234.019 261.742C234.734 260.472 235.543 259.031 236.434 258.771C236.488 258.754 236.586 258.748 236.714 258.748ZM263.604 272C263.51 272 263.413 271.965 263.34 271.9C252.145 262.105 237.754 259.252 236.659 259.511C236.081 259.676 235.257 261.141 234.712 262.111C234.363 262.733 234.062 263.269 233.809 263.552C233.003 264.445 231.832 265.067 230.899 265.097C230.442 265.111 230.065 264.982 229.801 264.725C229.311 264.251 229.834 263.417 230.625 262.152C231.026 261.507 231.446 260.837 231.659 260.295C231.665 260.283 231.671 260.272 231.647 260.257C231.622 260.242 231.613 260.248 231.604 260.26C230.576 261.141 229.408 262.677 228.377 264.03C227.009 265.831 226.267 266.777 225.668 266.892C225.479 266.927 225.111 266.933 224.767 266.538C223.846 265.474 223.645 262.043 224.773 259.219C225.929 256.322 233.259 253.141 236.698 253.009C242.276 252.791 259.608 256.752 260.341 256.923C260.487 256.956 260.603 257.068 260.636 257.212L263.991 271.531C264.027 271.693 263.954 271.861 263.805 271.947C263.741 271.982 263.674 272 263.604 272Z" fill="black"/>
<path d="M291.19 246.669C291.261 261.399 295.19 271.315 295.865 272.977C297.036 275.866 297.16 276.591 296.863 277.353C296.559 278.127 294.111 278.833 293.111 279.227C283.961 282.822 265.823 286.645 263.43 276.328C262.07 270.472 262.191 263.791 257.925 256.189C254.68 250.408 252.437 245.013 250.885 240.238C250.78 239.913 245.376 242.415 245.28 242.093C241.58 230.196 240 225.658 240 225.658C240 225.658 254.281 216.647 263.158 214.511C273.733 211.971 283.601 211.965 287.843 219.786C292.788 228.903 291.186 246.303 291.19 246.669Z" fill="black"/>
<path d="M279.309 184.074C281.882 186.852 279.96 188.713 282.965 194.733C285.176 199.151 287.351 200.426 286.953 203.094C286.597 205.494 284.455 206.988 283.04 207.971C276.624 212.447 268.688 210.903 263.819 209.952C259.88 209.184 254.474 208.134 254.028 205.497C253.59 202.894 258.495 201.748 259.496 196.837C260.305 192.894 257.584 191.421 258.643 187.968C260.012 183.495 265.822 181.849 266.757 181.588C270.495 180.528 276.138 180.651 279.309 184.074Z" fill="black"/>
<path d="M276.061 183.326C276.061 183.326 275.02 175.799 281.526 176.004C288.032 176.206 284.182 183.786 279.871 185.55C275.565 187.313 276.061 183.326 276.061 183.326Z" fill="black"/>
<path d="M260.114 193.173C259.457 192.784 258.586 193.08 258.332 193.778C258.26 193.976 258.195 194.158 258.143 194.297C257.965 194.776 257.617 196.234 256.352 197.8C255.864 198.402 255.887 199.248 256.4 199.829L256.631 200.092C256.93 200.434 257.07 200.876 257.009 201.318C256.856 202.421 256.586 204.493 256.602 204.95C256.625 205.574 257.054 206.18 257.288 206.346C257.743 206.668 259.451 206.773 260.325 206.804C260.751 206.822 261.138 207.044 261.333 207.4C261.645 207.956 262.078 209.037 262.553 211.137C262.946 212.882 261.47 214.668 260.218 215.82C259.555 216.431 259.834 217.5 260.719 217.744C264.169 218.695 271.297 220.085 277.572 217.599C278.109 217.386 278.138 216.657 277.673 216.323C275.836 215.007 271.882 211.807 270.295 207.644C270.204 207.397 270.009 207.193 269.752 207.091C268.731 206.677 265.993 205.932 266.321 201.658C266.344 201.333 266.458 201.021 266.653 200.753C267.463 199.619 269.511 196.274 265.105 196.79C261.964 197.154 261.008 194.967 260.735 193.964C260.644 193.636 260.42 193.355 260.114 193.173Z" fill="white"/>
<path d="M259.927 193.781C259.836 193.781 259.747 193.796 259.659 193.823C259.433 193.898 259.253 194.06 259.174 194.269C259.106 194.464 259.037 194.641 258.981 194.779C258.958 194.841 258.929 194.928 258.896 195.027C258.687 195.644 258.251 196.933 257.115 198.284C256.752 198.718 256.765 199.341 257.151 199.761L257.384 200.018C257.763 200.429 257.937 200.974 257.862 201.507C257.596 203.38 257.446 204.674 257.456 204.964C257.475 205.468 257.855 205.941 257.976 206.022C258.13 206.124 258.893 206.319 260.795 206.387C261.378 206.408 261.905 206.708 262.173 207.172C262.605 207.924 263.034 209.177 263.437 210.899C263.875 212.754 262.334 214.587 260.965 215.8C260.762 215.983 260.684 216.241 260.749 216.492C260.821 216.747 261.024 216.939 261.293 217.014C264.894 217.972 271.847 219.231 277.979 216.888C278.097 216.843 278.133 216.744 278.142 216.672C278.162 216.537 278.103 216.403 277.989 216.322C276.263 215.132 272.073 211.915 270.416 207.727C270.361 207.58 270.246 207.472 270.102 207.415C270.033 207.388 269.965 207.361 269.889 207.334C268.74 206.909 266.056 205.917 266.39 201.756C266.419 201.375 266.56 201.007 266.796 200.689C267.742 199.413 268.128 198.314 267.801 197.825C267.549 197.448 266.805 197.319 265.64 197.448C262.131 197.843 261.07 195.462 260.775 194.422C260.713 194.203 260.562 194.015 260.34 193.889C260.212 193.817 260.071 193.781 259.927 193.781ZM270.102 219C266.478 219 263.195 218.332 261.057 217.763C260.487 217.61 260.065 217.208 259.924 216.681C259.78 216.154 259.947 215.618 260.373 215.243C261.584 214.165 262.956 212.565 262.602 211.064C262.121 209.006 261.692 208.011 261.42 207.538C261.289 207.319 261.04 207.178 260.762 207.169C258.088 207.074 257.619 206.75 257.466 206.648C257.119 206.411 256.631 205.704 256.605 204.991C256.588 204.554 256.817 202.801 257.017 201.408C257.06 201.088 256.958 200.764 256.732 200.519L256.497 200.264C255.858 199.563 255.832 198.529 256.438 197.807C257.479 196.567 257.871 195.414 258.081 194.797C258.12 194.683 258.153 194.59 258.179 194.515C258.232 194.383 258.3 194.206 258.369 194.018C258.533 193.58 258.899 193.242 259.374 193.089C259.849 192.933 260.363 192.984 260.788 193.227C261.198 193.457 261.486 193.814 261.604 194.224C261.898 195.273 262.802 196.983 265.539 196.675C267.1 196.498 268.079 196.744 268.531 197.418C269.238 198.481 268.19 200.201 267.5 201.13C267.349 201.333 267.261 201.57 267.241 201.813C266.953 205.405 269.068 206.187 270.207 206.609C270.289 206.639 270.364 206.669 270.436 206.696C270.796 206.837 271.084 207.115 271.218 207.46C272.796 211.453 276.839 214.554 278.503 215.699C278.859 215.947 279.046 216.358 278.99 216.771C278.938 217.152 278.683 217.463 278.309 217.607C275.609 218.64 272.764 219 270.102 219Z" fill="black"/>
<path d="M265.892 202C265.766 202 265.651 201.989 265.557 201.975C264.851 201.863 264.13 201.382 264.015 200.941C263.95 200.692 264.102 200.431 264.35 200.366C264.584 200.305 264.819 200.431 264.905 200.648C264.995 200.753 265.41 201.06 265.918 201.057C266.379 201.049 266.79 200.768 267.132 200.218C267.273 200.001 267.561 199.933 267.781 200.074C268 200.211 268.065 200.5 267.928 200.721C267.265 201.776 266.458 202 265.892 202Z" fill="black"/>
<path d="M257.104 198C257.086 198 257.068 198 257.047 197.997C256.282 197.9 255.714 197.589 255.369 197.07C254.453 195.69 255.526 193.316 255.571 193.214C255.608 193.133 255.686 193.065 255.78 193.028C255.88 192.992 255.986 192.992 256.082 193.023L264.751 196.022C264.953 196.096 265.053 196.292 264.971 196.468C264.893 196.643 264.663 196.73 264.461 196.659L256.17 193.79C255.886 194.553 255.535 195.952 256.052 196.73C256.273 197.062 256.636 197.253 257.162 197.322C257.376 197.348 257.528 197.521 257.494 197.709C257.464 197.877 257.298 198 257.104 198Z" fill="black"/>
<path d="M264.024 202.784C264.144 202.245 264.676 201.902 265.213 202.025C265.753 202.143 266.096 202.674 265.976 203.217C265.856 203.756 265.32 204.095 264.783 203.976C264.247 203.858 263.904 203.323 264.024 202.784Z" fill="black"/>
<path d="M115.522 11C115.434 11 115.343 10.9777 115.263 10.9331L113.216 9.76424C112.996 9.63685 112.934 9.38205 113.077 9.18777C113.223 8.99667 113.515 8.94253 113.735 9.06674L115.785 10.2388C116.005 10.3662 116.067 10.621 115.921 10.8153C115.829 10.9331 115.679 11 115.522 11Z" fill="black"/>
<path d="M109.681 7C109.623 7 109.562 6.98885 109.508 6.96495L108.144 6.38187C107.997 6.31815 107.956 6.1891 108.051 6.09352C108.149 5.99793 108.344 5.97085 108.49 6.03457L109.857 6.61925C110.003 6.68138 110.045 6.81042 109.947 6.90601C109.886 6.96654 109.786 7 109.681 7Z" fill="black"/>
<path d="M112.626 7C112.507 7 112.387 6.97422 112.281 6.92267C111.994 6.77169 111.912 6.47711 112.104 6.25249L113.858 4.21615C114.045 3.99521 114.433 3.93261 114.721 4.07991C115.008 4.2272 115.085 4.52547 114.898 4.74641L113.144 6.78274C113.024 6.92267 112.828 7 112.626 7Z" fill="black"/>
<path d="M9.99653 70.7475C9.4857 70.7475 8.99572 70.902 8.60999 71.1882C8.18604 71.503 7.93584 71.9351 7.90804 72.4073C7.84549 73.3717 8.73509 74.1987 9.8888 74.2502C10.4413 74.276 10.9765 74.1186 11.39 73.8124C11.814 73.4976 12.0642 73.0655 12.092 72.5961C12.1545 71.6289 11.2649 70.8018 10.1112 70.7503C10.073 70.7503 10.0347 70.7475 9.99653 70.7475ZM10.0035 75C9.94787 75 9.89575 74.9971 9.84015 74.9943C8.18604 74.9199 6.91418 73.7408 7.00453 72.3672C7.04623 71.6976 7.40068 71.0823 8.00534 70.633C8.59957 70.1951 9.3606 69.9691 10.1599 70.0034C11.814 70.0778 13.0858 71.2569 12.9955 72.6333C12.9538 73.303 12.5993 73.9211 11.9947 74.3676C11.4421 74.7768 10.7402 75 10.0035 75Z" fill="black"/>
<path d="M113.346 287C113.039 287 112.768 286.908 112.702 286.775L112.013 285.341C111.942 285.188 112.169 285.038 112.521 285.007C112.878 284.972 113.226 285.072 113.301 285.225L113.985 286.659C114.061 286.812 113.835 286.963 113.477 286.996C113.432 287 113.387 287 113.346 287Z" fill="black"/>
<path d="M111.671 281C111.52 281 111.385 280.863 111.352 280.663L111.007 278.513C110.969 278.284 111.085 278.058 111.261 278.009C111.44 277.96 111.614 278.111 111.649 278.34L111.994 280.49C112.029 280.719 111.916 280.944 111.739 280.993C111.717 281 111.694 281 111.671 281Z" fill="black"/>
<path d="M115.43 283C115.229 283 115.051 282.893 115.008 282.733C114.962 282.556 115.111 282.383 115.345 282.345L117.484 282.007C117.718 281.969 117.945 282.088 117.992 282.266C118.038 282.444 117.889 282.619 117.655 282.657L115.516 282.992C115.486 282.997 115.457 283 115.43 283Z" fill="black"/>
<path d="M108.287 285C108.153 285 108.034 284.891 108.006 284.733C107.975 284.553 108.074 284.38 108.23 284.342L109.656 284.007C109.812 283.969 109.961 284.086 109.994 284.264C110.025 284.444 109.926 284.619 109.77 284.655L108.344 284.992C108.324 284.995 108.304 285 108.287 285Z" fill="black"/>
</svg>
