<svg xmlns="http://www.w3.org/2000/svg" xmlns:xlink="http://www.w3.org/1999/xlink" width="500" zoomAndPan="magnify" viewBox="0 0 375 374.999991" height="500" preserveAspectRatio="xMidYMid meet" version="1.0"><defs><clipPath id="d94442f473"><path d="M 112 63.824219 L 153 63.824219 L 153 122 L 112 122 Z M 112 63.824219 " clip-rule="nonzero"/></clipPath><clipPath id="a56cb1408e"><path d="M 39.828125 116 L 99 116 L 99 202 L 39.828125 202 Z M 39.828125 116 " clip-rule="nonzero"/></clipPath><clipPath id="13e99848d3"><path d="M 142.007812 129.109375 L 297.625 129.109375 L 297.625 311.25 L 142.007812 311.25 Z M 142.007812 129.109375 " clip-rule="nonzero"/></clipPath></defs><g clip-path="url(#d94442f473)"><path fill="#000000" d="M 132.65625 121.9375 L 138.359375 101.3125 L 152.550781 92.824219 L 138.269531 84.488281 L 132.347656 63.925781 L 126.644531 84.550781 L 112.453125 93.035156 L 126.734375 101.375 L 132.65625 121.9375 " fill-opacity="1" fill-rule="nonzero"/></g><g clip-path="url(#a56cb1408e)"><path fill="#000000" d="M 79.1875 151.992188 L 69.230469 116.710938 L 59.273438 151.992188 L 39.828125 161.800781 L 60.945312 172.453125 L 69.230469 201.800781 L 77.515625 172.453125 L 98.632812 161.800781 L 79.1875 151.992188 " fill-opacity="1" fill-rule="nonzero"/></g><path fill="#000000" d="M 104.324219 265.398438 L 110.136719 285.996094 L 115.949219 265.398438 L 130.183594 256.988281 L 115.949219 248.578125 L 110.136719 227.980469 L 104.324219 248.578125 L 90.089844 256.988281 L 104.324219 265.398438 " fill-opacity="1" fill-rule="nonzero"/><g clip-path="url(#13e99848d3)"><path fill="#000000" d="M 153.363281 244.804688 C 154.640625 242.832031 156.617188 241.472656 158.917969 240.980469 C 159.535156 240.851562 160.152344 240.785156 160.769531 240.785156 C 162.453125 240.785156 164.105469 241.269531 165.550781 242.207031 L 180.558594 251.945312 C 182.261719 253.050781 184.472656 252.949219 186.070312 251.699219 C 187.667969 250.445312 188.292969 248.320312 187.625 246.402344 L 167.539062 188.753906 C 166.054688 184.488281 168.316406 179.804688 172.585938 178.316406 C 176.417969 176.984375 180.648438 178.699219 182.511719 182.242188 L 199.984375 232.398438 C 200.667969 234.359375 202.503906 235.585938 204.464844 235.585938 C 204.984375 235.585938 205.511719 235.5 206.027344 235.320312 C 208.503906 234.457031 209.8125 231.753906 208.949219 229.277344 L 191.824219 180.117188 C 191.78125 179.875 191.722656 179.628906 191.636719 179.386719 L 184.097656 157.742188 C 183.375 155.671875 183.503906 153.449219 184.457031 151.476562 C 185.410156 149.507812 187.074219 148.023438 189.140625 147.304688 C 193.367188 145.832031 198.035156 148.0625 199.546875 152.277344 C 199.636719 152.535156 199.753906 152.777344 199.886719 153.007812 L 224.558594 223.839844 C 225.242188 225.796875 227.078125 227.023438 229.039062 227.023438 C 229.558594 227.023438 230.085938 226.9375 230.601562 226.757812 C 233.078125 225.898438 234.382812 223.191406 233.523438 220.714844 L 208.402344 148.605469 C 207.707031 144.695312 209.945312 140.777344 213.761719 139.449219 C 218.03125 137.957031 222.710938 140.222656 224.199219 144.488281 L 231.964844 166.78125 C 232.140625 167.289062 232.398438 167.746094 232.714844 168.144531 L 249.132812 215.277344 C 249.8125 217.238281 251.648438 218.464844 253.613281 218.464844 C 254.132812 218.464844 254.660156 218.378906 255.175781 218.199219 C 257.648438 217.335938 258.957031 214.628906 258.09375 212.15625 L 240.761719 162.390625 C 240.515625 158.789062 242.707031 155.332031 246.230469 154.105469 C 250.496094 152.617188 255.175781 154.878906 256.664062 159.148438 L 279.550781 224.851562 C 279.578125 225.273438 279.664062 225.695312 279.808594 226.101562 L 285.539062 242.554688 C 293.21875 264.597656 281.53125 288.78125 259.488281 296.460938 L 251.085938 299.386719 C 237.558594 304.101562 222.691406 301.683594 211.3125 292.925781 C 211.210938 292.847656 211.105469 292.773438 211 292.703125 L 155.957031 256.996094 C 153.984375 255.710938 152.625 253.738281 152.132812 251.4375 C 151.644531 249.136719 152.078125 246.777344 153.363281 244.804688 Z M 142.851562 253.414062 C 143.871094 258.195312 146.691406 262.296875 150.792969 264.957031 L 205.675781 300.566406 C 214.878906 307.597656 225.929688 311.25 237.136719 311.25 C 242.863281 311.25 248.628906 310.292969 254.210938 308.351562 L 262.613281 305.425781 C 289.597656 296.023438 303.902344 266.417969 294.5 239.433594 L 289.183594 224.171875 C 289.15625 223.75 289.074219 223.328125 288.933594 222.921875 L 265.628906 156.023438 C 262.417969 146.8125 252.316406 141.929688 243.105469 145.140625 C 240.34375 146.101562 237.960938 147.699219 236.070312 149.714844 L 233.164062 141.367188 C 229.953125 132.15625 219.847656 127.273438 210.640625 130.480469 C 206 132.101562 202.441406 135.484375 200.480469 139.640625 C 196.207031 137.246094 190.96875 136.613281 186.019531 138.339844 C 181.554688 139.894531 177.964844 143.09375 175.910156 147.347656 C 173.855469 151.601562 173.578125 156.402344 175.132812 160.863281 L 177.816406 168.566406 C 175.082031 168.164062 172.226562 168.390625 169.460938 169.355469 C 160.25 172.5625 155.371094 182.667969 158.578125 191.878906 L 174.101562 236.441406 L 170.714844 234.246094 C 166.613281 231.582031 161.722656 230.679688 156.941406 231.699219 C 152.15625 232.714844 148.058594 235.535156 145.398438 239.636719 C 142.738281 243.738281 141.832031 248.632812 142.851562 253.414062 " fill-opacity="1" fill-rule="nonzero"/></g><path fill="#000000" d="M 125.726562 140.804688 C 120.625 151.429688 115.578125 174.757812 123.769531 192.132812 C 128.703125 202.605469 137.46875 209.464844 149.820312 212.515625 C 152.367188 213.144531 154.9375 211.589844 155.566406 209.046875 C 156.195312 206.5 154.640625 203.929688 152.097656 203.300781 C 142.65625 200.96875 136.011719 195.847656 132.355469 188.085938 C 125.316406 173.152344 130.617188 152.554688 134.285156 144.917969 C 137.433594 138.359375 145.011719 135.246094 153.03125 131.945312 C 158.136719 129.847656 163.417969 127.675781 167.796875 124.457031 C 174.570312 119.476562 179.003906 114.121094 182.917969 109.394531 C 189.269531 101.71875 194.289062 95.660156 207.371094 92.863281 C 224.78125 89.140625 232.511719 93.46875 247.90625 102.09375 L 248.246094 102.28125 C 257.332031 107.371094 266.949219 110.496094 276.246094 113.515625 C 295.5625 119.789062 312.246094 125.207031 321.238281 146.0625 C 325.394531 155.6875 324.019531 161.757812 322.113281 170.152344 C 321.46875 172.996094 320.804688 175.933594 320.277344 179.292969 C 319.042969 187.132812 319.050781 195.085938 319.054688 202.773438 C 319.0625 210.460938 319.066406 217.71875 317.941406 224.835938 C 316.128906 236.261719 310.929688 244.75 302.046875 250.78125 C 299.878906 252.253906 299.316406 255.207031 300.789062 257.375 C 301.703125 258.730469 303.199219 259.457031 304.714844 259.457031 C 305.636719 259.457031 306.5625 259.191406 307.378906 258.636719 C 318.550781 251.046875 325.070312 240.476562 327.3125 226.324219 C 328.558594 218.464844 328.554688 210.484375 328.546875 202.769531 C 328.542969 195.105469 328.539062 187.871094 329.652344 180.765625 C 330.132812 177.722656 330.761719 174.941406 331.371094 172.253906 C 333.410156 163.261719 335.332031 154.769531 329.957031 142.300781 C 319.261719 117.507812 298.882812 110.890625 279.175781 104.484375 C 270.316406 101.609375 261.15625 98.632812 252.886719 94 L 252.546875 93.8125 C 236.742188 84.957031 226.300781 79.105469 205.386719 83.582031 C 189.082031 87.066406 182.234375 95.339844 175.609375 103.339844 C 171.871094 107.855469 168.003906 112.523438 162.171875 116.808594 C 158.730469 119.335938 154.207031 121.199219 149.421875 123.167969 C 140.53125 126.824219 130.453125 130.964844 125.726562 140.804688 " fill-opacity="1" fill-rule="nonzero"/></svg>