<svg xmlns="http://www.w3.org/2000/svg" xmlns:xlink="http://www.w3.org/1999/xlink" width="500" zoomAndPan="magnify" viewBox="0 0 375 374.999991" height="500" preserveAspectRatio="xMidYMid meet" version="1.2"><g id="454653c87a"><path style=" stroke:none;fill-rule:nonzero;fill:#000000;fill-opacity:1;" d="M 231.472656 196.253906 L 294.78125 196.253906 C 295.9375 196.253906 297.085938 196.308594 298.234375 196.421875 C 299.382812 196.535156 300.523438 196.707031 301.652344 196.929688 C 302.785156 197.15625 303.902344 197.433594 305.003906 197.769531 C 306.109375 198.105469 307.195312 198.492188 308.257812 198.933594 C 309.324219 199.375 310.367188 199.867188 311.382812 200.410156 C 312.402344 200.957031 313.390625 201.546875 314.347656 202.1875 C 315.308594 202.828125 316.234375 203.515625 317.125 204.246094 C 318.015625 204.980469 318.871094 205.753906 319.683594 206.570312 C 320.5 207.382812 321.273438 208.238281 322.007812 209.128906 C 322.738281 210.019531 323.425781 210.945312 324.066406 211.90625 C 324.707031 212.863281 325.296875 213.851562 325.839844 214.871094 C 326.386719 215.886719 326.878906 216.929688 327.320312 217.992188 C 327.761719 219.058594 328.148438 220.144531 328.484375 221.25 C 328.816406 222.351562 329.097656 223.46875 329.324219 224.601562 C 329.546875 225.730469 329.71875 226.871094 329.832031 228.019531 C 329.945312 229.167969 330 230.316406 330 231.472656 L 330 294.78125 C 330 295.9375 329.945312 297.085938 329.832031 298.234375 C 329.71875 299.382812 329.546875 300.523438 329.324219 301.652344 C 329.097656 302.785156 328.816406 303.902344 328.484375 305.003906 C 328.148438 306.109375 327.761719 307.195312 327.320312 308.257812 C 326.878906 309.324219 326.386719 310.367188 325.839844 311.382812 C 325.296875 312.402344 324.707031 313.390625 324.066406 314.347656 C 323.425781 315.308594 322.738281 316.234375 322.007812 317.125 C 321.273438 318.015625 320.5 318.871094 319.683594 319.683594 C 318.871094 320.5 318.015625 321.273438 317.125 322.003906 C 316.234375 322.738281 315.308594 323.425781 314.347656 324.066406 C 313.390625 324.707031 312.402344 325.296875 311.382812 325.839844 C 310.367188 326.386719 309.324219 326.878906 308.257812 327.320312 C 307.195312 327.761719 306.109375 328.148438 305.003906 328.484375 C 303.902344 328.816406 302.785156 329.097656 301.652344 329.324219 C 300.523438 329.546875 299.382812 329.71875 298.234375 329.832031 C 297.085938 329.945312 295.9375 330 294.78125 330 L 231.472656 330 C 230.316406 330 229.167969 329.945312 228.019531 329.832031 C 226.871094 329.71875 225.730469 329.546875 224.601562 329.324219 C 223.46875 329.097656 222.351562 328.816406 221.25 328.484375 C 220.144531 328.148438 219.058594 327.761719 217.992188 327.320312 C 216.929688 326.878906 215.886719 326.386719 214.871094 325.839844 C 213.851562 325.296875 212.863281 324.707031 211.90625 324.066406 C 210.945312 323.425781 210.019531 322.738281 209.128906 322.007812 C 208.238281 321.273438 207.382812 320.5 206.570312 319.683594 C 205.753906 318.871094 204.980469 318.015625 204.246094 317.125 C 203.515625 316.234375 202.828125 315.308594 202.1875 314.347656 C 201.546875 313.390625 200.957031 312.402344 200.410156 311.382812 C 199.867188 310.367188 199.375 309.324219 198.933594 308.257812 C 198.492188 307.195312 198.105469 306.109375 197.769531 305.003906 C 197.433594 303.902344 197.15625 302.785156 196.929688 301.652344 C 196.707031 300.523438 196.535156 299.382812 196.421875 298.234375 C 196.308594 297.085938 196.253906 295.9375 196.253906 294.78125 L 196.253906 231.472656 C 196.253906 230.316406 196.308594 229.167969 196.421875 228.019531 C 196.535156 226.871094 196.707031 225.730469 196.929688 224.601562 C 197.15625 223.46875 197.433594 222.351562 197.769531 221.25 C 198.105469 220.144531 198.492188 219.058594 198.933594 217.992188 C 199.375 216.929688 199.867188 215.886719 200.410156 214.871094 C 200.957031 213.851562 201.546875 212.863281 202.1875 211.90625 C 202.828125 210.945312 203.515625 210.019531 204.246094 209.128906 C 204.980469 208.238281 205.753906 207.382812 206.570312 206.570312 C 207.382812 205.753906 208.238281 204.980469 209.128906 204.246094 C 210.019531 203.515625 210.945312 202.828125 211.90625 202.1875 C 212.863281 201.546875 213.851562 200.957031 214.871094 200.410156 C 215.886719 199.867188 216.929688 199.375 217.992188 198.933594 C 219.058594 198.492188 220.144531 198.105469 221.25 197.769531 C 222.351562 197.433594 223.46875 197.15625 224.601562 196.929688 C 225.730469 196.707031 226.871094 196.535156 228.019531 196.421875 C 229.167969 196.308594 230.316406 196.253906 231.472656 196.253906 Z M 231.472656 196.253906 "/><path style=" stroke:none;fill-rule:nonzero;fill:#000000;fill-opacity:1;" d="M 80.21875 196.253906 L 143.527344 196.253906 C 144.683594 196.253906 145.832031 196.308594 146.980469 196.421875 C 148.128906 196.535156 149.269531 196.707031 150.398438 196.929688 C 151.53125 197.15625 152.648438 197.433594 153.75 197.769531 C 154.855469 198.105469 155.941406 198.492188 157.003906 198.933594 C 158.070312 199.375 159.113281 199.867188 160.128906 200.410156 C 161.148438 200.957031 162.136719 201.546875 163.09375 202.1875 C 164.054688 202.828125 164.980469 203.515625 165.871094 204.246094 C 166.761719 204.980469 167.617188 205.753906 168.429688 206.570312 C 169.246094 207.382812 170.019531 208.238281 170.753906 209.128906 C 171.484375 210.019531 172.171875 210.945312 172.8125 211.90625 C 173.453125 212.863281 174.042969 213.851562 174.589844 214.871094 C 175.132812 215.886719 175.625 216.929688 176.066406 217.992188 C 176.507812 219.058594 176.894531 220.144531 177.230469 221.25 C 177.566406 222.351562 177.84375 223.46875 178.070312 224.601562 C 178.292969 225.730469 178.464844 226.871094 178.578125 228.019531 C 178.691406 229.167969 178.746094 230.316406 178.746094 231.472656 L 178.746094 294.78125 C 178.746094 295.9375 178.691406 297.085938 178.578125 298.234375 C 178.464844 299.382812 178.292969 300.523438 178.070312 301.652344 C 177.84375 302.785156 177.566406 303.902344 177.230469 305.003906 C 176.894531 306.109375 176.507812 307.195312 176.066406 308.257812 C 175.625 309.324219 175.132812 310.367188 174.589844 311.382812 C 174.042969 312.402344 173.453125 313.390625 172.8125 314.347656 C 172.171875 315.308594 171.484375 316.234375 170.753906 317.125 C 170.019531 318.015625 169.246094 318.871094 168.429688 319.683594 C 167.617188 320.5 166.761719 321.273438 165.871094 322.003906 C 164.980469 322.738281 164.054688 323.425781 163.09375 324.066406 C 162.136719 324.707031 161.148438 325.296875 160.128906 325.839844 C 159.113281 326.386719 158.070312 326.878906 157.003906 327.320312 C 155.941406 327.761719 154.855469 328.148438 153.75 328.484375 C 152.648438 328.816406 151.53125 329.097656 150.398438 329.324219 C 149.269531 329.546875 148.128906 329.71875 146.980469 329.832031 C 145.832031 329.945312 144.683594 330 143.527344 330 L 80.21875 330 C 79.0625 330 77.914062 329.945312 76.765625 329.832031 C 75.617188 329.71875 74.476562 329.546875 73.347656 329.324219 C 72.214844 329.097656 71.097656 328.816406 69.996094 328.484375 C 68.890625 328.148438 67.804688 327.761719 66.742188 327.320312 C 65.675781 326.878906 64.632812 326.386719 63.617188 325.839844 C 62.597656 325.296875 61.609375 324.707031 60.652344 324.066406 C 59.691406 323.425781 58.765625 322.738281 57.875 322.007812 C 56.984375 321.273438 56.128906 320.5 55.316406 319.683594 C 54.5 318.871094 53.726562 318.015625 52.992188 317.125 C 52.261719 316.234375 51.574219 315.308594 50.933594 314.347656 C 50.292969 313.390625 49.703125 312.402344 49.160156 311.382812 C 48.613281 310.367188 48.121094 309.324219 47.679688 308.257812 C 47.238281 307.195312 46.851562 306.109375 46.515625 305.003906 C 46.183594 303.902344 45.902344 302.785156 45.675781 301.652344 C 45.453125 300.523438 45.28125 299.382812 45.167969 298.234375 C 45.054688 297.085938 45 295.9375 45 294.78125 L 45 231.472656 C 45 230.316406 45.054688 229.167969 45.167969 228.019531 C 45.28125 226.871094 45.453125 225.730469 45.675781 224.601562 C 45.902344 223.46875 46.183594 222.351562 46.515625 221.25 C 46.851562 220.144531 47.238281 219.058594 47.679688 217.992188 C 48.121094 216.929688 48.613281 215.886719 49.160156 214.871094 C 49.703125 213.851562 50.292969 212.863281 50.933594 211.90625 C 51.574219 210.945312 52.261719 210.019531 52.992188 209.128906 C 53.726562 208.238281 54.5 207.382812 55.316406 206.570312 C 56.128906 205.753906 56.984375 204.980469 57.875 204.246094 C 58.765625 203.515625 59.691406 202.828125 60.652344 202.1875 C 61.609375 201.546875 62.597656 200.957031 63.617188 200.410156 C 64.632812 199.867188 65.675781 199.375 66.742188 198.933594 C 67.804688 198.492188 68.890625 198.105469 69.996094 197.769531 C 71.097656 197.433594 72.214844 197.15625 73.347656 196.929688 C 74.476562 196.707031 75.617188 196.535156 76.765625 196.421875 C 77.914062 196.308594 79.0625 196.253906 80.21875 196.253906 Z M 80.21875 196.253906 "/><path style=" stroke:none;fill-rule:nonzero;fill:#000000;fill-opacity:1;" d="M 231.472656 45 L 294.78125 45 C 295.9375 45 297.085938 45.054688 298.234375 45.167969 C 299.382812 45.28125 300.523438 45.453125 301.652344 45.675781 C 302.785156 45.902344 303.902344 46.183594 305.003906 46.515625 C 306.109375 46.851562 307.195312 47.238281 308.257812 47.679688 C 309.324219 48.121094 310.367188 48.613281 311.382812 49.160156 C 312.402344 49.703125 313.390625 50.292969 314.347656 50.933594 C 315.308594 51.574219 316.234375 52.261719 317.125 52.992188 C 318.015625 53.726562 318.871094 54.5 319.683594 55.316406 C 320.5 56.128906 321.273438 56.984375 322.007812 57.875 C 322.738281 58.765625 323.425781 59.691406 324.066406 60.652344 C 324.707031 61.609375 325.296875 62.597656 325.839844 63.617188 C 326.386719 64.632812 326.878906 65.675781 327.320312 66.742188 C 327.761719 67.804688 328.148438 68.890625 328.484375 69.996094 C 328.816406 71.097656 329.097656 72.214844 329.324219 73.347656 C 329.546875 74.476562 329.71875 75.617188 329.832031 76.765625 C 329.945312 77.914062 330 79.0625 330 80.21875 L 330 143.527344 C 330 144.683594 329.945312 145.832031 329.832031 146.980469 C 329.71875 148.128906 329.546875 149.269531 329.324219 150.398438 C 329.097656 151.53125 328.816406 152.648438 328.484375 153.75 C 328.148438 154.855469 327.761719 155.941406 327.320312 157.003906 C 326.878906 158.070312 326.386719 159.113281 325.839844 160.128906 C 325.296875 161.148438 324.707031 162.136719 324.066406 163.09375 C 323.425781 164.054688 322.738281 164.980469 322.007812 165.871094 C 321.273438 166.761719 320.5 167.617188 319.683594 168.429688 C 318.871094 169.246094 318.015625 170.019531 317.125 170.753906 C 316.234375 171.484375 315.308594 172.171875 314.347656 172.8125 C 313.390625 173.453125 312.402344 174.042969 311.382812 174.589844 C 310.367188 175.132812 309.324219 175.625 308.257812 176.066406 C 307.195312 176.507812 306.109375 176.894531 305.003906 177.230469 C 303.902344 177.566406 302.785156 177.84375 301.652344 178.070312 C 300.523438 178.292969 299.382812 178.464844 298.234375 178.578125 C 297.085938 178.691406 295.9375 178.746094 294.78125 178.746094 L 231.472656 178.746094 C 230.316406 178.746094 229.167969 178.691406 228.019531 178.578125 C 226.871094 178.464844 225.730469 178.292969 224.601562 178.070312 C 223.46875 177.84375 222.351562 177.566406 221.25 177.230469 C 220.144531 176.894531 219.058594 176.507812 217.992188 176.066406 C 216.929688 175.625 215.886719 175.132812 214.871094 174.589844 C 213.851562 174.042969 212.863281 173.453125 211.90625 172.8125 C 210.945312 172.171875 210.019531 171.484375 209.128906 170.753906 C 208.238281 170.019531 207.382812 169.246094 206.570312 168.429688 C 205.753906 167.617188 204.980469 166.761719 204.246094 165.871094 C 203.515625 164.980469 202.828125 164.054688 202.1875 163.09375 C 201.546875 162.136719 200.957031 161.148438 200.410156 160.128906 C 199.867188 159.113281 199.375 158.070312 198.933594 157.003906 C 198.492188 155.941406 198.105469 154.855469 197.769531 153.75 C 197.433594 152.648438 197.15625 151.53125 196.929688 150.398438 C 196.707031 149.269531 196.535156 148.128906 196.421875 146.980469 C 196.308594 145.832031 196.253906 144.683594 196.253906 143.527344 L 196.253906 80.21875 C 196.253906 79.0625 196.308594 77.914062 196.421875 76.765625 C 196.535156 75.617188 196.707031 74.476562 196.929688 73.347656 C 197.15625 72.214844 197.433594 71.097656 197.769531 69.996094 C 198.105469 68.890625 198.492188 67.804688 198.933594 66.742188 C 199.375 65.675781 199.867188 64.632812 200.410156 63.617188 C 200.957031 62.597656 201.546875 61.609375 202.1875 60.652344 C 202.828125 59.691406 203.515625 58.765625 204.246094 57.875 C 204.980469 56.984375 205.753906 56.128906 206.570312 55.316406 C 207.382812 54.5 208.238281 53.726562 209.128906 52.992188 C 210.019531 52.261719 210.945312 51.574219 211.90625 50.933594 C 212.863281 50.292969 213.851562 49.703125 214.871094 49.160156 C 215.886719 48.613281 216.929688 48.121094 217.992188 47.679688 C 219.058594 47.238281 220.144531 46.851562 221.25 46.515625 C 222.351562 46.183594 223.46875 45.902344 224.601562 45.675781 C 225.730469 45.453125 226.871094 45.28125 228.019531 45.167969 C 229.167969 45.054688 230.316406 45 231.472656 45 Z M 231.472656 45 "/><path style=" stroke:none;fill-rule:nonzero;fill:#000000;fill-opacity:1;" d="M 80.21875 45 L 143.527344 45 C 144.683594 45 145.832031 45.054688 146.980469 45.167969 C 148.128906 45.28125 149.269531 45.453125 150.398438 45.675781 C 151.53125 45.902344 152.648438 46.183594 153.75 46.515625 C 154.855469 46.851562 155.941406 47.238281 157.003906 47.679688 C 158.070312 48.121094 159.113281 48.613281 160.128906 49.160156 C 161.148438 49.703125 162.136719 50.292969 163.09375 50.933594 C 164.054688 51.574219 164.980469 52.261719 165.871094 52.992188 C 166.761719 53.726562 167.617188 54.5 168.429688 55.316406 C 169.246094 56.128906 170.019531 56.984375 170.753906 57.875 C 171.484375 58.765625 172.171875 59.691406 172.8125 60.652344 C 173.453125 61.609375 174.042969 62.597656 174.589844 63.617188 C 175.132812 64.632812 175.625 65.675781 176.066406 66.742188 C 176.507812 67.804688 176.894531 68.890625 177.230469 69.996094 C 177.566406 71.097656 177.84375 72.214844 178.070312 73.347656 C 178.292969 74.476562 178.464844 75.617188 178.578125 76.765625 C 178.691406 77.914062 178.746094 79.0625 178.746094 80.21875 L 178.746094 143.527344 C 178.746094 144.683594 178.691406 145.832031 178.578125 146.980469 C 178.464844 148.128906 178.292969 149.269531 178.070312 150.398438 C 177.84375 151.53125 177.566406 152.648438 177.230469 153.75 C 176.894531 154.855469 176.507812 155.941406 176.066406 157.003906 C 175.625 158.070312 175.132812 159.113281 174.589844 160.128906 C 174.042969 161.148438 173.453125 162.136719 172.8125 163.09375 C 172.171875 164.054688 171.484375 164.980469 170.753906 165.871094 C 170.019531 166.761719 169.246094 167.617188 168.429688 168.429688 C 167.617188 169.246094 166.761719 170.019531 165.871094 170.753906 C 164.980469 171.484375 164.054688 172.171875 163.09375 172.8125 C 162.136719 173.453125 161.148438 174.042969 160.128906 174.589844 C 159.113281 175.132812 158.070312 175.625 157.003906 176.066406 C 155.941406 176.507812 154.855469 176.894531 153.75 177.230469 C 152.648438 177.566406 151.53125 177.84375 150.398438 178.070312 C 149.269531 178.292969 148.128906 178.464844 146.980469 178.578125 C 145.832031 178.691406 144.683594 178.746094 143.527344 178.746094 L 80.21875 178.746094 C 79.0625 178.746094 77.914062 178.691406 76.765625 178.578125 C 75.617188 178.464844 74.476562 178.292969 73.347656 178.070312 C 72.214844 177.84375 71.097656 177.566406 69.996094 177.230469 C 68.890625 176.894531 67.804688 176.507812 66.742188 176.066406 C 65.675781 175.625 64.632812 175.132812 63.617188 174.589844 C 62.597656 174.042969 61.609375 173.453125 60.652344 172.8125 C 59.691406 172.171875 58.765625 171.484375 57.875 170.753906 C 56.984375 170.019531 56.128906 169.246094 55.316406 168.429688 C 54.5 167.617188 53.726562 166.761719 52.992188 165.871094 C 52.261719 164.980469 51.574219 164.054688 50.933594 163.09375 C 50.292969 162.136719 49.703125 161.148438 49.160156 160.128906 C 48.613281 159.113281 48.121094 158.070312 47.679688 157.003906 C 47.238281 155.941406 46.851562 154.855469 46.515625 153.75 C 46.183594 152.648438 45.902344 151.53125 45.675781 150.398438 C 45.453125 149.269531 45.28125 148.128906 45.167969 146.980469 C 45.054688 145.832031 45 144.683594 45 143.527344 L 45 80.21875 C 45 79.0625 45.054688 77.914062 45.167969 76.765625 C 45.28125 75.617188 45.453125 74.476562 45.675781 73.347656 C 45.902344 72.214844 46.183594 71.097656 46.515625 69.996094 C 46.851562 68.890625 47.238281 67.804688 47.679688 66.742188 C 48.121094 65.675781 48.613281 64.632812 49.160156 63.617188 C 49.703125 62.597656 50.292969 61.609375 50.933594 60.652344 C 51.574219 59.691406 52.261719 58.765625 52.992188 57.875 C 53.726562 56.984375 54.5 56.128906 55.316406 55.316406 C 56.128906 54.5 56.984375 53.726562 57.875 52.992188 C 58.765625 52.261719 59.691406 51.574219 60.652344 50.933594 C 61.609375 50.292969 62.597656 49.703125 63.617188 49.160156 C 64.632812 48.613281 65.675781 48.121094 66.742188 47.679688 C 67.804688 47.238281 68.890625 46.851562 69.996094 46.515625 C 71.097656 46.183594 72.214844 45.902344 73.347656 45.675781 C 74.476562 45.453125 75.617188 45.28125 76.765625 45.167969 C 77.914062 45.054688 79.0625 45 80.21875 45 Z M 80.21875 45 "/></g></svg>