<svg xmlns="http://www.w3.org/2000/svg" xmlns:xlink="http://www.w3.org/1999/xlink" width="500" zoomAndPan="magnify" viewBox="0 0 375 374.999991" height="500" preserveAspectRatio="xMidYMid meet" version="1.0"><defs><clipPath id="f1166e4035"><path d="M 177 119 L 326.25 119 L 326.25 330 L 177 330 Z M 177 119 " clip-rule="nonzero"/></clipPath><clipPath id="808b1ea489"><path d="M 37.5 85 L 54 85 L 54 94 L 37.5 94 Z M 37.5 85 " clip-rule="nonzero"/></clipPath></defs><g clip-path="url(#f1166e4035)"><path fill="#000000" d="M 183.863281 129.523438 C 179.925781 131.210938 177.453125 135.050781 177.578125 139.304688 C 177.796875 146.914062 179.660156 160.933594 189.671875 169.292969 C 190.105469 169.652344 190.3125 170.402344 190.199219 171.214844 C 189.023438 179.828125 190.097656 187.140625 193.386719 192.949219 C 193.984375 194.007812 193.839844 195.15625 193.019531 195.875 C 189.265625 199.167969 186.210938 203.476562 183.949219 208.675781 C 181.328125 214.679688 180.207031 221.671875 180.605469 229.453125 C 182.25 261.65625 196.53125 293.957031 223.066406 325.460938 C 226.652344 329.726562 232.792969 331.167969 237.996094 328.941406 L 318.261719 294.585938 C 322.992188 292.558594 326.074219 288.019531 326.109375 283.015625 C 326.351562 248.152344 312.003906 213.203125 283.46875 179.136719 C 270.871094 164.09375 261.371094 159.300781 215.210938 122.003906 C 215.210938 122.003906 215.210938 122.003906 215.207031 122.003906 C 212.222656 119.644531 208.199219 119.101562 204.699219 120.605469 Z M 315.625 288.425781 L 235.359375 322.78125 C 232.855469 323.859375 229.910156 323.179688 228.191406 321.144531 C 216.328125 307.058594 207.042969 292.84375 200.300781 278.582031 C 201.160156 275.332031 202.1875 271.835938 204.339844 269.488281 C 209.597656 263.746094 219.707031 265.648438 228.90625 268.261719 C 252.679688 275.035156 260.503906 272.328125 276.378906 261.917969 C 291.070312 252.292969 297.238281 250.175781 316.78125 257.285156 C 318.578125 265.851562 319.464844 274.417969 319.40625 282.96875 C 319.386719 285.308594 317.902344 287.449219 315.625 288.425781 Z M 211.050781 127.257812 C 257.167969 164.484375 266.394531 169.191406 278.328125 183.4375 C 296.613281 205.265625 308.8125 227.386719 314.886719 249.535156 C 295.953125 243.304688 287.386719 246.695312 272.707031 256.3125 C 258.484375 265.636719 252.605469 268.058594 230.738281 261.820312 C 216.714844 257.824219 202.734375 256.4375 196.378906 269.625 C 191.027344 256.121094 187.988281 242.589844 187.300781 229.113281 C 186.625 215.894531 191.230469 206.367188 197.445312 200.910156 C 200.652344 198.097656 201.378906 193.464844 199.214844 189.648438 C 196.667969 185.144531 195.867188 179.246094 196.84375 172.121094 C 197.273438 168.992188 196.199219 166.011719 193.972656 164.148438 C 185.96875 157.472656 184.460938 145.597656 184.28125 139.109375 C 184.234375 137.625 185.109375 136.28125 186.5 135.683594 L 207.335938 126.765625 C 208.613281 126.222656 210.019531 126.445312 211.050781 127.257812 Z M 211.050781 127.257812 " fill-opacity="1" fill-rule="nonzero"/></g><path fill="#000000" d="M 173.664062 128.441406 C 174.964844 128.441406 173.308594 128.777344 207.996094 114.035156 C 209.695312 113.308594 210.488281 111.339844 209.757812 109.636719 C 209.03125 107.9375 207.054688 107.15625 205.359375 107.875 L 172.34375 122.007812 C 169.007812 123.4375 170.03125 128.441406 173.664062 128.441406 Z M 173.664062 128.441406 " fill-opacity="1" fill-rule="nonzero"/><path fill="#000000" d="M 108.355469 87.570312 C 109.878906 91.148438 114.050781 92.875 117.695312 91.3125 L 124.792969 88.277344 L 150.710938 91.875 C 153.449219 92.257812 156.355469 91.914062 159.066406 90.753906 L 194.691406 75.503906 C 201.480469 72.597656 202.238281 63.292969 196.050781 59.316406 L 180.398438 49.230469 C 173.375 44.707031 164.585938 43.96875 156.914062 47.257812 L 107.832031 68.265625 C 107.832031 68.265625 107.824219 68.265625 107.824219 68.269531 C 104.21875 69.816406 102.542969 74.007812 104.085938 77.613281 Z M 159.550781 53.417969 C 165.183594 51.007812 171.621094 51.546875 176.769531 54.863281 L 192.425781 64.949219 C 194.105469 66.03125 193.90625 68.554688 192.054688 69.347656 L 156.429688 84.59375 C 154.914062 85.242188 153.242188 85.460938 151.632812 85.238281 C 120.710938 80.957031 124.683594 81.480469 124.328125 81.480469 C 123.136719 81.480469 123.117188 81.796875 115.0625 85.152344 C 114.882812 85.226562 114.59375 85.117188 114.515625 84.933594 L 110.246094 74.972656 C 109.917969 74.222656 107.972656 75.707031 159.550781 53.417969 Z M 159.550781 53.417969 " fill-opacity="1" fill-rule="nonzero"/><path fill="#000000" d="M 86.933594 97.964844 C 87.953125 100.339844 90.710938 101.445312 93.089844 100.429688 L 102.039062 96.597656 C 102.042969 96.597656 102.042969 96.597656 102.042969 96.597656 C 104.410156 95.582031 105.519531 92.824219 104.507812 90.4375 L 98.847656 77.210938 C 97.824219 74.832031 95.054688 73.730469 92.6875 74.75 L 83.734375 78.582031 C 81.355469 79.601562 80.25 82.367188 81.269531 84.738281 Z M 93.472656 81.699219 L 97.558594 91.230469 L 92.304688 93.476562 L 88.21875 83.949219 Z M 93.472656 81.699219 " fill-opacity="1" fill-rule="nonzero"/><path fill="#000000" d="M 133.597656 156.660156 C 143.160156 147.339844 149.484375 131.59375 139.976562 114.390625 C 142.859375 113.214844 147.363281 112.148438 150.859375 114.664062 C 152.363281 115.746094 154.460938 115.398438 155.535156 113.898438 C 156.617188 112.394531 156.277344 110.304688 154.777344 109.222656 C 145.382812 102.472656 133.871094 109.917969 133.386719 110.234375 C 131.828125 111.265625 131.429688 113.363281 132.441406 114.886719 C 140.910156 127.65625 138.097656 138.308594 134.246094 145 C 130.785156 151.019531 125.972656 154.773438 123.089844 156.164062 C 130.277344 139.253906 123.523438 98.972656 123.230469 97.253906 C 122.917969 95.429688 121.207031 94.207031 119.363281 94.515625 C 117.539062 94.824219 116.3125 96.554688 116.621094 98.378906 C 116.691406 98.785156 123.457031 139.109375 116.777344 153.871094 C 112.550781 163.214844 121.484375 168.453125 133.597656 156.660156 Z M 133.597656 156.660156 " fill-opacity="1" fill-rule="nonzero"/><path fill="#000000" d="M 194.027344 82.191406 C 192.324219 82.921875 191.535156 84.890625 192.265625 86.589844 L 196.667969 96.863281 C 197.035156 97.726562 196.632812 98.730469 195.773438 99.097656 L 172.101562 109.230469 C 171.242188 109.597656 170.238281 109.203125 169.871094 108.335938 L 165.46875 98.058594 C 164.734375 96.359375 162.757812 95.574219 161.070312 96.296875 C 159.367188 97.027344 158.578125 98.996094 159.308594 100.699219 L 163.710938 110.96875 C 165.550781 115.28125 170.515625 117.207031 174.742188 115.390625 L 198.410156 105.257812 C 202.667969 103.441406 204.648438 98.492188 202.828125 94.226562 L 198.425781 83.953125 C 197.699219 82.253906 195.714844 81.46875 194.027344 82.191406 Z M 194.027344 82.191406 " fill-opacity="1" fill-rule="nonzero"/><path fill="#000000" d="M 231.5 218.679688 C 232.355469 227.867188 232.347656 237.234375 231.476562 246.527344 C 231.292969 248.488281 232.832031 250.191406 234.816406 250.191406 C 236.527344 250.191406 237.984375 248.886719 238.152344 247.152344 C 239.058594 237.445312 239.066406 227.660156 238.179688 218.0625 C 234.175781 175.074219 220.734375 153.464844 206.796875 136.515625 C 205.617188 135.085938 203.503906 134.886719 202.078125 136.054688 C 200.652344 137.230469 200.441406 139.34375 201.621094 140.769531 C 214.875 156.894531 227.671875 177.492188 231.5 218.679688 Z M 231.5 218.679688 " fill-opacity="1" fill-rule="nonzero"/><path fill="#000000" d="M 59.082031 91.628906 L 67.988281 90.875 C 69.832031 90.714844 71.199219 89.09375 71.042969 87.25 C 70.882812 85.40625 69.230469 84.054688 67.417969 84.195312 L 58.511719 84.949219 C 56.671875 85.105469 55.300781 86.726562 55.460938 88.570312 C 55.609375 90.324219 57.109375 91.761719 59.082031 91.628906 Z M 59.082031 91.628906 " fill-opacity="1" fill-rule="nonzero"/><g clip-path="url(#808b1ea489)"><path fill="#000000" d="M 41.273438 93.140625 L 50.179688 92.386719 C 52.019531 92.226562 53.390625 90.605469 53.234375 88.761719 C 53.078125 86.917969 51.449219 85.585938 49.613281 85.707031 L 40.707031 86.460938 C 38.859375 86.617188 37.496094 88.238281 37.652344 90.082031 C 37.800781 91.835938 39.300781 93.273438 41.273438 93.140625 Z M 41.273438 93.140625 " fill-opacity="1" fill-rule="nonzero"/></g><path fill="#000000" d="M 49.613281 109.96875 L 42.09375 114.800781 C 39.277344 116.609375 40.585938 120.96875 43.910156 120.96875 C 45.597656 120.96875 45.835938 120.164062 53.234375 115.605469 C 54.792969 114.605469 55.242188 112.53125 54.242188 110.972656 C 53.242188 109.421875 51.164062 108.96875 49.613281 109.96875 Z M 49.613281 109.96875 " fill-opacity="1" fill-rule="nonzero"/><path fill="#000000" d="M 69.273438 101.308594 C 68.273438 99.753906 66.199219 99.300781 64.644531 100.304688 L 57.125 105.132812 C 55.566406 106.136719 55.117188 108.207031 56.117188 109.765625 C 57.128906 111.332031 59.207031 111.765625 60.746094 110.769531 L 68.265625 105.941406 C 69.824219 104.9375 70.273438 102.867188 69.273438 101.308594 Z M 69.273438 101.308594 " fill-opacity="1" fill-rule="nonzero"/><path fill="#000000" d="M 76.304688 123.40625 C 77.59375 123.40625 78.824219 122.65625 79.375 121.394531 L 82.949219 113.203125 C 83.691406 111.507812 82.914062 109.53125 81.21875 108.792969 C 79.53125 108.0625 77.546875 108.828125 76.804688 110.523438 L 73.230469 118.714844 C 72.261719 120.933594 73.902344 123.40625 76.304688 123.40625 Z M 76.304688 123.40625 " fill-opacity="1" fill-rule="nonzero"/><path fill="#000000" d="M 69.664062 126.902344 L 67.710938 131.375 C 66.742188 133.59375 68.378906 136.066406 70.785156 136.066406 C 72.074219 136.066406 73.304688 135.316406 73.855469 134.054688 L 75.804688 129.582031 C 76.546875 127.886719 75.769531 125.910156 74.074219 125.171875 C 72.390625 124.441406 70.402344 125.203125 69.664062 126.902344 Z M 69.664062 126.902344 " fill-opacity="1" fill-rule="nonzero"/><path fill="#000000" d="M 158.917969 258.816406 C 158.917969 256.96875 157.417969 255.464844 155.566406 255.464844 C 141.515625 255.464844 130.089844 244.039062 130.089844 229.992188 C 130.089844 228.144531 128.585938 226.644531 126.738281 226.644531 C 124.886719 226.644531 123.386719 228.144531 123.386719 229.992188 C 123.386719 244.039062 111.957031 255.464844 97.90625 255.464844 C 96.058594 255.464844 94.554688 256.96875 94.554688 258.816406 C 94.554688 260.667969 96.058594 262.167969 97.90625 262.167969 C 111.957031 262.167969 123.386719 273.59375 123.386719 287.640625 C 123.386719 289.488281 124.886719 290.988281 126.738281 290.988281 C 128.585938 290.988281 130.089844 289.488281 130.089844 287.640625 C 130.089844 273.59375 141.515625 262.167969 155.566406 262.167969 C 157.417969 262.167969 158.917969 260.667969 158.917969 258.816406 Z M 126.738281 273.351562 C 123.609375 267.066406 118.484375 261.945312 112.199219 258.816406 C 118.484375 255.6875 123.609375 250.566406 126.738281 244.28125 C 129.867188 250.566406 134.988281 255.6875 141.277344 258.816406 C 134.988281 261.945312 129.867188 267.066406 126.738281 273.351562 Z M 126.738281 273.351562 " fill-opacity="1" fill-rule="nonzero"/><path fill="#000000" d="M 104.699219 212.808594 C 104.699219 202.535156 96.335938 194.179688 86.066406 194.179688 C 75.792969 194.179688 67.433594 202.535156 67.433594 212.808594 C 67.433594 223.082031 75.792969 231.4375 86.066406 231.4375 C 96.335938 231.4375 104.699219 223.082031 104.699219 212.808594 Z M 86.066406 224.734375 C 79.484375 224.734375 74.136719 219.386719 74.136719 212.808594 C 74.136719 206.230469 79.484375 200.878906 86.066406 200.878906 C 92.644531 200.878906 97.996094 206.230469 97.996094 212.808594 C 97.996094 219.386719 92.644531 224.734375 86.066406 224.734375 Z M 86.066406 224.734375 " fill-opacity="1" fill-rule="nonzero"/><path fill="#000000" d="M 258.773438 282.125 C 253.210938 284.640625 245.925781 279.464844 238.742188 278.269531 C 232.914062 277.296875 226.777344 278.660156 221.90625 282.003906 C 220.382812 283.050781 219.996094 285.136719 221.042969 286.660156 C 222.089844 288.1875 224.179688 288.578125 225.703125 287.527344 C 229.160156 285.15625 233.503906 284.191406 237.640625 284.878906 C 243.863281 285.917969 252.972656 292.117188 261.539062 288.230469 C 263.226562 287.464844 263.976562 285.480469 263.207031 283.796875 C 262.445312 282.105469 260.460938 281.371094 258.773438 282.125 Z M 258.773438 282.125 " fill-opacity="1" fill-rule="nonzero"/><path fill="#000000" d="M 309.898438 268.894531 C 302.820312 265.304688 293.691406 265.960938 287.207031 270.519531 C 284.53125 272.394531 285.867188 276.609375 289.136719 276.609375 C 289.796875 276.609375 290.46875 276.414062 291.054688 276 C 295.574219 272.832031 301.933594 272.371094 306.867188 274.871094 C 308.523438 275.710938 310.539062 275.042969 311.371094 273.394531 C 312.210938 271.742188 311.546875 269.726562 309.898438 268.894531 Z M 309.898438 268.894531 " fill-opacity="1" fill-rule="nonzero"/></svg>