<svg width="570" height="161" viewBox="0 0 570 161" fill="none" xmlns="http://www.w3.org/2000/svg">
<mask id="mask0_1980_2" style="mask-type:luminance" maskUnits="userSpaceOnUse" x="0" y="0" width="570" height="131">
<path d="M569.312 0H0V130.949H569.312V0Z" fill="white"/>
</mask>
<g mask="url(#mask0_1980_2)">
<path d="M74.8808 28.5772L73.8414 28.8398C73.059 26.5722 71.7761 24.2854 69.9899 21.9794C68.201 19.6762 65.8923 17.5891 63.0639 15.7209C60.241 13.8471 56.953 12.3235 53.2055 11.1473C49.4635 9.96559 45.2866 9.37474 40.6774 9.37474C38.0651 9.37474 35.9534 9.52793 34.3423 9.83429C32.7284 10.1407 31.5084 10.6877 30.6768 11.4755C29.8508 12.2578 29.3091 13.3219 29.0465 14.6705C28.7894 16.0218 28.6636 17.7396 28.6636 19.8239V27.7894H43.5441C46.7664 27.7894 49.1599 27.3135 50.7218 26.3561C52.2892 25.4014 53.1618 23.4866 53.3368 20.6117V20.2178L54.5185 19.8239L59.6064 49.0708L58.5669 49.3334L58.3043 48.5565C57.1719 45.3342 55.9109 42.7438 54.5185 40.788C53.1235 38.8267 51.5123 37.3469 49.6824 36.3457C47.8578 35.3473 45.7024 34.6936 43.2159 34.3872C40.7349 34.0808 37.8873 33.9276 34.6705 33.9276H28.6636V73.755C28.6636 75.667 28.7511 77.4505 28.9262 79.1054C29.1013 80.7631 29.4897 82.2429 30.0969 83.5477C30.7097 84.8552 31.5795 85.922 32.712 86.7536C33.8417 87.5797 35.3626 88.0775 37.2746 88.2526V89.292H5.80664V88.1213C7.72415 87.8587 9.24777 87.3171 10.3802 86.491C11.5099 85.6594 12.3552 84.6145 12.9187 83.3507C13.4876 82.0897 13.8596 80.6974 14.0347 79.1711C14.2098 77.6474 14.2973 76.0609 14.2973 74.4115V19.1675C14.2973 17.3457 14.2098 15.606 14.0347 13.9483C13.8596 12.2934 13.4657 10.8136 12.853 9.50604C12.2458 8.20126 11.3786 7.11531 10.2489 6.24545C9.11647 5.37833 7.63662 4.81211 5.80664 4.54951V3.36782H62.8779C64.0951 3.36782 65.2686 3.28576 66.4011 3.11616C67.5308 2.9411 68.3979 2.45967 69.0052 1.67188L74.8808 28.5772Z" fill="white"/>
<path d="M74.8808 28.5772L73.8414 28.8398C73.059 26.5722 71.7761 24.2854 69.9899 21.9794C68.201 19.6762 65.8923 17.5891 63.0639 15.7209C60.241 13.8471 56.953 12.3235 53.2055 11.1473C49.4635 9.96559 45.2866 9.37474 40.6774 9.37474C38.0651 9.37474 35.9534 9.52793 34.3423 9.83429C32.7284 10.1407 31.5084 10.6877 30.6768 11.4755C29.8508 12.2578 29.3091 13.3219 29.0465 14.6705C28.7894 16.0218 28.6636 17.7396 28.6636 19.8239V27.7894H43.5441C46.7664 27.7894 49.1599 27.3135 50.7218 26.3561C52.2892 25.4014 53.1618 23.4866 53.3368 20.6117V20.2178L54.5185 19.8239L59.6064 49.0708L58.5669 49.3334L58.3043 48.5565C57.1719 45.3342 55.9109 42.7438 54.5185 40.788C53.1235 38.8267 51.5123 37.3469 49.6824 36.3457C47.8578 35.3473 45.7024 34.6936 43.2159 34.3872C40.7349 34.0808 37.8873 33.9276 34.6705 33.9276H28.6636V73.755C28.6636 75.667 28.7511 77.4505 28.9262 79.1054C29.1013 80.7631 29.4897 82.2429 30.0969 83.5477C30.7097 84.8552 31.5795 85.922 32.712 86.7536C33.8417 87.5797 35.3626 88.0775 37.2746 88.2526V89.292H5.80664V88.1213C7.72415 87.8587 9.24777 87.3171 10.3802 86.491C11.5099 85.6594 12.3552 84.6145 12.9187 83.3507C13.4876 82.0897 13.8596 80.6974 14.0347 79.1711C14.2098 77.6474 14.2973 76.0609 14.2973 74.4115V19.1675C14.2973 17.3457 14.2098 15.606 14.0347 13.9483C13.8596 12.2934 13.4657 10.8136 12.853 9.50604C12.2458 8.20126 11.3786 7.11531 10.2489 6.24545C9.11647 5.37833 7.63662 4.81211 5.80664 4.54951V3.36782H62.8779C64.0951 3.36782 65.2686 3.28576 66.4011 3.11616C67.5308 2.9411 68.3979 2.45967 69.0052 1.67188L74.8808 28.5772Z" fill="white"/>
<path d="M106.877 3.36719V4.54888C105.045 4.81148 103.565 5.33394 102.435 6.11352C101.303 6.89585 100.433 7.87512 99.8201 9.05681C99.2128 10.233 98.8244 11.6035 98.6493 13.1708C98.4743 14.7327 98.3867 16.4287 98.3867 18.2587V73.623C98.3867 75.3682 98.4743 77.0669 98.6493 78.7218C98.8244 80.3712 99.1909 81.8484 99.7544 83.1531C100.323 84.4607 101.171 85.5493 102.304 86.4247C103.434 87.2945 104.957 87.858 106.877 88.1206V89.2914H75.5298V88.1206C77.4473 87.858 78.949 87.3383 80.0377 86.556C81.1237 85.7682 81.9689 84.7889 82.5762 83.6127C83.1889 82.4392 83.5828 81.0907 83.7578 79.5643C83.9329 78.0407 84.0204 76.3639 84.0204 74.5312V19.0465C84.0204 17.304 83.9329 15.6053 83.7578 13.9477C83.5828 12.2928 83.1889 10.8129 82.5762 9.50541C81.9689 8.20063 81.1237 7.11468 80.0377 6.24482C78.949 5.3777 77.4473 4.81148 75.5298 4.54888V3.36719H106.877Z" fill="white"/>
<path d="M147.606 3.36719V4.54888C145.781 4.72394 144.87 5.2464 144.87 6.11352C144.87 6.28859 145.04 6.77002 145.385 7.55781C145.735 8.34013 146.867 9.51362 148.787 11.081L178.691 36.0168V19.0465C178.691 17.129 178.581 15.3236 178.362 13.6304C178.144 11.9317 177.728 10.4519 177.115 9.1881C176.508 7.91888 175.641 6.87396 174.511 6.04787C173.379 5.22452 171.855 4.72394 169.937 4.54888V3.36719H195.661V4.54888C193.741 4.81148 192.217 5.35582 191.087 6.17917C189.955 7.00526 189.107 8.04745 188.538 9.30846C187.975 10.5722 187.608 11.9645 187.433 13.4881C187.258 15.0145 187.17 16.6038 187.17 18.2587V73.623C187.17 75.5351 187.258 77.2967 187.433 78.9078C187.608 80.5217 187.996 81.9578 188.604 83.2188C189.216 84.4825 190.086 85.5493 191.219 86.4247C192.348 87.2945 193.828 87.858 195.661 88.1206V89.2914H169.937V88.1206C171.767 87.858 173.269 87.3602 174.445 86.6216C175.619 85.8776 176.508 84.9202 177.115 83.744C177.728 82.5705 178.144 81.2001 178.362 79.63C178.581 78.0626 178.691 76.2791 178.691 74.2795V60.3071C178.691 59.0024 178.625 57.8945 178.494 56.9809C178.362 56.0618 178.034 55.1701 177.509 54.3002C176.989 53.4249 176.251 52.5113 175.288 51.5539C174.33 50.5992 173.069 49.4695 171.502 48.162L130.241 13.8164V73.623C130.241 75.4557 130.329 77.2201 130.504 78.9188C130.679 80.612 131.067 82.111 131.675 83.4157C132.287 84.7233 133.157 85.7901 134.29 86.6216C135.419 87.4477 136.899 87.9455 138.732 88.1206V89.2914H113.271V88.1206C115.18 87.858 116.701 87.3164 117.834 86.4903C118.972 85.6588 119.82 84.6138 120.383 83.3501C120.952 82.0891 121.319 80.6968 121.488 79.1704C121.663 77.6468 121.751 76.0603 121.751 74.4108V19.0465C121.751 17.304 121.663 15.6272 121.488 14.0133C121.319 12.4022 120.93 10.9442 120.317 9.63671C119.71 8.33193 118.862 7.22409 117.768 6.31047C116.679 5.39959 115.18 4.81148 113.271 4.54888V3.36719H147.606Z" fill="white"/>
<path d="M230.389 48.4297L224.908 63.0476C224.733 62.8726 224.251 62.6592 223.463 62.4021C222.681 62.1395 221.464 62.0082 219.809 62.0082H207.149C204.1 62.0082 201.988 62.2708 200.814 62.796C199.638 63.3157 198.703 64.1828 198.002 65.4001H196.963L202.445 50.7712C202.62 50.9462 203.008 51.1651 203.615 51.4277C204.228 51.6903 205.492 51.8216 207.412 51.8216H220.071C223.031 51.8216 225.143 51.5207 226.407 50.9134C227.668 50.3007 228.65 49.4746 229.35 48.4297H230.389Z" fill="white"/>
<path d="M266.161 3.36719V4.54888C264.337 4.72394 263.426 5.2464 263.426 6.11352C263.426 6.28859 263.596 6.77002 263.94 7.55781C264.29 8.34013 265.423 9.51362 267.343 11.081L297.246 36.0168V19.0465C297.246 17.129 297.137 15.3236 296.918 13.6304C296.699 11.9317 296.283 10.4519 295.671 9.1881C295.063 7.91888 294.196 6.87396 293.067 6.04787C291.934 5.22452 290.411 4.72394 288.493 4.54888V3.36719H314.217V4.54888C312.296 4.81148 310.773 5.35582 309.643 6.17917C308.511 7.00526 307.663 8.04745 307.094 9.30846C306.53 10.5722 306.164 11.9645 305.989 13.4881C305.814 15.0145 305.726 16.6038 305.726 18.2587V73.623C305.726 75.5351 305.814 77.2967 305.989 78.9078C306.164 80.5217 306.552 81.9578 307.159 83.2188C307.772 84.4825 308.642 85.5493 309.774 86.4247C310.904 87.2945 312.384 87.858 314.217 88.1206V89.2914H288.493V88.1206C290.323 87.858 291.825 87.3602 293.001 86.6216C294.174 85.8776 295.063 84.9202 295.671 83.744C296.283 82.5705 296.699 81.2001 296.918 79.63C297.137 78.0626 297.246 76.2791 297.246 74.2795V60.3071C297.246 59.0024 297.181 57.8945 297.049 56.9809C296.918 56.0618 296.59 55.1701 296.065 54.3002C295.545 53.4249 294.806 52.5113 293.843 51.5539C292.886 50.5992 291.625 49.4695 290.058 48.162L248.797 13.8164V73.623C248.797 75.4557 248.885 77.2201 249.06 78.9188C249.235 80.612 249.623 82.111 250.23 83.4157C250.843 84.7233 251.713 85.7901 252.845 86.6216C253.975 87.4477 255.455 87.9455 257.288 88.1206V89.2914H231.827V88.1206C233.736 87.858 235.257 87.3164 236.389 86.4903C237.527 85.6588 238.375 84.6138 238.939 83.3501C239.508 82.0891 239.874 80.6968 240.044 79.1704C240.219 77.6468 240.306 76.0603 240.306 74.4108V19.0465C240.306 17.304 240.219 15.6272 240.044 14.0133C239.874 12.4022 239.486 10.9442 238.873 9.63671C238.266 8.33193 237.418 7.22409 236.324 6.31047C235.235 5.39959 233.736 4.81148 231.827 4.54888V3.36719H266.161Z" fill="white"/>
<path d="M363.957 8.46659C359.258 8.46659 355.187 9.4486 351.746 11.4099C348.311 13.3657 345.482 15.9342 343.267 19.1127C341.048 22.2858 339.415 25.8528 338.365 29.8136C337.32 33.7745 336.8 37.8009 336.8 41.8931C336.8 46.7676 337.517 51.7077 338.956 56.7189C340.392 61.7247 342.525 66.2709 345.356 70.3631C348.185 74.4498 351.664 77.7787 355.795 80.3527C359.931 82.9213 364.739 84.2042 370.227 84.2042C374.756 84.2042 378.761 83.2905 382.241 81.4578C385.725 79.6279 388.644 77.1906 390.994 74.1489C393.341 71.1016 395.102 67.6167 396.279 63.6997C397.452 59.7826 398.04 55.6904 398.04 51.4232C398.04 45.6761 397.146 40.2136 395.359 35.0327C393.579 29.8546 391.142 25.2838 388.051 21.3229C384.965 17.3621 381.354 14.2301 377.218 11.9241C373.082 9.62093 368.662 8.46659 363.957 8.46659ZM321.132 46.598C321.132 40.0713 322.327 34.0644 324.721 28.5772C327.111 23.0927 330.377 18.3468 334.513 14.3422C338.649 10.3376 343.502 7.22746 349.077 5.00905C354.649 2.78518 360.656 1.67188 367.097 1.67188C373.712 1.67188 379.869 2.80706 385.567 5.0747C391.27 7.33687 396.213 10.4908 400.393 14.5392C404.572 18.5875 407.836 23.421 410.185 29.0368C412.532 34.647 413.708 40.8044 413.708 47.5061C413.708 53.8604 412.445 59.6923 409.923 65.0017C407.398 70.3138 403.981 74.9038 399.67 78.7771C395.365 82.6505 390.406 85.6567 384.79 87.793C379.171 89.9211 373.318 90.9879 367.229 90.9879C359.649 90.9879 352.985 89.6585 347.238 87.0052C341.497 84.3519 336.691 80.8943 332.817 76.6326C328.944 72.3654 326.025 67.6003 324.064 62.332C322.108 57.0663 321.132 51.8226 321.132 46.598Z" fill="white"/>
<path d="M448.178 3.36719V4.54888C445.916 4.72394 444.283 5.2464 443.276 6.11352C442.275 6.98338 441.777 8.15686 441.777 9.63671C441.777 11.3819 442.319 13.3651 443.407 15.5889C444.493 17.8073 445.607 19.8288 446.744 21.6506L459.141 41.4986L470.51 22.8322C472.244 20.0476 473.765 17.4353 475.072 14.9981C476.377 12.5554 477.031 10.4655 477.031 8.72856C477.031 6.20653 475.116 4.81148 471.286 4.54888V3.36719H496.616V4.54888C495.142 4.81148 493.837 5.18349 492.699 5.66492C491.567 6.14088 490.524 6.83567 489.57 7.75476C488.612 8.66838 487.633 9.7981 486.627 11.1466C485.625 12.4897 484.518 14.1638 483.3 16.1688L462.544 49.5953V73.7543C462.544 75.7539 462.648 77.603 462.861 79.3017C463.08 81.0031 463.469 82.5049 464.032 83.8096C464.601 85.1171 465.449 86.1402 466.582 86.8842C467.719 87.6228 469.199 88.0331 471.024 88.1206V89.2914H439.687V88.1206C441.605 87.9455 443.106 87.4696 444.195 86.6873C445.281 85.8995 446.126 84.9202 446.734 83.744C447.346 82.5705 447.74 81.2001 447.915 79.63C448.09 78.0626 448.178 76.3639 448.178 74.5312V49.5953L425.977 14.6042C425.283 13.4745 424.566 12.3447 423.822 11.2123C423.083 10.0744 422.257 9.02945 421.338 8.07206C420.425 7.11741 419.382 6.33782 418.209 5.73057C417.033 5.11784 415.752 4.72394 414.357 4.54888V3.36719H448.178Z" fill="white"/>
<path d="M499.096 23.0878C499.096 19.2583 499.922 15.9758 501.579 13.2404C503.234 10.4995 505.368 8.23462 507.98 6.44567C510.59 4.65946 513.484 3.35468 516.657 2.52859C519.836 1.69703 522.907 1.28125 525.87 1.28125C528.561 1.28125 530.949 1.4782 533.037 1.87209C535.129 2.26599 537.134 2.68177 539.054 3.11943C540.359 3.46409 541.814 3.78687 543.42 4.09323C545.031 4.3996 546.708 4.55278 548.453 4.55278C549.583 4.55278 550.494 4.37772 551.189 4.02759C551.889 3.67745 552.589 3.0702 553.289 2.20034L558.508 28.1866L557.469 28.4492C556.419 25.4019 554.911 22.6583 552.95 20.2211C550.994 17.7866 548.732 15.6968 546.166 13.9516C543.598 12.2091 540.81 10.8606 537.807 9.90321C534.809 8.94856 531.74 8.46986 528.605 8.46986C526.781 8.46986 524.888 8.64493 522.926 8.99506C520.962 9.33972 519.198 9.92509 517.631 10.7567C516.069 11.5827 514.764 12.6906 513.714 14.0829C512.669 15.4779 512.149 17.2177 512.149 19.302C512.149 20.1773 512.302 21.0089 512.609 21.7967C512.915 22.579 513.566 23.3586 514.567 24.1382C515.566 24.9205 516.936 25.7028 518.681 26.4906C520.424 27.273 522.732 28.0963 525.607 28.9634L544.274 34.5874C547.583 35.6323 550.674 36.9152 553.541 38.4388C556.413 39.9652 558.894 41.7705 560.981 43.8549C563.074 45.942 564.707 48.3355 565.883 51.0326C567.057 53.7324 567.645 56.7824 567.645 60.1797C567.645 65.2293 566.816 69.6661 565.161 73.4956C563.512 77.3252 561.162 80.5475 558.115 83.157C555.073 85.7693 551.375 87.7279 547.02 89.0327C542.665 90.3374 537.788 90.9912 532.391 90.9912C529.604 90.9912 527.013 90.7724 524.622 90.3347C522.229 89.9025 519.986 89.4293 517.893 88.9123C515.806 88.3871 513.87 87.9057 512.083 87.468C510.303 87.0304 508.629 86.8115 507.061 86.8115C506.104 86.8115 505.234 87.0522 504.446 87.5337C503.664 88.0151 503.057 88.5594 502.619 89.164L495.047 56.5253L496.218 56.1314C497.356 59.8734 498.945 63.402 500.989 66.7119C503.037 70.0162 505.497 72.9103 508.363 75.3885C511.235 77.8695 514.48 79.8281 518.09 81.2642C521.707 82.703 525.645 83.4196 529.907 83.4196C538.004 83.4196 544.142 81.8988 548.322 78.857C552.502 75.8098 554.591 71.3237 554.591 65.3989C554.591 62.7018 554.047 60.4177 552.961 58.5494C551.872 56.6757 550.458 55.1302 548.716 53.9102C546.971 52.693 544.99 51.6727 542.775 50.8466C540.556 50.015 538.357 49.2546 536.177 48.5598L518.812 43.1984C516.375 42.4188 513.979 41.5517 511.624 40.5943C509.274 39.6315 507.162 38.3923 505.289 36.8742C503.42 35.3506 501.921 33.4796 500.792 31.2612C499.659 29.0373 499.096 26.3128 499.096 23.0878Z" fill="white"/>
</g>
<mask id="mask1_1980_2" style="mask-type:luminance" maskUnits="userSpaceOnUse" x="83" y="107" width="406" height="54">
<path d="M488.782 107.141H83.3311V160.36H488.782V107.141Z" fill="white"/>
</mask>
<g mask="url(#mask1_1980_2)">
<path d="M115.127 138.956C114.017 141.831 112.198 144.137 109.667 145.871C107.113 147.66 104.312 148.552 101.264 148.552C97.1202 148.552 93.5834 147.028 90.651 143.979C87.7679 140.981 86.3291 137.386 86.3291 133.19C86.3291 131.106 86.7121 129.12 87.478 127.238C88.2357 125.394 89.2943 123.764 90.651 122.347C93.5834 119.3 97.1202 117.773 101.264 117.773C104.312 117.773 107.099 118.638 109.624 120.367C112.146 122.134 113.968 124.437 115.084 127.282H111.703C110.083 124.322 107.671 122.355 104.47 121.384C103.42 121.094 102.2 120.946 100.816 120.946C99.4371 120.946 98.0284 121.269 96.5923 121.909C95.1535 122.588 93.9061 123.485 92.8503 124.601C90.558 126.981 89.4146 129.842 89.4146 133.19C89.4146 136.503 90.558 139.347 92.8503 141.725C95.1699 144.162 97.9737 145.379 101.264 145.379C103.488 145.379 105.543 144.794 107.424 143.617C109.276 142.444 110.718 140.89 111.746 138.956H115.127Z" fill="white"/>
<path d="M122.833 145.033H133.534V148.119H119.748V118.172H122.833V145.033Z" fill="white"/>
<path d="M155.5 148.119H137.709V118.172H155.5V121.039H140.795V131.696H155.063V134.595H140.795V145.252H155.5V148.119Z" fill="white"/>
<path d="M166.947 137.109H177.823L172.407 123.323L166.947 137.109ZM185.526 148.117H182.177L178.961 139.965H165.798L162.581 148.117H159.233L172.407 116.102L185.526 148.117Z" fill="white"/>
<path d="M192.348 126.044V148.113H189.263V116.273L206.08 140.192V118.166H209.165V149.963L192.348 126.044Z" fill="white"/>
<path d="M218.851 148.119H215.766V118.172H218.851V148.119Z" fill="white"/>
<path d="M228.537 126.044V148.113H225.451V116.273L242.268 140.192V118.166H245.354V149.963L228.537 126.044Z" fill="white"/>
<path d="M281.507 134.112L281.19 135.962C280.547 139.602 278.772 142.598 275.862 144.945C272.957 147.294 269.685 148.468 266.047 148.468C263.93 148.468 261.933 148.06 260.051 147.242C258.175 146.449 256.55 145.347 255.171 143.938C253.754 142.554 252.655 140.924 251.867 139.047C251.041 137.165 250.63 135.152 250.63 133.007C250.63 130.901 251.041 128.904 251.867 127.022C252.655 125.14 253.754 123.496 255.171 122.088C256.55 120.709 258.175 119.609 260.051 118.783C261.933 117.995 263.829 117.602 265.741 117.602C269.321 117.602 272.475 118.614 275.205 120.632C277.962 122.662 279.839 125.335 280.84 128.653H277.579C276.644 126.218 275.134 124.281 273.05 122.843C270.932 121.398 268.599 120.676 266.047 120.676C262.639 120.676 259.734 121.88 257.327 124.287C254.919 126.702 253.716 129.61 253.716 133.007C253.716 136.386 254.919 139.293 257.327 141.728C259.704 144.165 262.611 145.382 266.047 145.382C268.744 145.382 271.211 144.605 273.444 143.052C275.646 141.471 277.188 139.386 278.072 136.804H265.916V134.112H281.507Z" fill="white"/>
<path d="M306.991 133.983C300.878 132.577 297.822 129.964 297.822 126.148C297.822 123.326 298.807 121.211 300.777 119.802C302.746 118.424 305.049 117.734 307.692 117.734C313.534 117.734 316.997 119.906 318.086 124.245H314.738C314.147 121.662 311.797 120.371 307.692 120.371C304.817 120.371 302.806 121.225 301.663 122.932C301.217 123.574 300.995 124.381 300.995 125.35C300.995 127.204 301.994 128.629 303.993 129.628C304.934 130.126 306.928 130.771 309.978 131.565C313.034 132.352 315.252 133.233 316.631 134.201C318.54 135.553 319.498 137.446 319.498 139.88C319.498 142.908 318.308 145.198 315.931 146.751C313.931 148.043 311.461 148.688 308.523 148.688C301.893 148.688 298.047 146.166 296.991 141.117H300.645C301.198 144.29 303.824 145.876 308.523 145.876C311.871 145.876 314.205 144.952 315.526 143.097C316.056 142.369 316.324 141.368 316.324 140.099C316.324 138.868 315.838 137.856 314.869 137.068C313.491 135.952 310.865 134.924 306.991 133.983Z" fill="white"/>
<path d="M341.726 148.119H323.935V118.172H341.726V121.039H327.021V131.696H341.288V134.595H327.021V145.252H341.726V148.119Z" fill="white"/>
<path d="M351.411 133.326H358.37C360.098 133.326 361.521 132.741 362.637 131.564C363.78 130.361 364.355 128.878 364.355 127.111C364.355 125.382 363.81 123.946 362.724 122.8C361.636 121.684 360.186 121.126 358.37 121.126H351.411V133.326ZM367.44 127.199C367.44 129.811 366.513 131.986 364.661 133.72C363.02 135.246 361.039 136.08 358.72 136.225L367.922 148.119H363.786L355.021 136.269H351.411V148.119H348.325V118.172H357.921C360.596 118.172 362.845 119.009 364.661 120.677C366.513 122.445 367.44 124.616 367.44 127.199Z" fill="white"/>
<path d="M383.019 149.924L369.408 118.172H372.756L383.019 142.309L393.238 118.172H396.587L383.019 149.924Z" fill="white"/>
<path d="M403.404 148.119H400.319V118.172H403.404V148.119Z" fill="white"/>
<path d="M437.478 138.956C436.368 141.831 434.549 144.137 432.019 145.871C429.464 147.66 426.663 148.552 423.615 148.552C419.471 148.552 415.934 147.028 413.002 143.979C410.119 140.981 408.68 137.386 408.68 133.19C408.68 131.106 409.063 129.12 409.829 127.238C410.587 125.394 411.645 123.764 413.002 122.347C415.934 119.3 419.471 117.773 423.615 117.773C426.663 117.773 429.45 118.638 431.975 120.367C434.497 122.134 436.319 124.437 437.435 127.282H434.054C432.434 124.322 430.022 122.355 426.821 121.384C425.771 121.094 424.551 120.946 423.167 120.946C421.788 120.946 420.379 121.269 418.943 121.909C417.505 122.588 416.257 123.485 415.201 124.601C412.909 126.981 411.766 129.842 411.766 133.19C411.766 136.503 412.909 139.347 415.201 141.725C417.521 144.162 420.325 145.379 423.615 145.379C425.839 145.379 427.894 144.794 429.776 143.617C431.627 142.444 433.069 140.89 434.097 138.956H437.478Z" fill="white"/>
<path d="M459.889 148.119H442.098V118.172H459.889V121.039H445.183V131.696H459.451V134.595H445.183V145.252H459.889V148.119Z" fill="white"/>
<path d="M474.815 133.983C468.701 132.577 465.646 129.964 465.646 126.148C465.646 123.326 466.63 121.211 468.6 119.802C470.569 118.424 472.872 117.734 475.515 117.734C481.358 117.734 484.821 119.906 485.909 124.245H482.561C481.97 121.662 479.621 120.371 475.515 120.371C472.64 120.371 470.629 121.225 469.486 122.932C469.04 123.574 468.819 124.381 468.819 125.35C468.819 127.204 469.817 128.629 471.817 129.628C472.758 130.126 474.752 130.771 477.802 131.565C480.857 132.352 483.075 133.233 484.454 134.201C486.363 135.553 487.321 137.446 487.321 139.88C487.321 142.908 486.131 145.198 483.754 146.751C481.754 148.043 479.284 148.688 476.346 148.688C469.716 148.688 465.87 146.166 464.814 141.117H468.468C469.021 144.29 471.647 145.876 476.346 145.876C479.695 145.876 482.028 144.952 483.349 143.097C483.88 142.369 484.148 141.368 484.148 140.099C484.148 138.868 483.661 137.856 482.692 137.068C481.314 135.952 478.688 134.924 474.815 133.983Z" fill="white"/>
</g>
</svg>
