<svg width="169" height="48" viewBox="0 0 169 48" fill="none" xmlns="http://www.w3.org/2000/svg">
<mask id="mask0_1953_2" style="mask-type:luminance" maskUnits="userSpaceOnUse" x="0" y="0" width="169" height="39">
<path d="M169 0H0V38.8721H169V0Z" fill="white"/>
</mask>
<g mask="url(#mask0_1953_2)">
<path d="M22.2283 8.48684L21.9197 8.56479C21.6875 7.89164 21.3066 7.21281 20.7764 6.52829C20.2454 5.84459 19.56 5.22503 18.7204 4.67043C17.8824 4.11421 16.9064 3.66193 15.794 3.31277C14.6832 2.96199 13.4432 2.78659 12.075 2.78659C11.2996 2.78659 10.6727 2.83207 10.1944 2.92301C9.71534 3.01395 9.35319 3.17635 9.10634 3.41021C8.86112 3.64244 8.70034 3.95831 8.62239 4.35863C8.54606 4.75975 8.50871 5.26969 8.50871 5.88843V8.25298H12.926C13.8825 8.25298 14.593 8.11169 15.0567 7.82749C15.522 7.5441 15.781 6.9757 15.833 6.12229V6.00536L16.1837 5.88843L17.6941 14.5703L17.3855 14.6483L17.3075 14.4177C16.9714 13.4612 16.597 12.6922 16.1837 12.1116C15.7696 11.5294 15.2913 11.0901 14.7481 10.7929C14.2065 10.4965 13.5667 10.3025 12.8286 10.2115C12.0921 10.1206 11.2468 10.0751 10.2919 10.0751H8.50871V21.8978C8.50871 22.4654 8.53469 22.9948 8.58666 23.4861C8.63863 23.9782 8.75393 24.4175 8.9342 24.8048C9.11608 25.1929 9.3743 25.5096 9.71047 25.7565C10.0458 26.0017 10.4973 26.1495 11.0649 26.2014V26.51H1.72363V26.1625C2.29285 26.0845 2.74513 25.9237 3.0813 25.6785C3.41665 25.4317 3.66756 25.1215 3.83483 24.7463C4.00373 24.372 4.11416 23.9587 4.16613 23.5056C4.2181 23.0533 4.24408 22.5824 4.24408 22.0927V5.69355C4.24408 5.15276 4.2181 4.63633 4.16613 4.14426C4.11416 3.653 3.99723 3.21371 3.81535 2.82557C3.63508 2.43825 3.37768 2.11588 3.04232 1.85766C2.70615 1.60026 2.26686 1.43218 1.72363 1.35422V1.00344H18.6652C19.0266 1.00344 19.3749 0.97908 19.7111 0.928736C20.0464 0.876768 20.3038 0.733856 20.4841 0.5L22.2283 8.48684Z" fill="#081032"/>
<path d="M22.2283 8.48684L21.9197 8.56479C21.6875 7.89164 21.3066 7.21281 20.7764 6.52829C20.2454 5.84459 19.56 5.22503 18.7204 4.67043C17.8824 4.11421 16.9064 3.66193 15.794 3.31277C14.6832 2.96199 13.4432 2.78659 12.075 2.78659C11.2996 2.78659 10.6727 2.83207 10.1944 2.92301C9.71534 3.01395 9.35319 3.17635 9.10634 3.41021C8.86112 3.64244 8.70034 3.95831 8.62239 4.35863C8.54606 4.75975 8.50871 5.26969 8.50871 5.88843V8.25298H12.926C13.8825 8.25298 14.593 8.11169 15.0567 7.82749C15.522 7.5441 15.781 6.9757 15.833 6.12229V6.00536L16.1837 5.88843L17.6941 14.5703L17.3855 14.6483L17.3075 14.4177C16.9714 13.4612 16.597 12.6922 16.1837 12.1116C15.7696 11.5294 15.2913 11.0901 14.7481 10.7929C14.2065 10.4965 13.5667 10.3025 12.8286 10.2115C12.0921 10.1206 11.2468 10.0751 10.2919 10.0751H8.50871V21.8978C8.50871 22.4654 8.53469 22.9948 8.58666 23.4861C8.63863 23.9782 8.75393 24.4175 8.9342 24.8048C9.11608 25.1929 9.3743 25.5096 9.71047 25.7565C10.0458 26.0017 10.4973 26.1495 11.0649 26.2014V26.51H1.72363V26.1625C2.29285 26.0845 2.74513 25.9237 3.0813 25.6785C3.41665 25.4317 3.66756 25.1215 3.83483 24.7463C4.00373 24.372 4.11416 23.9587 4.16613 23.5056C4.2181 23.0533 4.24408 22.5824 4.24408 22.0927V5.69355C4.24408 5.15276 4.2181 4.63633 4.16613 4.14426C4.11416 3.653 3.99723 3.21371 3.81535 2.82557C3.63508 2.43825 3.37768 2.11588 3.04232 1.85766C2.70615 1.60026 2.26686 1.43218 1.72363 1.35422V1.00344H18.6652C19.0266 1.00344 19.3749 0.97908 19.7111 0.928736C20.0464 0.876768 20.3038 0.733856 20.4841 0.5L22.2283 8.48684Z" fill="#081032"/>
<path d="M31.7264 1V1.35078C31.1824 1.42874 30.7431 1.58383 30.4077 1.81525C30.0716 2.04748 29.8133 2.33818 29.6315 2.68896C29.4512 3.03812 29.3359 3.44493 29.2839 3.91021C29.232 4.37386 29.206 4.8773 29.206 5.42053V21.8554C29.206 22.3735 29.232 22.8777 29.2839 23.369C29.3359 23.8586 29.4447 24.2971 29.612 24.6844C29.7809 25.0726 30.0326 25.3957 30.3688 25.6556C30.7041 25.9138 31.1564 26.0811 31.7264 26.159V26.5066H22.4209V26.159C22.9901 26.0811 23.4359 25.9268 23.7591 25.6946C24.0814 25.4607 24.3323 25.17 24.5126 24.8208C24.6945 24.4725 24.8114 24.0722 24.8634 23.6191C24.9154 23.1668 24.9413 22.669 24.9413 22.125V5.65439C24.9413 5.13714 24.9154 4.63289 24.8634 4.14082C24.8114 3.64956 24.6945 3.21027 24.5126 2.82213C24.3323 2.4348 24.0814 2.11244 23.7591 1.85422C23.4359 1.59682 22.9901 1.42874 22.4209 1.35078V1H31.7264Z" fill="#081032"/>
<path d="M43.8163 1V1.35078C43.2746 1.40275 43.0043 1.55784 43.0043 1.81525C43.0043 1.86722 43.0546 2.01013 43.1569 2.24398C43.2608 2.47622 43.597 2.82456 44.167 3.28984L53.0438 10.692V5.65439C53.0438 5.08517 53.0113 4.54925 52.9464 4.04663C52.8814 3.54237 52.758 3.10308 52.5761 2.72794C52.3958 2.35117 52.1384 2.04098 51.8031 1.79576C51.4669 1.55135 51.0146 1.40275 50.4454 1.35078V1H58.0815V1.35078C57.5114 1.42874 57.0592 1.59032 56.7238 1.83474C56.3876 2.07996 56.1359 2.38933 55.967 2.76366C55.7998 3.13881 55.6909 3.55212 55.639 4.0044C55.587 4.4575 55.561 4.92927 55.561 5.42053V21.8554C55.561 22.423 55.587 22.9459 55.639 23.4242C55.6909 23.9033 55.8062 24.3296 55.9865 24.7039C56.1684 25.0791 56.4266 25.3957 56.7628 25.6556C57.0981 25.9138 57.5374 26.0811 58.0815 26.159V26.5066H50.4454V26.159C50.9886 26.0811 51.4344 25.9333 51.7836 25.714C52.1319 25.4932 52.3958 25.209 52.5761 24.8598C52.758 24.5115 52.8814 24.1047 52.9464 23.6386C53.0113 23.1733 53.0438 22.6439 53.0438 22.0503V17.9026C53.0438 17.5153 53.0243 17.1864 52.9854 16.9152C52.9464 16.6424 52.8489 16.3777 52.693 16.1194C52.5388 15.8596 52.3195 15.5884 52.0337 15.3042C51.7495 15.0208 51.3752 14.6855 50.9099 14.2973L38.6617 4.10184V21.8554C38.6617 22.3995 38.6877 22.9232 38.7396 23.4275C38.7916 23.9301 38.9069 24.3751 39.0872 24.7624C39.269 25.1505 39.5273 25.4672 39.8634 25.714C40.1988 25.9593 40.6381 26.1071 41.1821 26.159V26.5066H33.624V26.159C34.1908 26.0811 34.6423 25.9203 34.9784 25.6751C35.3162 25.4282 35.568 25.118 35.7352 24.7429C35.9041 24.3686 36.0129 23.9552 36.0633 23.5022C36.1152 23.0499 36.1412 22.5789 36.1412 22.0893V5.65439C36.1412 5.13714 36.1152 4.63939 36.0633 4.16031C36.0129 3.68204 35.8976 3.24924 35.7157 2.8611C35.5355 2.47378 35.2838 2.14492 34.959 1.87371C34.6358 1.60332 34.1908 1.42874 33.624 1.35078V1H43.8163Z" fill="#081032"/>
<path d="M68.3904 14.375L66.7632 18.7143C66.7112 18.6624 66.5683 18.599 66.3344 18.5227C66.1022 18.4447 65.7409 18.4058 65.2496 18.4058H61.4917C60.5863 18.4058 59.9594 18.4837 59.6111 18.6396C59.2619 18.7939 58.9842 19.0513 58.7763 19.4127H58.4678L60.095 15.0701C60.147 15.122 60.2623 15.187 60.4426 15.265C60.6244 15.3429 60.9996 15.3819 61.5696 15.3819H65.3276C66.2061 15.3819 66.833 15.2926 67.2081 15.1123C67.5825 14.9304 67.874 14.6852 68.0819 14.375H68.3904Z" fill="#081032"/>
<path d="M79.0096 1V1.35078C78.468 1.40275 78.1976 1.55784 78.1976 1.81525C78.1976 1.86722 78.248 2.01013 78.3503 2.24398C78.4542 2.47622 78.7904 2.82456 79.3604 3.28984L88.2372 10.692V5.65439C88.2372 5.08517 88.2047 4.54925 88.1397 4.04663C88.0748 3.54237 87.9514 3.10308 87.7695 2.72794C87.5892 2.35117 87.3318 2.04098 86.9964 1.79576C86.6603 1.55135 86.208 1.40275 85.6388 1.35078V1H93.2748V1.35078C92.7048 1.42874 92.2525 1.59032 91.9172 1.83474C91.581 2.07996 91.3293 2.38933 91.1604 2.76366C90.9931 3.13881 90.8843 3.55212 90.8323 4.0044C90.7804 4.4575 90.7544 4.92927 90.7544 5.42053V21.8554C90.7544 22.423 90.7804 22.9459 90.8323 23.4242C90.8843 23.9033 90.9996 24.3296 91.1799 24.7039C91.3618 25.0791 91.62 25.3957 91.9561 25.6556C92.2915 25.9138 92.7308 26.0811 93.2748 26.159V26.5066H85.6388V26.159C86.182 26.0811 86.6278 25.9333 86.977 25.714C87.3253 25.4932 87.5892 25.209 87.7695 24.8598C87.9514 24.5115 88.0748 24.1047 88.1397 23.6386C88.2047 23.1733 88.2372 22.6439 88.2372 22.0503V17.9026C88.2372 17.5153 88.2177 17.1864 88.1787 16.9152C88.1397 16.6424 88.0423 16.3777 87.8864 16.1194C87.7321 15.8596 87.5129 15.5884 87.2271 15.3042C86.9429 15.0208 86.5685 14.6855 86.1032 14.2973L73.855 4.10184V21.8554C73.855 22.3995 73.881 22.9232 73.933 23.4275C73.985 23.9301 74.1003 24.3751 74.2805 24.7624C74.4624 25.1505 74.7206 25.4672 75.0568 25.714C75.3921 25.9593 75.8314 26.1071 76.3755 26.159V26.5066H68.8174V26.159C69.3842 26.0811 69.8356 25.9203 70.1718 25.6751C70.5096 25.4282 70.7613 25.118 70.9286 24.7429C71.0975 24.3686 71.2063 23.9552 71.2566 23.5022C71.3086 23.0499 71.3346 22.5789 71.3346 22.0893V5.65439C71.3346 5.13714 71.3086 4.63939 71.2566 4.16031C71.2063 3.68204 71.091 3.24924 70.9091 2.8611C70.7288 2.47378 70.4771 2.14492 70.1523 1.87371C69.8291 1.60332 69.3842 1.42874 68.8174 1.35078V1H79.0096Z" fill="#081032"/>
<path d="M108.041 2.51701C106.646 2.51701 105.438 2.80852 104.416 3.39072C103.396 3.9713 102.557 4.73377 101.899 5.67731C101.24 6.61923 100.756 7.67808 100.444 8.85386C100.134 10.0296 99.9793 11.2249 99.9793 12.4397C99.9793 13.8866 100.192 15.3531 100.619 16.8407C101.045 18.3267 101.679 19.6762 102.519 20.891C103.359 22.1041 104.392 23.0923 105.618 23.8564C106.846 24.6188 108.273 24.9997 109.902 24.9997C111.247 24.9997 112.435 24.7285 113.468 24.1844C114.503 23.6412 115.369 22.9177 116.067 22.0148C116.763 21.1102 117.286 20.0757 117.635 18.9129C117.984 17.7501 118.158 16.5354 118.158 15.2687C118.158 13.5626 117.893 11.9411 117.363 10.4032C116.834 8.86604 116.11 7.50919 115.193 6.33341C114.277 5.15763 113.205 4.22789 111.977 3.54338C110.75 2.85967 109.437 2.51701 108.041 2.51701ZM95.3281 13.8363C95.3281 11.8989 95.683 10.1157 96.3935 8.48684C97.1032 6.85878 98.0727 5.44995 99.3004 4.26119C100.528 3.07242 101.969 2.14917 103.624 1.49064C105.278 0.830484 107.061 0.5 108.973 0.5C110.936 0.5 112.764 0.83698 114.456 1.51013C116.149 2.18165 117.616 3.11789 118.857 4.31965C120.097 5.52141 121.066 6.95621 121.764 8.62325C122.46 10.2887 122.809 12.1165 122.809 14.1059C122.809 15.9922 122.434 17.7233 121.686 19.2994C120.936 20.8763 119.922 22.2389 118.642 23.3887C117.364 24.5385 115.892 25.4308 114.225 26.065C112.557 26.6968 110.819 27.0134 109.012 27.0134C106.762 27.0134 104.784 26.6188 103.078 25.8312C101.373 25.0435 99.9468 24.0172 98.797 22.7521C97.6472 21.4853 96.7808 20.0708 96.1986 18.5069C95.618 16.9438 95.3281 15.3872 95.3281 13.8363Z" fill="#081032"/>
<path d="M133.042 1V1.35078C132.37 1.40275 131.885 1.55784 131.586 1.81525C131.289 2.07346 131.141 2.42181 131.141 2.8611C131.141 3.37916 131.302 3.96786 131.625 4.62802C131.948 5.28655 132.278 5.88662 132.616 6.42741L136.296 12.3193L139.671 6.77819C140.186 5.95158 140.637 5.17612 141.025 4.45263C141.412 3.72751 141.607 3.10714 141.607 2.59152C141.607 1.84286 141.038 1.42874 139.901 1.35078V1H147.42V1.35078C146.983 1.42874 146.595 1.53917 146.258 1.68208C145.921 1.82337 145.612 2.02962 145.329 2.30245C145.045 2.57366 144.754 2.90901 144.455 3.30933C144.158 3.70802 143.829 4.20497 143.468 4.80016L137.306 14.7228V21.8944C137.306 22.488 137.337 23.0369 137.4 23.5411C137.465 24.0462 137.581 24.492 137.748 24.8793C137.917 25.2674 138.168 25.5711 138.505 25.792C138.842 26.0112 139.282 26.133 139.823 26.159V26.5066H130.521V26.159C131.09 26.1071 131.536 25.9658 131.859 25.7335C132.182 25.4997 132.433 25.209 132.613 24.8598C132.795 24.5115 132.912 24.1047 132.964 23.6386C133.016 23.1733 133.042 22.669 133.042 22.125V14.7228L126.451 4.3357C126.245 4.00034 126.032 3.66499 125.811 3.32882C125.592 2.99102 125.347 2.68084 125.074 2.39664C124.803 2.11325 124.494 1.88183 124.145 1.70157C123.796 1.51968 123.416 1.40275 123.002 1.35078V1H133.042Z" fill="#081032"/>
<path d="M148.156 6.84827C148.156 5.71147 148.401 4.73707 148.893 3.92507C149.384 3.11144 150.018 2.43911 150.793 1.90806C151.568 1.37782 152.427 0.990496 153.369 0.745272C154.312 0.498424 155.224 0.375 156.104 0.375C156.903 0.375 157.612 0.433464 158.231 0.550392C158.852 0.66732 159.448 0.790744 160.018 0.920664C160.405 1.02298 160.837 1.11879 161.314 1.20974C161.792 1.30068 162.29 1.34615 162.808 1.34615C163.143 1.34615 163.413 1.29418 163.62 1.19025C163.827 1.08631 164.035 0.906048 164.243 0.647832L165.793 8.36184L165.484 8.43979C165.172 7.53522 164.725 6.72078 164.143 5.99729C163.562 5.27461 162.89 4.65424 162.129 4.13619C161.366 3.61894 160.539 3.21863 159.647 2.93443C158.757 2.65104 157.846 2.50894 156.916 2.50894C156.374 2.50894 155.812 2.5609 155.23 2.66484C154.647 2.76715 154.123 2.94092 153.658 3.18777C153.194 3.43299 152.807 3.76185 152.495 4.17516C152.185 4.58928 152.031 5.10571 152.031 5.72446C152.031 5.9843 152.076 6.23115 152.167 6.465C152.258 6.69723 152.451 6.92866 152.749 7.16008C153.045 7.39231 153.452 7.62454 153.97 7.8584C154.487 8.09063 155.172 8.33504 156.026 8.59244L161.567 10.2619C162.549 10.5721 163.467 10.9529 164.318 11.4052C165.171 11.8583 165.907 12.3942 166.527 13.013C167.148 13.6325 167.633 14.343 167.982 15.1437C168.33 15.9451 168.505 16.8505 168.505 17.859C168.505 19.3579 168.259 20.675 167.767 21.8118C167.278 22.9486 166.58 23.9051 165.676 24.6798C164.773 25.4553 163.675 26.0366 162.382 26.424C161.089 26.8113 159.642 27.0054 158.04 27.0054C157.212 27.0054 156.443 26.9404 155.733 26.8105C155.023 26.6822 154.357 26.5417 153.736 26.3882C153.116 26.2323 152.541 26.0894 152.011 25.9595C151.483 25.8296 150.986 25.7646 150.52 25.7646C150.236 25.7646 149.978 25.8361 149.744 25.979C149.512 26.1219 149.332 26.2835 149.202 26.4629L146.954 16.7742L147.302 16.6572C147.639 17.768 148.111 18.8155 148.718 19.798C149.326 20.7789 150.056 21.638 150.907 22.3737C151.76 23.1102 152.723 23.6916 153.794 24.1179C154.868 24.545 156.037 24.7577 157.302 24.7577C159.706 24.7577 161.528 24.3063 162.769 23.4033C164.009 22.4988 164.63 21.1671 164.63 19.4083C164.63 18.6077 164.468 17.9296 164.146 17.375C163.823 16.8188 163.403 16.36 162.886 15.9979C162.367 15.6365 161.78 15.3337 161.122 15.0884C160.463 14.8416 159.811 14.6159 159.163 14.4096L154.009 12.8181C153.285 12.5867 152.574 12.3293 151.875 12.0451C151.177 11.7592 150.55 11.3914 149.994 10.9407C149.44 10.4885 148.995 9.93306 148.659 9.27452C148.323 8.61437 148.156 7.80562 148.156 6.84827Z" fill="#081032"/>
</g>
<mask id="mask1_1953_2" style="mask-type:luminance" maskUnits="userSpaceOnUse" x="24" y="31" width="122" height="17">
<path d="M145.095 31.8047H24.7373V47.603H145.095V31.8047Z" fill="white"/>
</mask>
<g mask="url(#mask1_1953_2)">
<path d="M34.1757 41.2491C33.846 42.1025 33.306 42.787 32.5549 43.3018C31.7965 43.8329 30.965 44.0976 30.0605 44.0976C28.8303 44.0976 27.7804 43.6453 26.9099 42.7399C26.0541 41.8499 25.627 40.783 25.627 39.5374C25.627 38.9186 25.7406 38.3291 25.968 37.7705C26.1929 37.2232 26.5072 36.7392 26.9099 36.3186C27.7804 35.414 28.8303 34.9609 30.0605 34.9609C30.965 34.9609 31.7925 35.2175 32.5419 35.7307C33.2906 36.2553 33.8314 36.939 34.1627 37.7835H33.1591C32.6784 36.9049 31.9622 36.321 31.0121 36.0328C30.7003 35.9467 30.3382 35.9029 29.9273 35.9029C29.5181 35.9029 29.0999 35.9987 28.6736 36.1887C28.2465 36.3901 27.8762 36.6564 27.5628 36.9877C26.8823 37.6941 26.5429 38.5435 26.5429 39.5374C26.5429 40.5207 26.8823 41.3652 27.5628 42.0708C28.2513 42.7943 29.0836 43.1556 30.0605 43.1556C30.7206 43.1556 31.3304 42.9819 31.8891 42.6327C32.4388 42.2844 32.8667 41.8232 33.1721 41.2491H34.1757Z" fill="#081032"/>
<path d="M36.4628 43.052H39.6394V43.9679H35.5469V35.0781H36.4628V43.052Z" fill="#081032"/>
<path d="M46.1602 43.9679H40.8789V35.0781H46.1602V35.9291H41.7948V39.0927H46.0302V39.9534H41.7948V43.1169H46.1602V43.9679Z" fill="#081032"/>
<path d="M49.5574 40.7049H52.7859L51.1782 36.6124L49.5574 40.7049ZM55.0725 43.9724H54.0786L53.1237 41.5526H49.2164L48.2615 43.9724H47.2676L51.1782 34.4688L55.0725 43.9724Z" fill="#081032"/>
<path d="M57.0986 37.4161V43.9673H56.1826V34.5156L61.1748 41.6158V35.0775H62.0907V44.5162L57.0986 37.4161Z" fill="#081032"/>
<path d="M64.9657 43.9679H64.0498V35.0781H64.9657V43.9679Z" fill="#081032"/>
<path d="M67.8407 37.4161V43.9673H66.9248V34.5156L71.917 41.6158V35.0775H72.8329V44.5162L67.8407 37.4161Z" fill="#081032"/>
<path d="M83.5653 39.8153L83.4711 40.3642C83.2803 41.445 82.7533 42.3341 81.8893 43.0308C81.027 43.7283 80.0558 44.0767 78.9758 44.0767C78.3474 44.0767 77.7546 43.9557 77.1959 43.7129C76.6389 43.4774 76.1566 43.1502 75.7473 42.732C75.3267 42.3211 75.0003 41.8372 74.7664 41.2801C74.5212 40.7215 74.3994 40.1239 74.3994 39.4872C74.3994 38.862 74.5212 38.2692 74.7664 37.7106C75.0003 37.1519 75.3267 36.6639 75.7473 36.2457C76.1566 35.8365 76.6389 35.5101 77.1959 35.2648C77.7546 35.031 78.3173 34.9141 78.8849 34.9141C79.9478 34.9141 80.884 35.2145 81.6944 35.8138C82.5129 36.4163 83.07 37.2096 83.3671 38.1945H82.3992C82.1215 37.4719 81.6733 36.897 81.0546 36.4699C80.4261 36.0411 79.7334 35.8268 78.9758 35.8268C77.9641 35.8268 77.1018 36.184 76.3872 36.8986C75.6726 37.6156 75.3154 38.4787 75.3154 39.4872C75.3154 40.4901 75.6726 41.3532 76.3872 42.0759C77.0928 42.7994 77.956 43.1607 78.9758 43.1607C79.7765 43.1607 80.5089 42.9301 81.1715 42.4689C81.8252 41.9996 82.2831 41.3808 82.5454 40.6143H78.9369V39.8153H83.5653Z" fill="#081032"/>
<path d="M91.1298 39.7764C89.315 39.359 88.408 38.5836 88.408 37.4508C88.408 36.6129 88.7003 35.9852 89.2849 35.567C89.8696 35.1577 90.5533 34.9531 91.3377 34.9531C93.0721 34.9531 94.1001 35.5979 94.4233 36.8857H93.4294C93.254 36.1192 92.5565 35.7359 91.3377 35.7359C90.4843 35.7359 89.8874 35.9892 89.548 36.4959C89.4157 36.6867 89.3499 36.9263 89.3499 37.2137C89.3499 37.7643 89.6463 38.1873 90.2399 38.4837C90.5192 38.6315 91.1111 38.8231 92.0165 39.0586C92.9235 39.2925 93.582 39.5539 93.9913 39.8414C94.5581 40.2425 94.8423 40.8044 94.8423 41.5271C94.8423 42.426 94.4891 43.1056 93.7834 43.5668C93.1899 43.9501 92.4566 44.1417 91.5845 44.1417C89.6162 44.1417 88.4746 43.3931 88.1611 41.8941H89.246C89.41 42.836 90.1895 43.307 91.5845 43.307C92.5784 43.307 93.2711 43.0325 93.6632 42.482C93.8208 42.266 93.9004 41.9688 93.9004 41.592C93.9004 41.2266 93.7558 40.9262 93.4684 40.6923C93.0591 40.361 92.2796 40.0557 91.1298 39.7764Z" fill="#081032"/>
<path d="M101.441 43.9679H96.1602V35.0781H101.441V35.9291H97.0761V39.0927H101.311V39.9534H97.0761V43.1169H101.441V43.9679Z" fill="#081032"/>
<path d="M104.316 39.5766H106.382C106.895 39.5766 107.317 39.4028 107.649 39.0537C107.988 38.6964 108.159 38.2563 108.159 37.7317C108.159 37.2186 107.997 36.7923 107.675 36.452C107.352 36.1207 106.921 35.9551 106.382 35.9551H104.316V39.5766ZM109.075 37.7577C109.075 38.5332 108.799 39.1787 108.25 39.6935C107.762 40.1466 107.175 40.3943 106.486 40.4373L109.218 43.9679H107.99L105.388 40.4503H104.316V43.9679H103.4V35.0781H106.249C107.043 35.0781 107.71 35.3266 108.25 35.8219C108.799 36.3465 109.075 36.9912 109.075 37.7577Z" fill="#081032"/>
<path d="M113.7 44.5038L109.659 35.0781H110.653L113.7 42.2432L116.733 35.0781H117.727L113.7 44.5038Z" fill="#081032"/>
<path d="M119.75 43.9679H118.834V35.0781H119.75V43.9679Z" fill="#081032"/>
<path d="M129.865 41.2491C129.535 42.1025 128.995 42.787 128.244 43.3018C127.486 43.8329 126.654 44.0976 125.75 44.0976C124.52 44.0976 123.47 43.6453 122.599 42.7399C121.744 41.8499 121.316 40.783 121.316 39.5374C121.316 38.9186 121.43 38.3291 121.657 37.7705C121.882 37.2232 122.197 36.7392 122.599 36.3186C123.47 35.414 124.52 34.9609 125.75 34.9609C126.654 34.9609 127.482 35.2175 128.231 35.7307C128.98 36.2553 129.521 36.939 129.852 37.7835H128.849C128.368 36.9049 127.652 36.321 126.702 36.0328C126.39 35.9467 126.028 35.9029 125.617 35.9029C125.208 35.9029 124.789 35.9987 124.363 36.1887C123.936 36.3901 123.566 36.6564 123.252 36.9877C122.572 37.6941 122.232 38.5435 122.232 39.5374C122.232 40.5207 122.572 41.3652 123.252 42.0708C123.941 42.7943 124.773 43.1556 125.75 43.1556C126.41 43.1556 127.02 42.9819 127.579 42.6327C128.128 42.2844 128.556 41.8232 128.862 41.2491H129.865Z" fill="#081032"/>
<path d="M136.518 43.9679H131.236V35.0781H136.518V35.9291H132.152V39.0927H136.388V39.9534H132.152V43.1169H136.518V43.9679Z" fill="#081032"/>
<path d="M140.948 39.7764C139.133 39.359 138.226 38.5836 138.226 37.4508C138.226 36.6129 138.519 35.9852 139.103 35.567C139.688 35.1577 140.372 34.9531 141.156 34.9531C142.89 34.9531 143.918 35.5979 144.242 36.8857H143.248C143.072 36.1192 142.375 35.7359 141.156 35.7359C140.303 35.7359 139.706 35.9892 139.366 36.4959C139.234 36.6867 139.168 36.9263 139.168 37.2137C139.168 37.7643 139.465 38.1873 140.058 38.4837C140.338 38.6315 140.929 38.8231 141.835 39.0586C142.742 39.2925 143.4 39.5539 143.81 39.8414C144.376 40.2425 144.661 40.8044 144.661 41.5271C144.661 42.426 144.307 43.1056 143.602 43.5668C143.008 43.9501 142.275 44.1417 141.403 44.1417C139.435 44.1417 138.293 43.3931 137.979 41.8941H139.064C139.228 42.836 140.008 43.307 141.403 43.307C142.397 43.307 143.089 43.0325 143.482 42.482C143.639 42.266 143.719 41.9688 143.719 41.592C143.719 41.2266 143.574 40.9262 143.287 40.6923C142.877 40.361 142.098 40.0557 140.948 39.7764Z" fill="#081032"/>
</g>
</svg>
