<svg width="428" height="411" viewBox="0 0 428 411" fill="none" xmlns="http://www.w3.org/2000/svg">
<mask id="mask0_1497_238" style="mask-type:luminance" maskUnits="userSpaceOnUse" x="0" y="334" width="25" height="17">
<path d="M0 334.427H24.526V350.427H0V334.427Z" fill="white"/>
</mask>
<g mask="url(#mask0_1497_238)">
<path d="M0.579861 349.713C0.402779 349.713 0.225695 349.624 0.131945 349.458C-0.00868074 349.213 0.0694446 348.895 0.319445 348.754L23.5799 335.182C23.8247 335.041 24.1424 335.124 24.283 335.369C24.4236 335.614 24.3455 335.932 24.0955 336.072L0.83507 349.645C0.756944 349.687 0.663195 349.713 0.579861 349.713Z" fill="#737373"/>
</g>
<path d="M132.795 349.964C132.706 349.964 132.618 349.943 132.534 349.896L123.243 344.38C122.998 344.24 122.92 343.922 123.066 343.677C123.211 343.432 123.524 343.349 123.769 343.495L133.06 349.01C133.305 349.151 133.383 349.469 133.243 349.714C133.144 349.875 132.972 349.964 132.795 349.964Z" fill="#737373"/>
<path d="M113.438 338.48C113.349 338.48 113.261 338.459 113.177 338.407L92.641 326.224C92.3962 326.079 92.3128 325.761 92.4587 325.516C92.6045 325.271 92.917 325.193 93.167 325.339L113.703 337.521C113.948 337.667 114.026 337.985 113.881 338.23C113.787 338.391 113.615 338.48 113.438 338.48Z" fill="#737373"/>
<path d="M80.0108 318.604C79.9222 318.604 79.8337 318.583 79.7503 318.531L66.8753 310.854C66.6305 310.708 66.5472 310.391 66.693 310.146C66.8389 309.901 67.1566 309.823 67.4014 309.969L80.2764 317.646C80.5212 317.797 80.6045 318.109 80.4535 318.354C80.3597 318.516 80.1878 318.604 80.0108 318.604Z" fill="#737373"/>
<path d="M37.3522 328.271C37.1751 328.271 37.0032 328.183 36.9042 328.016C36.7636 327.771 36.8469 327.453 37.0917 327.313L56.8469 315.808C57.0917 315.667 57.4094 315.75 57.5501 315.995C57.6907 316.24 57.6074 316.552 57.3626 316.698L37.6126 328.203C37.5292 328.25 37.4407 328.271 37.3522 328.271Z" fill="#737373"/>
<path d="M66.3984 409.328C66.3099 409.328 66.2214 409.307 66.1432 409.26C65.9818 409.172 65.8828 409 65.8828 408.817V387.521C65.8828 387.338 65.9818 387.166 66.1432 387.078L84.013 376.828C84.2578 376.687 84.5755 376.771 84.7161 377.021C84.8568 377.265 84.7682 377.583 84.5234 377.724L66.9141 387.823V407.911L132.284 369.349V350.338L100.242 368.708C99.9974 368.849 99.6797 368.765 99.5391 368.521C99.3984 368.276 99.487 367.958 99.7318 367.817L132.539 349.005C132.701 348.911 132.898 348.911 133.055 349.005C133.216 349.099 133.315 349.265 133.315 349.453V369.646C133.315 369.823 133.216 369.994 133.06 370.088L66.6589 409.255C66.5807 409.307 66.487 409.328 66.3984 409.328Z" fill="#737373"/>
<mask id="mask1_1497_238" style="mask-type:luminance" maskUnits="userSpaceOnUse" x="0" y="347" width="68" height="64">
<path d="M0 347.761H67.1927V410.427H0V347.761Z" fill="white"/>
</mask>
<g mask="url(#mask1_1497_238)">
<path d="M1.08854 369.542L65.8854 407.912V387.818L1.08854 350.094V369.542ZM66.401 409.329C66.3073 409.329 66.2188 409.308 66.1354 409.256L0.3125 370.277C0.156249 370.183 0.0625 370.016 0.0625 369.834V349.199C0.0625 349.016 0.15625 348.844 0.317708 348.756C0.479167 348.662 0.677083 348.662 0.833333 348.756L66.6615 387.079C66.8177 387.173 66.9167 387.339 66.9167 387.521V408.818C66.9167 409.001 66.8177 409.173 66.6563 409.261C66.5729 409.308 66.4896 409.329 66.401 409.329Z" fill="#737373"/>
</g>
<path d="M132.797 314.494C132.709 314.494 132.62 314.474 132.537 314.422L111.438 301.963C111.193 301.823 111.115 301.505 111.261 301.26C111.401 301.015 111.719 300.932 111.964 301.078L133.063 313.536C133.308 313.682 133.391 313.994 133.245 314.244C133.146 314.406 132.974 314.494 132.797 314.494Z" fill="#737373"/>
<path d="M98.3311 294.062C98.2426 294.062 98.1541 294.041 98.0707 293.989L76.7582 281.281C76.5134 281.13 76.4353 280.817 76.5811 280.573C76.727 280.328 77.0395 280.25 77.2843 280.396L98.5968 293.104C98.8416 293.25 98.9197 293.567 98.7739 293.812C98.6801 293.974 98.5082 294.062 98.3311 294.062Z" fill="#737373"/>
<path d="M38.1434 292.349C37.9663 292.349 37.7944 292.255 37.7007 292.094C37.5548 291.849 37.6382 291.531 37.8882 291.385L66.8725 274.495C67.1225 274.349 67.435 274.432 67.5809 274.682C67.7215 274.927 67.6382 275.239 67.3934 275.385L38.4038 292.276C38.3205 292.328 38.2319 292.349 38.1434 292.349Z" fill="#737373"/>
<mask id="mask2_1497_238" style="mask-type:luminance" maskUnits="userSpaceOnUse" x="0" y="298" width="26" height="17">
<path d="M0 298.427H25.8594V314.427H0V298.427Z" fill="white"/>
</mask>
<g mask="url(#mask2_1497_238)">
<path d="M0.579861 314.244C0.402779 314.244 0.225695 314.15 0.131945 313.984C-0.00868074 313.739 0.0694446 313.426 0.319445 313.281L24.3403 299.286C24.5851 299.14 24.9028 299.223 25.0434 299.468C25.1892 299.713 25.1059 300.031 24.8559 300.171L0.83507 314.171C0.756944 314.218 0.663195 314.244 0.579861 314.244Z" fill="#737373"/>
</g>
<path d="M66.3984 373.86C66.3099 373.86 66.2214 373.834 66.1432 373.792C65.9818 373.703 65.8828 373.532 65.8828 373.344V352.052C65.8828 351.87 65.9818 351.698 66.1432 351.605L107.284 328.016C107.534 327.87 107.846 327.959 107.987 328.203C108.128 328.453 108.044 328.766 107.799 328.907L66.9141 352.349V372.443L132.284 333.881V314.87L120.143 321.828C119.898 321.969 119.581 321.886 119.44 321.641C119.299 321.391 119.383 321.078 119.633 320.938L132.539 313.532C132.701 313.443 132.898 313.443 133.055 313.537C133.216 313.625 133.315 313.797 133.315 313.98V334.172C133.315 334.355 133.216 334.521 133.06 334.615L66.6589 373.787C66.5807 373.834 66.487 373.86 66.3984 373.86Z" fill="#737373"/>
<mask id="mask3_1497_238" style="mask-type:luminance" maskUnits="userSpaceOnUse" x="0" y="313" width="68" height="62">
<path d="M0 313.094H67.1927V374.427H0V313.094Z" fill="white"/>
</mask>
<g mask="url(#mask3_1497_238)">
<path d="M66.401 373.859C66.3073 373.859 66.2188 373.833 66.1354 373.786L34.9896 355.339C34.7448 355.198 34.6615 354.88 34.8073 354.635C34.9531 354.391 35.2656 354.307 35.5104 354.453L65.8854 372.443V352.349L1.08854 314.625V334.068L24.4427 347.901C24.6875 348.047 24.7708 348.359 24.625 348.604C24.4792 348.849 24.1667 348.932 23.9219 348.786L0.3125 334.807C0.156249 334.714 0.0625 334.547 0.0625 334.359V313.729C0.0625 313.547 0.15625 313.375 0.317708 313.281C0.479167 313.187 0.677083 313.187 0.833333 313.281L66.6615 351.604C66.8177 351.698 66.9167 351.87 66.9167 352.052V373.344C66.9167 373.531 66.8177 373.703 66.6563 373.792C66.5729 373.833 66.4896 373.859 66.401 373.859Z" fill="#737373"/>
</g>
<path d="M132.769 279.13C132.675 279.13 132.586 279.109 132.503 279.057L113.946 267.989C113.701 267.849 113.623 267.531 113.769 267.286C113.914 267.041 114.232 266.963 114.477 267.104L133.029 278.172C133.274 278.323 133.357 278.635 133.211 278.88C133.112 279.041 132.941 279.13 132.769 279.13Z" fill="#737373"/>
<path d="M114.213 268.062C114.124 268.062 114.031 268.041 113.947 267.989L95.3379 256.89C95.0931 256.745 95.015 256.427 95.1556 256.182C95.3014 255.937 95.6191 255.859 95.8639 256.005L114.478 267.104C114.723 267.255 114.801 267.567 114.656 267.812C114.562 267.974 114.39 268.062 114.213 268.062Z" fill="#737373"/>
<path d="M84.0628 250.079C83.9743 250.079 83.8805 250.058 83.7972 250.006L66.8753 239.912C66.6305 239.766 66.5472 239.448 66.693 239.204C66.8389 238.959 67.1566 238.881 67.4014 239.026L84.3285 249.12C84.5733 249.266 84.6514 249.584 84.5055 249.829C84.4066 249.99 84.2399 250.079 84.0628 250.079Z" fill="#737373"/>
<path d="M35.274 258.552C35.0969 258.552 34.9251 258.459 34.8261 258.297C34.6855 258.052 34.7688 257.735 35.0136 257.589L54.5344 246.214C54.7792 246.073 55.0969 246.157 55.2376 246.401C55.3834 246.646 55.3001 246.964 55.0553 247.104L35.5344 258.479C35.4511 258.532 35.3626 258.552 35.274 258.552Z" fill="#737373"/>
<mask id="mask4_1497_238" style="mask-type:luminance" maskUnits="userSpaceOnUse" x="0" y="265" width="21" height="15">
<path d="M0 265.094H20.526V279.76H0V265.094Z" fill="white"/>
</mask>
<g mask="url(#mask4_1497_238)">
<path d="M0.579861 278.77C0.402779 278.77 0.225695 278.682 0.131945 278.515C-0.00868074 278.27 0.0694446 277.953 0.319445 277.812L19.7465 266.489C19.9913 266.349 20.309 266.432 20.4497 266.677C20.5955 266.921 20.5069 267.234 20.2622 267.38L0.83507 278.703C0.756944 278.75 0.663195 278.77 0.579861 278.77Z" fill="#737373"/>
</g>
<path d="M125.461 303.542C125.284 303.542 125.112 303.453 125.019 303.292C124.873 303.047 124.956 302.729 125.201 302.589L132.284 298.406V279.401L94.6279 300.99C94.3831 301.125 94.0706 301.042 93.93 300.797C93.7842 300.547 93.8727 300.234 94.1175 300.094L132.539 278.062C132.701 277.969 132.899 277.969 133.055 278.062C133.216 278.156 133.315 278.328 133.315 278.51V298.703C133.315 298.885 133.216 299.052 133.06 299.146L125.722 303.474C125.638 303.521 125.55 303.542 125.461 303.542Z" fill="#737373"/>
<path d="M66.3984 338.39C66.3099 338.39 66.2214 338.364 66.1432 338.323C65.9818 338.229 65.8828 338.057 65.8828 337.869V316.578C65.8828 316.395 65.9818 316.224 66.1432 316.135L78.6849 308.942C78.9297 308.802 79.2474 308.885 79.388 309.13C79.5286 309.38 79.4453 309.692 79.1953 309.833L66.9141 316.88V336.968L113.07 309.744C113.315 309.599 113.628 309.677 113.773 309.921C113.919 310.166 113.836 310.484 113.591 310.63L66.6589 338.317C66.5807 338.364 66.487 338.39 66.3984 338.39Z" fill="#737373"/>
<mask id="mask5_1497_238" style="mask-type:luminance" maskUnits="userSpaceOnUse" x="0" y="277" width="68" height="62">
<path d="M0 277.094H67.1927V338.427H0V277.094Z" fill="white"/>
</mask>
<g mask="url(#mask5_1497_238)">
<path d="M1.08854 298.599L65.8854 336.968V316.875L1.08854 279.151V298.599ZM66.401 338.39C66.3073 338.39 66.2188 338.364 66.1354 338.317L0.3125 299.333C0.156249 299.244 0.0625 299.073 0.0625 298.89V278.255C0.0625 278.073 0.15625 277.901 0.317708 277.807C0.479167 277.718 0.677083 277.718 0.833333 277.812L66.6615 316.135C66.8177 316.229 66.9167 316.396 66.9167 316.578V337.869C66.9167 338.057 66.8177 338.229 66.6563 338.323C66.5729 338.364 66.4896 338.39 66.401 338.39Z" fill="#737373"/>
</g>
<path d="M40.6291 219.953C40.452 219.953 40.2749 219.859 40.1811 219.698C40.0353 219.448 40.1186 219.135 40.3686 218.994L66.8738 203.552C67.0405 203.458 67.2384 203.458 67.3999 203.552L78.4155 210.125C78.6551 210.271 78.7384 210.588 78.5926 210.828C78.4468 211.073 78.1291 211.156 77.8843 211.01L67.1343 204.593L40.8843 219.885C40.8061 219.927 40.7176 219.953 40.6291 219.953Z" fill="#737373"/>
<mask id="mask6_1497_238" style="mask-type:luminance" maskUnits="userSpaceOnUse" x="0" y="226" width="28" height="18">
<path d="M0 226.427H27.1927V243.76H0V226.427Z" fill="white"/>
</mask>
<g mask="url(#mask6_1497_238)">
<path d="M0.579861 243.301C0.402779 243.301 0.225695 243.208 0.131945 243.046C-0.00868074 242.796 0.0694446 242.484 0.319445 242.343L25.3507 227.739C25.5955 227.593 25.908 227.676 26.0538 227.921C26.1997 228.171 26.1163 228.484 25.8663 228.63L0.83507 243.229C0.756944 243.275 0.663195 243.301 0.579861 243.301Z" fill="#737373"/>
</g>
<path d="M132.769 243.662C132.675 243.662 132.586 243.636 132.503 243.589L124.305 238.698C124.06 238.552 123.982 238.24 124.128 237.995C124.274 237.75 124.592 237.672 124.836 237.813L133.029 242.703C133.274 242.849 133.357 243.167 133.211 243.412C133.112 243.573 132.941 243.662 132.769 243.662Z" fill="#737373"/>
<path d="M115.178 233.167C115.089 233.167 115 233.146 114.917 233.094L89.2504 217.787C89.0056 217.641 88.9275 217.323 89.0733 217.084C89.214 216.834 89.5317 216.755 89.7765 216.901L115.443 232.209C115.688 232.36 115.766 232.672 115.62 232.917C115.526 233.078 115.355 233.167 115.178 233.167Z" fill="#737373"/>
<path d="M66.3984 302.917C66.3099 302.917 66.2214 302.896 66.1432 302.849C65.9818 302.755 65.8828 302.589 65.8828 302.401V281.109C65.8828 280.922 65.9818 280.755 66.1432 280.661L97.7266 262.552C97.9766 262.411 98.2891 262.495 98.4297 262.745C98.5703 262.99 98.487 263.302 98.2422 263.448L66.9141 281.406V301.5L132.284 262.938V243.927L111.008 256.125C110.763 256.266 110.451 256.182 110.305 255.932C110.164 255.688 110.253 255.37 110.497 255.229L132.539 242.594C132.701 242.5 132.898 242.5 133.055 242.594C133.216 242.682 133.315 242.854 133.315 243.036V263.229C133.315 263.411 133.216 263.583 133.06 263.672L66.6589 302.844C66.5807 302.891 66.487 302.917 66.3984 302.917Z" fill="#737373"/>
<mask id="mask7_1497_238" style="mask-type:luminance" maskUnits="userSpaceOnUse" x="0" y="241" width="68" height="63">
<path d="M0 241.094H67.1927V303.76H0V241.094Z" fill="white"/>
</mask>
<g mask="url(#mask7_1497_238)">
<path d="M66.401 302.916C66.3073 302.916 66.2188 302.89 66.1354 302.843L48.2708 292.265C48.026 292.119 47.9479 291.802 48.0938 291.562C48.2344 291.312 48.5521 291.234 48.7969 291.38L65.8854 301.494V281.406L1.08854 243.682V263.125L36.6406 284.177C36.8854 284.323 36.9635 284.64 36.8177 284.885C36.6771 285.13 36.3594 285.208 36.1146 285.067L0.3125 263.864C0.156249 263.771 0.0625 263.604 0.0625 263.422V242.786C0.0625 242.599 0.15625 242.432 0.317708 242.338C0.479167 242.25 0.677083 242.25 0.833333 242.343L66.6615 280.666C66.8177 280.755 66.9167 280.927 66.9167 281.109V302.401C66.9167 302.588 66.8177 302.755 66.6563 302.849C66.5729 302.896 66.4896 302.916 66.401 302.916Z" fill="#737373"/>
</g>
<path d="M86.4168 180.541C86.3283 180.541 86.2397 180.521 86.1564 180.468L67.1356 169.125L55.1929 176.078C54.9481 176.224 54.6356 176.14 54.4897 175.89C54.3439 175.646 54.4272 175.328 54.6772 175.187L66.8751 168.083C67.0418 167.989 67.2397 167.989 67.4012 168.083L86.6824 179.583C86.9272 179.729 87.0054 180.047 86.8595 180.291C86.7658 180.453 86.5939 180.541 86.4168 180.541Z" fill="#737373"/>
<path d="M24.2451 194.021C24.068 194.021 23.8962 193.932 23.8024 193.766C23.6566 193.521 23.7399 193.203 23.9847 193.062L41.6618 182.766C41.9066 182.625 42.2243 182.708 42.3649 182.953C42.5108 183.198 42.4274 183.516 42.1826 183.656L24.5055 193.953C24.4222 194 24.3337 194.021 24.2451 194.021Z" fill="#737373"/>
<mask id="mask8_1497_238" style="mask-type:luminance" maskUnits="userSpaceOnUse" x="0" y="198" width="14" height="12">
<path d="M0 198.427H13.8594V209.093H0V198.427Z" fill="white"/>
</mask>
<g mask="url(#mask8_1497_238)">
<path d="M0.579861 207.828C0.402779 207.828 0.225695 207.74 0.131945 207.573C-0.00868074 207.328 0.0694446 207.016 0.319445 206.87L12.9809 199.474C13.2257 199.328 13.5382 199.412 13.684 199.662C13.8299 199.906 13.7465 200.219 13.5017 200.36L0.83507 207.761C0.756944 207.807 0.663195 207.828 0.579861 207.828Z" fill="#737373"/>
</g>
<path d="M132.771 208.192C132.678 208.192 132.589 208.166 132.506 208.12L105.719 192.14C105.474 191.995 105.396 191.677 105.542 191.432C105.688 191.187 106 191.109 106.245 191.255L133.032 207.234C133.276 207.375 133.36 207.698 133.214 207.937C133.115 208.099 132.943 208.192 132.771 208.192Z" fill="#737373"/>
<path d="M66.3984 267.442C66.3099 267.442 66.2214 267.422 66.1432 267.375C65.9818 267.286 65.8828 267.114 65.8828 266.932V245.64C65.8828 245.453 65.9818 245.281 66.1432 245.192L85.1641 234.286C85.4089 234.14 85.7266 234.229 85.8672 234.479C86.0078 234.724 85.9193 235.036 85.6745 235.177L66.9141 245.937V266.031L105.586 243.213C105.831 243.067 106.143 243.151 106.289 243.396C106.435 243.646 106.352 243.958 106.107 244.104L66.6589 267.375C66.5807 267.422 66.487 267.442 66.3984 267.442Z" fill="#737373"/>
<path d="M113.982 239.375C113.805 239.375 113.633 239.282 113.54 239.12C113.394 238.875 113.477 238.563 113.722 238.417L132.284 227.469V208.459L94.0709 230.365C93.8261 230.506 93.5136 230.422 93.3678 230.172C93.2272 229.927 93.3157 229.61 93.5605 229.474L132.54 207.12C132.701 207.032 132.899 207.032 133.055 207.12C133.217 207.214 133.316 207.381 133.316 207.568V227.761C133.316 227.943 133.217 228.11 133.06 228.203L114.248 239.302C114.165 239.349 114.071 239.375 113.982 239.375Z" fill="#737373"/>
<mask id="mask9_1497_238" style="mask-type:luminance" maskUnits="userSpaceOnUse" x="0" y="206" width="68" height="62">
<path d="M0 206.427H67.1927V267.76H0V206.427Z" fill="white"/>
</mask>
<g mask="url(#mask9_1497_238)">
<path d="M66.401 267.442C66.3073 267.442 66.2188 267.421 66.1354 267.374L0.3125 228.39C0.156249 228.301 0.0625 228.13 0.0625 227.947V207.312C0.0625 207.13 0.15625 206.958 0.317708 206.869C0.479167 206.775 0.677083 206.775 0.833333 206.869L37.7656 228.369C38.0104 228.515 38.0938 228.833 37.9531 229.077C37.8073 229.322 37.4948 229.406 37.25 229.26L1.08854 208.208V227.656L65.8854 266.025V245.937L51.5365 237.583C51.2917 237.437 51.2083 237.124 51.349 236.874C51.4948 236.63 51.8073 236.546 52.0573 236.692L66.6615 245.192C66.8177 245.286 66.9167 245.458 66.9167 245.64V266.932C66.9167 267.114 66.8177 267.286 66.6563 267.374C66.5729 267.421 66.4896 267.442 66.401 267.442Z" fill="#737373"/>
</g>
<path d="M214.539 106.057C214.253 106.057 214.023 105.828 214.023 105.542V85.0938C214.023 84.8073 214.253 84.5781 214.539 84.5781C214.826 84.5781 215.055 84.8073 215.055 85.0938V105.542C215.055 105.828 214.826 106.057 214.539 106.057Z" fill="#737373"/>
<path d="M214.539 142.135C214.253 142.135 214.023 141.906 214.023 141.619V121.177C214.023 120.89 214.253 120.661 214.539 120.661C214.82 120.661 215.049 120.89 215.049 121.177V141.619C215.049 141.906 214.82 142.135 214.539 142.135Z" fill="#737373"/>
<path d="M147.218 145.438C147.041 145.438 146.869 145.344 146.775 145.182C146.629 144.932 146.713 144.62 146.957 144.479L214.327 105.24C214.489 105.146 214.692 105.146 214.853 105.245L241.832 121.333C242.077 121.479 242.155 121.797 242.009 122.042C241.864 122.286 241.546 122.365 241.301 122.219L214.582 106.281L147.478 145.365C147.395 145.417 147.306 145.438 147.218 145.438Z" fill="#737373"/>
<path d="M280.749 181.255C280.66 181.255 280.567 181.234 280.483 181.182L214.588 141.875L147.478 180.958C147.233 181.104 146.916 181.021 146.775 180.771C146.629 180.526 146.713 180.213 146.957 180.067L214.332 140.833C214.489 140.739 214.692 140.739 214.853 140.833L281.009 180.297C281.254 180.442 281.338 180.76 281.187 181.005C281.093 181.166 280.921 181.255 280.749 181.255Z" fill="#737373"/>
<path d="M147.218 216.625C147.041 216.625 146.869 216.531 146.775 216.37C146.629 216.125 146.713 215.807 146.957 215.661L211.223 178.234C211.468 178.094 211.78 178.177 211.926 178.422C212.072 178.667 211.989 178.984 211.739 179.125L147.478 216.552C147.395 216.604 147.306 216.625 147.218 216.625Z" fill="#737373"/>
<path d="M147.218 287.808C147.041 287.808 146.869 287.719 146.775 287.558C146.629 287.308 146.713 286.995 146.957 286.849L214.332 247.615C214.577 247.469 214.89 247.552 215.035 247.797C215.176 248.047 215.093 248.36 214.848 248.506L147.478 287.74C147.395 287.787 147.306 287.808 147.218 287.808Z" fill="#737373"/>
<path d="M213.833 306.536C213.745 306.536 213.651 306.515 213.573 306.468L146.958 267.651C146.802 267.557 146.703 267.39 146.703 267.203C146.703 267.02 146.802 266.849 146.958 266.76L203.49 233.838C203.734 233.692 204.047 233.781 204.193 234.026C204.339 234.27 204.25 234.583 204.005 234.729L148.245 267.203L213.833 305.427L280.49 266.984C280.74 266.843 281.052 266.927 281.193 267.172C281.339 267.422 281.255 267.734 281.005 267.875L214.089 306.468C214.01 306.515 213.922 306.536 213.833 306.536Z" fill="#737373"/>
<path d="M214.358 306V326.26L280.264 287.38V268.214L214.358 306ZM213.848 327.677C213.759 327.677 213.671 327.656 213.587 327.609C213.426 327.521 213.332 327.344 213.332 327.161V305.698C213.332 305.516 213.426 305.344 213.587 305.255L280.525 266.875C280.681 266.786 280.879 266.786 281.035 266.875C281.197 266.969 281.296 267.141 281.296 267.323V287.677C281.296 287.859 281.197 288.031 281.04 288.12L214.108 327.604C214.025 327.656 213.936 327.677 213.848 327.677Z" fill="#737373"/>
<path d="M148.008 287.578L213.331 326.261V305.995L148.008 267.964V287.578ZM213.846 327.677C213.753 327.677 213.664 327.651 213.581 327.604L147.227 288.313C147.07 288.219 146.977 288.052 146.977 287.87V267.068C146.977 266.886 147.076 266.714 147.232 266.62C147.393 266.532 147.591 266.532 147.747 266.62L214.102 305.256C214.263 305.344 214.357 305.516 214.357 305.698V327.162C214.357 327.344 214.258 327.521 214.102 327.61C214.018 327.657 213.93 327.677 213.846 327.677Z" fill="#737373"/>
<path d="M148.245 124.183L213.839 162.407L279.734 124.401L214.589 85.542L148.245 124.183ZM213.833 163.516C213.745 163.516 213.651 163.49 213.578 163.443L146.958 124.625C146.802 124.532 146.703 124.365 146.703 124.183C146.703 124 146.802 123.828 146.958 123.74L214.328 84.5003C214.495 84.4066 214.693 84.4066 214.854 84.5055L281.01 123.964C281.172 124.058 281.266 124.23 281.266 124.412C281.266 124.594 281.167 124.761 281.005 124.855L214.089 163.443C214.01 163.49 213.922 163.516 213.833 163.516Z" fill="#737373"/>
<path d="M213.833 270.782C213.745 270.782 213.651 270.761 213.573 270.714L146.958 231.896C146.802 231.802 146.703 231.636 146.703 231.448C146.703 231.266 146.802 231.094 146.958 231.005L203.474 198.089C203.719 197.948 204.036 198.032 204.177 198.276C204.323 198.521 204.24 198.839 203.995 198.979L148.245 231.448L213.833 269.672L279.755 231.657L279.464 231.469C279.224 231.318 279.151 231 279.307 230.761C279.458 230.521 279.776 230.448 280.016 230.599L281.026 231.24C281.177 231.339 281.266 231.505 281.266 231.688C281.26 231.865 281.161 232.032 281.005 232.12L214.089 270.714C214.01 270.761 213.922 270.782 213.833 270.782Z" fill="#737373"/>
<path d="M148.245 195.692L213.833 233.916L279.729 195.911L214.589 157.057L148.245 195.692ZM213.833 235.026C213.745 235.026 213.651 235.005 213.573 234.958L146.958 196.14C146.802 196.047 146.703 195.88 146.703 195.692C146.703 195.51 146.802 195.338 146.958 195.25L214.333 156.01C214.49 155.916 214.693 155.916 214.854 156.015L281.01 195.479C281.167 195.573 281.266 195.739 281.266 195.922C281.26 196.109 281.167 196.276 281.005 196.364L214.089 234.958C214.01 235.005 213.922 235.026 213.833 235.026Z" fill="#737373"/>
<path d="M148.008 180.308L213.331 218.995V198.729L148.008 160.698V180.308ZM213.846 220.412C213.753 220.412 213.664 220.386 213.581 220.339L147.227 181.047C147.07 180.953 146.977 180.782 146.977 180.599V159.802C146.977 159.62 147.076 159.448 147.232 159.354C147.393 159.261 147.591 159.261 147.747 159.354L214.102 197.99C214.263 198.078 214.357 198.25 214.357 198.433V219.896C214.357 220.078 214.258 220.25 214.102 220.344C214.018 220.386 213.93 220.412 213.846 220.412Z" fill="#737373"/>
<path d="M213.833 199.271C213.745 199.271 213.651 199.245 213.573 199.203L146.958 160.385C146.802 160.292 146.703 160.125 146.703 159.938C146.703 159.755 146.802 159.583 146.958 159.495L214.333 120.255C214.49 120.162 214.693 120.167 214.854 120.26L242.094 136.505C242.339 136.656 242.417 136.969 242.276 137.214C242.13 137.458 241.813 137.542 241.568 137.391L214.583 121.297L148.245 159.938L213.833 198.162L280.49 159.719C280.74 159.573 281.052 159.662 281.193 159.906C281.339 160.151 281.25 160.469 281.005 160.609L214.089 199.203C214.01 199.245 213.922 199.271 213.833 199.271Z" fill="#737373"/>
<path d="M214.358 162.979V183.24L280.259 144.36V125.193L214.358 162.979ZM213.848 184.657C213.759 184.657 213.665 184.636 213.587 184.589C213.426 184.495 213.332 184.323 213.332 184.141V162.677C213.332 162.49 213.426 162.323 213.587 162.229L280.525 123.854C280.681 123.761 280.879 123.761 281.035 123.854C281.197 123.948 281.296 124.115 281.296 124.302V144.651C281.296 144.839 281.197 145.006 281.04 145.099L214.108 184.584C214.025 184.631 213.936 184.657 213.848 184.657Z" fill="#737373"/>
<path d="M213.848 291.406V269.942L280.775 231.567V251.922L213.848 291.406Z" fill="white"/>
<path d="M214.358 270.24V290.506L280.264 251.625V232.459L214.358 270.24ZM213.848 291.922C213.759 291.922 213.671 291.901 213.587 291.854C213.426 291.761 213.332 291.589 213.332 291.407V269.943C213.332 269.761 213.426 269.589 213.587 269.495L280.525 231.12C280.681 231.026 280.879 231.026 281.035 231.12C281.197 231.214 281.296 231.386 281.296 231.568V251.922C281.296 252.104 281.197 252.276 281.04 252.365L214.108 291.849C214.025 291.896 213.936 291.922 213.848 291.922Z" fill="#737373"/>
<path d="M213.848 255.651V234.188L280.775 195.812V216.167L213.848 255.651Z" fill="white"/>
<path d="M214.358 234.484V254.75L280.264 215.869V196.698L214.358 234.484ZM213.848 256.166C213.759 256.166 213.671 256.146 213.587 256.099C213.426 256.005 213.332 255.833 213.332 255.651V234.187C213.332 234.005 213.426 233.833 213.587 233.739L280.525 195.364C280.681 195.271 280.879 195.271 281.035 195.364C281.197 195.458 281.296 195.63 281.296 195.812V216.166C281.296 216.349 281.197 216.515 281.04 216.609L214.108 256.093C214.025 256.14 213.936 256.166 213.848 256.166Z" fill="#737373"/>
<path d="M213.848 219.896V198.433L280.775 160.058V180.412L213.848 219.896Z" fill="white"/>
<path d="M214.358 198.729V218.995L280.264 180.115V160.943L214.358 198.729ZM213.848 220.411C213.759 220.411 213.671 220.385 213.587 220.344C213.426 220.25 213.332 220.078 213.332 219.896V198.432C213.332 198.25 213.426 198.078 213.587 197.984L280.525 159.609C280.681 159.516 280.879 159.516 281.035 159.609C281.197 159.703 281.296 159.87 281.296 160.057V180.411C281.296 180.594 281.197 180.76 281.04 180.854L214.108 220.339C214.025 220.385 213.936 220.411 213.848 220.411Z" fill="#737373"/>
<path d="M213.846 291.406V269.943L147.492 231.312V252.115L213.846 291.406Z" fill="white"/>
<path d="M148.008 251.817L213.331 290.505V270.239L148.008 232.208V251.817ZM213.846 291.922C213.753 291.922 213.664 291.896 213.581 291.849L147.227 252.557C147.07 252.463 146.977 252.297 146.977 252.114V231.312C146.977 231.13 147.076 230.958 147.232 230.864C147.393 230.776 147.591 230.776 147.747 230.864L214.102 269.5C214.263 269.588 214.357 269.76 214.357 269.942V291.406C214.357 291.588 214.258 291.765 214.102 291.854C214.018 291.901 213.93 291.922 213.846 291.922Z" fill="#737373"/>
<path d="M213.846 255.651V234.188L147.492 195.558V216.354L213.846 255.651Z" fill="white"/>
<path d="M148.008 216.063L213.331 254.75V234.484L148.008 196.453V216.063ZM213.846 256.167C213.753 256.167 213.664 256.141 213.581 256.094L147.227 216.802C147.07 216.708 146.977 216.536 146.977 216.354V195.557C146.977 195.375 147.076 195.203 147.232 195.109C147.393 195.016 147.591 195.016 147.747 195.109L214.102 233.745C214.263 233.833 214.357 234.005 214.357 234.188V255.651C214.357 255.833 214.258 256.01 214.102 256.099C214.018 256.146 213.93 256.167 213.846 256.167Z" fill="#737373"/>
<path d="M213.846 184.141V162.672L147.492 124.042V144.844L213.846 184.141Z" fill="white"/>
<path d="M148.008 144.552L213.331 183.234V162.974L148.008 124.942V144.552ZM213.846 184.656C213.753 184.656 213.664 184.63 213.581 184.583L147.227 145.291C147.07 145.198 146.977 145.026 146.977 144.843V124.041C146.977 123.859 147.076 123.687 147.232 123.599C147.393 123.505 147.591 123.505 147.747 123.599L214.102 162.229C214.258 162.323 214.357 162.494 214.357 162.677V184.14C214.357 184.323 214.258 184.494 214.102 184.588C214.018 184.63 213.93 184.656 213.846 184.656Z" fill="#737373"/>
<path d="M427.148 181.677L360.768 219.959L294.68 181.453L361.513 142.526L427.148 181.677Z" fill="white"/>
<mask id="mask10_1497_238" style="mask-type:luminance" maskUnits="userSpaceOnUse" x="293" y="141" width="135" height="81">
<path d="M293.859 141.094H427.792V221.094H293.859V141.094Z" fill="white"/>
</mask>
<g mask="url(#mask10_1497_238)">
<path d="M295.71 181.453L360.767 219.365L426.132 181.672L361.512 143.125L295.71 181.453ZM360.767 220.474C360.678 220.474 360.59 220.453 360.507 220.406L294.423 181.896C294.267 181.807 294.168 181.635 294.168 181.453C294.168 181.271 294.267 181.099 294.423 181.005L361.262 142.083C361.418 141.99 361.621 141.99 361.783 142.089L427.413 181.234C427.569 181.328 427.668 181.5 427.663 181.682C427.663 181.865 427.569 182.031 427.408 182.125L361.027 220.406C360.944 220.453 360.861 220.474 360.767 220.474Z" fill="#737373"/>
</g>
<path d="M360.781 240.932V219.64L427.182 181.567V201.76L360.781 240.932Z" fill="white"/>
<mask id="mask11_1497_238" style="mask-type:luminance" maskUnits="userSpaceOnUse" x="359" y="179" width="69" height="64">
<path d="M359.191 179.761H427.79V242.427H359.191V179.761Z" fill="white"/>
</mask>
<g mask="url(#mask11_1497_238)">
<path d="M361.297 219.938V240.032L426.667 201.464V182.453L361.297 219.938ZM360.781 241.448C360.693 241.448 360.604 241.422 360.526 241.381C360.365 241.287 360.266 241.115 360.266 240.933V219.641C360.266 219.453 360.365 219.287 360.526 219.193L426.927 181.12C427.083 181.032 427.281 181.032 427.438 181.12C427.594 181.214 427.698 181.386 427.698 181.568V201.761C427.698 201.943 427.599 202.11 427.443 202.203L361.042 241.375C360.964 241.422 360.87 241.448 360.781 241.448Z" fill="#737373"/>
</g>
<path d="M360.78 240.932V219.641L294.957 181.312V201.953L360.78 240.932Z" fill="white"/>
<path d="M295.469 201.662L360.266 240.032V219.938L295.469 182.214V201.662ZM360.776 241.448C360.688 241.448 360.599 241.422 360.516 241.375L294.693 202.396C294.531 202.302 294.438 202.131 294.438 201.953V181.318C294.438 181.136 294.536 180.959 294.698 180.87C294.859 180.776 295.057 180.782 295.214 180.87L361.036 219.198C361.193 219.292 361.292 219.459 361.292 219.641V240.933C361.292 241.12 361.193 241.287 361.031 241.381C360.953 241.422 360.865 241.448 360.776 241.448Z" fill="#737373"/>
<path d="M427.148 146.203L360.768 184.49L294.68 145.979L361.513 107.058L427.148 146.203Z" fill="white"/>
<mask id="mask12_1497_238" style="mask-type:luminance" maskUnits="userSpaceOnUse" x="293" y="106" width="135" height="80">
<path d="M293.859 106.427H427.792V185.093H293.859V106.427Z" fill="white"/>
</mask>
<g mask="url(#mask12_1497_238)">
<path d="M295.71 145.979L360.767 183.896L426.132 146.198L361.512 107.656L295.71 145.979ZM360.767 185.005C360.678 185.005 360.59 184.984 360.507 184.932L294.423 146.427C294.267 146.333 294.168 146.166 294.168 145.979C294.168 145.797 294.267 145.625 294.423 145.536L361.262 106.614C361.418 106.515 361.621 106.521 361.783 106.614L427.413 145.765C427.569 145.859 427.668 146.026 427.663 146.208C427.663 146.396 427.569 146.562 427.408 146.651L361.027 184.937C360.944 184.984 360.861 185.005 360.767 185.005Z" fill="#737373"/>
</g>
<path d="M360.781 205.458V184.167L427.182 146.094V166.286L360.781 205.458Z" fill="white"/>
<mask id="mask13_1497_238" style="mask-type:luminance" maskUnits="userSpaceOnUse" x="359" y="145" width="69" height="62">
<path d="M359.191 145.094H427.79V206.427H359.191V145.094Z" fill="white"/>
</mask>
<g mask="url(#mask13_1497_238)">
<path d="M361.297 184.469V204.558L426.667 165.995V146.985L361.297 184.469ZM360.781 205.974C360.693 205.974 360.604 205.953 360.526 205.907C360.365 205.818 360.266 205.646 360.266 205.459V184.167C360.266 183.985 360.365 183.813 360.526 183.719L426.927 145.651C427.083 145.558 427.281 145.558 427.438 145.651C427.594 145.745 427.698 145.912 427.698 146.094V166.287C427.698 166.469 427.599 166.641 427.443 166.735L361.042 205.901C360.964 205.953 360.87 205.974 360.781 205.974Z" fill="#737373"/>
</g>
<path d="M360.78 205.458V184.167L294.957 145.844V166.479L360.78 205.458Z" fill="white"/>
<path d="M295.469 166.188L360.266 204.558V184.469L295.469 146.74V166.188ZM360.776 205.979C360.688 205.979 360.599 205.953 360.516 205.907L294.693 166.922C294.531 166.834 294.438 166.662 294.438 166.479V145.849C294.438 145.662 294.536 145.49 294.698 145.401C294.859 145.308 295.057 145.308 295.214 145.401L361.036 183.724C361.193 183.818 361.292 183.985 361.292 184.172V205.464C361.292 205.646 361.193 205.818 361.031 205.912C360.953 205.953 360.865 205.979 360.776 205.979Z" fill="#737373"/>
<path d="M427.148 110.735L360.768 149.016L294.68 110.511L361.513 71.5889L427.148 110.735Z" fill="white"/>
<mask id="mask14_1497_238" style="mask-type:luminance" maskUnits="userSpaceOnUse" x="293" y="70" width="135" height="81">
<path d="M293.859 70.4268H427.792V150.427H293.859V70.4268Z" fill="white"/>
</mask>
<g mask="url(#mask14_1497_238)">
<path d="M295.71 110.51L360.767 148.421L426.132 110.729L361.512 72.1817L295.71 110.51ZM360.767 149.536C360.678 149.536 360.59 149.51 360.507 149.463L294.423 110.952C294.267 110.864 294.168 110.692 294.168 110.51C294.168 110.327 294.267 110.156 294.423 110.067L361.262 71.14C361.418 71.0462 361.621 71.0462 361.783 71.1452L427.413 110.291C427.569 110.385 427.668 110.557 427.663 110.739C427.663 110.921 427.569 111.088 427.408 111.182L361.027 149.468C360.944 149.51 360.861 149.536 360.767 149.536Z" fill="#737373"/>
</g>
<path d="M360.781 169.99V148.698L427.182 110.625V130.818L360.781 169.99Z" fill="white"/>
<mask id="mask15_1497_238" style="mask-type:luminance" maskUnits="userSpaceOnUse" x="359" y="109" width="69" height="63">
<path d="M359.191 109.094H427.79V171.76H359.191V109.094Z" fill="white"/>
</mask>
<g mask="url(#mask15_1497_238)">
<path d="M361.297 148.995V169.089L426.667 130.526V111.516L361.297 148.995ZM360.781 170.505C360.693 170.505 360.604 170.479 360.526 170.438C360.365 170.344 360.266 170.172 360.266 169.984V148.698C360.266 148.51 360.365 148.344 360.526 148.25L426.927 110.177C427.083 110.089 427.281 110.089 427.438 110.182C427.594 110.271 427.698 110.443 427.698 110.625V130.818C427.698 131 427.599 131.167 427.443 131.26L361.042 170.432C360.964 170.479 360.87 170.505 360.781 170.505Z" fill="#737373"/>
</g>
<path d="M360.78 169.99V148.698L294.957 110.375V131.005L360.78 169.99Z" fill="white"/>
<path d="M295.469 130.718L360.266 169.088V148.994L295.469 111.271V130.718ZM360.776 170.505C360.688 170.505 360.599 170.479 360.516 170.432L294.693 131.453C294.531 131.359 294.438 131.192 294.438 131.01V110.375C294.438 110.192 294.536 110.021 294.698 109.927C294.859 109.838 295.057 109.838 295.214 109.927L361.036 148.255C361.193 148.343 361.292 148.515 361.292 148.698V169.989C361.292 170.177 361.193 170.349 361.031 170.437C360.953 170.484 360.865 170.505 360.776 170.505Z" fill="#737373"/>
<path d="M427.148 75.2653L360.768 113.547L294.68 75.0361L361.513 36.1143L427.148 75.2653Z" fill="white"/>
<mask id="mask16_1497_238" style="mask-type:luminance" maskUnits="userSpaceOnUse" x="293" y="34" width="135" height="81">
<path d="M293.859 34.4268H427.792V114.427H293.859V34.4268Z" fill="white"/>
</mask>
<g mask="url(#mask16_1497_238)">
<path d="M295.71 75.0365L360.767 112.953L426.132 75.2552L361.512 36.7136L295.71 75.0365ZM360.767 114.063C360.678 114.063 360.59 114.042 360.507 113.995L294.423 75.4844C294.267 75.3906 294.168 75.224 294.168 75.0365C294.168 74.8542 294.267 74.6875 294.423 74.5938L361.262 35.6719C361.418 35.5729 361.621 35.5781 361.783 35.6719L427.413 74.8229C427.569 74.9167 427.668 75.0833 427.663 75.2708C427.663 75.4531 427.569 75.6198 427.408 75.7083L361.027 113.995C360.944 114.042 360.861 114.063 360.767 114.063Z" fill="#737373"/>
</g>
<path d="M360.781 134.516V113.224L427.182 75.1562V95.3438L360.781 134.516Z" fill="white"/>
<mask id="mask17_1497_238" style="mask-type:luminance" maskUnits="userSpaceOnUse" x="359" y="74" width="69" height="62">
<path d="M359.191 74.4268H427.79V135.76H359.191V74.4268Z" fill="white"/>
</mask>
<g mask="url(#mask17_1497_238)">
<path d="M361.297 113.521V133.614L426.667 95.0518V76.0413L361.297 113.521ZM360.781 135.031C360.693 135.031 360.604 135.01 360.526 134.963C360.365 134.875 360.266 134.703 360.266 134.521V113.224C360.266 113.041 360.365 112.869 360.526 112.776L426.927 74.708C427.083 74.6143 427.281 74.6143 427.438 74.708C427.594 74.8018 427.698 74.9684 427.698 75.1507V95.3486C427.698 95.5309 427.599 95.6976 427.443 95.7913L361.042 134.963C360.964 135.01 360.87 135.031 360.781 135.031Z" fill="#737373"/>
</g>
<path d="M360.78 134.516V113.224L294.957 74.9014V95.5368L360.78 134.516Z" fill="white"/>
<path d="M295.469 95.2445L360.266 133.614V113.521L295.469 75.8018V95.2445ZM360.776 135.036C360.688 135.036 360.599 135.01 360.516 134.963L294.693 95.9841C294.531 95.8903 294.438 95.7184 294.438 95.5413V74.9007C294.438 74.7184 294.536 74.5518 294.698 74.458C294.859 74.3643 295.057 74.3643 295.214 74.458L361.036 112.786C361.193 112.875 361.292 113.047 361.292 113.229V134.521C361.292 134.703 361.193 134.875 361.031 134.963C360.953 135.01 360.865 135.036 360.776 135.036Z" fill="#737373"/>
<mask id="mask18_1497_238" style="mask-type:luminance" maskUnits="userSpaceOnUse" x="293" y="0" width="135" height="79">
<path d="M293.859 0H427.193V78.4271H293.859V0Z" fill="white"/>
</mask>
<g mask="url(#mask18_1497_238)">
<path d="M427.152 39.7917L360.772 78.0729L294.684 39.5677L361.522 0.640625L427.152 39.7917Z" fill="white"/>
</g>
<mask id="mask19_1497_238" style="mask-type:luminance" maskUnits="userSpaceOnUse" x="293" y="0" width="135" height="80">
<path d="M293.859 0H427.792V79.7604H293.859V0Z" fill="white"/>
</mask>
<g mask="url(#mask19_1497_238)">
<path d="M295.704 39.5674L360.767 77.4841L426.132 39.7861L361.512 1.23927L295.704 39.5674ZM360.767 78.5882C360.678 78.5882 360.59 78.5674 360.507 78.5205L294.423 40.0101C294.267 39.9216 294.168 39.7497 294.168 39.5674C294.168 39.3851 294.267 39.2132 294.423 39.1247L361.262 0.197605C361.423 0.103854 361.621 0.103854 361.783 0.202813L427.413 39.3486C427.569 39.4424 427.668 39.6143 427.663 39.7966C427.663 39.9789 427.569 40.1507 427.408 40.2393L361.027 78.5205C360.944 78.5674 360.855 78.5882 360.767 78.5882Z" fill="#737373"/>
</g>
<path d="M360.781 99.0472V77.7555L427.182 39.6826V59.8753L360.781 99.0472Z" fill="white"/>
<mask id="mask20_1497_238" style="mask-type:luminance" maskUnits="userSpaceOnUse" x="359" y="38" width="69" height="62">
<path d="M359.191 38.4268H427.79V99.7601H359.191V38.4268Z" fill="white"/>
</mask>
<g mask="url(#mask20_1497_238)">
<path d="M361.297 78.0518V98.1455L426.667 59.5778V40.5726L361.297 78.0518ZM360.781 99.5622C360.693 99.5622 360.604 99.5413 360.526 99.4945C360.365 99.4007 360.266 99.2288 360.266 99.0466V77.7549C360.266 77.5726 360.365 77.4007 360.526 77.307L426.927 39.2393C427.083 39.1455 427.281 39.1455 427.438 39.2393C427.594 39.3278 427.698 39.4997 427.698 39.682V59.8747C427.698 60.057 427.599 60.2236 427.443 60.3174L361.042 99.4893C360.964 99.5361 360.87 99.5622 360.781 99.5622Z" fill="#737373"/>
</g>
<path d="M360.78 99.0472V77.7555L294.957 39.4326V60.068L360.78 99.0472Z" fill="white"/>
<path d="M295.473 59.7708L360.27 98.1406V78.0521L295.473 40.3229V59.7708ZM360.78 99.5625C360.686 99.5625 360.598 99.5365 360.52 99.4896L294.691 60.5104C294.535 60.4167 294.441 60.25 294.441 60.0625V39.4323C294.441 39.2448 294.54 39.0729 294.702 38.9844C294.858 38.8906 295.056 38.8906 295.212 38.9844L361.04 77.3125C361.197 77.401 361.296 77.5729 361.296 77.7552V99.0469C361.296 99.2292 361.197 99.401 361.035 99.4948C360.957 99.5365 360.868 99.5625 360.78 99.5625Z" fill="#737373"/>
<path d="M175.214 350.609C175.083 350.609 174.953 350.562 174.849 350.458L173.078 348.687C172.875 348.484 172.875 348.161 173.078 347.958C173.281 347.755 173.604 347.755 173.807 347.958L175.578 349.729C175.781 349.932 175.781 350.255 175.578 350.458C175.479 350.562 175.344 350.609 175.214 350.609Z" fill="#737373"/>
<path d="M181.905 357.302C181.775 357.302 181.645 357.25 181.54 357.151L179.77 355.381C179.572 355.183 179.572 354.854 179.77 354.651C179.973 354.453 180.301 354.453 180.499 354.651L182.27 356.422C182.473 356.625 182.473 356.953 182.27 357.151C182.171 357.25 182.04 357.302 181.905 357.302Z" fill="#737373"/>
<path d="M173.443 357.302C173.312 357.302 173.182 357.25 173.078 357.151C172.875 356.953 172.875 356.625 173.078 356.422L174.849 354.651C175.052 354.453 175.38 354.453 175.578 354.651C175.781 354.854 175.781 355.183 175.578 355.381L173.807 357.151C173.708 357.25 173.573 357.302 173.443 357.302Z" fill="#737373"/>
<path d="M180.134 350.609C180.004 350.609 179.868 350.562 179.77 350.458C179.572 350.255 179.572 349.932 179.77 349.729L181.54 347.958C181.743 347.755 182.072 347.755 182.27 347.958C182.473 348.161 182.473 348.484 182.27 348.687L180.499 350.458C180.4 350.562 180.264 350.609 180.134 350.609Z" fill="#737373"/>
</svg>
