<svg xmlns="http://www.w3.org/2000/svg" xmlns:xlink="http://www.w3.org/1999/xlink" width="500" zoomAndPan="magnify" viewBox="0 0 375 374.999991" height="500" preserveAspectRatio="xMidYMid meet" version="1.0"><defs><clipPath id="6d34137d82"><path d="M 24.054688 91 L 196.554688 91 L 196.554688 175 L 24.054688 175 Z M 24.054688 91 " clip-rule="nonzero"/></clipPath><clipPath id="0210797517"><path d="M 188 45.5625 L 349 45.5625 L 349 251 L 188 251 Z M 188 45.5625 " clip-rule="nonzero"/></clipPath><clipPath id="f69849a77e"><path d="M 103 235 L 275 235 L 275 337.3125 L 103 337.3125 Z M 103 235 " clip-rule="nonzero"/></clipPath><clipPath id="befbcf0894"><path d="M 42.425781 171 L 195 171 L 195 200 L 42.425781 200 Z M 42.425781 171 " clip-rule="nonzero"/></clipPath><clipPath id="faa1aad111"><path d="M 52 189 L 169 189 L 169 337.3125 L 52 337.3125 Z M 52 189 " clip-rule="nonzero"/></clipPath></defs><g clip-path="url(#6d34137d82)"><path fill="#000000" d="M 51.566406 194.761719 C 45.375 194.761719 40.339844 189.730469 40.339844 183.542969 C 40.339844 177.355469 45.375 172.320312 51.566406 172.320312 L 52.527344 172.320312 L 52.527344 140.460938 C 52.527344 113.191406 82.097656 91.003906 118.445312 91.003906 C 154.796875 91.003906 184.367188 113.191406 184.367188 140.460938 L 184.367188 172.320312 L 185.210938 172.320312 C 191.292969 172.320312 196.378906 177.308594 196.550781 183.542969 C 196.550781 189.730469 191.464844 194.761719 185.210938 194.761719 L 181.398438 194.761719 L 170.683594 271.132812 C 169.5625 279.765625 162.152344 286.269531 153.445312 286.269531 L 96.640625 286.269531 C 95.933594 286.886719 95.199219 287.472656 94.421875 288.007812 C 94.253906 288.121094 82.941406 295.671875 82.941406 295.671875 C 78.550781 298.691406 73.46875 300.257812 68.257812 300.257812 C 66.613281 300.257812 64.953125 300.101562 63.300781 299.785156 C 56.40625 298.464844 50.460938 294.523438 46.5625 288.6875 C 45.035156 286.410156 43.890625 283.929688 43.15625 281.3125 C 41.761719 276.359375 38.886719 272.0625 34.847656 268.878906 C 32.714844 267.203125 30.859375 265.195312 29.332031 262.914062 C 25.429688 257.078125 24.0625 250.078125 25.480469 243.203125 C 26.898438 236.332031 30.921875 230.4375 36.777344 226.644531 L 48.105469 219.078125 C 51.316406 216.992188 54.769531 215.734375 58.363281 215.199219 L 55.496094 194.761719 Z M 177.148438 140.460938 C 177.148438 117.167969 150.816406 98.21875 118.445312 98.21875 C 86.078125 98.21875 59.742188 117.167969 59.742188 140.460938 L 59.742188 163.652344 C 61.304688 162.507812 63.03125 161.882812 64.628906 161.59375 C 64.050781 158.421875 63.867188 154.195312 65.636719 150.355469 C 67.230469 146.890625 70.195312 144.355469 74.199219 143.027344 C 82.070312 140.425781 88.070312 143.832031 91.996094 148.289062 C 93.257812 146.382812 95.160156 144.425781 97.988281 142.628906 C 103.695312 139.011719 108.984375 139.683594 112.957031 141.636719 C 113.746094 137.339844 115.613281 132.253906 119.976562 129.847656 C 124.578125 127.316406 128.796875 126.785156 132.503906 128.292969 C 134.851562 129.242188 136.53125 130.832031 137.699219 132.378906 C 141.410156 130.234375 146.550781 129.121094 151.203125 133.132812 C 155.082031 136.472656 156.179688 140.421875 156.015625 143.898438 C 159.753906 143.4375 163.835938 143.992188 166.722656 147.011719 C 169.703125 150.136719 171.160156 153.9375 170.832031 157.714844 C 170.789062 158.226562 170.710938 158.730469 170.605469 159.222656 C 172.859375 159.691406 175.167969 160.75 177.148438 162.691406 Z M 161.96875 160.070312 C 162.960938 159.339844 163.539062 158.308594 163.644531 157.089844 C 163.789062 155.40625 163.03125 153.59375 161.503906 151.996094 C 159.546875 149.945312 154.464844 151.382812 152.320312 152.386719 C 150.863281 153.085938 149.128906 152.726562 148.0625 151.523438 C 146.996094 150.316406 146.859375 148.550781 147.722656 147.191406 C 147.847656 146.992188 150.773438 142.285156 146.492188 138.597656 C 143.480469 135.996094 139.582031 139.855469 139.160156 140.289062 C 138.28125 141.203125 136.976562 141.574219 135.742188 141.300781 C 134.503906 141.023438 133.496094 140.09375 133.101562 138.890625 C 132.832031 138.058594 131.703125 135.730469 129.761719 134.96875 C 128.164062 134.34375 126.046875 134.746094 123.460938 136.167969 C 120.3125 137.90625 119.511719 145.183594 119.621094 148.4375 C 119.671875 149.984375 118.71875 151.386719 117.265625 151.925781 C 115.816406 152.472656 114.171875 152.011719 113.195312 150.8125 C 112.367188 149.785156 107.921875 144.886719 101.851562 148.726562 C 96.226562 152.292969 96.742188 156.117188 96.800781 156.457031 C 97.246094 158.308594 96.167969 160.191406 94.34375 160.742188 C 92.515625 161.3125 90.578125 160.34375 89.910156 158.554688 C 89.730469 158.078125 85.4375 146.90625 76.46875 149.878906 C 74.359375 150.578125 72.960938 151.714844 72.199219 153.355469 C 70.582031 156.839844 72 162.027344 72.679688 163.71875 C 73.171875 164.929688 72.960938 166.304688 72.148438 167.328125 C 71.335938 168.351562 70.003906 168.835938 68.734375 168.640625 C 67.847656 168.496094 65.011719 168.386719 63.660156 169.734375 C 63.03125 170.363281 62.738281 171.3125 62.640625 172.34375 L 174.296875 172.34375 C 174.324219 171.65625 174.097656 170.503906 172.925781 168.808594 C 170.34375 165.070312 165.660156 166.285156 165.167969 166.421875 C 163.480469 166.945312 161.679688 166.164062 160.886719 164.59375 C 160.097656 163.027344 160.554688 161.113281 161.96875 160.070312 Z M 105.207031 270.800781 C 104.722656 273.726562 103.734375 276.507812 102.359375 279.054688 L 153.445312 279.054688 C 158.535156 279.054688 162.871094 275.25 163.53125 270.167969 L 174.109375 194.761719 L 62.785156 194.761719 L 65.636719 215.109375 C 66.527344 215.222656 67.417969 215.378906 68.300781 215.585938 C 75.234375 217.199219 81.242188 221.535156 84.789062 227.484375 C 86.007812 229.527344 86.9375 231.722656 87.550781 234.003906 C 88.84375 238.800781 91.609375 242.941406 95.546875 245.96875 C 97.421875 247.410156 99.09375 249.109375 100.519531 251.019531 C 104.65625 256.566406 106.363281 263.78125 105.207031 270.800781 Z M 40.789062 255.257812 C 37.003906 249.597656 35.628906 242.835938 36.84375 236.164062 C 34.738281 238.574219 33.214844 241.441406 32.550781 244.664062 C 31.527344 249.628906 32.511719 254.6875 35.328125 258.902344 C 36.433594 260.550781 37.773438 262 39.308594 263.210938 C 44.558594 267.34375 48.289062 272.929688 50.101562 279.355469 C 50.628906 281.242188 51.457031 283.03125 52.5625 284.679688 C 55.378906 288.894531 59.675781 291.746094 64.660156 292.703125 C 67.890625 293.320312 71.125 293.007812 74.15625 291.984375 C 67.523438 290.550781 61.804688 286.695312 58.019531 281.03125 C 56.5 278.757812 55.351562 276.277344 54.613281 273.660156 C 53.21875 268.703125 50.34375 264.402344 46.304688 261.226562 C 44.171875 259.546875 42.3125 257.539062 40.789062 255.257812 Z M 52.203125 225.015625 C 47.941406 227.777344 45.03125 232.035156 44.007812 237.003906 C 42.984375 241.96875 43.972656 247.03125 46.792969 251.246094 C 47.890625 252.894531 49.230469 254.34375 50.769531 255.550781 C 56.015625 259.683594 59.746094 265.269531 61.558594 271.699219 C 62.09375 273.589844 62.917969 275.378906 64.019531 277.023438 C 66.835938 281.242188 71.132812 284.085938 76.117188 285.046875 C 81.09375 286 86.144531 284.945312 90.328125 282.066406 C 94.417969 279.25 97.242188 274.714844 98.082031 269.625 C 98.925781 264.527344 97.703125 259.316406 94.734375 255.332031 C 93.707031 253.953125 92.5 252.726562 91.148438 251.6875 C 85.945312 247.683594 82.292969 242.21875 80.582031 235.878906 C 80.140625 234.234375 79.46875 232.652344 78.589844 231.175781 C 76.042969 226.90625 71.695312 223.785156 66.664062 222.613281 C 65.203125 222.273438 63.722656 222.101562 62.253906 222.101562 C 58.667969 222.101562 55.15625 223.105469 52.203125 225.015625 Z M 185.210938 187.546875 C 187.445312 187.546875 189.335938 185.710938 189.335938 183.644531 C 189.273438 181.378906 187.421875 179.535156 185.210938 179.535156 L 176.507812 179.535156 C 176.367188 179.5625 59.226562 179.5625 59.226562 179.5625 C 59.089844 179.535156 51.566406 179.535156 51.566406 179.535156 C 49.355469 179.535156 47.558594 181.332031 47.558594 183.542969 C 47.558594 185.75 49.355469 187.546875 51.566406 187.546875 Z M 185.210938 187.546875 " fill-opacity="1" fill-rule="nonzero"/></g><path fill="#212121" d="M 211.957031 279.648438 C 210.941406 279.648438 209.941406 279.324219 209.113281 278.710938 L 162.390625 244.128906 C 160.265625 242.558594 159.820312 239.5625 161.390625 237.4375 C 165.722656 231.582031 172.074219 227.765625 179.277344 226.6875 C 186.480469 225.609375 193.671875 227.40625 199.527344 231.738281 L 210.101562 239.566406 C 215.957031 243.898438 219.773438 250.253906 220.851562 257.457031 C 221.925781 264.664062 220.132812 271.855469 215.800781 277.710938 C 215.046875 278.730469 213.917969 279.410156 212.664062 279.597656 C 212.429688 279.632812 212.191406 279.648438 211.957031 279.648438 Z M 172.441406 239.671875 L 210.433594 267.789062 C 213.179688 260.558594 210.929688 252.078125 204.414062 247.253906 L 193.835938 239.425781 C 190.035156 236.613281 185.367188 235.449219 180.691406 236.148438 C 177.632812 236.605469 174.8125 237.820312 172.441406 239.671875 Z M 172.441406 239.671875 " fill-opacity="1" fill-rule="evenodd"/><g clip-path="url(#0210797517)"><path fill="#212121" d="M 209.609375 250.199219 C 208.621094 250.199219 207.625 249.890625 206.769531 249.257812 C 204.648438 247.6875 204.199219 244.695312 205.769531 242.570312 L 338.027344 63.796875 C 339.722656 61.503906 339.238281 58.261719 336.949219 56.566406 C 335.835938 55.742188 334.476562 55.402344 333.109375 55.609375 C 331.746094 55.8125 330.539062 56.535156 329.71875 57.648438 L 197.410156 236.488281 C 195.839844 238.613281 192.847656 239.0625 190.722656 237.488281 C 188.601562 235.917969 188.152344 232.921875 189.722656 230.800781 L 322.03125 51.957031 C 324.375 48.792969 327.804688 46.730469 331.695312 46.148438 C 335.589844 45.566406 339.476562 46.535156 342.636719 48.878906 C 349.164062 53.707031 350.546875 62.953125 345.714844 69.484375 L 213.457031 248.261719 C 212.519531 249.527344 211.074219 250.195312 209.609375 250.199219 Z M 209.609375 250.199219 " fill-opacity="1" fill-rule="evenodd"/></g><g clip-path="url(#f69849a77e)"><path fill="#212121" d="M 260.644531 337.289062 L 154.742188 337.289062 C 139.480469 337.289062 126.492188 331.921875 117.1875 321.765625 C 108.957031 312.785156 104.246094 300.6875 103.910156 287.695312 C 103.578125 274.71875 107.65625 262.414062 115.398438 253.042969 C 124.152344 242.445312 136.828125 236.429688 152.050781 235.648438 C 160.058594 235.234375 165.265625 235.496094 165.480469 235.507812 C 168.117188 235.648438 170.144531 237.898438 170.007812 240.535156 C 169.871094 243.171875 167.625 245.191406 164.984375 245.058594 C 164.851562 245.054688 159.949219 244.816406 152.542969 245.199219 C 124.988281 246.613281 112.972656 268.09375 113.46875 287.449219 C 113.96875 306.847656 127.09375 327.726562 154.742188 327.726562 L 260.644531 327.722656 C 262.417969 327.722656 263.984375 326.789062 264.832031 325.222656 C 265.230469 324.488281 266.011719 322.558594 264.660156 320.484375 C 259.988281 313.289062 245.355469 306.035156 223.191406 306.035156 C 212.261719 306.035156 197.375 304.933594 194.300781 295.414062 C 192.679688 290.386719 194.929688 284.589844 200.988281 278.191406 C 204.84375 274.117188 208.988281 271.113281 209.160156 270.988281 C 211.304688 269.441406 214.292969 269.925781 215.835938 272.070312 C 217.378906 274.210938 216.894531 277.199219 214.753906 278.746094 C 214.722656 278.769531 211.085938 281.414062 207.847656 284.855469 C 203.78125 289.179688 203.160156 291.730469 203.402344 292.476562 C 203.414062 292.515625 204.90625 296.46875 223.191406 296.46875 C 250.675781 296.46875 266.777344 306.183594 272.679688 315.273438 C 275.558594 319.703125 275.765625 325.125 273.238281 329.785156 C 270.726562 334.414062 265.902344 337.289062 260.644531 337.289062 Z M 260.644531 337.289062 " fill-opacity="1" fill-rule="evenodd"/></g><g clip-path="url(#befbcf0894)"><path fill="#212121" d="M 186.601562 199.542969 L 50.09375 199.542969 C 45.964844 199.542969 42.605469 196.183594 42.605469 192.054688 L 42.605469 179.257812 C 42.605469 175.128906 45.964844 171.769531 50.09375 171.769531 L 186.601562 171.769531 C 190.730469 171.769531 194.085938 175.128906 194.085938 179.257812 L 194.085938 192.054688 C 194.089844 196.183594 190.730469 199.542969 186.601562 199.542969 Z M 52.167969 189.980469 L 184.523438 189.980469 L 184.523438 181.332031 L 52.167969 181.332031 Z M 186.601562 181.332031 Z M 186.601562 181.332031 " fill-opacity="1" fill-rule="evenodd"/></g><g clip-path="url(#faa1aad111)"><path fill="#212121" d="M 164.132812 337.289062 L 72.5625 337.289062 C 66.421875 337.289062 61.300781 332.484375 60.902344 326.355469 L 52.429688 195.070312 C 52.261719 192.433594 54.257812 190.160156 56.894531 189.988281 C 59.527344 189.820312 61.800781 191.816406 61.972656 194.453125 L 70.445312 325.734375 C 70.519531 326.851562 71.449219 327.722656 72.5625 327.722656 L 164.128906 327.722656 C 166.769531 327.722656 168.910156 329.863281 168.910156 332.507812 C 168.910156 335.148438 166.773438 337.289062 164.132812 337.289062 Z M 164.132812 337.289062 " fill-opacity="1" fill-rule="evenodd"/></g><path fill="#212121" d="M 177.089844 236.828125 C 176.988281 236.828125 176.882812 236.828125 176.777344 236.820312 C 174.144531 236.648438 172.144531 234.375 172.316406 231.738281 L 174.722656 194.453125 C 174.890625 191.820312 177.167969 189.824219 179.800781 189.992188 C 182.4375 190.160156 184.433594 192.433594 184.265625 195.070312 L 181.855469 232.355469 C 181.695312 234.886719 179.589844 236.828125 177.089844 236.828125 Z M 177.089844 236.828125 " fill-opacity="1" fill-rule="evenodd"/><path fill="#212121" d="M 209.347656 172.464844 C 207.144531 172.464844 205.226562 170.957031 204.703125 168.816406 L 203.085938 162.1875 C 201.859375 157.15625 197.96875 153.265625 192.9375 152.039062 L 186.3125 150.421875 C 184.171875 149.898438 182.664062 147.980469 182.664062 145.773438 C 182.664062 143.570312 184.167969 141.652344 186.3125 141.128906 L 192.9375 139.511719 C 197.96875 138.285156 201.859375 134.394531 203.085938 129.363281 L 204.703125 122.734375 C 205.226562 120.59375 207.144531 119.085938 209.347656 119.085938 C 211.550781 119.085938 213.46875 120.59375 213.992188 122.734375 L 215.609375 129.363281 C 216.835938 134.394531 220.726562 138.285156 225.757812 139.511719 L 232.382812 141.128906 C 234.523438 141.652344 236.03125 143.570312 236.03125 145.773438 C 236.03125 147.980469 234.523438 149.898438 232.382812 150.421875 L 225.757812 152.039062 C 220.726562 153.265625 216.835938 157.15625 215.609375 162.1875 L 213.992188 168.816406 C 213.46875 170.957031 211.550781 172.464844 209.347656 172.464844 Z M 202.292969 145.773438 C 205.128906 147.589844 207.535156 149.996094 209.347656 152.828125 C 211.160156 149.996094 213.566406 147.589844 216.398438 145.773438 C 213.566406 143.960938 211.160156 141.554688 209.347656 138.71875 C 207.535156 141.554688 205.128906 143.960938 202.292969 145.773438 Z M 202.292969 145.773438 " fill-opacity="1" fill-rule="evenodd"/><path fill="#212121" d="M 162.140625 139.078125 C 159.933594 139.078125 158.015625 137.570312 157.492188 135.429688 L 156.210938 130.171875 C 155.324219 126.542969 152.519531 123.734375 148.890625 122.851562 L 143.636719 121.566406 C 141.496094 121.042969 139.988281 119.125 139.988281 116.921875 C 139.988281 114.71875 141.496094 112.796875 143.636719 112.277344 L 148.890625 110.992188 C 152.519531 110.105469 155.328125 107.300781 156.210938 103.671875 L 157.492188 98.414062 C 158.015625 96.273438 159.933594 94.765625 162.140625 94.765625 C 164.34375 94.765625 166.261719 96.273438 166.785156 98.414062 L 168.066406 103.671875 C 168.953125 107.300781 171.757812 110.109375 175.386719 110.992188 L 180.640625 112.277344 C 182.78125 112.796875 184.289062 114.714844 184.289062 116.921875 C 184.289062 119.125 182.78125 121.042969 180.640625 121.566406 L 175.386719 122.851562 C 171.757812 123.738281 168.953125 126.542969 168.066406 130.171875 L 166.785156 135.429688 C 166.261719 137.570312 164.34375 139.078125 162.140625 139.078125 Z M 158.28125 116.921875 C 159.742188 118.019531 161.042969 119.320312 162.140625 120.78125 C 163.238281 119.320312 164.535156 118.019531 165.996094 116.921875 C 164.535156 115.824219 163.238281 114.527344 162.140625 113.0625 C 161.039062 114.527344 159.742188 115.824219 158.28125 116.921875 Z M 158.28125 116.921875 " fill-opacity="1" fill-rule="evenodd"/><path fill="#212121" d="M 257.554688 285.789062 C 255.351562 285.789062 253.433594 284.28125 252.910156 282.140625 L 251.628906 276.882812 C 250.742188 273.253906 247.9375 270.449219 244.308594 269.5625 L 239.054688 268.28125 C 236.914062 267.757812 235.40625 265.835938 235.40625 263.632812 C 235.40625 261.429688 236.910156 259.511719 239.054688 258.988281 L 244.308594 257.703125 C 247.9375 256.820312 250.742188 254.011719 251.628906 250.382812 L 252.910156 245.128906 C 253.433594 242.984375 255.351562 241.476562 257.554688 241.476562 C 259.757812 241.476562 261.679688 242.984375 262.199219 245.128906 L 263.484375 250.382812 C 264.367188 254.011719 267.171875 256.820312 270.804688 257.703125 L 276.058594 258.988281 C 278.199219 259.507812 279.707031 261.429688 279.707031 263.632812 C 279.707031 265.835938 278.199219 267.757812 276.058594 268.28125 L 270.804688 269.5625 C 267.171875 270.449219 264.367188 273.253906 263.484375 276.882812 L 262.199219 282.140625 C 261.679688 284.28125 259.757812 285.789062 257.554688 285.789062 Z M 253.699219 263.632812 C 255.160156 264.734375 256.457031 266.03125 257.554688 267.492188 C 258.652344 266.03125 259.953125 264.734375 261.414062 263.632812 C 259.953125 262.535156 258.652344 261.238281 257.554688 259.777344 C 256.457031 261.238281 255.160156 262.535156 253.699219 263.632812 Z M 253.699219 263.632812 " fill-opacity="1" fill-rule="evenodd"/></svg>