<svg width="83" height="86" viewBox="0 0 83 86" fill="none" xmlns="http://www.w3.org/2000/svg">
<path d="M13.6504 40.754C14.3999 40.2925 15.2933 40.0218 16.2344 40.0218H37.1649V19.3984H18.1649C15.6762 19.3984 13.6504 21.437 13.6504 23.9375V40.754Z" fill="#2A6DFA"/>
<path d="M62.2416 40.754V23.9375C62.2416 21.437 60.2158 19.3984 57.7271 19.3984H39.5566V40.0218H59.6413C60.5987 40.0218 61.4759 40.2925 62.2416 40.754Z" fill="#2A6DFA"/>
<path d="M72.9468 55.6566V34.5399L72.1335 34.4922C68.0018 34.4922 64.6354 37.8365 64.6354 41.9608V45.4712C64.6354 48.2273 62.4239 50.516 59.6668 50.5288C59.6585 50.5288 59.6501 50.5288 59.6422 50.5288H16.2342C16.2263 50.5288 16.2185 50.5288 16.2106 50.5288C13.4619 50.516 11.2568 48.2337 11.2568 45.486V41.9608C11.2568 37.836 7.91193 34.4922 3.78521 34.4922H2.99347L2.94531 55.6566C2.94531 57.7585 4.66835 59.4786 6.77422 59.4786H7.34824V65.2276C7.34824 65.6056 7.65539 65.9122 8.03381 65.9122H10.268C10.6537 65.9122 10.9698 65.5967 10.9698 65.2109V59.4786H64.6993V65.2276C64.6993 65.6056 65.006 65.9122 65.3844 65.9122H67.6347C68.0136 65.9122 68.3208 65.6056 68.3208 65.2267V59.4786H69.1022C71.2243 59.4786 72.9468 57.7585 72.9468 55.6566Z" fill="#2A6DFA"/>
<path d="M16.2344 42.4141C14.8146 42.4141 13.6504 43.5606 13.6504 44.9937V45.5672C13.6504 46.9846 14.8146 48.1469 16.2344 48.1469H59.6425C61.0785 48.1469 62.2428 46.9846 62.2428 45.5672V44.9937C62.2428 43.5606 61.0785 42.4141 59.6425 42.4141H16.2344Z" fill="#2A6DFA"/>
<mask id="mask0_1600_1397" style="mask-type:luminance" maskUnits="userSpaceOnUse" x="0" y="0" width="15" height="15">
<path d="M0 0H14.2167V14.5205H0V0Z" fill="white"/>
</mask>
<g mask="url(#mask0_1600_1397)">
<path d="M4.93011 9.71209L6.90771 14.3465C6.97406 14.5023 7.21979 14.5023 7.28662 14.3465L9.26423 9.71209C9.2829 9.66737 9.32075 9.63149 9.36891 9.61183L14.0657 7.67796C14.22 7.61408 14.2245 7.41946 14.0731 7.35017L9.36547 5.20448C9.31927 5.18335 9.28389 5.14698 9.26669 5.10324L7.2881 0.120897C7.22421 -0.0402991 6.97013 -0.0402991 6.90624 0.120897L4.92765 5.10324C4.90996 5.14698 4.87458 5.18335 4.82838 5.20448L0.120754 7.35017C-0.0306137 7.41946 -0.0261907 7.61408 0.128126 7.67796L4.82543 9.61183C4.87359 9.63149 4.91094 9.66737 4.93011 9.71209Z" fill="#2A6DFA"/>
</g>
<path d="M69.925 11.0488C69.9732 11.069 70.0106 11.1049 70.0297 11.1496L72.0073 15.784C72.0737 15.9398 72.3194 15.9398 72.3857 15.784L74.3633 11.1496C74.3825 11.1049 74.4204 11.069 74.4685 11.0488L79.1653 9.11497C79.3196 9.05158 79.3241 8.85696 79.1727 8.78767L74.4651 6.64198C74.4189 6.62085 74.3835 6.58448 74.3658 6.54074L72.3877 1.5584C72.3238 1.3972 72.0697 1.3972 72.0058 1.5584L70.0273 6.54074C70.0096 6.58448 69.9742 6.62085 69.928 6.64198L65.2204 8.78767C65.069 8.85696 65.0734 9.05158 65.2277 9.11497L69.925 11.0488Z" fill="#2A6DFA"/>
<path d="M18.5567 76.7435C18.5105 76.7224 18.4751 76.6865 18.4579 76.6423L16.4793 71.66C16.4154 71.4988 16.1613 71.4988 16.0975 71.66L14.1189 76.6423C14.1012 76.6865 14.0658 76.7224 14.0196 76.7435L9.31197 78.8892C9.1611 78.9585 9.16503 79.1536 9.31934 79.217L14.0166 81.1509C14.0648 81.1706 14.1022 81.2069 14.1213 81.2511L16.0989 85.8855C16.1653 86.0418 16.411 86.0418 16.4778 85.8855L18.4554 81.2511C18.4741 81.2069 18.512 81.1706 18.5601 81.1509L23.2569 79.217C23.4113 79.1536 23.4157 78.9585 23.2643 78.8892L18.5567 76.7435Z" fill="#2A6DFA"/>
<path d="M82.8543 77.7722L78.1467 75.6265C78.1005 75.6053 78.0651 75.569 78.0479 75.5252L76.0693 70.5424C76.0055 70.3817 75.7514 70.3817 75.687 70.5424L73.7089 75.5252C73.6912 75.569 73.6558 75.6053 73.6096 75.6265L68.902 77.7722C68.7506 77.841 68.7551 78.0361 68.9094 78.0995L73.6062 80.0333C73.6548 80.0535 73.6922 80.0894 73.7114 80.1336L75.689 84.7685C75.7553 84.9243 76.001 84.9243 76.0674 84.7685L78.0455 80.1336C78.0642 80.0894 78.102 80.0535 78.1502 80.0333L82.847 78.0995C83.0013 78.0361 83.0057 77.841 82.8543 77.7722Z" fill="#2A6DFA"/>
</svg>
