<svg width="68" height="68" viewBox="0 0 68 68" fill="none" xmlns="http://www.w3.org/2000/svg">
<path d="M8.68164 54.1984V54.9794H28.9373V54.1984C28.9373 53.0336 27.9896 52.0859 26.8248 52.0859C24.9353 52.0859 12.6873 52.0859 10.7941 52.0859C9.62929 52.0859 8.68164 53.0336 8.68164 54.1984Z" fill="#2A6DFA"/>
<path d="M14.4688 49.1934V36.1719H10.3203L11.9479 49.1934H14.4688Z" fill="#2A6DFA"/>
<path d="M20.2552 0H17.3613C17.3613 6.09728 17.3613 47.1477 17.3613 49.1917H20.2552C20.2552 46.9251 20.2552 6.23677 20.2552 0Z" fill="#2A6DFA"/>
<path d="M5.78711 28.9375H14.468V33.2781H5.78711V28.9375Z" fill="#2A6DFA"/>
<path d="M23.1504 28.9375H50.6397V33.2781H23.1504V28.9375Z" fill="#2A6DFA"/>
<path d="M51.6275 10.5941L52.5159 12.2184L53.4042 10.5941C53.5662 10.2976 53.8097 10.0541 54.1063 9.89206L55.7305 9.00372L54.1063 8.11538C53.8097 7.95333 53.5658 7.70942 53.4038 7.41331L52.5159 5.78906L51.6275 7.41331C51.465 7.70942 51.2216 7.95333 50.925 8.11538L49.3008 9.00372L50.925 9.89206C51.2216 10.0541 51.4655 10.2976 51.6275 10.5941Z" fill="#2A6DFA"/>
<mask id="mask0_1600_1267" style="mask-type:luminance" maskUnits="userSpaceOnUse" x="53" y="28" width="15" height="16">
<path d="M53.4512 28.8672H68V43.4081H53.4512V28.8672Z" fill="white"/>
</mask>
<g mask="url(#mask0_1600_1267)">
<path d="M63.2249 28.9375H53.5312C53.5312 33.4878 53.5312 38.7765 53.5312 43.4057H67.9995V33.7121C67.9995 31.0796 65.8578 28.9375 63.2249 28.9375Z" fill="#2A6DFA"/>
</g>
<path d="M42.0587 15.6412L43.5438 18.3572L45.029 15.6412C45.1618 15.3986 45.3614 15.1989 45.6041 15.0661L48.3201 13.5809L45.6041 12.0954C45.3614 11.9625 45.1618 11.7633 45.029 11.5203L43.5438 8.80469L42.0587 11.5203C41.9259 11.7633 41.7262 11.963 41.4836 12.0954L38.7676 13.5809L41.4836 15.0661C41.7262 15.1989 41.9259 15.3986 42.0587 15.6412Z" fill="#2A6DFA"/>
<mask id="mask1_1600_1267" style="mask-type:luminance" maskUnits="userSpaceOnUse" x="53" y="46" width="15" height="4">
<path d="M53.4512 46.2969H68V49.2906H53.4512V46.2969Z" fill="white"/>
</mask>
<g mask="url(#mask1_1600_1267)">
<path d="M53.5312 46.2969H67.9995V49.1908H53.5312V46.2969Z" fill="#2A6DFA"/>
</g>
<mask id="mask2_1600_1267" style="mask-type:luminance" maskUnits="userSpaceOnUse" x="0" y="57" width="38" height="11">
<path d="M0 57.8438H37.6274V68.001H0V57.8438Z" fill="white"/>
</mask>
<g mask="url(#mask2_1600_1267)">
<path d="M33.7687 57.8672C32.4385 57.8672 5.30708 57.8672 3.84865 57.8672C1.72657 57.8672 0 59.5938 0 61.7154V67.9948H2.8939V66.5481C2.8939 65.7491 3.54168 65.1013 4.34064 65.1013C5.13961 65.1013 5.78738 65.7491 5.78738 66.5481V67.9948H8.68087V66.5481C8.68087 65.7491 9.32864 65.1013 10.1276 65.1013C10.9266 65.1013 11.5743 65.7491 11.5743 66.5481V67.9948H14.4682V66.5481C14.4682 65.7491 15.116 65.1013 15.915 65.1013C16.714 65.1013 17.3617 65.7491 17.3617 66.5481V67.9948H20.2552V66.5481C20.2552 65.7491 20.9034 65.1013 21.702 65.1013C22.5009 65.1013 23.1491 65.7491 23.1491 66.5481V67.9948H26.0426V66.5481C26.0426 65.7491 26.6904 65.1013 27.4893 65.1013C28.2883 65.1013 28.9361 65.7491 28.9361 66.5481V67.9948H31.8296V66.5481C31.8296 65.7491 32.4778 65.1013 33.2767 65.1013C34.0757 65.1013 34.7235 65.7491 34.7235 66.5481V67.9948H37.6169V61.7154C37.6174 59.5938 35.8908 57.8672 33.7687 57.8672Z" fill="#2A6DFA"/>
</g>
<path d="M50.6397 57.8742V36.1719H23.1504V49.1934H26.8253C29.5855 49.1934 31.8313 51.4391 31.8313 54.1993V54.9808H33.77C37.4875 54.9808 40.5121 58.005 40.5121 61.7229V68.0019H53.1544C56.7667 68.0019 59.8285 65.2992 60.2766 61.7154L60.5756 59.321H52.0865C51.2875 59.321 50.6397 58.6732 50.6397 57.8742Z" fill="#2A6DFA"/>
<mask id="mask3_1600_1267" style="mask-type:luminance" maskUnits="userSpaceOnUse" x="53" y="52" width="15" height="5">
<path d="M53.4512 52.0703H68V56.454H53.4512V52.0703Z" fill="white"/>
</mask>
<g mask="url(#mask3_1600_1267)">
<path d="M53.5312 52.0859H67.9995V56.4262H53.5312V52.0859Z" fill="#2A6DFA"/>
</g>
</svg>
