<svg width="57" height="68" viewBox="0 0 57 68" fill="none" xmlns="http://www.w3.org/2000/svg">
<mask id="mask0_1600_1349" style="mask-type:luminance" maskUnits="userSpaceOnUse" x="0" y="0" width="20" height="68">
<path d="M0 0H19.2693V67.3766H0V0Z" fill="white"/>
</mask>
<g mask="url(#mask0_1600_1349)">
<path d="M9.59223 27.0113C6.01713 27.0113 3.0895 24.0956 3.0895 20.5024C3.0895 16.9087 6.00271 13.9931 9.59223 13.9931C11.9169 13.9931 14.0796 15.2596 15.2271 17.2621H19.1849V6.82103C19.1849 6.09942 18.5963 5.51044 17.8755 5.51044H16.9484C15.536 5.51044 14.3296 4.61213 13.9326 3.27188C13.3589 1.3723 11.5639 0.046875 9.59223 0.046875C7.62098 0.046875 5.82601 1.3723 5.25227 3.27188C4.85522 4.61213 3.634 5.51044 2.23609 5.51044H1.30936C0.588574 5.51044 0 6.09942 0 6.82103V60.9418C0 61.6634 0.588574 62.2524 1.30936 62.2524H2.23609C3.64883 62.2524 4.85522 63.1507 5.25227 64.491C5.82601 66.3905 7.62098 67.716 9.59223 67.716C11.5639 67.716 13.3589 66.3905 13.9326 64.491C14.3296 63.1507 15.5509 62.2524 16.9484 62.2524H17.8755C18.5963 62.2524 19.1849 61.6634 19.1849 60.9418V23.7422H15.2271C14.0796 25.7596 11.9465 27.0113 9.59223 27.0113ZM10.5194 50.7655V54.6532C10.5194 55.1837 10.1075 55.5812 9.59223 55.5812C9.07738 55.5812 8.6655 55.1689 8.6655 54.6532V50.7655C6.95909 50.3532 5.67897 48.8071 5.67897 46.966C5.67897 44.8011 7.42987 43.0486 9.59223 43.0486C11.755 43.0486 13.5059 44.8011 13.5059 46.966C13.5059 48.8071 12.2406 50.3532 10.5194 50.7655Z" fill="#2A6DFA"/>
</g>
<path d="M11.0628 45.4912C11.111 45.5393 11.1563 45.5896 11.1996 45.6419C11.2428 45.6946 11.2832 45.7494 11.3206 45.8058C11.3585 45.8623 11.3935 45.9207 11.4257 45.9805C11.4574 46.0406 11.4866 46.102 11.5126 46.1646C11.5385 46.2276 11.5616 46.2914 11.581 46.3565C11.6007 46.4216 11.6172 46.4875 11.6308 46.5542C11.644 46.6209 11.6539 46.6881 11.6604 46.756C11.667 46.8236 11.6703 46.8915 11.6703 46.9595C11.6703 47.0275 11.667 47.0954 11.6604 47.163C11.6539 47.2305 11.644 47.2977 11.6308 47.3644C11.6172 47.4311 11.6007 47.497 11.581 47.5621C11.5616 47.6272 11.5385 47.691 11.5126 47.754C11.4866 47.817 11.4574 47.8784 11.4257 47.9381C11.3935 47.9983 11.3585 48.0563 11.3206 48.1132C11.2832 48.1696 11.2428 48.224 11.1996 48.2767C11.1563 48.3294 11.111 48.3797 11.0628 48.4278C11.015 48.4756 10.9644 48.5213 10.9121 48.5646C10.8593 48.6078 10.805 48.6482 10.7485 48.6861C10.6921 48.7236 10.6336 48.7586 10.5739 48.7907C10.5142 48.8228 10.4528 48.8517 10.3898 48.8776C10.3272 48.904 10.2634 48.9266 10.1983 48.9464C10.1332 48.9662 10.0673 48.9826 10.0006 48.9958C9.93427 49.009 9.86713 49.0193 9.79917 49.0259C9.73162 49.0325 9.66407 49.0358 9.59611 49.0358C9.52815 49.0358 9.46019 49.0325 9.39265 49.0259C9.3251 49.0193 9.25796 49.009 9.19124 48.9958C9.12451 48.9826 9.05902 48.9662 8.99395 48.9464C8.92887 48.9266 8.86503 48.904 8.80201 48.8776C8.73941 48.8517 8.67804 48.8228 8.61832 48.7907C8.55818 48.7586 8.50011 48.7236 8.44368 48.6861C8.38725 48.6482 8.33247 48.6078 8.28016 48.5646C8.22744 48.5213 8.17719 48.4756 8.129 48.4278C8.08123 48.3797 8.03551 48.3294 7.99267 48.2767C7.94943 48.224 7.90906 48.1696 7.87117 48.1132C7.83328 48.0563 7.79868 47.9983 7.76655 47.9381C7.73443 47.8784 7.70559 47.817 7.67965 47.754C7.6537 47.691 7.63063 47.6272 7.61086 47.5621C7.59109 47.497 7.57462 47.4311 7.56144 47.3644C7.54826 47.2977 7.53837 47.2305 7.53178 47.163C7.52478 47.0954 7.52148 47.0275 7.52148 46.9595C7.52148 46.8915 7.52478 46.8236 7.53178 46.756C7.53837 46.6881 7.54826 46.6209 7.56144 46.5542C7.57462 46.4875 7.59109 46.4216 7.61086 46.3565C7.63063 46.2914 7.6537 46.2276 7.67965 46.1646C7.70559 46.102 7.73443 46.0406 7.76655 45.9805C7.79868 45.9207 7.83328 45.8623 7.87117 45.8058C7.90906 45.7494 7.94943 45.6946 7.99267 45.6419C8.03551 45.5896 8.08123 45.5393 8.129 45.4912C8.17719 45.443 8.22744 45.3972 8.28016 45.3544C8.33247 45.3112 8.38725 45.2708 8.44368 45.2329C8.50011 45.195 8.55818 45.16 8.61832 45.1283C8.67804 45.0962 8.73941 45.0669 8.80201 45.041C8.86503 45.015 8.92887 44.992 8.99395 44.9722C9.05902 44.9524 9.12451 44.9359 9.19124 44.9228C9.25796 44.9096 9.3251 44.8997 9.39265 44.8931C9.46019 44.8861 9.52815 44.8828 9.59611 44.8828C9.66407 44.8828 9.73162 44.8861 9.79917 44.8931C9.86713 44.8997 9.93427 44.9096 10.0006 44.9228C10.0673 44.9359 10.1332 44.9524 10.1983 44.9722C10.2634 44.992 10.3272 45.015 10.3898 45.041C10.4528 45.0669 10.5142 45.0962 10.5739 45.1283C10.6336 45.16 10.6921 45.195 10.7485 45.2329C10.805 45.2708 10.8593 45.3112 10.9121 45.3544C10.9644 45.3972 11.015 45.443 11.0628 45.4912Z" fill="#2A6DFA"/>
<path d="M13.8448 18.614C13.0948 16.95 11.4321 15.875 9.60785 15.875C7.0332 15.875 4.95898 17.9661 4.95898 20.5284C4.95898 23.0911 7.04803 25.1822 9.60785 25.1822C11.4321 25.1822 13.0948 24.1072 13.8448 22.4428C13.9923 22.1042 14.3304 21.8979 14.669 21.8979H31.2352L31.7203 20.6318C31.9263 20.0869 32.206 19.586 32.5297 19.1441H20.2743C20.2154 19.1589 20.1713 19.1589 20.1124 19.1589C20.0535 19.1589 19.9946 19.1589 19.9505 19.1441H14.669C14.3012 19.1441 13.9923 18.9381 13.8448 18.614Z" fill="#2A6DFA"/>
<path d="M37.8406 18.5781H37.355C36.6634 18.5781 36.0164 18.74 35.4422 19.0197C35.4278 19.0197 35.4278 19.0345 35.413 19.0345C34.5155 19.4908 33.8095 20.2714 33.4269 21.273L32.7061 23.1726L27.1445 37.6786C27.3064 37.6637 27.4831 37.6637 27.6598 37.6637C29.2632 37.6637 31.1319 38.1057 32.5146 39.5192L33.618 32.0824C33.6917 31.5815 34.1625 31.2281 34.6774 31.3167C35.1774 31.39 35.5308 31.8616 35.4422 32.3769L34.0155 41.9641C34.7952 43.7311 36.3694 44.3646 37.605 44.3646C38.6495 44.3646 39.9296 43.9078 40.783 42.7002L39.047 31.1692C38.9733 30.6684 39.3118 30.1972 39.8118 30.1091C40.3271 30.0353 40.783 30.3739 40.8712 30.8747L42.2543 40.0493C43.8136 38.0468 46.1972 37.59 48.0803 37.6934L41.7835 21.3023C41.136 19.6235 39.6356 18.5781 37.8406 18.5781Z" fill="#2A6DFA"/>
<mask id="mask1_1600_1349" style="mask-type:luminance" maskUnits="userSpaceOnUse" x="48" y="6" width="1" height="8">
<path d="M48.4766 6.0625H48.6347V13.127H48.4766V6.0625Z" fill="white"/>
</mask>
<g mask="url(#mask1_1600_1349)">
<path d="M51.14 9.79508C51.39 10.2366 51.243 10.7964 50.8015 11.0616L50.1247 11.4591L51.0222 13.0201L55.274 10.5608L52.8464 6.36372C52.6702 6.06923 52.3023 5.98067 52.0227 6.14254L48.8302 7.99846C48.5357 8.17516 48.4476 8.54297 48.6094 8.82304L49.2124 9.85397L49.8892 9.4561C50.3307 9.19126 50.8896 9.35313 51.14 9.79508Z" fill="#2A6DFA"/>
</g>
<path d="M37.7661 12.9533C37.8398 12.9533 37.928 12.9385 38.0017 12.924L39.9289 12.4084C40.4293 12.2613 40.7086 11.7753 40.5764 11.2745C40.4293 10.7736 39.9437 10.494 39.4433 10.6266L37.5161 11.1418C37.0157 11.2893 36.7364 11.7753 36.8686 12.2757C36.9716 12.6885 37.3542 12.9533 37.7661 12.9533Z" fill="#2A6DFA"/>
<path d="M42.7252 14.6251C42.7986 14.6251 42.8871 14.6107 42.9604 14.5959L44.888 14.0802C45.388 13.9332 45.6677 13.4472 45.5351 12.9463C45.388 12.4459 44.9024 12.1658 44.4024 12.2984L42.4752 12.8137C41.9748 12.9611 41.6951 13.4472 41.8278 13.948C41.9456 14.3603 42.3278 14.6251 42.7252 14.6251Z" fill="#2A6DFA"/>
<path d="M52.3775 8.89892L53.3783 10.7293L54.3796 8.89892C54.5621 8.56489 54.8364 8.29058 55.1704 8.10771L57.0008 7.10684L55.1708 6.10598C54.8364 5.9231 54.5621 5.64879 54.3796 5.31476L53.3783 3.48438L52.3775 5.31476C52.1946 5.64879 51.9203 5.9231 51.5862 6.10598L49.7559 7.10684L51.5862 8.10771C51.9203 8.29058 52.1946 8.56489 52.3775 8.89892Z" fill="#2A6DFA"/>
<path d="M40.1567 14.9369L42.1996 18.6726L44.2429 14.9369C44.4258 14.6025 44.7001 14.3281 45.0346 14.1453L48.7703 12.1019L45.0346 10.059C44.7001 9.87615 44.4258 9.60184 44.2429 9.2674L42.1996 5.53125L40.1567 9.2674C39.9738 9.60184 39.6995 9.87615 39.3651 10.059L35.6289 12.1019L39.3651 14.1453C39.6995 14.3281 39.9738 14.6025 40.1567 14.9369Z" fill="#2A6DFA"/>
</svg>
