<svg width="70" height="73" viewBox="0 0 70 73" fill="none" xmlns="http://www.w3.org/2000/svg">
<path d="M20.8516 13.9766H23.8302V34.166H20.8516V13.9766Z" fill="#0077FF"/>
<path d="M28.298 39.9835C28.298 38.4936 27.1353 37.2812 25.7064 37.2812C23.4552 37.2812 21.2143 37.2812 18.9744 37.2812C17.5455 37.2812 16.3828 38.4936 16.3828 39.9835V40.3872H28.298V39.9835Z" fill="#0077FF"/>
<path d="M58.8269 32.2712L59.576 33.6996L60.3251 32.2712C60.4617 32.0108 60.6672 31.7965 60.9169 31.6542L62.2863 30.873L60.9169 30.0924C60.6672 29.9495 60.4617 29.7357 60.3251 29.4749L59.576 28.0469L58.8269 29.4749C58.6903 29.7357 58.4848 29.9495 58.2347 30.0924L56.8652 30.873L58.2347 31.6542C58.4848 31.7965 58.6903 32.0108 58.8269 32.2712Z" fill="#0077FF"/>
<path d="M49.6844 36.979L51.2134 39.8938L52.7419 36.979C52.8789 36.7182 53.084 36.5039 53.3341 36.3616L56.1299 34.7672L53.3341 33.1729C53.084 33.0305 52.8789 32.8162 52.7419 32.5554L51.2134 29.6406L49.6844 32.5554C49.5478 32.8162 49.3423 33.0305 49.0922 33.1729L46.2969 34.7672L49.0922 36.3616C49.3423 36.5039 49.5478 36.7182 49.6844 36.979Z" fill="#0077FF"/>
<path d="M25.3206 3.10597C25.3206 1.39319 23.9846 0 22.342 0C20.6994 0 19.3633 1.39319 19.3633 3.10597V10.8711H25.3206V3.10597Z" fill="#0077FF"/>
<mask id="mask0_1600_1232" style="mask-type:luminance" maskUnits="userSpaceOnUse" x="43" y="54" width="27" height="19">
<path d="M43.5039 54.2812H70.0004V72.9993H43.5039V54.2812Z" fill="white"/>
</mask>
<g mask="url(#mask0_1600_1232)">
<path d="M65.5333 63.6777H64.0442C63.2218 63.6777 62.5547 62.982 62.5547 62.1245C62.5547 57.8428 59.214 54.3594 55.1077 54.3594C52.4759 54.3594 50.092 55.7634 48.7303 58.1145C48.2851 58.8838 47.3075 59.099 46.6022 58.5846C45.6861 57.9165 44.6513 57.5589 43.6152 57.4825L47.3344 72.9956H65.5333C67.9974 72.9956 70.0016 70.9058 70.0016 68.3365C70.0016 65.763 68.0013 63.6777 65.5333 63.6777Z" fill="#0077FF"/>
</g>
<mask id="mask1_1600_1232" style="mask-type:luminance" maskUnits="userSpaceOnUse" x="0" y="51" width="45" height="22">
<path d="M0.332031 51.1484H44.2801V72.991H0.332031V51.1484Z" fill="white"/>
</mask>
<g mask="url(#mask1_1600_1232)">
<path d="M5.63056 51.25L0.417969 72.9922H7.44655V63.6743C7.44655 62.8168 8.11373 62.1211 8.93611 62.1211C9.75849 62.1211 10.4252 62.8168 10.4252 63.6743V72.9922H16.3826V59.0151C16.3826 58.1576 17.0498 57.4619 17.8722 57.4619C18.6945 57.4619 19.3617 58.1576 19.3617 59.0151V72.9922H25.3191V59.0151C25.3191 58.1576 25.9858 57.4619 26.8082 57.4619C27.6306 57.4619 28.2978 58.1576 28.2978 59.0151V72.9922H34.2551V63.6743C34.2551 62.8168 34.9219 62.1211 35.7447 62.1211C36.5671 62.1211 37.2338 62.8168 37.2338 63.6743V72.9922H44.2628L39.0498 51.25H5.63056Z" fill="#0077FF"/>
</g>
<path d="M44.6811 48.1436V48.0812C44.6811 45.5466 42.7038 43.4844 40.2727 43.4844C38.6245 43.4844 6.06835 43.4844 4.40842 43.4844C1.9777 43.4844 0 45.5466 0 48.0812V48.1436H4.46824C6.41689 48.1436 41.2511 48.1436 44.6811 48.1436Z" fill="#0077FF"/>
</svg>
